<svg height="24" viewBox="0 0 24 24" width="24" xmlns="http://www.w3.org/2000/svg"><path d="m9.0322 12.3706-.309 1.237c-.142.566-.524 1.043-1.046 1.304l-1.532.766c-1.044.522-1.808 1.474-2.092 2.607l-.553 2.215h16l-.554-2.215c-.283-1.133-1.047-2.085-2.092-2.607l-1.531-.766c-.522-.261-.905-.738-1.046-1.304l-.309-1.237m-1.268 1.2295c-.711.533-1.689.533-2.4 0-1.763-1.322-2.8-3.397-2.8-5.6v-.5c0-2.209 1.791-4 4-4s4 1.791 4 4v.5c0 2.203-1.038 4.278-2.8 5.6z" fill="none" stroke="#000" stroke-linecap="round" stroke-linejoin="round"/></svg>