<svg height="24" viewBox="0 0 24 24" width="24" xmlns="http://www.w3.org/2000/svg"><path d="m11.5 20.5c-4.971 0-9-4.029-9-9s4.029-9 9-9 9 4.029 9 9-4.029 9-9 9zm1.234-8.5645.1545.6933399c.0705.3180613.262.5850756.523.7320458l.7655.4291302c.5225.2928183.9045.8274081 1.046 1.4629696l.1790887.8051762c-1.0490552.8988784-2.4120986 1.4418383-3.9020887 1.4418383-1.4902579 0-2.8535234-.5431551-3.90265424-1.4423229l.17965424-.8046916c.1415-.6355615.5235-1.1701513 1.046-1.4629696l.7655-.4291302c.261-.1469702.4525-.4139845.523-.7320458l.1545-.6933399m3.234-2.1855v-.25c0-1.1045-.8955-2-2-2s-2 .8955-2 2v.25c0 1.1015.519 2.139 1.4 2.8.3555.2665.8445.2665 1.2 0 .881-.661 1.4-1.6985 1.4-2.8z" fill="none" stroke="#000" stroke-linecap="round" stroke-linejoin="round"/></svg>