<svg height="24" viewBox="0 0 24 24" width="24" xmlns="http://www.w3.org/2000/svg"><path d="m5.9263 12.5815-.303 1.366c-.077.342-.327.62-.66.732l-1.515.504c-.597.199-1.065.668-1.265 1.265l-.683 2.051h12l-.684-2.051c-.199-.597-.668-1.066-1.265-1.265l-1.514-.504c-.333-.112-.584-.39-.66-.732l-.304-1.369m-.6734.6168c-.532.405-1.268.405-1.8 0-1.323-1.008-2.1-2.577-2.1-4.24v-.455c0-1.657 1.343-3 3-3s3 1.343 3 3v.455c0 1.663-.777 3.232-2.1 4.24zm4.7666 4.3047h7.333l-.737-2.214c-.168-.503-.529-.919-1.004-1.157l-.79-.395c-.293-.147-.496-.428-.543-.753l-.106-.744m-2.6393.0027-.106.742c-.046.324-.249.606-.543.753l-.79.395c-.475.237-.835.653-1.003 1.156l-.077.229m4.5888-2.7623c-.445.331-1.055.331-1.5 0-1.101-.818-1.75-2.108-1.75-3.48v-.272c0-1.381 1.119-2.5 2.5-2.5s2.5 1.119 2.5 2.5v.272c0 1.372-.649 2.662-1.75 3.48z" fill="none" stroke="#000" stroke-linecap="round" stroke-linejoin="round"/></svg>