<svg height="24" viewBox="0 0 24 24" width="24" xmlns="http://www.w3.org/2000/svg"><path d="m10.167 15.5h6.833l-.359-1.437c-.091-.362-.313-.678-.623-.885l-.697-.464c-.207-.137-.354-.348-.415-.589l-.312-1.251m-2.1868-.001-.313 1.252c-.061.241-.208.452-.416.589l-.696.464c-.31.207-.532.523-.623.884l-.288 1.152m4.0284-3.9049c-.358.256-.841.256-1.199 0-.879-.627-1.401-1.641-1.401-2.72v-.089c0-1.105.896-2 2-2 1.105 0 2 .895 2 2v.089c0 1.079-.521 2.093-1.4 2.72zm-9.4194-.0694-.106.742c-.046.324-.249.606-.543.753l-.79.395c-.475.237-.835.653-1.003 1.156l-.738 2.214h9l-.738-2.214c-.168-.503-.529-.919-1.003-1.156l-.79-.395c-.294-.147-.497-.429-.543-.753l-.107-.745m-.5692.5157c-.445.331-1.055.331-1.5 0-1.101-.818-1.75-2.108-1.75-3.48v-.272c0-1.381 1.119-2.5 2.5-2.5s2.5 1.119 2.5 2.5v.272c0 1.372-.649 2.662-1.75 3.48zm10 2.7476h4.75l-.389-1.554c-.07-.283-.261-.521-.522-.652l-.376-.188c-.135-.067-.232-.191-.265-.338l-.162-.731m-1.5721.0006-.162.73c-.033.147-.13.271-.265.339l-.376.188c-.26.13-.452.368-.522.652l-.265 1.056m2.8263-2.6554c-.266.203-.635.203-.9 0-.662-.504-1.05-1.288-1.05-2.12v-.227c0-.829.672-1.5 1.5-1.5s1.5.671 1.5 1.5v.227c0 .832-.389 1.616-1.05 2.12z" fill="none" stroke="#000" stroke-linecap="round" stroke-linejoin="round"/></svg>