<svg height="24" viewBox="0 0 24 24" width="24" xmlns="http://www.w3.org/2000/svg"><path d="m11 13h1m-2.46446609-3.5v.5m4.67369679-7.91908154-.7092307 1.41908154-1-1-1 1.5-1-1.5-1 1-.70943856-1.41899122m1.20943856 13.41899122c.5.3333333 1 .5 1.5.5s1-.1666667 1.5-.5m.5355339-6v.5m.9644661 2c.8894268 1.1284642 1.0560935 2.2951308.5 3.5s-1.7227601 2.2048692-3.5 3c-1.88375217-1.0259075-3.05041884-2.0259075-3.5-3s-.28291449-2.1407592.5-3.5m3-10.5c4.9705627 0 9 5.80557963 9 10.5 0 3.4780759-2.2118647 5.3703907-5.3795862 6.1175037-.8297888.7920551-2.0370805 1.5861687-3.6204138 2.3824963-1.81025439-.7241018-3.12895564-1.5465141-3.95610374-2.4672372-2.9869449-.7993264-5.04389626-2.6786954-5.04389626-6.0327628 0-4.69442037 4.02943725-10.5 9-10.5zm-3.95554055 16.5332029c-.69649403-.7751013-1.04445945-1.6193555-1.04445945-2.5332029 0-1.6912651.71146368-2.9058005 1.8269797-3.6436064-.50791191-.4565557-.8269797-1.1192135-.8269797-1.8563936 0-1.38071187 1.11928813-2.5 2.5-2.5.5632392 0 1.0829748.1862608 1.5009713.50054687.4168963-.31458783.936246-.50054687 1.4990287-.50054687 1.3807119 0 2.5 1.11928813 2.5 2.5 0 .7868917-.3635513 1.4888714-.9318524 1.9471378 1.1753499.8223699 1.9318524 2.1081053 1.9318524 3.5528622 0 .8698485-.459375 1.7424015-1.378125 2.6176591" fill="none" stroke="#000" stroke-linecap="round" stroke-linejoin="round"/></svg>