<svg height="24" viewBox="0 0 24 24" width="24" xmlns="http://www.w3.org/2000/svg"><path d="m11.5 13.5v2m5-.5c0 2-2 4.5-5 4.5s-5-2.5-5-4.5c1.66666667.3333333 3.33333333.5 5 .5 1.6666667 0 3.3333333-.1666667 5-.5zm-6-4.5c-.3333333-1.33333333-.83333333-2-1.5-2s-1.16666667.66666667-1.5 2m8 0c-.3333333-1.33333333-.8333333-2-1.5-2s-1.1666667.66666667-1.5 2m0 2-1 1-1-1zm8 1c0 4.4186667-4.029 8-9 8s-9-3.5813333-9-8c0-1.1797411.28720249-2.2997939.80285543-3.3079343-.86664384-1.4290461-1.2905868-3.05967136-1.30304226-4.6920657-.01118321-1.51283386.50018683-3 .50018683-3 1.3861809 0 4.48035959 1.70799778 5.73114519 3.5455974 1.01202964-.35266375 2.11506851-.5455974 3.26885481-.5455974s2.2568252.19293365 3.2705171.5444903c1.2491233-1.83649252 4.343302-3.5444903 5.7294829-3.5444903 0 0 .51137 1.48716614.5001868 3-.0124554 1.63239434-.4363984 3.2630196-1.3040036 4.6917943.5166143 1.0084118.8038168 2.1284646.8038168 3.3082057zm-11.5 2 .5 1v-1m4.5 0-.5 1v-1m8 1-3-1m3-3-3 1m-17 3 3-1m-3-3 3 1" fill="none" stroke="#000" stroke-linecap="round" stroke-linejoin="round"/></svg>