<svg height="24" viewBox="0 0 24 24" width="24" xmlns="http://www.w3.org/2000/svg"><path d="m11.5 13.5v2m5-.5c0 2-2 4.5-5 4.5s-5-2.5-5-4.5c1.66666667.3333333 3.33333333.5 5 .5 1.6666667 0 3.3333333-.1666667 5-.5zm-4-2.5-1 1-1-1zm-2-2c-.3333333-.66666667-.83333333-1-1.5-1s-1.16666667.33333333-1.5 1m8 0c-.3333333-.66666667-.8333333-1-1.5-1s-1.1666667.33333333-1.5 1m-3.5 5 .5 1v-1m4.5 0-.5 1v-1m-11.89147081-2.4544069c.35190936-.7038187 1.68524269-1.3704854 4-2l-.18276212.5904359c-.63671772 1.9856557-1.24246368 3.122177-1.81723788 3.4095641-.94427191.472136-2.52786405-.9442719-2-2zm20.03785521 0c-.3519093-.7038187-1.6852426-1.3704854-4-2l.0915918.3009944.1819193.5673302c.6035886 1.8140816 1.1790849 2.8579734 1.7264889 3.1316754.944272.472136 2.5278641-.9442719 2-2zm-19.01744205-.8996417c.13091121-.6854233.36011013-1.3403772.67391308-1.9538857-.86664384-1.4290461-1.2905868-3.05967136-1.3040458-4.6920657-.01017967-1.51283386.50119037-3 .50119037-3 1.3861809 0 4.48035959 1.70799778 5.73114519 3.5455974 1.01202964-.35266375 2.11506851-.5455974 3.26885481-.5455974s2.2568252.19293365 3.2705171.5444903c1.2491233-1.83649252 4.343302-3.5444903 5.7294829-3.5444903 0 0 .51137 1.48716614.5011904 3-.013459 1.63239434-.437402 3.2630196-1.3050072 4.6917943.2916172.5692259.5101358 1.1740245.6451614 1.8050515m-.0246354 3.1137457c-.8370246 3.6462006-4.4660932 6.3894085-8.8167092 6.3894085-4.38510383 0-8.03717531-2.7868717-8.83714601-6.4769988" fill="none" stroke="#000" stroke-linecap="round" stroke-linejoin="round"/></svg>