<svg height="24" viewBox="0 0 24 24" width="24" xmlns="http://www.w3.org/2000/svg"><path d="m11.5 19.5c-1.1046667 0-2-1.1191667-2-2.5s.8953333-2.5 2-2.5 2 1.1191667 2 2.5-.8953333 2.5-2 2.5zm1-6-1 1-1-1zm-6.42357607-.2477386c-1.13490971-.5985193-1.4174675-2.0918821-.63117899-3.33588119.78628851-1.24399907 2.34342141-1.76716098 3.47833113-1.16864165 1.13490973.59851933 1.41746753 2.09188214.63117899 3.33588124-.78628851 1.2439991-2.34342141 1.767161-3.47833113 1.1686416zm10.84715217 0c1.1349097-.5985193 1.4174675-2.0918821.631179-3.33588119-.7862886-1.24399907-2.3434215-1.76716098-3.4783312-1.16864165s-1.4174675 2.09188214-.631179 3.33588124c.7862886 1.2439991 2.3434215 1.767161 3.4783312 1.1686416zm-15.4235761 1.2477386c1-1 5 1.5 5 7l-.05976676.0553936-.10355254.0876795-.15149551.1161862c-.40740741.2962963-1.18518519.7407407-2.18518519.7407407s-1.77777778-.4444444-2.18518519-.7407407l-.15149551-.1161862-.1633193-.1430731c.75-1.75.5-3.25.1875-4.4375l-.11136271-.4060401-.15673977-.5590652c-.18929371-.7046611-.2723387-1.2444535.08060248-1.5973947zm20 0c-1-1-5 1.5-5 7l.1053882.0950221.127848.1032286c.3790087.2915452 1.1953352.8017493 2.2667638.8017493 1 0 1.7777778-.4444444 2.1851852-.7407407l.1514955-.1161862.1633193-.1430731c-.75-1.75-.5-3.25-.1875-4.4375l.1113627-.4060401.1567398-.5590652c.1892937-.7046611.2723387-1.2444535-.0806025-1.5973947zm-4.9090815 5.5970998c-1.4466558.8850688-3.2006844 1.4029002-5.0909185 1.4029002s-3.64426273-.5178314-5.09235842-1.4026254m-3.8564202-5.7464163c-.03413979-.279086-.05122138-.5632471-.05122138-.8509583 0-1.1797411.28720249-2.2997939.80285543-3.3079343-.86664384-1.4290461-1.2905868-3.05967136-1.30339808-4.6920657-.01082739-1.51283386.50054265-3 .50054265-3 1.3861809 0 4.48035959 1.70799778 5.73114519 3.5455974 1.01202964-.35266375 2.11506851-.5455974 3.26885481-.5455974s2.2568252.19293365 3.2705171.5444903c1.2491233-1.83649252 4.343302-3.5444903 5.7294829-3.5444903 0 0 .51137 1.48716614.5005427 3-.0128113 1.63239434-.4367543 3.2630196-1.3043595 4.6917943.5166143 1.0084118.8038168 2.1284646.8038168 3.3082057 0 .2877112-.0170816.5718723-.0503926.851726" fill="none" stroke="#000" stroke-linecap="round" stroke-linejoin="round"/></svg>