<svg height="24" viewBox="0 0 24 24" width="24" xmlns="http://www.w3.org/2000/svg"><path d="m8.5 10.5v2m3 2v2m1-3-1 1-1-1zm2-3v2m7 4-3-1m3-3-3 1m-9.94312229 3.4683296c.82362827-.3130983 1.80575969-.4683296 2.94312229-.4683296 1.6666667 0 3 .3333333 4 1m-9.99969157 1.9625909c-1.84143184-1.4638417-3.00030843-3.5927936-3.00030843-5.9625909 0-1.1797411.28720249-2.2997939.80285543-3.3079343-.86664384-1.4290461-1.2905868-3.05967136-1.30356762-4.6920657-.01065785-1.51283386.50071219-3 .50071219-3 1.3861809 0 4.48035959 1.70799778 5.73114519 3.5455974 1.01202964-.35266375 2.11506851-.5455974 3.26885481-.5455974s2.2568252.19293365 3.2705171.5444903c1.2491233-1.83649252 4.343302-3.5444903 5.7294829-3.5444903 0 0 .51137 1.48716614.5007122 3-.0129808 1.63239434-.4369238 3.2630196-1.304529 4.6917943.5166143 1.0084118.8038168 2.1284646.8038168 3.3082057 0 4.4186667-4.029 8-9 8-.9451356 0-1.85621846-.1294629-2.71203146-.3695291m-7.28796854-4.6304709 3-1m-3-3 3 1m3 8c1 0 2-.5 2-2 0-1-.66666667-2.3333333-2-4-1.33333333 1.6666667-2 3-2 4 0 1.5 1 2 2 2z" fill="none" stroke="#000" stroke-linecap="round" stroke-linejoin="round"/></svg>