<svg height="24" viewBox="0 0 24 24" width="24" xmlns="http://www.w3.org/2000/svg"><path d="m12.973982 3.60842546c6.2267322.93800378 7.526018 7.84393934 7.526018 11.52315344 0 3.5929798-2.8723447 5.0894371-7.5423083 5.3323202m-2.9155218.0003483c-4.66982521-.2432314-7.5421699-1.7396887-7.5421699-5.3326685 0-3.6782321 1.29859227-10.58146338 7.5205834-11.52397496m-2.5205834 5.89239606v-1m9 6-5 2-5-2m9-6 .0177698 1.00015816m-4.0177698.99984184c3 0 3 2 5 4 0 0-1.9317514 4-5 4-3.06824861 0-5-4-5-4 2-2 2-4 5-4zm-1.5-6.5c0-1 .5-3 1.5-3s1.5 2.16352922 1.5 3-.5 1.5-1.5 1.5-1.5-.5-1.5-1.5zm0 17c0-1 .5-2.5 1.5-2.5s1.5 1.5 1.5 2.5-.5 1.5-1.5 1.5-1.5-.5-1.5-1.5z" fill="none" stroke="#000" stroke-linecap="round" stroke-linejoin="round"/></svg>