<svg height="24" viewBox="0 0 24 24" width="24" xmlns="http://www.w3.org/2000/svg"><path d="m18.5 16c0-2-1.5-3.5-4-3.5-1 0-2 .5-3 .5s-2-.5-3-.5c-2.5 0-4 1.5-4 3.5m4-1v1m6-1v1m-5-5.5v-2m4 0v2m-8 0c-.33333333-1-.5-1.83333333-.5-2.5 0-4 3.20481873-5.5 6.5-5.5 4 0 6.5 1.5 6.5 5.5 0 .66666667-.1666667 1.5-.5 2.5.6666667 2 1 3.8333333 1 5.5 0 2.5-3.3558355 4.3698513-7 4.5-3.64416452.1301487-7-2-7-4.5 0-1.6666667.33333333-3.5 1-5.5zm12.3622525-4.00355682c.7956245.3213481 2.6377475 1.18973913 2.6377475 2.36515065 0 1-.3333333 1.83333337-1 2.49999997l-1.7637336-1.64532161m-12.46732373.01948383c-.47869894.58445998-1.06945622 1.15951348-1.76894267 1.62583778 0 0-1-1-1-2.49999997 0-1.16666667 1.81481481-2.0308642 2.62139918-2.35733882m1.15695034-2.10362504c-.07520911-1.04142618-.00141992-2.00834838.22165048-2.90062997.85993651.42996825 1.51189123.92926377 1.95586416 1.49788655m6.15753284-.08358546c.4399186-.53441281 1.0693332-1.00566617 1.886603-1.41430109.2079365.83174603.2861602 1.72834845.2346712 2.68980726" fill="none" stroke="#000" stroke-linecap="round" stroke-linejoin="round"/></svg>