<svg height="24" viewBox="0 0 24 24" width="24" xmlns="http://www.w3.org/2000/svg"><path d="m11.5 8c1.3130258 0 2.5151915.49435665 3.3460266 1.38532893 1.3295158-.5907205 2.8812665-.88532893 4.6539734-.88532893 0 1.7230444-.7422205 3.817199-3.5055404 4.3641456l-.0159912.374427-.0272013.3922476-.039021.4069678c-.0075223.0688824-.0155625.1382489-.0241333.208035l-.0578936.4232344c-.0107439.071206-.0220439.1427023-.0339125.2144244l-.0781377.432525c-.0141941.0723668-.0289824.1448301-.0443775.2173255l-.0997533.4348394c-.5719361 2.3156789-1.7912313 4.5318283-4.0740382 4.5318283-2.28280692 0-3.50210212-2.2161494-4.0740785-4.5318227l-.09976141-.4348382c-.03079296-.1449904-.05915893-.2898528-.08519954-.4340704l-.07124731-.4302019-.05790476-.4232329-.04517185-.4131633-.0330486-.3999934-.02153501-.3837227c-.00266357-.0624257-.00487281-.1240442-.00664043-.1847911-2.76319209-.5469644-3.50541259-2.641119-3.50541259-4.3641634 1.77022222 0 3.323083.29378313 4.65858233.88134939.82896372-.88811777 2.02988677-1.38134939 3.34141767-1.38134939zm-1.76432925 11.9684102c.37367415-.6462296.96160815-.9684102 1.76432925-.9684102s1.3906551.3221806 1.7638021.9665417m-3.7638021-5.4665417v-2m-3.41225754-6.46711683c-.39186785-.51079482-.58774246-1.02183899-.58774246-1.53288317 0-.66666667.16666667-1.33333333.5-2m3.64463995 3.00308842c-3.21153477.06526865-4.15840412.99691158-6.14463995.99691158-1 0-2-1-2-2 0-.66666667.33333333-1.66666667 1-3m14.4122575 4.53288317c.3918679-.51079482.5877425-1.02183899.5877425-1.53288317 0-.66666667-.1666667-1.33333333-.5-2m-3.6446399 3.00308842c3.2115347.06526865 4.1584041.99691158 6.1446399.99691158 1 0 2-1 2-2 0-.66666667-.3333333-1.66666667-1-3m-7 11 .0355339 2m-.537476-10.99158442.0019421-.00841558s.4809541 1.44286243.4994524 4.8002923l.0002938.12160955m-3.4978041-4.91348627-.0019421-.00841558s-.48095414 1.44286243-.49945238 4.8002923l-.00029382.12160955" fill="none" stroke="#000" stroke-linecap="round" stroke-linejoin="round"/></svg>