<svg height="24" viewBox="0 0 24 24" width="24" xmlns="http://www.w3.org/2000/svg"><path d="m11.5 2.5c5.25 0 7 8.581722 7 13s-3.1340068 6-7 6c-3.86599325 0-7-1.581722-7-6s1.75-13 7-13zm0 14.5v2.5m-4-1c1 .6666667 2.33333333 1 4 1 1.6666667 0 3-.3333333 4-1m-2.5-2.5c-.3333333-.3333333-.8333333-.5-1.5-.5s-1.1666667.1666667-1.5.5l1.5 1zm-4.5-3.5v-2m6 0 .0355339 2m-9.99967231 1.8429506c-1.40994541-.2911524-3.03586159-1.0285244-3.03586159-3.8429506 0-3.5 4.75-8 10-8m6.9641384 11.8429506c1.4099454-.2911524 3.0358616-1.0285244 3.0358616-3.8429506 0-3.5-4.75-8-10-8" fill="none" stroke="#000" stroke-linecap="round" stroke-linejoin="round"/></svg>