<svg height="24" viewBox="0 0 24 24" width="24" xmlns="http://www.w3.org/2000/svg"><path d="m21.5 1.5c-2.2435897 2.24358974-3.4085306 4.17899408-3.4948225 5.80621302l-.0061775.19478698c.3065556-.30655556.8922037-.61211111 1.7579444-.91766667l.2430556-.08333333c-.9333333 1.24444444-1.4311111 2.3437037-1.4933333 3.29777778l-.0066667.20441642.5 1.4978058c-1.6666667 1.3333333-2.8333333 2.6666667-3.5 4-.4545455.9090909-.5991736 1.6115702-.6686702 2.2013524l-.0345605.3410969-.042684.4707926c-.0371432.3503945-.0949944.6685763-.2540853.9867581-.3333333.6666667-1.3333333 1.3333333-3 2-1.66666667-.6666667-2.66666667-1.3333333-3-2-.15909091-.3181818-.21694215-.6363636-.25408527-.9867581l-.05841473-.6382419c-.0625-.625-.1875-1.375-.6875-2.375-.66666667-1.3333333-1.83333333-2.6666667-3.5-4l.5-1.5c0-1-.5-2.16666667-1.5-3.5.91666667.30555556 1.55324074.61111111 1.90972222.91666667l.09027778.08233333-.00517751-.19278698c-.08629192-1.62721894-1.25123275-3.56262328-3.49482249-5.80621302 3.2.96 5.4784 2.5344 6.8352 4.7232l.1648.2768c.33333224-.3363543.33272947-1.16908213 0-2.5.58333333.58333333 1.0390625 1.16666667 1.3671875 1.75l.1328125.249 1.5-4.499 1.5 4.499.1328125-.249c.328125-.58333333.7838542-1.16666667 1.3671875-1.75-.3330314 1.3321256-.3333331 2.16515659-.000905 2.49909297 1.3349122-2.33290764 3.668053-3.99923737 7.000905-4.99909297zm-13 12v-2m6 0 .0355339 2m-4.0355339 5.5v-.5m2 0v.5" fill="none" stroke="#000" stroke-linecap="round" stroke-linejoin="round"/></svg>