<svg height="24" viewBox="0 0 24 24" width="24" xmlns="http://www.w3.org/2000/svg"><path d="m19.5 3c.3333333 1 .5 2.16666667.5 3.5 0 1.22222222-.2800926 2.44444444-.8402778 3.6666667l-.1597222.3333333c1 .6666667 1.5 2 1.5 4-1.8536585 0-3.1704343 1.1811422-4.398166 2.597989l-.3852672.4541577-.765311.9288605-.3863119.4614704c-.9078945 1.0667431-1.8698219 2.0453273-3.0649439 2.5575224-1.4318182-.5369318-2.41517627-1.5863895-3.29406353-2.7126532l-.37127268-.4861165-.60092713-.8027614-.27861512-.3626551-.28310988-.353015c-1.04956268-1.2725947-2.24344023-2.2827988-4.17201166-2.2827988 0-1.9.45125-3.1983333 1.35375-3.895l.14625-.105c-.66666667-1.33333333-1-2.66666667-1-4s.16666667-2.5.5-3.5l5.5 3.5h5zm-11 10.5v-2m6 0 .0355339 2m-1.5355339 4.5c-.3333333-.3333333-.8333333-.5-1.5-.5s-1.1666667.1666667-1.5.5l1.5 1zm-1.5 1v2.5m-8-18.5s.66666667 1.5 2 4.5c-1 2-1.5 3-1.5 3m15.5-7.5s-.6666667 1.5-2 4.5c1 2 1.5 3 1.5 3" fill="none" stroke="#000" stroke-linecap="round" stroke-linejoin="round"/></svg>