<svg height="24" viewBox="0 0 24 24" width="24" xmlns="http://www.w3.org/2000/svg"><path d="m17.5 3c2.209139 0 4 1.790861 4 4 0 1.13550556-.4731451 2.16050217-1.2330389 2.88859352.7855996 1.07087608 1.2330389 2.30195188 1.2330389 3.61140648 0 4.1421356-4.4771525 7.5-10 7.5s-10-3.3578644-10-7.5c0-1.3094546.4474393-2.5405304 1.233906-3.61191842-.76076092-.72757941-1.233906-1.75257602-1.233906-2.88808158 0-2.209139 1.790861-4 4-4 1.92249218 0 3.52821139 1.35626625 3.91254381 3.16418491.67235529-.10769336 1.37110959-.16418491 2.08745619-.16418491s1.4151009.05649155 2.0887748.16385874c.3830138-1.80759249 1.988733-3.16385874 3.9112252-3.16385874zm-12 11.5c1.66666667 1.3333333 3.66666667 2 6 2 2.3333333 0 4.3333333-.6666667 6-2m-8-1.5v-.5m4 0v.5m-7-3v-2.5m10 0v2.5" fill="none" stroke="#000" stroke-linecap="round" stroke-linejoin="round"/></svg>