<svg height="24" viewBox="0 0 24 24" width="24" xmlns="http://www.w3.org/2000/svg"><path d="m14.5 1c.8284271 0 1.5.67157288 1.5 1.5 0 .56371038-.3109543 1.05479349-.7706913 1.31107763l-.3722511 3.16276684c2.0856532-2.31589631 4.2999674-3.47384447 6.6429424-3.47384447 0 2.5252559-.8927684 3.13743659-2.0985848 3.51129029l-.2728766.07983621-.8663291.23327298c-.0496456.01406117-.099485.0284761-.1494888.04332988l-.301759.09506961c-.7076067.23729345-1.4358794.59395542-2.1039997 1.30346197.4930346.83207876.793038 1.77816066.793038 2.73373906 0 .2692308-.0724852.5022189-.1784251.7477526l-.1515703.3264395-.1124261.2366864-.115157.2598998c-.2294037.5475649-.4424215 1.2753755-.4424215 2.4292217 0 3.0188873-2.5 5-4 5-1.4571429 0-3.85795918-1.9031869-3.99395918-4.7466872l-.00604082-.2533128c0-1.25-.25-2-.5-2.5625l-.2742376-.5836083c-.13108784-.2858444-.2257624-.5461994-.2257624-.8538917 0-.955623.3000314-1.90174864.79266185-2.73280943-.62030338-.65905992-1.29249643-1.0138233-1.95186536-1.25123866l-.30317789-.10192466-.29994285-.0893443-.86627963-.23339521-.27286402-.07986732c-1.20576367-.37398383-2.0985321-.98616452-2.0985321-3.51142042 2.38137342 0 4.62983419 1.19621377 6.74538232 3.5886413l-.43389541-3.25564216c-.48204114-.24948659-.81148691-.75276977-.81148691-1.33299914 0-.82842712.67157288-1.5 1.5-1.5s1.5.67157288 1.5 1.5c0 .22416263-.04917122.43684071-.13731609.62783667l.42038559 1.89597627c.1267497.57037366.6326432.97618706 1.2169305.97618706s1.0901808-.4058134 1.2169305-.97618706l.4203856-1.89597627c-.0881449-.19099596-.1373161-.40367404-.1373161-.62783667 0-.82842712.6715729-1.5 1.5-1.5zm-6 11v-1.5m6 0v1.5m-4 5v-.5m2 0v.5" fill="none" stroke="#000" stroke-linecap="round" stroke-linejoin="round"/></svg>