<svg height="24" viewBox="0 0 24 24" width="24" xmlns="http://www.w3.org/2000/svg"><path d="m17.5 11.5c0 1.1045695-.4477153 2.1045695-1.1715729 2.8284271.7359906.7463356 1.1715729 1.6708033 1.1715729 2.6715729 0 2.4852814-2.6862915 4.5-6 4.5s-6-2.0147186-6-4.5c0-1.0007696.43558225-1.9252373 1.1723139-2.6725787-.72459865-.7228518-1.1723139-1.7228518-1.1723139-2.8274213 0-.3452689.04374524-.6803206.12599558-.9999149h11.74800882c.0822504.3195943.1259956.654646.1259956.9999149zm-6.9644661 4v.5m2-.5v.5m-9.00366752-2.4997918-.03186638-.0002082c-1.1045695 0-2-.8954305-2-2s.8954305-2 2-2c.24099698 0 .47203826.04262545.68599588.12074841m14.62916232.00037579c.2129472-.07852525.4439198-.1211242.6848418-.1211242 1.1045695 0 2 .8954305 2 2s-.8954305 2-2 2c-.0107829 0-.0215458-.0000853-.0322882-.0002554m-9.9677118-.9997446v-2m5 8h-6m5-8 .0355339 2m-2.0355339-10c6 0 8 7.581722 8 12s-3.581722 7-8 7-8-2.581722-8-7 2-12 8-12z" fill="none" stroke="#000" stroke-linecap="round" stroke-linejoin="round"/></svg>