<svg height="24" viewBox="0 0 24 24" width="24" xmlns="http://www.w3.org/2000/svg"><path d="m11.5 3.5c7.5 0 10 7.6783828 10 11.6315789 0 3.9531962-4.4771525 5.3684211-10 5.3684211s-10-1.4152249-10-5.3684211c0-3.9531961 2.5-11.6315789 10-11.6315789zm4.1146939.92415865c.6293831-.61681492 1.4250412-.92419595 2.3853061-.92419595 1.5 0 2.5 1.0000373 2.5 2.5000373 0 .91666667-.2800926 1.69328704-.8402778 2.32986111l-.0262649.02839838m-16.25392339-.02429679c-.56390741-.64067566-.844-1.41729603-.844-2.3339627 0-1.5 1-2.5000373 2.5-2.5000373.95445344 0 1.74628641.30367179 2.37549891.91101535m.08896718 8.08902195v-2m8 0 .0355339 2m-4.0355339 6c2 0 2-1.5 2-2.5s-.5-4-2-4-2 3-2 4 0 2.5 2 2.5z" fill="none" stroke="#000" stroke-linecap="round" stroke-linejoin="round"/></svg>