<svg height="24" viewBox="0 0 24 24" width="24" xmlns="http://www.w3.org/2000/svg"><path d="m4 4.625c.95238095-.71428571 1.79138322-.97505669 2.57099665-1.16024187l.68707483-.15646259c.59907138-.13907785 1.17049995-.30234316 1.74192852-.68329554l-.5-1c1.33333333-.33333333 2.5 0 3.5 1 1.3333333-1 2.6666667-1.33333333 4-1l-.5 1c.1071429.07142857.2066327.13520408.2997449.19278426l.2614796.15561224.337213.1828535.4791135.24280248.184949.10094752c.03125.01785714.0628189.03635204.0948661.05566691l.1992984.12718659c.2421875.1632653.5234375.38456633.8984375.72640306l.3456633.32397959c.1237245.11880467.2563776.24890671.3992347.39176385l-.5.5c.2.8.64 1.26 1.128 1.684l.596352.510976c.545248.488224 1.055648 1.080024 1.275648 2.180024h-1c0 .9821429.1543367 1.5012755.3417456 1.9515078l.2646684.608259c.2099125.5116618.393586 1.1545189.393586 2.4402332l-1-.5c-.6875.6875-.8498264 1.375-.9202474 2.1226761l-.031901.414153-.0292969.4282588c-.0498047.6540527-.1435547 1.3630371-.5185547 2.1599121l-1-1c-.65625.21875-1.0253906.6289062-1.3586426 1.0629883l-.2827148.3740234c-.333252.434082-.7023926.8442383-1.3586426 1.0629883l-1-1.5c-.3333333.6666667-.5 1.3333333-.5 2-1 0-2-.375-2.75-.75l-.3053936-.159621-.2704081-.1530612-.23104961-.1399417-.18731779-.1202624-.2558309-.1771137-.5 1c-.18518519-.0925926-.40466392-.2366255-.63938424-.4098715l-.28776101-.2204948-.29507697-.2400041-.29507697-.250978-.28776101-.2534166-.52431032-.4800082-.67062948-.6452268-.5 1.5c-.75862069-1.137931-1.08561237-1.9161712-1.30841773-2.5530157l-.21747509-.6491451-.10726147-.3021854c-.22534749-.5973185-.5392595-1.1680676-1.36684571-1.9956538l-1 .5c0-1 .33217993-1.7508651.68389986-2.4610218l.26256869-.5282414c.29920619-.6149756.55353145-1.238678.55353145-2.0107368h-1c0-1.4.54444444-2.14666667 1.12518519-2.74814815l.24962962-.25037037.24518519-.24148148c.48-.48.88-.96.88-1.76zm7.5.875c3.5 0 6.5 3 6.5 7.5l-2.5.5v1c0 2.209139-1.790861 4-4 4s-4-1.790861-4-4v-1l-2.5-.5c0-4.5 3-7.5 6.5-7.5zm1.5 8.5c-.3333333-.3333333-.8333333-.5-1.5-.5s-1.1666667.1666667-1.5.5l1.5 1zm-1.5 1v1.5m-2-5v-2m4 0 .0355339 2m-10.63534182-3.87841058c-.60059674-.97357616-.90019208-1.84751535-.90019208-2.62158942 0-.66666667.16666667-1.33333333.5-2 .47837942.07252304.97837942.23918971 1.5.5.31367963.15683982.61954063.33990606.91758301.54919874m13.03673979.09423374c.33772-.24995861.6865751-.46388145 1.0456772-.64343248.5216206-.26081029 1.0216206-.42747696 1.5-.5.3333333.66666667.5 1.33333333.5 2 0 .85074627-.3618846 1.70149254-1.0856538 2.55223881" fill="none" stroke="#000" stroke-linecap="round" stroke-linejoin="round"/></svg>