<svg height="24" viewBox="0 0 24 24" width="24" xmlns="http://www.w3.org/2000/svg"><path d="m13.5 6.5c2.209139 0 4 1.790861 4 4 0 1.5624159-.895796 2.9156075-2.2018095 3.5739962.7488087.7852412 1.2018095 1.8080107 1.2018095 2.9260038 0 2.4852814-2.2385763 4.5-5 4.5-2.76142375 0-5-2.0147186-5-4.5 0-1.1179931.45300083-2.1407626 1.2028175-2.9277419-1.3070215-.6566506-2.2028175-2.0098422-2.2028175-3.5722581 0-2.209139 1.790861-4 4-4 .7290322 0 1.4125119.1950335 2.0011092.53577067.5871443-.34095551 1.2702668-.53577067 1.9988908-.53577067zm0 11c-.3333333.6666667-1 1-2 1s-1.66666667-.3333333-2-1zm-10-6c-1.1045695 0-2-.8954305-2-2s.8954305-2 2-2c.19143945 0 .3765967.0268973.55189882.07711897m14.89753878.00052355c.1733936-.05066205.3588272-.07764252.5505624-.07764252 1.1045695 0 2 .8954305 2 2s-.8954305 2-2 2m-9.96446609-1v2m.99999999 2v.5m2-.5v.5m1-4.5v2m-2.0355339-10c4.418278 0 8 3.581722 8 8v3c0 4.418278-3.581722 8-8 8s-8-3.581722-8-8v-3c0-4.418278 3.581722-8 8-8z" fill="none" stroke="#000" stroke-linecap="round" stroke-linejoin="round"/></svg>