<svg height="24" viewBox="0 0 24 24" width="24" xmlns="http://www.w3.org/2000/svg"><path d="m17 1.5c2.4852814 0 4.5 2.01471863 4.5 4.5 0 2.04752047-1.3674762 3.77564976-3.2389547 4.320914.1583062.5542812.2389547 1.1213527.2389547 1.679086 0 2.5964912-2.3333333 5.4298246-7 8.5-4.66666667-3.0701754-7-5.9035088-7-8.5 0-.5577333.08064851-1.1248048.23904848-1.679868-1.87157228-.54448224-3.23904848-2.27261153-3.23904848-4.320132 0-2.48528137 2.01471863-4.5 4.5-4.5 2.33740541 0 4.2585797 1.78209709 4.478927 4.06169523.3274395-.04080926.6681038-.06169523 1.021073-.06169523s.6936335.02088597 1.0217516.06087998c.2196687-2.27878289 2.140843-4.06087998 4.4782484-4.06087998zm-7.37666359 17.6840462c.36318031-.7895652.98842829-1.1840462 1.87666359-1.1840462s1.5134833.394481 1.8757439 1.1834429m-3.8757439-4.6834429v-2m4 0 .0355339 2m-10.5355339 6.5c.75315778-.9819838 1.58649112-1.6486504 2.5-2 .85858065-.3302233 1.94079019-.4973056 3.24662864-.5012467m-7.24662864.5012467c1.19453071-.9288248 2.36119738-1.4288248 3.5-1.5.99811497-.0623822 2.14566496.1859718 3.44264997.7450621m11.55735003 2.7549379c-.7531578-.9819838-1.5864911-1.6486504-2.5-2-.8585806-.3302233-1.9407902-.4973056-3.2466286-.5012467m7.2466286.5012467c-1.1945307-.9288248-2.3611974-1.4288248-3.5-1.5-.998115-.0623822-2.145665.1859718-3.44265.7450621" fill="none" stroke="#000" stroke-linecap="round" stroke-linejoin="round"/></svg>