<svg height="24" viewBox="0 0 24 24" width="24" xmlns="http://www.w3.org/2000/svg"><path d="m11.5 18c3.8659932 0 7-4.581722 7-9s-3.1340068-7-7-7c-3.86599325 0-7 2.581722-7 7s3.13400675 9 7 9zm-2-4.5v-2m4 0 .0355339 2m-2.9578658 4.4126102-.0918458.0864446c-1.77315689 1.6672968-3.268431 2.5009452-4.4858223 2.5009452-.12914588 0-.25360089-.0031272-.37336503-.0093817-1.19203332-.062276-2.12663497-1.0469593-2.12663497-2.2406183 0-.1082342.02434688-.2150822.07123772-.3126317.17266171-.3591971.60381852-.510414.96302254-.3377666.55531296.2669322 1.04389287.4003983 1.46573974.4003983.51737304 0 1.23550224-.4015123 2.15438758-1.2045369m-1.95974104 1.1872393c-1.56497922-.175998-4.19464654-1.6102113-4.19464654-3.4827024 0-1 .5-1.5 1-1.5.91329848 0 1.40953991 2.0852853 3.77410975 2.4468801m5.64822215 2.4657301.0918458.0864446c1.7731569 1.6672968 3.268431 2.5009452 4.4858223 2.5009452.1291459 0 .2536009-.0031272.373365-.0093817 1.1920334-.062276 2.126635-1.0469593 2.126635-2.2406183 0-.1082342-.0243469-.2150822-.0712377-.3126317-.1726617-.3591971-.6038185-.510414-.9630226-.3377666-.5553129.2669322-1.0438928.4003983-1.4657397.4003983-.517373 0-1.2355022-.4015123-2.1543876-1.2045369m1.9597411 1.1872393c1.5649792-.175998 4.1946465-1.6102113 4.1946465-3.4827024 0-1-.5-1.5-1-1.5-.9132985 0-1.4095399 2.0852853-3.7741097 2.4468801" fill="none" stroke="#000" stroke-linecap="round" stroke-linejoin="round"/></svg>