<svg height="24" viewBox="0 0 24 24" width="24" xmlns="http://www.w3.org/2000/svg"><path d="m11.5 14.5c.5 0 1 .5 1.5 1 0 0-.5.6666667-1.5 2-1-1.3333333-1.5-2-1.5-2 .5-.5 1-1 1.5-1zm-10-2c0-2.76142375 2.23857625-5 5-5s5 2.23857625 5 5m0 0c0-2.76142375 2.2385763-5 5-5s5 2.23857625 5 5m-14 1v-2m8 0 .0355339 2m3.9644661-10c.46875.9375.4980469 2.75390625.0878906 3.80126953l-.0407001.09291631c1.2272518 1.52204654 1.9528095 3.32717406 1.9528095 5.10581416 0 4.418278-4.4771525 7-10 7s-10-2.581722-10-7c0-1.7786401.72555774-3.58376762 1.95280947-5.10581416l.04719053.10581416c-.5-1-.5-3 0-4 .90740741 0 1.81481481.8233882 2.34864794 1.72301605 1.60635465-1.06188011 3.55340721-1.72301605 5.65135206-1.72301605 2.0979449 0 4.0449974.66113594 5.6530651 1.72330536.5321201-.89991716 1.4395275-1.72330536 2.3469349-1.72330536z" fill="none" stroke="#000" stroke-linecap="round" stroke-linejoin="round"/></svg>