<svg height="24" viewBox="0 0 24 24" width="24" xmlns="http://www.w3.org/2000/svg"><path d="m11.5 3.5c2.2036028 0 3.9755732.6628479 5.3793208 1.6993046.360863-.27380495.7348568-.50639339 1.1206792-.6993046.5216206-.26081029 1.0216206-.42747696 1.5-.5.3333333.66666667.5 1.33333333.5 2 0 .55487961-.2102645 1.1947212-.6307936 1.91952477 1.5206162 2.39680683 2.1307936 5.25903543 2.1307936 7.21205413 0 2.9469281-2.4879647 4.4834992-6.0424097 5.0748121l-.5276109.0798398c-.089149.0122-.1788912.0238511-.269206.0349602l-.5485941.0602037c-.0925225.0089677-.1855763.017407-.2791408.0253243l-.56735.0412963c-.3820988.0234282-.7717086.0387231-1.1675093.0463166l-.5981792.0056681-.5981792-.0056681c-.3958007-.0075935-.7854105-.0228884-1.16750929-.0463166l-.56735003-.0412963c-.09356447-.0079173-.18661825-.0163566-.27914073-.0253243l-.54859419-.0602037c-.09031475-.0111091-.18005694-.0227602-.26920595-.0349602l-.52761087-.0798398c-3.55444499-.5913129-6.04240974-2.127884-6.04240974-5.0748121 0-1.9530187.61017738-4.8152473 2.13198136-7.21164693-.42171683-.72521077-.63198136-1.36505236-.63198136-1.91993197 0-.66666667.16666667-1.33333333.5-2 .47837942.07252304.97837942.23918971 1.5.5.38582241.19291121.75981623.42549965 1.12198147.69776534 1.40244532-1.03491744 3.17441568-1.69776534 5.37801853-1.69776534zm-4 7v-2m8 0v2m-4 8c3 0 4.5-2.6047543 4.5-4s-2-2.5-4.5-2.5-4.5 1.1047543-4.5 2.5 1.5 4 4.5 4zm-2-4v1m4-1v1" fill="none" stroke="#000" stroke-linecap="round" stroke-linejoin="round"/></svg>