<svg height="24" viewBox="0 0 24 24" width="24" xmlns="http://www.w3.org/2000/svg"><path d="m8.5 12.5v-2m6 0 .0355339 2m-1.5355339 4.5c-.3333333-.3333333-.8333333-.5-1.5-.5s-1.1666667.1666667-1.5.5l1.5 1zm-1.5 1v1.5m-6.5-11c-.66666667-.96802395-1-1.80135729-1-2.5 0-.66666667.16666667-1.33333333.5-2 .47837942.07252304.97837942.23918971 1.5.5.5212596.2606298 1.02092853.5936823 1.49900679.9991575l8.00198301.0000029c.4780793-.40547651.9777494-.73852998 1.4990102-.9991604.5216206-.26081029 1.0216206-.42747696 1.5-.5.3333333.66666667.5 1.33333333.5 2 0 .64042249-.2800926 1.39402251-.8402778 2.26080007l-.1597222.23919993 2.5 5-1 1 1 1c-3 2.6666667-6 4-9 4s-6-1.3333333-9-4l1-1-1-1zm15.5 5c-2 1-3.5 1.5-4.5 1.5s-2.5-.3333333-4.5-1c-1.3824929.7380097-2.71582625 1.071343-4 1s-2.95084041-.571343-5-1.5m1.72721704-3.4526727c1.84045507-1.1035563 3.26471605-1.61933208 4.27278296-1.5473273 1.13710388.08122171 2.1371039.58122171 3 1.5.8033806-.91452718 1.8033806-1.41452718 3-1.5 1.0558407-.07541719 2.4776351.43474134 4.2653832 1.5304756" fill="none" stroke="#000" stroke-linecap="round" stroke-linejoin="round"/></svg>