<svg height="24" viewBox="0 0 24 24" width="24" xmlns="http://www.w3.org/2000/svg"><path d="m11.5 2.5c7.5 0 10 7.6783828 10 11.6315789 0 3.9531962-4.4771525 5.3684211-10 5.3684211s-10-1.4152249-10-5.3684211c0-3.9531961 2.5-11.6315789 10-11.6315789zm-2.87921686.4253398.87921686 3.0746602.9848677-3.4512345m2.0292583-.0000986.985874 3.4513331.8782128-3.07497689m6.2833903 6.67299583-2.6616031 1.90198106 3.2009579.0004033m.2855547 3.0008541-2.9865126-.0012574 2.4612452 1.759232m-18.92249041 0 2.46124521-1.759232-2.98651257.0012574m.28555469-3.0008541 3.20095788-.0004033-2.66160306-1.90198106m10.66160306 6.40198106c-.3333333-.3333333-.8333333-.5-1.5-.5s-1.1666667.1666667-1.5.5l1.5 1zm-1.5 1v2.5m-3-7v-2m6 0 .0355339 2m1.07916-9.07584135c.6293831-.61681492 1.4250412-.92419595 2.3853061-.92419595 1.5 0 2.5 1.0000373 2.5 2.5000373 0 .91666667-.2800926 1.69328704-.8402778 2.32986111l-.0262649.02839838m-16.25392339-.02429679c-.56390741-.64067566-.844-1.41729603-.844-2.3339627 0-1.5 1-2.5000373 2.5-2.5000373.95445344 0 1.74628641.30367179 2.37549891.91101535" fill="none" stroke="#000" stroke-linecap="round" stroke-linejoin="round"/></svg>