<svg height="24" viewBox="0 0 24 24" width="24" xmlns="http://www.w3.org/2000/svg"><path d="m12.0058582 3.52102305c1.4177484.11835171 2.6954191.72964645 3.6611086 1.66198052.5386754-.97889037 1.4834919-2.28330938 2.8330332-3.18300357 0 0 1 1 1 2.5 0 1.16347905-1.8049113 2.02613955-2.6147653 2.35465076.3941101.79744929.6147653 1.69563087.6147653 2.64534924v4c-1.2805785 1.2805785-2 3.0174157-2 4.8284271v.1715729c0 1.6568542-1.3431458 3-3 3h-2c-1.65685425 0-3-1.3431458-3-3v-.1715729c0-1.7103997-.64170622-3.3546378-1.79179329-4.6108382l-.20820671-.2175889v-4c0-.94971837.22065522-1.84789995.61349584-2.64607491-.8085845-.32778554-2.61349584-1.19044604-2.61349584-2.35392509 0-1.5 1-2.5 1-2.5 1.34954128.89969419 2.29435775 2.2041132 2.8344494 3.18499989.96464877-.9343396 2.24255965-1.54589014 3.6606927-1.66405781m-1.4951421 13.97905792v1m4-1v1m-4-6v-2m.5-3 1.5-6 1.5 6c-.3333333.66666667-.8333333 1-1.5 1s-1.1666667-.33333333-1.5-1zm3.5 3 .0355339 2" fill="none" stroke="#000" stroke-linecap="round" stroke-linejoin="round"/></svg>