<svg height="24" viewBox="0 0 24 24" width="24" xmlns="http://www.w3.org/2000/svg"><path d="m18.9797408 1.5c.9714286.97142857.527347 6.18938776-.8738892 7.8618309l-.1178516.1281691.012.01 3.5 5-3-1 2 2.5-5-.5v2c0 2.209139-1.790861 4-4 4s-4-1.790861-4-4v-2l-5 .5 2-2.5-3 1 3.5-5 .011-.01-.11685161-.1281691c-1.40123615-1.67244314-1.84531778-6.89040233-.87388921-7.8618309l6.00000002 4h2.9594816zm-7.4797408 19v1m1.5-2.5c-.3333333-.3333333-.8333333-.5-1.5-.5s-1.1666667.1666667-1.5.5l1.5 1zm-4.5-5.5v-2m6 0 .0355339 2" fill="none" stroke="#000" stroke-linecap="round" stroke-linejoin="round"/></svg>