<svg height="24" viewBox="0 0 24 24" width="24" xmlns="http://www.w3.org/2000/svg"><path d="m18.5 2 .0950221.10538819.1032286.12784796c.2915452.37900875.8017493 1.19533528.8017493 2.26676385 0 .96113487-1.231707 1.71698524-2.1166722 2.13601372l-.2660957.12097507-.2319974.09766197c.3941101.79744929.6147653 1.69563087.6147653 2.64534924v4c-1.2805785 1.2805785-2 3.0174157-2 4.8284271v.1715729c0 1.6568542-1.3431458 3-3 3h-2c-1.65685425 0-3-1.3431458-3-3v-.1715729c0-1.7103997-.64170622-3.3546378-1.79179329-4.6108382l-.20820671-.2175889v-4c0-.94971837.22065522-1.84789995.61349584-2.64607491l-.23169422-.09748865-.26584503-.1208318-.28894468-.1432516c-.84096394-.43676881-1.82701191-1.13239026-1.82701191-1.99235304 0-1 .44444444-1.77777778.74074074-2.18518519l.11618616-.15149551.1430731-.1633193c1.34954128.89969419 2.29435775 2.2041132 2.8344494 3.18499989 1.07787045-1.04400387 2.54685421-1.68499989 4.1655506-1.68499989 1.6186964 0 3.0876801.64099602 4.1669668 1.68300357.5386754-.97889037 1.4834919-2.28330938 2.8330332-3.18300357zm-9 15.5v1m4-1v1m-4-6v-2m4 0 .0355339 2m-4.83807622-8.3059462.80254232 2.8059462.9749272-3.41275777m2.0511571.00015167.9739157 3.4126061.8028888-2.80643467m3.1971112 6.23543467-1.5 1.071h1.5m-.825537 2.9995251-1.174463.0004749.8189896.5858608m-9.63797922 0 .81898962-.5858608-1.17446299-.0004749m-.82553701-2.9995251h1.5l-1.5-1.071" fill="none" stroke="#000" stroke-linecap="round" stroke-linejoin="round"/></svg>