<svg height="24" viewBox="0 0 24 24" width="24" xmlns="http://www.w3.org/2000/svg"><path d="m4.5 5.5h2m0 6h-2m0 6h6m-3-10c-.553 0-1-.448-1-1v-2c0-.552.447-1 1-1s1 .448 1 1v2c0 .552-.447 1-1 1zm4 0c-.553 0-1-.448-1-1v-2c0-.552.447-1 1-1s1 .448 1 1v2c0 .552-.447 1-1 1zm0 12c-.553 0-1-.448-1-1v-2c0-.552.447-1 1-1s1 .448 1 1v2c0 .552-.447 1-1 1zm4 0c-.553 0-1-.448-1-1v-2c0-.552.447-1 1-1s1 .448 1 1v2c0 .552-.447 1-1 1zm-8-6c-.553 0-1-.448-1-1v-2c0-.552.447-1 1-1s1 .448 1 1v2c0 .552-.447 1-1 1zm8 0c-.553 0-1-.448-1-1v-2c0-.552.447-1 1-1s1 .448 1 1v2c0 .552-.447 1-1 1zm-7-8h2m2 0h6m-6 12h2m2 0h2m-10-6h6m2 0h2m0 8h2v-16h-2zm-16 0h2v-16h-2z" fill="none" stroke="#000" stroke-linecap="round" stroke-linejoin="round"/></svg>