<svg height="24" viewBox="0 0 24 24" width="24" xmlns="http://www.w3.org/2000/svg"><path d="m11.5 20.5c-4.971 0-9-4.029-9-9s4.029-9 9-9 9 4.029 9 9-4.029 9-9 9zm6.3643-2.6362-12.728-12.727zm-7.3643-9.3638c0-.55228475.4477153-1 1-1s1 .44771525 1 1c0 .02279555-.0007627.04541296-.0022641.06782809.9776538.38906273 1.6689308 1.33019379 1.6689308 2.43217191v.331625c0 1.18825.4795555 2.3279375 1.3333333 3.168375l-7.99955556-.0004375c.85333334-.84 1.33288889-1.9796875 1.33288889-3.1679375v-.331625c0-1.10199614.69089005-2.04313996 1.66892947-2.432191-.0015005-.02240888-.0022628-.04501992-.0022628-.067809zm0 6c0 .55.45 1 1 1s1-.45 1-1" fill="none" stroke="#000" stroke-linecap="round" stroke-linejoin="round"/></svg>