<svg height="24" viewBox="0 0 24 24" width="24" xmlns="http://www.w3.org/2000/svg"><path d="m5.1357 17.8638c-3.515-3.515-3.515-9.213 0-12.728s9.214-3.515 12.729 0c3.514 3.515 3.514 9.213 0 12.728m-10.6069-2.1211c-2.344-2.343-2.344-6.142 0-8.485 2.343-2.344 6.142-2.344 8.484 0 2.344 2.343 2.344 6.142 0 8.485m-6.3629-2.1216c-1.172-1.171-1.172-3.071 0-4.242 1.171-1.172 3.071-1.172 4.242 0 1.172 1.171 1.172 3.071 0 4.242m-2.1209.3789-6 6.5h12z" fill="none" stroke="#000" stroke-linecap="round" stroke-linejoin="round"/></svg>