<svg height="24" viewBox="0 0 24 24" width="24" xmlns="http://www.w3.org/2000/svg"><path d="m14 11v1l3 1 .5675429-1.4188571c.2760124-.6900602.0051036-1.4781922-.6368497-1.8527076-1.4037661-.81895687-3.2139972-1.2284353-5.4306932-1.2284353-2.21670225 0-4.02693726.40948074-5.43070502 1.22844222-.64194775.37452438-.91285563 1.16265618-.63683328 1.85271208l.5675383 1.4188457 3-1v-1c.66666667-.3333333 1.5-.5 2.5-.5s1.8333333.1666667 2.5.5zm-2.5 9.5c-4.971 0-9-4.029-9-9s4.029-9 9-9 9 4.029 9 9-4.029 9-9 9z" fill="none" stroke="#000" stroke-linecap="round" stroke-linejoin="round"/></svg>