<svg height="24" viewBox="0 0 24 24" width="24" xmlns="http://www.w3.org/2000/svg"><path d="m11.5 20.5c-4.971 0-9-4.029-9-9s4.029-9 9-9 9 4.029 9 9-4.029 9-9 9zm2.5-9.5 1.5-1.5-1.5-1.5m-6.5 6.5h.36761924c.70252571 0 1.35353936-.3685977 1.71498585-.9710085l1.83478981-3.057983c.3614465-.60241083 1.0124602-.9710085 1.7149859-.9710085h2.3676192m-1.5 3.5 1.5 1.5-1.5 1.5m1.5-1.5h-2.3676192c-.7025257 0-1.3535394-.3685977-1.7149859-.9710085m-1.83478981-3.057983c-.36144649-.60241083-1.01246014-.9710085-1.71498585-.9710085h-.36761924" fill="none" stroke="#000" stroke-linecap="round" stroke-linejoin="round"/></svg>