<svg height="24" viewBox="0 0 24 24" width="24" xmlns="http://www.w3.org/2000/svg"><path d="m6.5 13.5c0 .552-.447 1-1 1s-1-.448-1-1 .447-1 1-1 1 .448 1 1zm2 0c0 2.5-3 6-3 6s-3-3.5-3-6c0-1.657 1.343-3 3-3s3 1.343 3 3zm10-8c0 .552-.447 1-1 1s-1-.448-1-1 .447-1 1-1 1 .448 1 1zm2 0c0 2.5-3 6-3 6s-3-3.5-3-6c0-1.657 1.343-3 3-3s3 1.343 3 3zm-13 14h.01m3.99 0h.01m-.01-2h.01m-.01-2h.01m-.01-2h.01m-.01-2h.01m3.99 0h.01m-2.01 0h.01m-4.01 8h.01" fill="none" stroke="#000" stroke-linecap="round" stroke-linejoin="round"/></svg>