<svg height="24" viewBox="0 0 24 24" width="24" xmlns="http://www.w3.org/2000/svg"><path d="m15.5 21.5h-8c-.553 0-1-.447-1-1v-18c0-.553.447-1 1-1h8c.553 0 1 .447 1 1v18c0 .553-.447 1-1 1zm-2-16c0 1.104-.896 2-2 2s-2-.896-2-2 .896-2 2-2 2 .896 2 2zm0 6c0 1.104-.896 2-2 2s-2-.896-2-2 .896-2 2-2 2 .896 2 2zm0 6c0 1.104-.896 2-2 2s-2-.896-2-2 .896-2 2-2 2 .896 2 2zm3-9v-5h3.31c.624 0 .936.754.495 1.195zm0 6v-5h3.31c.624 0 .936.754.495 1.195zm0 6v-5h3.31c.624 0 .936.754.495 1.195zm-9.9883-12v-5h-3.311c-.623 0-.935.754-.494 1.195zm0 6v-5h-3.311c-.623 0-.935.754-.494 1.195zm0 6v-5h-3.311c-.623 0-.935.754-.494 1.195z" fill="none" stroke="#000" stroke-linecap="round" stroke-linejoin="round"/></svg>