<svg height="24" viewBox="0 0 24 24" width="24" xmlns="http://www.w3.org/2000/svg"><path d="m5.13603897 5.13603897c-3.51471863 3.51471862-3.51471863 9.21320343 0 12.72792203m12.72792203 0c3.5147187-3.5147186 3.5147187-9.21320341 0-12.72792203m-6.363961 8.36396103c1.1045695 0 2-.8954305 2-2s-.8954305-2-2-2-2 .8954305-2 2 .8954305 2 2 2zm-4.94974747-6.94974747c-2.73367004 2.73367004-2.73367004 7.16582487 0 9.89949497m9.89949497 0c2.73367-2.7336701 2.73367-7.16582493 0-9.89949497m-4.9497475 9.94974747c2.7614237 0 5-2.2385763 5-5 0-2.76142375-2.2385763-5-5-5-2.76142375 0-5 2.23857625-5 5 0 2.7614237 2.23857625 5 5 5z" fill="none" stroke="#000" stroke-linecap="round" stroke-linejoin="round"/></svg>