<svg height="24" viewBox="0 0 24 24" width="24" xmlns="http://www.w3.org/2000/svg"><path d="m11.5 20.5c4.9705627 0 9-4.0294373 9-9 0-4.97056275-4.0294373-9-9-9-4.97056275 0-9 4.02943725-9 9 0 4.9705627 4.02943725 9 9 9zm0-6c1.6568542 0 3-1.3431458 3-3 0-1.65685425-1.3431458-3-3-3-1.65685425 0-3 1.34314575-3 3 0 1.6568542 1.34314575 3 3 3zm0 2c2.7614237 0 5-2.2385763 5-5 0-2.76142375-2.2385763-5-5-5-2.76142375 0-5 2.23857625-5 5 0 2.7614237 2.23857625 5 5 5zm0-4c.5522847 0 1-.4477153 1-1s-.4477153-1-1-1-1 .4477153-1 1 .4477153 1 1 1z" fill="none" stroke="#000" stroke-linecap="round" stroke-linejoin="round"/></svg>