<svg height="24" viewBox="0 0 24 24" width="24" xmlns="http://www.w3.org/2000/svg"><path d="m5.5 20.5c1.65685425 0 3-1.3431458 3-3s-1.34314575-3-3-3-3 1.3431458-3 3 1.34314575 3 3 3zm15-11v2c0 4.9705627-4.0294373 9-9 9-1.3893906 0-2.70524778-.3148343-3.88012213-.8770535m9.88012213-11.1229465c1.6568542 0 3-1.34314575 3-3s-1.3431458-3-3-3-3 1.34314575-3 3 1.3431458 3 3 3zm0-2.5c.2761424 0 .5-.22385763.5-.5s-.2238576-.5-.5-.5-.5.22385763-.5.5.2238576.5.5.5zm-12 12c.27614237 0 .5-.2238576.5-.5s-.22385763-.5-.5-.5-.5.2238576-.5.5.22385763.5.5.5zm17-6.5-2-2-2 2m-14 0-2 2-2-2m2 1.75v-1.75c0-4.97056275 4.02943725-9 9-9 1.3893906 0 2.7052478.31483428 3.8801221.87705352" fill="none" stroke="#000" stroke-linecap="round" stroke-linejoin="round"/></svg>