<svg height="24" viewBox="0 0 24 24" width="24" xmlns="http://www.w3.org/2000/svg"><path d="m4.5 21.5c1.65685425 0 3-1.3431458 3-3s-1.34314575-3-3-3-3 1.3431458-3 3 1.34314575 3 3 3zm3-6 8-8m-2 0h2v2m-6 6h-2v-2m11-6c1.6568542 0 3-1.34314575 3-3s-1.3431458-3-3-3-3 1.34314575-3 3 1.3431458 3 3 3zm0-2.5c.2761424 0 .5-.22385763.5-.5s-.2238576-.5-.5-.5-.5.22385763-.5.5.2238576.5.5.5zm-14 14c.27614237 0 .5-.2238576.5-.5s-.22385763-.5-.5-.5-.5.2238576-.5.5.22385763.5.5.5z" fill="none" stroke="#000" stroke-linecap="round" stroke-linejoin="round"/></svg>