<svg height="24" viewBox="0 0 24 24" width="24" xmlns="http://www.w3.org/2000/svg"><path d="m5.5 10.5v-7m2 5-2 2-2-2m8 12-.0000453-1.395-3.7169547-3.358c-.15166667-.1325-.34013889-.2156944-.5387963-.2397454l-.1202037-.0072546h-1.124c-.28 0-.501-.233-.50004533-.513.0067644-1.32 1.03646129-2.3976192 2.33622299-2.4817167l.19182234-.0052833c.31 0 .617.072.894.211l.58662091.2939096c-.00573628-.1068971-.00862091-.2141213-.00862091-.3215634v-8.6833462c0-.82842712.6715729-1.5 1.5-1.5s1.5.67157288 1.5 1.5l-.0001943 4.70078568c.220674-.12769708.4768988-.20078568.7501943-.20078568.6547423 0 1.2115067.41949363 1.4161851 1.00437297.2373322-.16084038.5246507-.25437297.8338149-.25437297.6547423 0 1.2115067.41949363 1.4161851 1.004373.2373322-.1608404.5246507-.254373.8338149-.254373.8284271 0 1.5.6715729 1.5 1.5v1.3779052c0 1.0623278-.2820504 3.1056097-.8173266 4.0232261l-.9326734 1.5988687v2" fill="none" stroke="#000" stroke-linecap="round" stroke-linejoin="round"/></svg>