<svg height="24" viewBox="0 0 24 24" width="24" xmlns="http://www.w3.org/2000/svg"><path d="m15.5 10.5h5m-9.5 10v-.5857864c0-.2652165-.1053568-.5195704-.2928932-.7071068l-1.41421358-1.4142136c-.18753638-.1875364-.44189029-.2928932-.70710678-.2928932h-1.08578644v-.5c0-.8284271.67157288-1.5 1.5-1.5.33333333 0 .83333333.0833333 1.5.25v-5.25c0-.55228475.4477153-1 1-1s1 .44771525 1 1l-.0001295 3.1338571c.1471159-.0851314.3179325-.1338571.5001295-.1338571.4364949 0 .8076711.2796624.9441234.669582.1582215-.1072269.3497671-.169582.5558766-.169582.4375907 0 .8095344.2810683.9451466.6725207.1571983-.1101656.3487439-.1725207.5548534-.1725207.5522847 0 1 .4477153 1 1v.5c0 .973666-.3158004 1.9210672-.9 2.7l-.6.8v1m-1.1715729-12.82842712 3.5355339-3.53553391m-6.363961-2.63603897v5m-9 4h5m-2.36396103-6.36396103 3.53553391 3.53553391" fill="none" stroke="#000" stroke-linecap="round" stroke-linejoin="round"/></svg>