<svg height="24" viewBox="0 0 24 24" width="24" xmlns="http://www.w3.org/2000/svg"><path d="m5.5 2.5v8m2-6-2-2-2 2m9 17-.0000665-1.395-3.7169335-3.358c-.15166667-.1325-.34013889-.2156944-.5387963-.2397454l-.1202037-.0072546h-1.124c-.28 0-.501-.233-.50006649-.513.00678556-1.32 1.03648245-2.3976192 2.33624415-2.4817167l.19182234-.0052833c.31 0 .617.072.894.211l.5866209.2939096c-.0057363-.1068971-.0086209-.2141213-.0086209-.3215634v-8.6833462c0-.82842712.6715729-1.5 1.5-1.5s1.5.67157288 1.5 1.5m0 6v-7c0-.82842712.6715729-1.5 1.5-1.5s1.5.67157288 1.5 1.5c0 3.83333333.0001739 5.8616759.0005217 6.0850277.1562997-.0550277.3243856-.0850277.4994783-.0850277.6666104 0 1.2316587.4348392 1.4269668 1.0363396.1031819-.0242084.2116908-.0363396.3230332-.0363396.8284271 0 1.5.6715729 1.5 1.5v1.3779052c0 1.0623278-.2820504 3.1056097-.8173266 4.0232261l-.9326734 1.5988687v2" fill="none" stroke="#000" stroke-linecap="round" stroke-linejoin="round"/></svg>