<svg height="24" viewBox="0 0 24 24" width="24" xmlns="http://www.w3.org/2000/svg"><path d="m11.5 10.5v-1c0-.55228475.4477153-1 1-1s1 .44771525 1 1c0 2.8333333-.0000432 4.3779524-.0001295 4.6338571.1471159-.0851314.3179325-.1338571.5001295-.1338571.4364949 0 .8076711.2796624.9441234.669582.1582215-.1072269.3497671-.169582.5558766-.169582.5522847 0 1 .4477153 1 1v.5c0 .973666-.3158004 1.9210672-.9 2.7l-.6.8v1m-5 0v-.5857864c0-.2652165-.10535684-.5195704-.29289322-.7071068l-1.41421356-1.4142136c-.18753638-.1875364-.44189029-.2928932-.70710678-.2928932h-1.08578644v-.5c0-.8284271.67157288-1.5 1.5-1.5.33333333 0 .83333333.0833333 1.5.25v-5.25c0-.55228475.44771525-1 1-1 .5522847 0 1 .44771525 1 1v3.5m5-3.5h4m-18 0h4m5-9v4m3.5355339 1.46446609 2.8284271-2.82842712m-12.72792203 0 2.82842712 2.82842712" fill="none" stroke="#000" stroke-linecap="round" stroke-linejoin="round"/></svg>