<svg height="24" viewBox="0 0 24 24" width="24" xmlns="http://www.w3.org/2000/svg"><path d="m2.5 9.5c.453 0 .86-.275 1.028-.696l1.444-3.608c.168-.421.575-.696 1.028-.696s.86.275 1.028.696l1.444 3.608c.168.421.575.696 1.028.696h.065c.42 0 .803-.237.992-.612l1.886-3.776c.189-.375.572-.612.992-.612h.065c.453 0 .86.275 1.028.696l1.444 3.608c.168.421.575.696 1.028.696s.86-.275 1.028-.696l1.444-3.608c.168-.421.575-.696 1.028-.696m-18 14c.453 0 .86-.275 1.028-.696l1.444-3.608c.168-.421.575-.696 1.028-.696s.86.275 1.028.696l1.444 3.608c.168.421.575.696 1.028.696h.065c.42 0 .803-.237.992-.612l1.886-3.776c.189-.375.572-.612.992-.612h.065c.453 0 .86.275 1.028.696l1.444 3.608c.168.421.575.696 1.028.696s.86-.275 1.028-.696l1.444-3.608c.168-.421.575-.696 1.028-.696" fill="none" stroke="#000" stroke-linecap="round" stroke-linejoin="round"/></svg>