<svg height="24" viewBox="0 0 24 24" width="24" xmlns="http://www.w3.org/2000/svg"><path d="m4.5 2.5.578 1.155c.277.556.422 1.168.422 1.789v15.056m0-15 2.047-1.229c1.3-.779 2.953.158 2.953 1.673v14.556m0-15 2.047-1.229c1.3-.779 2.953.158 2.953 1.673v10.933c0 1.075.173 2.143.513 3.162l.487 1.461m-1-13 .984-.984c.954-.954 2.574-.622 3.075.631l.003.007c.6 1.502.58 3.181-.057 4.668l-.036.083c-1.29 3.011-3.348 5.629-5.968 7.594l-.001.001" fill="none" stroke="#000" stroke-linecap="round" stroke-linejoin="round"/></svg>