<svg height="24" viewBox="0 0 24 24" width="24" xmlns="http://www.w3.org/2000/svg"><path d="m14.5 16.5h-11c-.55228475 0-1-.4477153-1-1v-8c0-.55228475.44771525-1 1-1h16c.5522847 0 1 .44771525 1 1v8c0 .0443364-.0028853.0879989-.0084785.1308099m-4.9915215 5.8691901v-1l-.3665631-.7331263c-.4165663-.8331326-.6334369-1.751811-.6334369-2.6832816v-5.5835921c0-.5522847.4477153-1 1-1s1 .4477153 1 1l-.0001295 3.1338571c.1471159-.0851314.3179325-.1338571.5001295-.1338571.4364949 0 .8076711.2796624.9441234.669582.1582215-.1072269.3497671-.169582.5558766-.169582.4364949 0 .8076711.2796624.9441234.669582.1582215-.1072269.3497671-.169582.5558766-.169582.5522847 0 1 .4477153 1 1v.5835921c0 .9314706-.2168706 1.850149-.6334369 2.6832816l-.3665631.7331263v1m-12.5-7c1.65685425 0 3-1.3431458 3-3 0-1.65685425-1.34314575-3-3-3s-3 1.34314575-3 3c0 1.6568542 1.34314575 3 3 3zm7.0000889-.1706743c-1.1652388-.4118113-2.0000889-1.5230736-2.0000889-2.8293257 0-1.65685425 1.3431458-3 3-3s3 1.34314575 3 3c0 1.3062521-.8348501 2.4175144-2.0000889 2.8293257m-5.9999111-12.8293257v2c0 .55228475-.4477153 1-1 1-.55228475 0-1-.44771525-1-1s-.44771525-1-1-1-1 .44771525-1 1v3" fill="none" stroke="#000" stroke-linecap="round" stroke-linejoin="round"/></svg>