<svg height="24" viewBox="0 0 24 24" width="24" xmlns="http://www.w3.org/2000/svg"><path d="m5.5 7.5c0-3.5 2.5-6 6-6s6 2.5 6 6-4 6-4 8c0 1.5.5 3.5.5 4.5s-1.1646248 1.5-2 1.5c-.5569168 0-1.0569168-.1666667-1.5-.5m8.0154964-17.50137698c.4869772.89348541.8080421 1.9049566.9297239 3.00094263m.1678705-5.00152176c1.2222899 1.68448978 1.8869092 3.76194966 1.8869092 6.00195611m-13 0c0-1.5 1.125-3 3-3s3 1.5 3 3m-9.75 7.5-1-2m5 0-1-2m-5.25 4.5-.5-1m4.5-1-.5-1" fill="none" stroke="#000" stroke-linecap="round" stroke-linejoin="round"/></svg>