<svg height="24" viewBox="0 0 24 24" width="24" xmlns="http://www.w3.org/2000/svg"><path d="m1.5 15.499755 6-7.99932626v7.99932626m-4-2.6664421h4m2 2.6664417v-7.99932586h3c1.6568542 0 3 1.7907101 3 3.99966296 0 2.2089528-1.3431458 3.9996629-3 3.9996629zm11.487428-8.00104125c.3319443 1.25149505.512572 2.59831395.512572 4.00137855 0 1.4026387-.180518 2.7490658-.5122698 4.0002388m-2.1613918-7.99998738c.4319592 1.21226012.6736616 2.56837238.6736616 3.99974858 0 1.4317287-.2418215 2.7881566-.6739809 4.0006444m-2.3265542-8.00190673c.6282342 1.11439406 1.0005351 2.4998627 1.0005351 4.00126233 0 1.5011024-.3721535 2.8863197-1.0001621 4.0006005" fill="none" stroke="#000" stroke-linecap="round" stroke-linejoin="round"/></svg>