<svg height="24" viewBox="0 0 24 24" width="24" xmlns="http://www.w3.org/2000/svg"><path d="m8.5 5.5c.55228475 0 1-.44771525 1-1s-.44771525-1-1-1-1 .44771525-1 1 .44771525 1 1 1zm6 0c.5522847 0 1-.44771525 1-1s-.4477153-1-1-1-1 .44771525-1 1 .4477153 1 1 1zm-6 7c.55228475 0 1-.4477153 1-1s-.44771525-1-1-1-1 .4477153-1 1 .44771525 1 1 1zm0 7c.55228475 0 1-.4477153 1-1s-.44771525-1-1-1-1 .4477153-1 1 .44771525 1 1 1zm6 1v-1l-.3665631-.7331263c-.4165663-.8331326-.6334369-1.751811-.6334369-2.6832816v-5.5835921c0-.55228475.4477153-1 1-1s1 .44771525 1 1l-.0001295 3.1338571c.1471159-.0851314.3179325-.1338571.5001295-.1338571.4364949 0 .8076711.2796624.9441234.669582.1582215-.1072269.3497671-.169582.5558766-.169582.4364949 0 .8076711.2796624.9441234.669582.1582215-.1072269.3497671-.169582.5558766-.169582.5522847 0 1 .4477153 1 1v.5835921c0 .9314706-.2168706 1.850149-.6334369 2.6832816l-.3665631.7331263v1" fill="none" stroke="#000" stroke-linecap="round" stroke-linejoin="round"/></svg>