<svg height="24" viewBox="0 0 24 24" width="24" xmlns="http://www.w3.org/2000/svg"><path d="m12.5 16.5h-9c-.55228475 0-1-.4477153-1-1v-11c0-.55228475.44771525-1 1-1h16c.5522847 0 1 .44771525 1 1v11c0 .5522847-.4477153 1-1 1h-.5m-13.5-3h1m2 0h.5m-3.5-2h.5m10.5 2h1m-1-2h.5m-8.5 0h1m2 0h1m-1 2h1m1 8v-1l-.3665631-.7331263c-.4165663-.8331326-.6334369-1.751811-.6334369-2.6832816v-5.5835921c0-.5522847.4477153-1 1-1s1 .4477153 1 1l-.0001295 3.1338571c.1471159-.0851314.3179325-.1338571.5001295-.1338571.4364949 0 .8076711.2796624.9441234.669582.1582215-.1072269.3497671-.169582.5558766-.169582.4364949 0 .8076711.2796624.9441234.669582.1582215-.1072269.3497671-.169582.5558766-.169582.5522847 0 1 .4477153 1 1v.5835921c0 .9314706-.2168706 1.850149-.6334369 2.6832816l-.3665631.7331263v1m-15.5-13h18m-15 0v-5m3 5v-5m3 5v-5m3 5v-5m3 5v-5" fill="none" stroke="#000" stroke-linecap="round" stroke-linejoin="round"/></svg>