<svg height="24" viewBox="0 0 24 24" width="24" xmlns="http://www.w3.org/2000/svg"><path d="m7.5 5.5c.55228475 0 1-.44771525 1-1s-.44771525-1-1-1-1 .44771525-1 1 .44771525 1 1 1zm8 0c.5522847 0 1-.44771525 1-1s-.4477153-1-1-1-1 .44771525-1 1 .4477153 1 1 1zm-8 7c.55228475 0 1-.4477153 1-1s-.44771525-1-1-1-1 .4477153-1 1 .44771525 1 1 1zm8 0c.5522847 0 1-.4477153 1-1s-.4477153-1-1-1-1 .4477153-1 1 .4477153 1 1 1zm-8 7c.55228475 0 1-.4477153 1-1s-.44771525-1-1-1-1 .4477153-1 1 .44771525 1 1 1zm8 0c.5522847 0 1-.4477153 1-1s-.4477153-1-1-1-1 .4477153-1 1 .4477153 1 1 1z" fill="none" stroke="#000" stroke-linecap="round" stroke-linejoin="round"/></svg>