<svg height="24" viewBox="0 0 24 24" width="24" xmlns="http://www.w3.org/2000/svg"><path d="m7.5 12.5-.16437569-.0053177c-1.30408837-.0846436-2.33562431-1.1691989-2.33562431-2.4946823 0-.83712452.4114489-1.57815001 1.04315033-2.03188008-.02809572-.15138043-.04315033-.30799208-.04315033-.46811992 0-1.38071187 1.11928813-2.5 2.5-2.5.06929287 0 .1379273.00281912.20579485.00834891.38187414-.88699857 1.26547757-1.50834891 2.29420515-1.50834891 1.2303098 0 2.253048.88871957 2.4612647 2.05920873.1728777-.03905269.3534527-.05920873.5387353-.05920873 1.3807119 0 2.5 1.11928813 2.5 2.5s-1.1192881 2.5-2.5 2.5c-.1852826 0-.3658576-.020156-.5396517-.058395-.2073003 1.1696754-1.2300385 2.058395-2.4603483 2.058395zm-2 9c.33333333-1 .5-2 .5-3 0-2.25-3.5-3.8055796-3.5-8.5 0-4.69442037 3.80557963-8.5 8.5-8.5 4.6944204 0 8.5 3.80557963 8.5 8.5 0 .3333333-.0761719.6523438-.2285156.9570312-.1659275.3340912-.1316545.7327248.0915 1.0316635.3375141.4601258.633186.8805609.8870156 1.2613053.255162.382743.4593444.8055946.6125472 1.2685546.0870281.2620705-.0544217.5452955-.3163531.6327398l-1.0461941.3487056v3l-4 1v2" fill="none" stroke="#000" stroke-linecap="round" stroke-linejoin="round"/></svg>