<svg height="24" viewBox="0 0 24 24" width="24" xmlns="http://www.w3.org/2000/svg"><path d="m18.5015875 11.9277474c.5522844-.0006143 1.0004974.4466027 1.0011118.9988871l.0061949 5.5692165c.0006117.5499944-.4430383.9972491-.9930196 1.001088l-5.5613728.0388182c-.265988.0018566-.5217556-.1023349-.7107306-.2895288-.392369-.3886708-.395367-1.0218287-.0066961-1.4141977l5.5551779-5.6080347c.1875299-.1893142.4428627-.2959521.7093345-.2962486zm-2.6215875-7.8077474c.8284271-.82842712 2.1715729-.82842712 3 0s.8284271 2.17157288 0 3l-11.75 11.75c-.82842712.8284271-2.17157288.8284271-3 0s-.82842712-2.1715729 0-3z" fill="none" stroke="#000" stroke-linecap="round" stroke-linejoin="round"/></svg>