<svg height="24" viewBox="0 0 24 24" width="24" xmlns="http://www.w3.org/2000/svg"><path d="m15.88 4.12-11.75 11.75c-.82842712.8284271-.82842712 2.1715729 0 3s2.17157288.8284271 3 0l11.75-11.75c.8284271-.82842712.8284271-2.17157288 0-3s-2.1715729-.82842712-3 0zm-12.38.37304439v5.57650131c0 .5522848.44771525 1 1 1 .2668558 0 .52264223-.1066595.71044321-.2962454l5.56245999-5.61532717c.3886729-.39236695.3856783-1.02552485-.0066887-1.41419775-.1889753-.18719612-.4447445-.29138903-.7107343-.28955682l-5.56246.03885019c-.54954752.00383582-.9930202.45041473-.9930202.99997564z" fill="none" stroke="#000" stroke-linecap="round" stroke-linejoin="round"/></svg>