<svg height="24" viewBox="0 0 24 24" width="24" xmlns="http://www.w3.org/2000/svg"><path d="m3.5 4.49304439v5.57650131c0 .5522848.44771525 1 1 1 .2668558 0 .52264223-.1066595.71044321-.2962454l5.56245999-5.61532717c.3886729-.39236695.3856783-1.02552485-.0066887-1.41419775-.1889753-.18719612-.4447445-.29138903-.7107343-.28955682l-5.56246.03885019c-.54954752.00383582-.9930202.45041473-.9930202.99997564zm12.38-.37304439-11.75 11.75c-.82842712.8284271-.82842712 2.1715729 0 3s2.17157288.8284271 3 0l11.75-11.75c.8284271-.82842712.8284271-2.17157288 0-3s-2.1715729-.82842712-3 0zm3.6288948 14.375851-.0061955-5.5692165c-.0006144-.5522844-.4488274-.9995014-1.0011118-.9988877-.2664718.0002971-.5218046.106935-.7093345.2962492l-5.5551779 5.6080347c-.3886709.392369-.3856729 1.0255269.0066961 1.4141977.188975.1871939.4447426.2913854.7107306.2895532l5.5613728-.0388426c.5499813-.0038389.9936313-.4510936.9930202-1.001088z" fill="none" stroke="#000" stroke-linecap="round" stroke-linejoin="round"/></svg>