<svg height="24" viewBox="0 0 24 24" width="24" xmlns="http://www.w3.org/2000/svg"><path d="m11.5 20.5c4.9705627 0 9-4.0294373 9-9 0-4.97056275-4.0294373-9-9-9-4.97056275 0-9 4.02943725-9 9 0 4.9705627 4.02943725 9 9 9zm.0548896-6.9451104c1.1045695 0 2-.8954305 2-2s-.8954305-1.99999998-2-1.99999998-1.99999998.89543048-1.99999998 1.99999998.89543048 2 1.99999998 2zm-1.0548896-7.0548896h2l-1-1zm0 10h2l-1 1zm6-6v2l1-1zm-10 0v2l-1-1z" fill="none" stroke="#000" stroke-linecap="round" stroke-linejoin="round"/></svg>