<svg height="24" viewBox="0 0 24 24" width="24" xmlns="http://www.w3.org/2000/svg"><path d="m3.5 3.5v16h16v-16zm8 14c-3.3137085 0-6-2.6862915-6-6s2.6862915-6 6-6 6 2.6862915 6 6-2.6862915 6-6 6zm2.4698423-.5303021-2.4698423-2.4696979m0-3 4.2426407 4.2426407m-4.2426407-10.2426407 6 6m-.5298516 2.4688459-5.4701484-5.4718459m0-4.997v16m-8-4 4 4m-3 0-1-1m7 1-7-7m0-3 2 2m.53030209-2.46984227-2.53030209-2.53015773m0-3 3.75735931 3.75735931m1.77279842-1.22705722-2.53015773-2.53030209m3 0 2 2" fill="none" stroke="#000" stroke-linecap="round" stroke-linejoin="round"/></svg>