<svg height="24" viewBox="0 0 24 24" width="24" xmlns="http://www.w3.org/2000/svg"><path d="m2.5 11.5c0 4.9705627 4.02943725 9 9 9 4.9705627 0 9-4.0294373 9-9 0-4.97056275-4.0294373-9-9-9-4.97056275 0-9 4.02943725-9 9zm9 4c-2.209139 0-4-1.790861-4-4s1.790861-4 4-4 4 1.790861 4 4-1.790861 4-4 4zm0-1 .898918.8985922m1.9295091-1.0701651-2.8284271-2.8294271m0-3 3.8988214 3.8989193m-7.77293784 7.2278984-4.25122301-4.2507001m-.87466055-3.8751176 9 9m0-3-8.61433529-8.6145881m.92907493-2.0715708 3.78666816 3.7872409m-.78656325-6.78695544 3.78723615 3.78705203m-1.93050782 1.07039429-3.53553391-3.53553391m6.36396103.36296103-2.6135827-2.61363998m2.6135827-.38536002v18" fill="none" stroke="#000" stroke-linecap="round" stroke-linejoin="round"/></svg>