<svg height="24" viewBox="0 0 24 24" width="24" xmlns="http://www.w3.org/2000/svg"><path d="m4.5 12.5h2l10-8h2c1.6568542 0 3 1.34314575 3 3s-1.3431458 3-3 3h-2l-10 8h-2c-1.65685425 0-3-1.3431458-3-3s1.34314575-3 3-3zm0 0h2l10-8h2c1.6568542 0 3 1.34314575 3 3s-1.3431458 3-3 3h-2l-10 8h-2c-1.65685425 0-3-1.3431458-3-3s1.34314575-3 3-3zm4-1.6v-2.4c0-.55228475.44771525-1 1-1 .5522847 0 1 .44771525 1 1v.8m-1-4.8c.552 0 1 .448 1 1s-.448 1-1 1-1-.448-1-1 .448-1 1-1zm7 11-3 3m3 0h-3v-3" fill="none" stroke="#000" stroke-linecap="round" stroke-linejoin="round"/></svg>