<svg height="24" viewBox="0 0 24 24" width="24" xmlns="http://www.w3.org/2000/svg"><path d="m4.5 10.5c0-1.33333333 0-2 0-2 0-4.08333333 2.91666667-7 7-7 4.0833333 0 7 2.91666667 7 7 0 0-.6666667 0-2 0m-10 0c0-2.5 1.875-5 5-5 3.0427632 0 4.9004501 2.37015235 4.996116 4.80267714l.003884.19732286c0 3.5-4 5-4 7 0 1.5.5 3.5.5 4.5s-1.1646248 1.5-2 1.5c-.5569168 0-1.05691677-.1666667-1.5-.5m-5-10.5h2.5c1.38071187 0 2.5 1.1192881 2.5 2.5s-1.11928813 2.5-2.5 2.5-2.5-1.1192881-2.5-2.5zm7-9v2" fill="none" stroke="#000" stroke-linecap="round" stroke-linejoin="round"/></svg>