<svg height="24" viewBox="0 0 24 24" width="24" xmlns="http://www.w3.org/2000/svg"><path d="m7 19.2942286c-1.49153426-.8611377-2.16769895-2.5921829-1.75763339-4.1822698-1.58161488-.4389538-2.74236661-1.8899022-2.74236661-3.6119588 0-1.72205656 1.16075173-3.17300503 2.74253212-3.61312232-.40996349-1.5896083.2662287-3.32013897 1.75746788-4.18110631 1.49134297-.86102727 3.3282745-.58126269 4.5003176.56853726l.1352967-.12684454c1.1747153-1.0425049 2.9295078-1.27011985 4.3643857-.44169272 1.4912392.86096734 2.1674314 2.59149801 1.7578766 4.18132605 1.5813717.43989755 2.7421234 1.89084602 2.7421234 3.61290258 0 1.7220566-1.1607517 3.173005-2.7425321 3.6131223.4102311 1.5889234-.2659336 3.3199686-1.7574679 4.1811063-1.491343.8610273-3.3282745.5812627-4.5003176-.5685372-1.1724307 1.1499556-3.00875461 1.4293248-4.4996824.5685372zm5.1225953-1.3725952c.8393183-1.453742.3774047-3.4216334-.6225953-3.4216334s-1.4662874 1.9678914-.6269691 3.4216334c.1747463.3026695.3893704.5717633.6269691.804058.2375987-.2322947.4478489-.5013885.6225953-.804058zm-5.8725953-2.6716334c1.67863667 0 3.15192379-1.3839746 2.65192379-2.25s-2.43738764-.2858965-3.27670598 1.1678455c-.17474634.3026696-.30047638.6230864-.3828501.9450002.31997239.0896192.6581396.1371543 1.00763229.1371543zm-.62259526-6.42163337c.83931833 1.45374197 2.77451905 2.03765877 3.27451905 1.17163337s-.9711002-2.25378786-2.64973687-2.25378786c-.34949269 0-.68984682.051323-1.00981921.14094217.08237372.32191381.21029068.63854277.38503703.94121232zm5.24999996-3.75c-.8393183 1.453742-.3774047 3.42163337.6225953 3.42163337s1.4662874-1.96789137.6269691-3.42163337c-.1747463-.30266955-.3893704-.57176337-.6269691-.804058-.2375987.23229463-.4478489.50138845-.6225953.804058zm5.8725953 2.67163337c-1.6786367 0-3.1519238 1.3839746-2.6519238 2.25s2.4373877.2858965 3.276706-1.16784551c.1747463-.30266955.3004764-.62308637.3828501-.94500018-.3199724-.08961917-.6581396-.13715431-1.0076323-.13715431zm.6225953 6.4216334c-.8393184-1.453742-2.7745191-2.0376588-3.2745191-1.1716334s.9711002 2.2537879 2.6497369 2.2537879c.3494927 0 .6898468-.051323 1.0098192-.1409422-.0823737-.3219138-.2102907-.6385428-.385037-.9412123z" fill="none" stroke="#000" stroke-linecap="round" stroke-linejoin="round"/></svg>