<svg height="24" viewBox="0 0 24 24" width="24" xmlns="http://www.w3.org/2000/svg"><path d="m11.1339119 19.0644832c-.5173034.2051223-1.064868.3503656-1.63414202.4271782m-2.00037561-.0158259c-.56260315-.0850862-1.1032406-.2371365-1.61353212-.4477707m8.18215515-2.1592783c-.3498481.4464753-.7527555.8493827-1.1992308 1.1992308m-8.70401784-.0605838c-.43042286-.3469944-.81891236-.7439122-1.15667114-1.1819563m12.48356388-3.3257073c-.0768126.569274-.2220559 1.1168386-.4271782 1.634142m-13.03889445-.0502693c-.19473516-.5024633-.33314179-1.0330039-.40747093-1.5838727m.01582595-2.0003756c.08231656-.5442904.22730884-1.0680217.42738859-1.56360578m12.96673244-.04992637c.2106342.51029155.3626845 1.05092895.4477707 1.61353215m-2.6503583-4.49129678c.4380441.33775878.8349619.72624828 1.1819563 1.15667114m-10.93949291.04302096c.33496149-.4222227.71762633-.80488754 1.13984903-1.13984903m1.7279989-1.00660823c.49558409-.20007975 1.01931542-.34507203 1.56360575-.42738859m2.00037561-.01582595c.55086882.07432914 1.08140942.21273577 1.58387272.40747093m3.4163574 13.47441125c3.8659932 0 7-3.1340068 7-7 0-3.86599325-3.1340068-7-7-7s-7 3.13400675-7 7c0 3.8659932 3.1340068 7 7 7z" fill="none" stroke="#000" stroke-linecap="round" stroke-linejoin="round"/></svg>