<svg height="24" viewBox="0 0 24 24" width="24" xmlns="http://www.w3.org/2000/svg"><path d="m5.5 11.5c0 3.3137085 2.6862915 6 6 6s6-2.6862915 6-6-2.6862915-6-6-6-6 2.6862915-6 6zm8.5718357 5.4224084c-2.0276925-.9630523-3.4289786-3.0290864-3.4289786-5.4224084 0-2.33465826 1.333433-4.35787658 3.2802583-5.34961444l.1487203-.07279399m-2.5718357-2.57759157v-2m0 20v-2m8-8h2m-20 0h2m13.6568542-5.65685425 1.4142136-1.41421356m-14.14213561 14.14213561 1.41421356-1.4142136m11.31370845 0 1.4142136 1.4142136m-14.14213561-14.14213561 1.41421356 1.41421356" fill="none" stroke="#000" stroke-linecap="round" stroke-linejoin="round"/></svg>