<svg height="24" viewBox="0 0 24 24" width="24" xmlns="http://www.w3.org/2000/svg"><path d="m13.5 21.5v-1l-.3665631-.7331263c-.4165663-.8331326-.6334369-1.751811-.6334369-2.6832816v-5.5835921c0-.5522847.4477153-1 1-1s1 .4477153 1 1l-.0001295 3.1338571c.1471159-.0851314.3179325-.1338571.5001295-.1338571.4364949 0 .8076711.2796624.9441234.669582.1582215-.1072269.3497671-.169582.5558766-.169582.4364949 0 .8076711.2796624.9441234.669582.1582215-.1072269.3497671-.169582.5558766-.169582.5522847 0 1 .4477153 1 1v.5835921c0 .9314706-.2168706 1.850149-.6334369 2.6832816l-.3665631.7331263v1m-11.28557776-19.71279491c1.11913433 1.43944041 1.78557776 3.24828956 1.78557776 5.21279491 0 .33333333-.07617188.65234375-.22851562.95703125-.16592753.33409118-.13165449.73272472.09149999 1.03166347.33751417.4601258.63318604.8805609.88701563 1.26130528.25516203.382743.45934443.8055946.61254721 1.2685546.08702812.2620705-.05442167.5452955-.31635316.6327398l-1.04619405.3487056v3l-4 1v2" fill="none" stroke="#000" stroke-linecap="round" stroke-linejoin="round"/></svg>