<svg height="24" viewBox="0 0 24 24" width="24" xmlns="http://www.w3.org/2000/svg"><path d="m10.5 12.997v-5.497m7-4h1.2792408c.4304304 0 .8125692.27543009.9486833.68377223.2720759.81622777 1.0220759 1.06622777 1.7720759 1.31622777 0 1.1045695-.8954305 2-2 2h-1c-.5522847 0-1 .44771525-1 1v2c0 1.2033215-.7084642 2.2411724-1.7310334 2.7191933.0666973 2.0655972.3103985 3.6591136.7310334 4.7808067 0 0 .5.25.5 1v.5h-2.25c-.6751001-1.8902803-1.0767441-3.889943-1.204932-5.9989881l-6.045068-1.0010119c0 .6666667-.33333333 1.3333333-1 2-1 1-2 1.5-2 3.0068359v.4931641c.33333333.1666667.5.5.5 1v.5h-2.5v-4c2-2 2-3.3431458 2-5 0-1.65685425 1.34314575-3 3-3h4.6386953c.8650878 0 1.6880658-.3734413 2.2577301-1.02448618l1.1035746-1.26251382m-10.47986338 3.59820708c-.48464347-.1322095-.907951-.31975-1.27013662-.56120708-.88287425-.58858283-1.25-1.75-1.25-1.75m13.5-3h1.5v1c0 .82842712-.6715729 1.5-1.5 1.5h-.5v-2c0-.27614237.2238576-.5.5-.5zm.5 6h-6m-5.47986338-.68879292c-.48464347-.1322095-.907951-.31975-1.27013662-.56120708-.88287425-.58858283-1.25-1.75-1.25-1.75m15 4-3.5842022-3.5829722m-11.4157978-4.4170278 11.4157978 4.4170278" fill="none" stroke="#000" stroke-linecap="round" stroke-linejoin="round"/></svg>