<svg height="24" viewBox="0 0 24 24" width="24" xmlns="http://www.w3.org/2000/svg"><path d="m10.5071237 10.5071237c0-.5-.5-1.24999998-.99999998-1.49999998-.5-.25-1-1.5-1-2 0-1.5 1.93209048-1.50712372 2.99287628-1.50712372.75 0 1.5071237 1.00712372 1.5071237 1.50712372l-.0039062.375c-.0117188.375-.0585938.75-.2460938 1.125-.25.5-1.25 1.25-1.25 2.24999998 0 .4764156.25.75.5.75s.75-.5 1-.75 1.25-.99999998 1.5-1.49999998l.1675643-.34846195c.3787539-.8152855.8324357-1.96820472.8324357-2.40153805 0-1.5-2.1633972-3.99998655-4-3.99998655-2.33333332 0-4.49999998.33332885-6.49999998.99998655h-1.44937308l-.05062692 4h1.5l.31944444.47222222c.50925926.74074074.90277778 1.25 1.18055556 1.52777778.5.49999998 1.59947649.67473828 2.25.99999998.5.25.75 1 1 1 .49999998 0 .74999998-.5.74999998-1zm6.471-5.99899998 3.029-.001c.5128359 0 .9355072-.38604019.9932723-.88337888l.0067277-.11662112c0-.55228475-.4477152-1-1-1h-8.5l.1677949.00680307m3.8006978 3.66158657 4.7479434 1.27279131c.5334661.14294181 1.0818031-.17364068 1.2247449-.70710678s-.1736407-1.08180306-.7071068-1.22474487l-6.7956204-1.82138615m4.7155647-1.18724116.0756858-.01992095c.5358795-.13360977.8619836-.67633809.7283738-1.21221762s-.6763381-.8619836-1.2122176-.72837383l-8.0031539 1.9929397m2.2327967 9.97711999c0 .5.5 1.25 1 1.5s1 1.5 1 2c0 1.5-1.9392142 1.5-3 1.5-.75 0-1.49999996-1-1.49999996-1.5l.00390625-.375c.01171875-.375.05859371-.75.24609371-1.125.25-.5 1.25-1.25 1.25-2.25 0-.4764156-.25-.75-.5-.75s-.75.5-.99999996.75c-.25.25-1.25 1-1.5 1.5-.39598573.7919714-1 2.25-1 2.75 0 1.5 2.16339722 3.9999865 3.99999996 3.9999865 2.3333334 0 4.5-.3333288 6.5-.9999865h1.4493731l.0506269-4h-1.5l-.3194444-.4722223c-.5092593-.7407407-.9027778-1.25-1.1805556-1.5277777-.5-.5-1.5994765-.6747383-2.25-1-.5-.25-.75-1-1-1-.5 0-.75.5-.75 1zm-6.47099996 5.999-3.029.001c-.51283584 0-.93550716.3860402-.99327227.8833788l-.00672773.1166212c0 .5522847.44771525 1 1 1h8.49999996l-.1677948-.0068031m-3.80069786-3.6615866-4.74794338-1.2727913c-.53346611-.1429418-1.08180306.1736407-1.22474488.7071068-.14294181.5334661.17364068 1.081803.70710679 1.2247449l6.7956204 1.8213861m-4.71556468 1.1878139-.07568582.0193482c-.53587954.1336098-.86198361.6763381-.72837383 1.2122176.13360977.5358796.67633808.8619836 1.21221762.7283739l7.99813454-1.9926723" fill="none" stroke="#000" stroke-linecap="round" stroke-linejoin="round"/></svg>