<svg height="24" viewBox="0 0 24 24" width="24" xmlns="http://www.w3.org/2000/svg"><path d="m1.5 5.5h20v12h-20zm3 7.5c.34190802.3333333.84190802.5 1.5.5.99449917 0 1.5-.5 1.5-1s-.49725207-.75-1.5-1c-.98122124-.2446331-1.5-.5-1.5-1s.51006335-1 1.5-1c.6658332 0 1.1658332.16666667 1.5.5m8 3c.341908.3333333.841908.5 1.5.5.9944992 0 1.5-.5 1.5-1s-.4972521-.75-1.5-1c-.9812212-.2446331-1.5-.5-1.5-1s.5100634-1 1.5-1c.6658332 0 1.1658332.16666667 1.5.5m-7 3.5c1.1045695 0 2-.8954305 2-2s-.8954305-2-2-2-2 .8954305-2 2 .8954305 2 2 2z" fill="none" stroke="#000" stroke-linecap="round" stroke-linejoin="round"/></svg>