<svg height="24" viewBox="0 0 24 24" width="24" xmlns="http://www.w3.org/2000/svg"><path d="m13 15.5c1.9329966 0 3.5 1.1715729 3.5 2s-1.5670034 1-3.5 1-2.5-1.1715729-2.5-2h-2c-2.58235294 0-5.16470588-1.1114245-5.83366535-3.0153744l-.04971352.0086467-.11662113.0067277c-.55228475 0-1-.4477153-1-1s.44771525-1 1-1c.05725329 0 .1133828.0048115.16800624.0140521.66728788-1.90262765 3.24964082-3.0140521 5.83199376-3.0140521 3.3899187 0 5.3433938 2.1546654 7.0777821 2.8119259.0919434-.3855145.2719857-.7399763.5413924-1.0365694-3.7459738-2.21539395-5.6191745-3.80757534-5.6191745-4.7753565 0-1 1-1.5 2-1.5 1.5499614 0 3.0999228 1.87385671 4.6498843 5.62157014 1.0341749-.3266415 2.3236707.01097477 3.2706207.95792486 1.2727988 1.2727987 1.4447667 3.1644454.3841011 4.2251111-1.0606657 1.0606656-2.9523124.8886977-4.2251111-.3841011-.2598317-.2598317-.4737875-.5454532-.6407459-.8445303-.8920127.2229734-1.8205876.9240026-2.9586923 1.5837277m6.5199432-2.6597024v.25m-7.7695272 5.5290378c-.5474679.1718561-1.3440769.2209622-2.2304728.2209622-1.65685425 0-3-.1715729-3-1 0-.3313708.21490332-.717645.57882598-1.0618805l.04866598-.0426261m5.87250804-.8954934c0-1.9329966-2.0147186-3.5-4.5-3.5" fill="none" stroke="#000" stroke-linecap="round" stroke-linejoin="round"/></svg>