<svg height="24" viewBox="0 0 24 24" width="24" xmlns="http://www.w3.org/2000/svg"><path d="m6.5 10.5-1.80083567 4.5014359m7.60167137 0-1.8008357-4.5014359m-9 3c0-2.8270584 3-7 7-7s7 4 7 7c-1 1-4 2-7 2s-6-1-7-2zm11.7824928-4.85526422-2.7824928 1.85526422h-4l-2.74671474-1.83116745m11.23548004 2.51862625c1.5270701-1.19759397 1.6891974-3.6874588 3.5112347-3.6874588 2 0 3 1.5 3 3s-2 2-3 2l-3.1021744.0007339m-.5831756 1.5113822.0350936-.0212112c.4039933.2664412.6502564.6205128.6502564 1.0090951 0 .8284271-1.1192881 1.5-2.5 1.5-1.1798811 0-2.168858-.4904147-2.4315976-1.1500442m-4.13800986.0001245c-.2607253.6591036-1.25002872 1.1499197-2.43039254 1.1499197-1.38071187 0-2.5-.6715729-2.5-1.5 0-.3765578.23125788-.7207077.61320786-.9841102l.03722295-.0247368m17.34956919-4.491153v.25" fill="none" stroke="#000" stroke-linecap="round" stroke-linejoin="round"/></svg>