<svg height="24" viewBox="0 0 24 24" width="24" xmlns="http://www.w3.org/2000/svg"><path d="m15.5 7.5v1.5l4.5 1.5.5943949-1.38692153c.5949525-1.38818316.0651644-3.00221012-1.2367252-3.76778466-2.0919965-1.23019587-4.7112197-1.84529381-7.8576697-1.84529381-3.14645677 0-5.76568448.61510058-7.85768312 1.84530173-1.30186795.76557966-1.83164921 2.37958949-1.23671729 3.76776397l.59440041 1.3869343 4.5-1.5v-1.5c1-.66666667 2.33333333-1 4-1 1.6666667 0 3 .33333333 4 1zm-8 12h8m-11-6h2m2 0h2m2 0h2m2 0h2m-14 2h2m2 0h2m2 0h2m2 0h2m-14 2h2m2 0h2m2 0h2m2 0h2" fill="none" stroke="#000" stroke-linecap="round" stroke-linejoin="round"/></svg>