<svg height="24" viewBox="0 0 24 24" width="24" xmlns="http://www.w3.org/2000/svg"><path d="m5.5 11.5c0 3.3137085 2.6862915 6 6 6s6-2.6862915 6-6-2.6862915-6-6-6-6 2.6862915-6 6zm0 0c0 3.3137085 2.6862915 6 6 6s6-2.6862915 6-6-2.6862915-6-6-6-6 2.6862915-6 6zm10.4714352 4.0008689h-8.94287041m-1.1869109-2.000183h11.31669221m-11.31704842-4.00036409h11.31740462m.3412977 1.99967819h-12m10.4723307-3.9998685h-8.94466141m4.47233071-4.0001315v-2m0 20v-2m8-8h2m-20 0h2m13.6568542-5.65685425 1.4142136-1.41421356m-14.14213561 14.14213561 1.41421356-1.4142136m11.31370845 0 1.4142136 1.4142136m-14.14213561-14.14213561 1.41421356 1.41421356" fill="none" stroke="#000" stroke-linecap="round" stroke-linejoin="round"/></svg>