<svg height="24" viewBox="0 0 24 24" width="24" xmlns="http://www.w3.org/2000/svg"><path d="m21.5 11.5s-4 6-10 6-10-6-10-6 4-6 10-6 10 6 10 6zm-13.03143407-2.60995253c.06445207-.07470334.13212105-.1475887.20300695-.21847459 1.56199892-1.56199888 4.09485532-1.56199888 5.65685422 0 1.5619989 1.56199892 1.5619989 4.09485532 0 5.65685422-.3137772.3137772-.6667319.5645223-1.043124.7522352m-9.7853031-12.5806623 14 18m-12.68992758-12.45852402 7.33832288 9.43516412c-.2134069.0153792-.429571.0233599-.6483953.0233599m-8.45072913-7.86445711 5.81584983 7.47773141" fill="none" stroke="#000" stroke-linecap="round" stroke-linejoin="round"/></svg>