<svg height="24" viewBox="0 0 24 24" width="24" xmlns="http://www.w3.org/2000/svg"><path d="m7 10 1.5-2-2.5-4.5-3.18399352 1.41510823c-.8418822.37417053-1.31925041 1.27503102-1.15611952 2.18176006.52110442 2.8964502 2.3011421 5.86416081 5.34011304 8.90313171 3.0389624 3.0389624 6.0066648 4.8189986 8.9031072 5.3401086.9067361.1631545 1.8076084-.3142186 2.1817829-1.1561112l1.4151099-3.1839974-4.5-2.5-2 1.5c-1.1333333-.4666667-2.3-1.3-3.5-2.5s-2.03333333-2.3666667-2.5-3.5zm14.5.5c0-4.97064706-4.0293529-9-9-9m6 9c0-3.3135-2.6865-6-6-6m3 6c0-1.65685714-1.3431429-3-3-3" fill="none" stroke="#000" stroke-linecap="round" stroke-linejoin="round"/></svg>