<svg height="24" viewBox="0 0 24 24" width="24" xmlns="http://www.w3.org/2000/svg"><path d="m17.8643 5.1357c3.515 3.515 3.515 9.214 0 12.729-3.515 3.514-9.214 3.514-12.729 0-3.514-3.515-3.514-9.214 0-12.729 3.515-3.515 9.214-3.515 12.729 0zm-6.1622-2.6259c.05 2.235.92 4.456 2.626 6.162s3.927 2.576 6.162 2.626m-5.4549-3.333-1.414 1.414m5.0009.6564-.518 1.932m-7.0709-7.0717 1.932-.518m.7994 1.9301-1.732 1m4.6598 1.9278-1 1.732m-4.3945 9.5228c-.05-2.235-.92-4.456-2.626-6.162s-3.927-2.576-6.162-2.626m6.869 1.9189-1.414 1.414m-3.0694-4.0019-.518 1.932m5.6577 5.6569 1.932-.518m-.9994-2.4117-1.732 1m-1.9282-4.6602-1 1.732" fill="none" stroke="#000" stroke-linecap="round" stroke-linejoin="round"/></svg>