<svg height="24" viewBox="0 0 24 24" width="24" xmlns="http://www.w3.org/2000/svg"><path d="m20.2279406 3.26252878c-1.4142136-1.41421356-2.8594293-.67610461-4.2426407.70710678-2.0748171 2.07481709-4.6103695 6.65543404-7.4852999 9.53036444l-3.769 3.769-.46818061-.4665142c-.40325662-.4031513-1.05671403-.4033382-1.46020103-.0004177-.3719721.3714499-.40109408.956445-.08700602 1.3613275l.08633892.0979079 2.43503049 2.4360642c.40333853.4035097 1.0572795.4035097 1.46061804 0 .37218487-.3723429.40081448-.9582343.08588881-1.3634308l-.08613913-.0975568-.46634947-.4673801 3.769-3.7705802c2.7042421-2.7042421 7.0150173-5.15287899 9.2424211-7.22510462l.2784127-.26814571c1.4186197-1.41861972 2.1213203-2.82842713.7071068-4.24264069z" fill="none" stroke="#000" stroke-linecap="round" stroke-linejoin="round"/></svg>