<svg height="24" viewBox="0 0 24 24" width="24" xmlns="http://www.w3.org/2000/svg"><path d="m17.8643 5.1357c3.515 3.515 3.515 9.214 0 12.729-3.515 3.514-9.214 3.514-12.729 0-3.514-3.515-3.514-9.214 0-12.729 3.515-3.515 9.214-3.515 12.729 0zm-5.4102-2.581c.209 1.976 1.067 3.896 2.581 5.41 1.515 1.514 3.435 2.372 5.41 2.581m-9.8992 9.8996c-.209-1.976-1.067-3.896-2.581-5.41-1.515-1.514-3.435-2.372-5.41-2.581m2.5808-7.3186 12.729 12.729m-12.729-.0004 12.729-12.729" fill="none" stroke="#000" stroke-linecap="round" stroke-linejoin="round"/></svg>