<svg height="24" viewBox="0 0 24 24" width="24" xmlns="http://www.w3.org/2000/svg"><path d="m17.8643 5.1357c3.515 3.515 3.515 9.214 0 12.729-3.515 3.514-9.214 3.514-12.729 0-3.514-3.515-3.514-9.214 0-12.729 3.515-3.515 9.214-3.515 12.729 0zm-8.3643 3.3643c.5522847 0 1-.44771525 1-1s-.4477153-1-1-1c-.55228475 0-1 .44771525-1 1s.44771525 1 1 1zm4 0c.5522847 0 1-.44771525 1-1s-.4477153-1-1-1-1 .44771525-1 1 .4477153 1 1 1zm-2 4c.5522847 0 1-.4477153 1-1s-.4477153-1-1-1-1 .4477153-1 1 .4477153 1 1 1z" fill="none" stroke="#000" stroke-linecap="round" stroke-linejoin="round"/></svg>