<svg height="24" viewBox="0 0 24 24" width="24" xmlns="http://www.w3.org/2000/svg"><path d="m11.5 1.5c1.3807119 0 2.5 1.11928813 2.5 2.5 0 2.05010336-1 3.43423447-1 5.5 0 2.0657655 2 4.0657655 2 7 0 1.9561563-.5 3.622823-1.5 5h-4c-1-1.3271021-1.5-2.9937688-1.5-5 0-3.0093469 2-5.0093469 2-7 0-1.99065313-1-3.61207691-1-5.5 0-1.38071187 1.1192881-2.5 2.5-2.5zm-2.78103005 18.678616c-.06901049.1091482-.14252943.2161119-.21896995.321384h-4c-1-1.3271021-1.5-2.9937688-1.5-5 0-3.0093469 2-4.0093469 2-6 0-1.99065313-1-2.61207691-1-4.5 0-1.38071187 1.11928813-2.5 2.5-2.5s2.5 1.11928813 2.5 2.5c0 2.05010336-1 2.43423447-1 4.5 0 1.109172.57658815 1.91109 1.11058923 2.8701356m4.75057017-.0063963c.5422726-.9848296 1.1388406-1.7765364 1.1388406-2.8637393 0-1.99065313-1-2.61207691-1-4.5 0-1.38071187 1.1192881-2.5 2.5-2.5s2.5 1.11928813 2.5 2.5c0 2.05010336-1 2.43423447-1 4.5 0 2.0657655 2 3.0657655 2 6 0 1.9561563-.5 3.622823-1.5 5h-4c-.0806992-.1070961-.1581423-.2164036-.2323292-.3279225m-4.34658924-11.67198645 3.15584274-.00148859m.0627504 2.00144324-3.28754847-.0003094m-1.69051269.0007893-3.3341523-.0000761m.07883605-2.00042959 3.18500463-.00169402m6.81499538.00169402 3.1850046-.00169402m.0702827 2.00211191h-3.3341487" fill="none" stroke="#000" stroke-linecap="round" stroke-linejoin="round"/></svg>