<svg height="24" viewBox="0 0 24 24" width="24" xmlns="http://www.w3.org/2000/svg"><path d="m8.5 12.5h-2c-1.65685425 0-3-1.3431458-3-3v-3l.00489531-.19964034c.10402581-2.11639119 1.8529093-3.80035966 3.99510469-3.80035966h8c2.209139 0 4 1.790861 4 4l.0008825 3.7646837m-5.0008825 3.2353163h-2c-1.1045695 0-2-.8954305-2-2s.8954305-2 2-2h5c1.6568542 0 3 1.3431458 3 3v2c0 1.3058822-.8343774 2.4168852-1.9990993 2.8289758l-.0009007 3.1710242h-11l.00008893-3.1706743c-1.16523883-.4118113-2.00008893-1.5230736-2.00008893-2.8293257l-.00083226-2.171" fill="none" stroke="#000" stroke-linecap="round" stroke-linejoin="round"/></svg>