<svg height="24" viewBox="0 0 24 24" width="24" xmlns="http://www.w3.org/2000/svg"><path d="m6.50009522 5.25314356c3.14146415-2.5205908 7.74341708-2.32404014 10.65710928.58965198 3.1244607 3.12446071 3.1244607 8.19026486 0 11.31472556-3.1244608 3.1235719-8.19026492 3.1235719-11.31472563 0-2.91311841-2.9139474-3.10939234-7.5164515-.58882181-10.65793492m6.24634294 10.00041382c2.7614237 0 5-2.2385763 5-5 0-2.76142375-2.2385763-5-5-5-2.76142375 0-5 2.23857625-5 5 0 2.7614237 2.23857625 5 5 5zm0-3c1.1045695 0 2-.8954305 2-2s-.8954305-2-2-2-2 .8954305-2 2 .8954305 2 2 2zm0-2-5-5m-2 0h2v-2l-3-3v2h-2zm7-5v2m-2.73616115 15.517541-1.26383885 2.482459m8 0-1.2638389-2.482459" fill="none" stroke="#000" stroke-linecap="round" stroke-linejoin="round"/></svg>