<svg height="24" viewBox="0 0 24 24" width="24" xmlns="http://www.w3.org/2000/svg"><path d="m17.183021 3.17180355-13.68102981 16.32819645 16.32636351-13.68283224c.7948947-.66618698.8992329-1.85062771.2330459-2.64552241-.035334-.04216049-.0725033-.08274808-.1114006-.12164535-.7332814-.73328143-1.9221655-.73328143-2.6554469 0-.0389458.03894576-.0761591.07958625-.1115321.12180355zm-2.7399493 3.27023538 2.116 2.116m-9.05840815 7.59042317-.00066355 5.3515379 3.3005549-2.7314937c1.8523496-1.532979 2.2178309-4.1963057.9236692-6.158571m-1.332122-1.3334458c-1.81088812-1.1949982-4.27132556-.9954947-5.86533074.5985105-.10345866.1034587-.20199344.2117267-.29527765.3244451l-2.73149371 3.3005549 5.35466355-.0005379m13.09533645-12.4494621 1.55-1.55" fill="none" stroke="#000" stroke-linecap="round" stroke-linejoin="round"/></svg>