<svg height="24" viewBox="0 0 24 24" width="24" xmlns="http://www.w3.org/2000/svg"><path d="m8.5 9.87474001v3.24999999m-2.76737478-3.59566185 15.76737478 1.97092185-15.76737478 1.9709218c-1.08851008.1360638-2.08122332-.6360465-2.21728708-1.7245566-.01021554-.0817243-.01533814-.1640049-.01533814-.2463652 0-1.0969811.88927889-1.98625999 1.98625999-1.98625999.08236032 0 .16464091.0051226.24636523.01533814zm-4.23262522 1.97092185h2m14.4437838.4430889 3.5562162 3.5569111-3.0386106.3798263c-2.2699962.2837496-4.3525149-1.2098263-4.8502114-3.3939039m-.0003942-1.9729796c.4483117-1.96254147 2.2047152-3.42685389 4.3031273-3.42685389.1830229 0 .3658687.01138356.5474783.03408476l3.0386106.37982633-3.5562162 3.5550889" fill="none" stroke="#000" stroke-linecap="round" stroke-linejoin="round"/></svg>