<svg height="24" viewBox="0 0 24 24" width="24" xmlns="http://www.w3.org/2000/svg"><path d="m5.5 15.5c0 .553-.448 1-1 1h-1c-.552 0-1-.447-1-1v-8c0-.553.448-1 1-1h1c.552 0 1 .447 1 1m12 8c0 .553.448 1 1 1h1c.552 0 1-.447 1-1v-8c0-.553-.448-1-1-1h-1c-.552 0-1 .447-1 1m-10 11h-1c-.552 0-1-.447-1-1v-12c0-.553.448-1 1-1h1c.552 0 1 .447 1 1v12c0 .553-.448 1-1 1zm8-14h1c.552 0 1 .447 1 1v12c0 .553-.448 1-1 1h-1c-.552 0-1-.447-1-1v-12c0-.553.448-1 1-1zm-7 7h6m6 0h1m-20 0h1" fill="none" stroke="#000" stroke-linecap="round" stroke-linejoin="round"/></svg>