<svg height="24" viewBox="0 0 24 24" width="24" xmlns="http://www.w3.org/2000/svg"><path d="m4.25 15.75-.21.21c-.55228475.5522847-.55228475 1.4477153 0 2s1.44771525.5522847 2 0l13.66-13.66c.4142136-.41421356 1.0857864-.41421356 1.5 0 .3823404.38234043.4117512.98396323.0882324 1.40003941l-.0882531.0999399-13.66084333 13.66008969c-1.38076112 1.3806849-3.61934594 1.380654-5.00006897-.000069-1.331287-1.331287-1.37883296-3.4601884-.14263789-4.8484479l.35350682-.3616162c.41425931-.4141885 1.08584014-.4141598 1.50006407.0000641.41421356.4142136.41421356 1.0857864 0 1.5zm4.25-.25 1.49942407 1.5m7.50057593-10.5 1.5 1.5" fill="none" stroke="#000" stroke-linecap="round" stroke-linejoin="round"/></svg>