<svg height="24" viewBox="0 0 24 24" width="24" xmlns="http://www.w3.org/2000/svg"><path d="m11.5 15.5c3.8659932 0 7-3.1340068 7-7 0-3.86599325-3.1340068-7-7-7-3.86599325 0-7 3.13400675-7 7 0 3.8659932 3.13400675 7 7 7zm-1 6v-4l-1.6917726-2.5362605m5.3827067.0003496-1.6909341 2.5359109v4m-3.70710678-15.29289322c-.3904408-.39044079-.39049972-1.02371384 0-1.41421356s1.02377277-.3904408 1.41421358 0m.5857864 4.41421356c-.3904408-.39044079-.3904997-1.02371384 0-1.41421356s1.0237728-.3904408 1.4142136 0m2.5857864 1.41421356c-.3904408-.39044079-.3904997-1.02371384 0-1.41421356s1.0237728-.3904408 1.4142136 0m-9.41421358 1.41421356c-.3904408-.39044079-.39049972-1.02371384 0-1.41421356s1.02377277-.3904408 1.41421356 0m.58578644 4.41421358c-.3904408-.3904408-.39049972-1.0237139 0-1.4142136s1.02377277-.3904408 1.41421358 0m2.5857864-4.58578642c-.3904408-.39044079-.3904997-1.02371384 0-1.41421356s1.0237728-.3904408 1.4142136 0m-1.4142136 7.41421358c-.3904408-.3904408-.3904997-1.0237139 0-1.4142136s1.0237728-.3904408 1.4142136 0m-4.7071068 10.7071068h4" fill="none" stroke="#000" stroke-linecap="round" stroke-linejoin="round"/></svg>