<svg height="24" viewBox="0 0 24 24" width="24" xmlns="http://www.w3.org/2000/svg"><path d="m1.5 17.5v1c2.33333333.6666667 5.66666667 1 10 1 2.3333333 0 5.1666667-.1666667 8.5-.5m-8.1892331-12.15574592-1.3107669.65574592m10 8-.5 1.5c-1.6666667.3333333-5.1666667.5-8.5.5-3.33333333 0-6-.1666667-8-.5l.0006192-2.485134m8.4993808-4.514866.8998251-.89907466m1.6001749 2.39907466.4737208-.9476619m-11.4737208-5.0523381c3.5 0 4.5-2 8-2l.0049956.41418606c.0867848 4.71025183 1.2485255 7.58581394 9.9950044 7.58581394l-.0016283.5102789c-.0122125 1.2319356-.1160188 2.1661917-.9983717 3.4897211l-.9996017-.0043241c-8.0151912-.0711197-8.3850137-.9956759-18.0003983-.9956759 0-6 2-6 2-9zm9.0013696 11.9947184.4521075-2.2637975" fill="none" stroke="#000" stroke-linecap="round" stroke-linejoin="round"/></svg>