<svg height="24" viewBox="0 0 24 24" width="24" xmlns="http://www.w3.org/2000/svg"><path d="m11.5 8c1.1045695 0 2-.8954305 2-2s-.8954305-2-2-2-2 .8954305-2 2 .8954305 2 2 2zm0 7c1.1045695 0 2-.8954305 2-2s-.8954305-2-2-2-2 .8954305-2 2 .8954305 2 2 2zm2-3.5c1.1045695 0 2-.8954305 2-2s-.8954305-2-2-2-2 .8954305-2 2 .8954305 2 2 2zm2 3.5c1.1045695 0 2-.8954305 2-2s-.8954305-2-2-2-2 .8954305-2 2 .8954305 2 2 2zm-6-3.5c1.1045695 0 2-.8954305 2-2s-.8954305-2-2-2-2 .8954305-2 2 .8954305 2 2 2zm4 7c1.1045695 0 2-.8954305 2-2s-.8954305-2-2-2-2 .8954305-2 2 .8954305 2 2 2zm4 0c1.1045695 0 2-.8954305 2-2s-.8954305-2-2-2-2 .8954305-2 2 .8954305 2 2 2zm-12 0c1.1045695 0 2-.8954305 2-2s-.8954305-2-2-2-2 .8954305-2 2 .8954305 2 2 2zm4 0c1.1045695 0 2-.8954305 2-2s-.8954305-2-2-2-2 .8954305-2 2 .8954305 2 2 2zm-2-3.5c1.1045695 0 2-.8954305 2-2s-.8954305-2-2-2-2 .8954305-2 2 .8954305 2 2 2zm7.4634603-11.00554949 6.0692315 10.50443909c1.1051827 1.9128163.4504664 4.3593879-1.4623499 5.4645707-.6083408.3514858-1.2985289.5365397-2.0011104.5365397h-12.13846298c-2.209139 0-4-1.790861-4-4 0-.7025815.18505392-1.3927696.53653971-2.0011104l6.06923148-10.50443909c1.10518275-1.9128163 3.55175439-2.56753266 5.46457069-1.4623499.6072112.35083317 1.1115167.85513864 1.4623499 1.4623499z" fill="none" stroke="#000" stroke-linecap="round" stroke-linejoin="round"/></svg>