<svg height="24" viewBox="0 0 24 24" width="24" xmlns="http://www.w3.org/2000/svg"><path d="m17.8643 5.1357c3.515 3.515 3.515 9.214 0 12.729-3.515 3.514-9.214 3.514-12.729 0-3.514-3.515-3.514-9.214 0-12.729 3.515-3.515 9.214-3.515 12.729 0zm-6.3643 11.3643c3.3137085 0 6-2.6862915 6-6s-2.6862915-6-6-6-6 2.6862915-6 6 2.6862915 6 6 6zm1.5-8.5c0 .828375-.67175 1.5-1.5 1.5s-1.5-.671625-1.5-1.5.67175-1.5 1.5-1.5 1.5.671625 1.5 1.5zm-3.5 3.5c0 1.1044444.8954286 2 2 2s2-.8955556 2-2-.8954286-2-2-2-2 .8955556-2 2z" fill="none" stroke="#000" stroke-linecap="round" stroke-linejoin="round"/></svg>