<svg height="24" viewBox="0 0 24 24" width="24" xmlns="http://www.w3.org/2000/svg"><path d="m9.8907879 13.1092121c-2.1213313-2.1213313-1.77739554-5.90462463.768202-8.45022219 2.5455976-2.54559755 6.3288909-2.88953331 8.4502222-.76820201 2.1213313 2.12133129 1.7773955 5.90462463-.768202 8.4502222-2.5455976 2.5455975-6.3288909 2.8895333-8.4502222.768202zm9.7424419-2.4765476-7.2658943-7.26589426m-3.00056526 3.00056522 7.26589426 7.26589434m.6123087-10.87757957-8.48964471 8.48833277m3.00068851 3.0006885 8.4883328-8.48964474m-11.2443498 9.74497324-1.5-1.5-5 5.0016768 1.5 1.4958966zm-.46601182-5.2923886-1.03398818 3.7923886m1.5 1.5 3.7923886-1.0339882" fill="none" stroke="#000" stroke-linecap="round" stroke-linejoin="round"/></svg>