<svg height="24" viewBox="0 0 24 24" width="24" xmlns="http://www.w3.org/2000/svg"><path d="m19.9784271 2.67842712.3431458.34314576c1.5121025 1.507952 1.5625059 3.92484706.1531494 5.49533448l-.1510026.15937295-12.23343273 12.21058039c-.78229518.7789612-2.04779704.7784808-2.82950053-.0010743l-3.17157288-3.1715728c-.74095767-.7389239-.77995544-1.9143545-.117906-2.7001391l.1168326-.1272147 12.23128594-12.21058112c1.5645903-1.55792254 4.095594-1.55696164 5.659001.00214844zm-17.4784271 11.82157288-1.5-1.5 2-2 1.5 1.5m6 6 1.5 1.5-2 2-1.5-1.5m3-15-1.5-1.5 2-2 1.5 1.5m6 6 1.5 1.5-2 2-1.5-1.5" fill="none" stroke="#000" stroke-linecap="round" stroke-linejoin="round"/></svg>