<svg height="24" viewBox="0 0 24 24" width="24" xmlns="http://www.w3.org/2000/svg"><path d="m17.8643 5.1357c3.515 3.515 3.515 9.214 0 12.729-3.515 3.514-9.214 3.514-12.729 0-3.514-3.515-3.514-9.214 0-12.729 3.515-3.515 9.214-3.515 12.729 0zm-7.2481 3.0059-2.475 2.475.884 3.358 3.359.884 2.474-2.475-.884-3.358zm0 0-.884-3.359-3.139-.827m-2.6371 2.6372.826 3.14m10.0763 2.651 3.359.884 2.259-2.259m-.9901-3.6592-3.036-.8m-2.4757 2.4758 2.476-2.476-.8-3.036m-3.6594-.99-2.259 2.259m-1.5906 5.8338-3.359-.884-2.259 2.259m.9901 3.6592 3.036.8m2.4757-2.4758-2.476 2.476.8 3.036m3.6594.99 2.259-2.259m-.884-3.3592.884 3.359 3.139.827m2.6371-2.6372-.826-3.14" fill="none" stroke="#000" stroke-linecap="round" stroke-linejoin="round"/></svg>