<svg height="24" viewBox="0 0 24 24" width="24" xmlns="http://www.w3.org/2000/svg"><path d="m10.0645818 14.4994721c-.39388201-.2102936-.80577614-.3997252-1.2140533-.5856333l-.40762656-.1859992c-1.55171193-.7134377-2.94290194-1.4605374-2.94290194-3.2278396 0-1.99672987.5-3.49899339 2-5-.25.75-.25 3 1 3 0-3.5 2-6 5-7-.25.75-.5 2-.5 3s.5 1.97228564 1.5 3c.5-.5 1-1.5 1-2.5 1 1 2.0000912 2.4 2.0000912 5.5 0 2.4585105-2.5158842 2.9337399-4.5547293 3.9994721m-2.0807743-.0000286c-.6660335-.4553229-1.3645876-.8781062-1.3645876-1.9994435 0-1.5 2-2 2-4 1.0177857 1.09713199 2 2.5 2 4 0 1.1409091-.7388822 1.525971-1.4106858 1.9998375m-2.5893142 7.0001625h4m-3 0v-2l-8-5h18l-8 5v2" fill="none" stroke="#000" stroke-linecap="round" stroke-linejoin="round"/></svg>