<svg height="24" viewBox="0 0 24 24" width="24" xmlns="http://www.w3.org/2000/svg"><path d="m17.8643 5.1357c3.515 3.515 3.515 9.214 0 12.729-3.515 3.514-9.214 3.514-12.729 0-3.514-3.515-3.514-9.214 0-12.729 3.515-3.515 9.214-3.515 12.729 0zm-9.90607517-1.91240708.01132673.02228999c.38956346.71038042.85933116 1.34055661 1.4093031 1.89052855 1.41421354 1.41421356 3.70423274.87580566 5.65685424 2.82842712s1.9526215 5.11844632 0 7.07106782-5.11844635 1.9526215-7.07106781 0c-1.95262145-1.9526215-1.41421356-4.2426407-2.82842712-5.65685426-.5556175-.5556175-1.19309432-1.02937569-1.91243046-1.42127456" fill="none" stroke="#000" stroke-linecap="round" stroke-linejoin="round"/></svg>