<svg height="24" viewBox="0 0 24 24" width="24" xmlns="http://www.w3.org/2000/svg"><path d="m14.5010769 19.9860578c.6656439-1.3295404.9989231-3.1603132.9989231-5.490611 0-1.717871-.5434483-3.5271616-1.6303448-5.42787181m3.7223374 9.05944981-.0915376.0820474c.666511-1.4757138.9997665-3.0454045.9997665-4.7090722 0-1.5484085-.5774255-3.53256645-1.7322764-5.95247396m1.0963549-2.41182604c3.515 3.515 3.515 9.214 0 12.729-3.515 3.514-9.214 3.514-12.729 0-3.514-3.515-3.514-9.214 0-12.729 3.515-3.515 9.214-3.515 12.729 0zm-6.3643 6.3643s1 2 1 4.5-1 4.5-1 4.5m-8.84768262-10.64552327c.81859384 1.24123477 2.23745 2.44524937 4.25554712 3.61039827 1.48771989.8589355 3.3263356 1.2929408 5.5158472 1.3020158m-9.70688231-1.3060861-.02528637-.1202976c.94475011 1.3150724 2.13751441 2.3885254 3.57829291 3.2203593 1.34096106.7742042 3.34800501 1.2662181 6.02113187 1.4760416m1.5405252 2.1553842c-4.80157933 1.2865793-9.73705811-1.5629207-11.0236374-6.3645-1.28571327-4.80107926 1.56378673-9.73655804 6.3645-11.02363733 4.8010793-1.28571327 9.7365581 1.56378673 11.0236374 6.3645 1.2865793 4.80157933-1.5629207 9.73705803-6.3645 11.02363733zm-2.3294955-8.6937954s-2.23205083-.1339746-4.39711433-1.3839746c-2.16506351-1.25000004-3.39711432-3.11602545-3.39711432-3.11602545m13.64313485-2.33955628c-1.4842377.08830569-3.236373.71506387-5.2544701 1.88021279-1.4877199.85893548-2.78288739 2.23422078-3.88550245 4.12585594m5.98454495-7.75336366.1168239.03825013c-1.6112611.16064143-3.1372809.65687907-4.57805935 1.48871293-1.34096107.77420423-2.77057956 2.26634834-4.28885547 4.47643233m-2.63688007.25644184c1.2865793-4.80157929 6.22205807-7.65107929 11.02363739-6.3645 4.8007132 1.28707929 7.6502132 6.22255807 6.3645 11.02363733-1.2870793 4.8007133-6.2225581 7.6502133-11.02363739 6.3645-4.80157929-1.2865793-7.65107929-6.222058-6.3645-11.02363733zm8.69379549 2.32949543s1.2320508-1.86602536 3.3971143-3.11602536 4.3971143-1.38397459 4.3971143-1.38397459" fill="none" stroke="#000" stroke-linecap="round" stroke-linejoin="round"/></svg>