<svg height="24" viewBox="0 0 24 24" width="24" xmlns="http://www.w3.org/2000/svg"><path d="m21.5 8.5v3l-7.0586575 1.6938715c.038644.2631132.0586575.5322836.0586575.8061285 0 3.0375661-2.4624339 5.5-5.5 5.5-3.03756612 0-5.5-2.4624339-5.5-5.5s2.46243388-5.5 5.5-5.5h3.5v1h2v-1zm-17.83464503 6.8438528c-.19971685.1000796-.42598826.1561472-.66535497.1561472-.82842712 0-1.5-.6715729-1.5-1.5s.67157288-1.5 1.5-1.5c.23936671 0 .46563812.0560676.66639778.1557863m9.83360222-7.1557863v-3m2 3 1-2m-5 2-1-2m11 4v1" fill="none" stroke="#000" stroke-linecap="round" stroke-linejoin="round"/></svg>