<svg height="24" viewBox="0 0 24 24" width="24" xmlns="http://www.w3.org/2000/svg"><path d="m16.2031 6.0547-1.406-2.109c-.186-.279-.498-.446-.832-.446h-4.93c-.334 0-.646.167-.832.446l-1.406 2.109c-.186.278-.498.445-.832.445h-2.465c-.553 0-1 .448-1 1v10c0 .553.447 1 1 1h16c.553 0 1-.447 1-1v-10c0-.552-.447-1-1-1h-2.465c-.334 0-.646-.167-.832-.445zm-.7031 5.4453c0 2.209-1.791 4-4 4s-4-1.791-4-4 1.791-4 4-4 4 1.791 4 4z" fill="none" stroke="#000" stroke-linecap="round" stroke-linejoin="round"/></svg>