<svg height="24" viewBox="0 0 24 24" width="24" xmlns="http://www.w3.org/2000/svg"><path d="m12.5 22.5h.001c.991 0 1.698-.962 1.402-1.909l-3.877-12.407c-.348-1.116-.526-2.279-.526-3.448 0-1.37.774-2.623 2-3.236l.001.001c.64.64.999 1.507.999 2.412 0 1.629-.767 3.162-2.07 4.14l-.73.547c-2.014 1.511-3.2 3.882-3.2 6.4 0 2.486 2.015 4.501 4.5 4.502h.136c2.412.001 4.37-1.951 4.3760122-4.363v-.222c.0049878-1.886-1.5240122-3.418-3.4100122-3.417h-.101c-1.933 0-3.5 1.566-3.501 3.499v.001" fill="none" stroke="#000" stroke-linecap="round" stroke-linejoin="round"/></svg>