<svg height="24" viewBox="0 0 24 24" width="24" xmlns="http://www.w3.org/2000/svg"><path d="m9.6494 15.1533-.232.927c-.106.425-.393.782-.785.978l-1.271.636c-.712.356-1.253.98-1.504 1.734l-.357 1.072h12l-.358-1.072c-.251-.754-.792-1.378-1.504-1.734l-1.271-.636c-.392-.196-.679-.553-.784-.978l-.233-.927m-6.5516.0274c-1.845-2.354-1.71-5.755.459-7.923 2.343-2.344 6.142-2.344 8.484 0 2.169 2.168 2.304 5.569.459 7.923m2.414 1.818c2.735-3.53 2.49-8.622-.751-11.862-3.514-3.516-9.213-3.516-12.728 0-3.24 3.24-3.485 8.332-.751 11.862m11.8164-1.818c1.845-2.354 1.71-5.755-.459-7.923-2.343-2.344-6.142-2.344-8.484 0-2.169 2.168-2.304 5.569-.459 7.923m5.6012.8945c-.534.4-1.267.4-1.801 0-1.321-.992-2.099-2.548-2.099-4.2v-.375c0-1.657 1.342-3 3-3 1.657 0 3 1.343 3 3v.375c0 1.652-.779 3.208-2.1 4.2z" fill="none" stroke="#000" stroke-linecap="round" stroke-linejoin="round"/></svg>