<svg height="24" viewBox="0 0 24 24" width="24" xmlns="http://www.w3.org/2000/svg"><path d="m15.5 11.5c0 2.209-1.791 4-4 4s-4-1.791-4-4 1.791-4 4-4 4 1.791 4 4zm-5-8c0 .553-.447 1-1 1s-1-.447-1-1 .447-1 1-1 1 .447 1 1zm-1 1c0 1.04.24 2.199.554 3.271m-7.554-5.271c2 2 0 3 2 5 .836.836 2.14 1.023 3.711 1.725m-.543 3.4254c-.057-.046-.113-.096-.168-.15-1-1-2-2-4-2-.5 0-1 .5-1 1s.5 1 1 1m6.4199 2.6754c-.214 1.747.033 3.685.58 5.324m-1.828-6.1717-.172.172c-1 1-3 1-4 1-.5 0-1 .5-1 1s.5 1 1 1m8.0001-14.0001c0 .553.447 1 1 1s1-.447 1-1-.447-1-1-1-1 .447-1 1zm1 1c0 1.039-.24 2.198-.554 3.27m7.554-5.27c-2 2 0 3-2 5-.836.836-2.14 1.023-3.711 1.725m.5674 3.3414c.048-.021.096-.042.144-.066 2-1 2-2 4-2 .5 0 1 .5 1 1s-.5 1-1 1m-6.4203 2.6754c.214 1.747-.033 3.685-.58 5.324m1.828-6.1717.172.172c1 1 3 1 4 1 .5 0 1 .5 1 1s-.5 1-1 1" fill="none" stroke="#000" stroke-linecap="round" stroke-linejoin="round"/></svg>