<svg height="24" viewBox="0 0 24 24" width="24" xmlns="http://www.w3.org/2000/svg"><path d="m20.5 11.5c0 4.971-4.029 9-9 9s-9-4.029-9-9 4.029-9 9-9 9 4.029 9 9zm-9.0028959 2.4121c.0009959-.709-.1800041-1.429-.5600041-2.087-1.153-1.997-3.707-2.682-5.703-1.528-1.997 1.153-2.681 3.706-1.528 5.703m5.706-5.7091c.614.355 1.327.559 2.088.559 2.306 0 4.175-1.87 4.175-4.175 0-2.306-1.869-4.175-4.175-4.175m2.0907 7.7959c-.615.354-1.147.87-1.528 1.529-1.153 1.997-.469 4.55 1.528 5.703s4.551.469 5.703-1.528" fill="none" stroke="#000" stroke-linecap="round" stroke-linejoin="round"/></svg>