<svg height="24" viewBox="0 0 24 24" width="24" xmlns="http://www.w3.org/2000/svg"><path d="m10.5 10v-7c0-.828.672-1.5 1.5-1.5s1.5.672 1.5 1.5v7m-.0000034-6c0-.828.6720034-1.5 1.5-1.5.8280034 0 1.5.672 1.5 1.5v9.5l1.5780034-.789c.277-.139.584-.211.894-.211h.0279966c1.3770034 0 2.4930034 1.112 2.5 2.487.0010034.28-.2209966.513-.5.513h-1.1969966c-.198 0-.391.059-.555.168l-.716.478c-1.059.706-1.961 1.611-2.757 2.605-.658.823-1.831 1.749-3.7750034 1.749-1.9439966 0-3.1169966-.926-3.7749966-1.749-.796-.994-1.698-1.899-2.757-2.605l-.716-.478c-.164-.109-.357-.168-.555-.168h-1.19700337c-.27899663 0-.50099663-.233-.5-.513.00700337-1.375 1.12300337-2.487 2.5-2.487h.02800337c.31 0 .617.072.894.211l1.57799663.789v-9.5c0-.828.67200337-1.5 1.5-1.5.82800337 0 1.49999997.672 1.49999997 1.5m4.0000034 11s-1-1.5-2.5-1.5-2.5 1.5-2.5 1.5 1 1.5 2.5 1.5 2.5-1.5 2.5-1.5zm-2 0c0 .276-.224.5-.5.5s-.5-.224-.5-.5.224-.5.5-.5.5.224.5.5z" fill="none" stroke="#000" stroke-linecap="round" stroke-linejoin="round"/></svg>