<svg height="24" viewBox="0 0 24 24" width="24" xmlns="http://www.w3.org/2000/svg"><path d="m15.3896 3.3936c.684.855 1.11 1.926 1.11 3.106 0 1.365-.549 2.598-1.435 3.5.886.903 1.435 2.136 1.435 3.5 0 2.762-2.238 5-5 5-2.761 0-5-2.238-5-5 0-1.364.55-2.597 1.436-3.5-.886-.902-1.436-2.135-1.436-3.5 0-1.18.427-2.251 1.111-3.106-3.021 1.452-5.111 4.531-5.111 8.106 0 4.971 4.03 9 9 9 4.971 0 9-4.029 9-9 0-3.575-2.089-6.654-5.11-8.106zm-3.8896 15.1064v-16m-3 11h6m-5.1211 2.1211 4.242-4.242m-4.242-.0002 4.242 4.242" fill="none" stroke="#000" stroke-linecap="round" stroke-linejoin="round"/></svg>