<svg height="24" viewBox="0 0 24 24" width="24" xmlns="http://www.w3.org/2000/svg"><path d="m11.5 4.7725c-3.515 3.515-3.515 9.213 0 12.728 3.515-3.515 3.515-9.213 0-12.728zm-1.9512 2.9199c-.812-.812-1.792-1.484-2.92-1.951-.467 1.128-.684 2.296-.684 3.444m11.1109.0001c0-1.148-.218-2.316-.685-3.444-1.127.466-2.108 1.138-2.919 1.951m-4.5874 3.4432c-1.629-1.628-3.879-2.636-6.364-2.636 0 4.971 4.029 9 9 9m-.0003.0003c4.971 0 9-4.029 9-9-2.485 0-4.735 1.008-6.364 2.636" fill="none" stroke="#000" stroke-linecap="round" stroke-linejoin="round"/></svg>