<svg height="24" viewBox="0 0 24 24" width="24" xmlns="http://www.w3.org/2000/svg"><path d="m14.5 8.5h2.197c-.879-1.519-2.402-2.616-4.197-2.917v4.917h7.945c-.498-4.5-4.312-8-8.945-8s-8.447 3.5-8.945 8h7.945v-4.917c-1.795.301-3.319 1.398-4.197 2.917h2.197m6 6h2.197c-.878 1.519-2.402 2.616-4.197 2.917v-4.917h7.945c-.498 4.5-4.312 8-8.945 8s-8.447-3.5-8.945-8h7.945v4.917c-1.795-.301-3.318-1.398-4.197-2.917h2.197m-1.2402 1.2402-2.123 2.123m12.7265-12.7265-2.131 2.131m-10.5956-2.131 2.125 2.125m10.6006 10.6006-2.123-2.123" fill="none" stroke="#000" stroke-linecap="round" stroke-linejoin="round"/></svg>