<svg height="24" viewBox="0 0 24 24" width="24" xmlns="http://www.w3.org/2000/svg"><path d="m4.5459 13.4492c2.733 2.734 7.165 2.734 9.899.001 2.734-2.734 2.734-7.166 0-9.9-.315-.315-.654-.589-1.008-.831 1.62.356 3.162 1.157 4.422 2.417 3.515 3.514 3.515 9.213 0 12.728-3.514 3.515-9.213 3.515-12.728 0-2.163-2.164-2.989-5.154-2.489-7.954.265 1.297.897 2.533 1.904 3.539zm4.292-5.499 1.887.298-1.351-1.35.867-1.702-1.702.867-1.35-1.35.298 1.886-1.701.867 1.886.298.299 1.887z" fill="none" stroke="#000" stroke-linecap="round" stroke-linejoin="round"/></svg>