<svg height="24" viewBox="0 0 24 24" width="24" xmlns="http://www.w3.org/2000/svg"><path d="m20.5 11.5c0 4.971-4.029 9-9 9s-9-4.029-9-9 4.029-9 9-9 9 4.029 9 9zm-9-9c2.301 0 4.165 1.865 4.165 4.165 0 2.301-1.864 4.166-4.165 4.166s-4.165-1.865-4.165-4.166m0 0s-3.835.835-4.835 4.835m1.2061 4.5c-1.15-1.992-.468-4.54 1.524-5.69 1.993-1.15 4.54-.467 5.69 1.525s.468 4.539-1.525 5.689m.0004.0004s2.641 2.903 6.604 1.77m3.2944-3.2944c-1.15 1.992-3.697 2.675-5.689 1.524-1.993-1.15-2.675-3.697-1.525-5.689s3.697-2.675 5.69-1.525m-.0004-.0004s1.194-3.737-1.77-6.604" fill="none" stroke="#000" stroke-linecap="round" stroke-linejoin="round"/></svg>