<svg height="24" viewBox="0 0 24 24" width="24" xmlns="http://www.w3.org/2000/svg"><path d="m15.5 11.5c0 2.209-1.791 4-4 4s-4-1.791-4-4 1.791-4 4-4 4 1.791 4 4zm3 0c0-1.678 1.035-3.109 2.5-3.703-.464-.189-.969-.297-1.5-.297-2.209 0-4 1.791-4 4s1.791 4 4 4c.531 0 1.036-.108 1.5-.297-1.465-.594-2.5-2.025-2.5-3.703zm-15-4c-.531 0-1.036.108-1.5.297 1.465.594 2.5 2.025 2.5 3.703s-1.035 3.109-2.5 3.703c.464.189.969.297 1.5.297 2.209 0 4-1.791 4-4s-1.791-4-4-4z" fill="none" stroke="#000" stroke-linecap="round" stroke-linejoin="round"/></svg>