<svg height="24" viewBox="0 0 24 24" width="24" xmlns="http://www.w3.org/2000/svg"><path d="m5.5 18.5c1 0 2-.5 2-2 0-1-1-2-2.5-2s-3.5 1-3.5 3.5c0 1.933 1.567 3.5 3.5 3.5 3.037 0 5.5-2.463 5.5-5.5v-3.5m-2.6963-7.3301c-.5.866-.566 1.982.732 2.732.867.5 2.232.134 2.982-1.165s.885-3.531-1.28-4.781c-1.675-.967-3.816-.393-4.782 1.281-1.519 2.63-.618 5.995 2.013 7.513l3.031 1.75m7.6966 1.3302c-.5-.866-1.434-1.482-2.732-.732-.867.5-1.232 1.866-.482 3.165s2.615 2.531 4.78 1.281c1.675-.966 2.248-3.107 1.282-4.781-1.519-2.63-4.882-3.532-7.513-2.013l-3.031 1.75" fill="none" stroke="#000" stroke-linecap="round" stroke-linejoin="round"/></svg>