<svg height="24" viewBox="0 0 24 24" width="24" xmlns="http://www.w3.org/2000/svg"><path d="m13.5 5.5 2.172-2.172c1.104-1.104 2.895-1.104 4 0 1.104 1.105 1.104 2.896 0 4l-6.172 6.172m0-4-6.172-6.172c-1.104-1.104-2.895-1.104-4 0-1.104 1.105-1.104 2.896 0 4l2.172 2.172m4 4 6.172 6.172c1.104 1.104 2.895 1.104 4 0 1.104-1.105 1.104-2.896 0-4l-2.172-2.172m-8 4-2.172 2.172c-1.104 1.104-2.895 1.104-4 0-1.104-1.105-1.104-2.896 0-4l6.172-6.172" fill="none" stroke="#000" stroke-linecap="round" stroke-linejoin="round"/></svg>