<svg height="24" viewBox="0 0 24 24" width="24" xmlns="http://www.w3.org/2000/svg"><path d="m16.5 5v12.857c0 1.308-.941 2.5-2.242 2.63-1.496.15-2.758-1.021-2.758-2.487 0-.565.194-1.081.512-1.5h-6.512v-11.5c0-1.381 1.119-2.5 2.5-2.5h11m-13.5 14h-2.488c-.318.419-.512.935-.512 1.5 0 1.381 1.119 2.5 2.5 2.5h9m3.0117-14h3.977c.317-.419.511-.935.511-1.5 0-1.381-1.119-2.5-2.5-2.5s-2.5 1.119-2.5 2.5m-8.9577 1.5h6.458m-6.458 1.9116h6.458m-6.458 2h6.458m-6.458 2h6.458" fill="none" stroke="#000" stroke-linecap="round" stroke-linejoin="round"/></svg>