<svg height="24" viewBox="0 0 24 24" width="24" xmlns="http://www.w3.org/2000/svg"><path d="m3.5 5.5c0-1.104.896-2 2-2s2 .896 2 2-.896 2-2 2-2-.896-2-2zm0 6c0-1.104.896-2 2-2s2 .896 2 2-.896 2-2 2-2-.896-2-2zm0 6c0-1.104.896-2 2-2s2 .896 2 2-.896 2-2 2-2-.896-2-2zm6-12c0-1.104.896-2 2-2s2 .896 2 2-.896 2-2 2-2-.896-2-2zm0 6c0-1.104.896-2 2-2s2 .896 2 2-.896 2-2 2-2-.896-2-2zm0 6c0-1.104.896-2 2-2s2 .896 2 2-.896 2-2 2-2-.896-2-2zm6-12c0-1.104.896-2 2-2s2 .896 2 2-.896 2-2 2-2-.896-2-2zm0 6c0-1.104.896-2 2-2s2 .896 2 2-.896 2-2 2-2-.896-2-2zm0 6c0-1.104.896-2 2-2s2 .896 2 2-.896 2-2 2-2-.896-2-2z" fill="none" stroke="#000" stroke-linecap="round" stroke-linejoin="round"/></svg>