<svg height="24" viewBox="0 0 24 24" width="24" xmlns="http://www.w3.org/2000/svg"><path d="m20.5 13.5v-4h-2.294c-.139-.465-.32-.911-.548-1.33l1.62-1.62-2.828-2.828-1.62 1.62c-.419-.227-.865-.41-1.33-.548v-2.294h-4v2.294c-.465.138-.911.321-1.33.548l-1.62-1.62-2.828 2.828 1.62 1.62c-.228.419-.409.865-.548 1.33h-2.294v4h2.294c.139.465.32.911.548 1.33l-1.62 1.62 2.828 2.828 1.62-1.62c.419.227.865.41 1.33.548v2.294h4v-2.294c.465-.138.911-.321 1.33-.548l1.62 1.62 2.828-2.828-1.62-1.62c.228-.419.409-.865.548-1.33zm-6-2c0 1.657-1.343 3-3 3s-3-1.343-3-3 1.343-3 3-3 3 1.343 3 3z" fill="none" stroke="#000" stroke-linecap="round" stroke-linejoin="round"/></svg>