<svg height="24" viewBox="0 0 24 24" width="24" xmlns="http://www.w3.org/2000/svg"><path d="m11.5 15.5c0-.37-.066-.722-.16-1.062l1.856-1.072-1-1.732-1.844 1.065c-.5-.509-1.14-.873-1.852-1.057v-2.142h-2v2.142c-.712.184-1.352.548-1.852 1.057l-1.844-1.065-1 1.732 1.856 1.072c-.094.34-.16.692-.16 1.062s.066.722.16 1.062l-1.856 1.072 1 1.732 1.844-1.065c.5.509 1.14.873 1.852 1.057v2.142h2v-2.142c.712-.184 1.352-.548 1.852-1.057l1.844 1.065 1-1.732-1.856-1.072c.094-.34.16-.692.16-1.062zm8-7c0-.37-.066-.722-.16-1.062l1.856-1.072-1-1.732-1.844 1.065c-.5-.509-1.14-.873-1.852-1.057v-2.142h-2v2.142c-.712.184-1.352.548-1.852 1.057l-1.844-1.065-1 1.732 1.856 1.072c-.094.34-.16.692-.16 1.062s.066.722.16 1.062l-1.856 1.072 1 1.732 1.844-1.065c.5.509 1.14.873 1.852 1.057v2.142h2v-2.142c.712-.184 1.352-.548 1.852-1.057l1.844 1.065 1-1.732-1.856-1.072c.094-.34.16-.692.16-1.062zm-3 0c0 .552-.447 1-1 1s-1-.448-1-1 .447-1 1-1 1 .448 1 1zm-8 7c0 .552-.447 1-1 1s-1-.448-1-1 .447-1 1-1 1 .448 1 1z" fill="none" stroke="#000" stroke-linecap="round" stroke-linejoin="round"/></svg>