<svg height="24" viewBox="0 0 24 24" width="24" xmlns="http://www.w3.org/2000/svg"><path d="m16.5 11.5c0 2.761-2.238 5-5 5s-5-2.239-5-5 2.238-5 5-5 5 2.239 5 5zm3.5-1h-1.163c-.241 0-.44-.175-.487-.412-.056-.271-.125-.536-.211-.794-.076-.229.009-.478.217-.598l1.005-.58c.24-.138.322-.444.183-.683l-.5-.866c-.138-.239-.443-.321-.683-.183l-1.006.581c-.209.12-.466.069-.626-.111-.183-.206-.377-.4-.583-.582-.18-.16-.231-.418-.111-.627l.581-1.006c.138-.24.056-.545-.183-.683l-.866-.5c-.239-.138-.545-.057-.683.183l-.58 1.004c-.12.209-.369.294-.598.218-.259-.085-.523-.155-.795-.21-.236-.048-.411-.247-.411-.488v-1.163c0-.276-.224-.5-.5-.5h-1c-.276 0-.5.224-.5.5v1.163c0 .241-.175.44-.411.488-.272.055-.536.125-.795.21-.229.076-.478-.009-.598-.218l-.58-1.004c-.138-.24-.444-.321-.683-.183l-.866.5c-.239.138-.321.443-.183.683l.581 1.006c.12.209.069.467-.111.627-.206.182-.4.376-.583.582-.16.18-.417.231-.626.111l-1.006-.581c-.24-.138-.545-.056-.683.183l-.5.866c-.139.239-.057.545.183.683l1.005.58c.208.12.293.369.217.598-.086.258-.155.523-.211.794-.047.237-.246.412-.487.412h-1.163c-.276 0-.5.224-.5.5v1c0 .276.224.5.5.5h1.163c.241 0 .44.175.487.412.056.271.125.536.211.794.076.229-.009.478-.217.598l-1.005.58c-.24.138-.322.444-.183.683l.5.866c.138.239.443.321.683.183l1.006-.581c.209-.12.466-.069.626.111.183.206.377.4.583.582.18.16.231.418.111.627l-.581 1.006c-.138.239-.056.545.183.683l.866.5c.239.138.545.057.683-.183l.58-1.004c.12-.209.369-.294.598-.218.259.085.523.155.795.21.236.048.411.247.411.488v1.163c0 .276.224.5.5.5h1c.276 0 .5-.224.5-.5v-1.163c0-.241.175-.44.411-.488.272-.055.536-.125.795-.21.229-.076.478.009.598.218l.58 1.004c.138.24.444.321.683.183l.866-.5c.239-.138.321-.444.183-.683l-.581-1.006c-.12-.209-.069-.467.111-.627.206-.182.4-.376.583-.582.16-.18.417-.231.626-.111l1.006.581c.24.138.545.056.683-.183l.5-.866c.139-.239.057-.545-.183-.683l-1.005-.58c-.208-.12-.293-.369-.217-.598.086-.258.155-.523.211-.794.047-.237.246-.412.487-.412h1.163c.276 0 .5-.224.5-.5v-1c0-.276-.224-.5-.5-.5zm-8.5-4v5m4.3301 2.5-4.33-2.5m-4.3302 2.5 4.33-2.5" fill="none" stroke="#000" stroke-linecap="round" stroke-linejoin="round"/></svg>