<svg height="24" viewBox="0 0 24 24" width="24" xmlns="http://www.w3.org/2000/svg"><path d="m4.5 4v15c0 .829.672 1.5 1.5 1.5h12.5v-15m-1 0v-3h-11.5c-.828 0-1.5.671-1.5 1.5s.672 1.5 1.5 1.5h12.5m-5 5.25v-.25c0-1.1045-.8955-2-2-2s-2 .8955-2 2v.25c0 1.1015.519 2.139 1.4 2.8.3555.2665.8445.2665 1.2 0 .881-.661 1.4-1.6985 1.4-2.8zm-.766 2.1855.1545.6933399c.0705.3180613.262.5850756.523.7320458l.7655.4291302c.5225.2928183.9045.8274081 1.046 1.4629696l.277 1.2425145m-8 0 .277-1.2425145c.1415-.6355615.5235-1.1701513 1.046-1.4629696l.7655-.4291302c.261-.1469702.4525-.4139845.523-.7320458l.1545-.6933399" fill="none" stroke="#000" stroke-linecap="round" stroke-linejoin="round"/></svg>