<svg height="24" viewBox="0 0 24 24" width="24" xmlns="http://www.w3.org/2000/svg"><path d="m12.5 8.5h5m-5 2h3m-13-6v14h3v-1c0-.552.447-1 1-1s1 .448 1 1v1h3v-1c0-.552.447-1 1-1s1 .448 1 1v1h3v-1c0-.552.447-1 1-1s1 .448 1 1v1h3v-14zm4.7666 6.4355-.155.618c-.071.283-.262.522-.523.652l-.847.424c-.475.237-.835.653-1.003 1.157l-.239.713h8l-.238-.713c-.168-.504-.528-.92-1.003-1.157l-.847-.424c-.261-.13-.453-.369-.523-.652l-.155-.618m-.634.6143c-.355.267-.844.267-1.199 0-.882-.661-1.401-1.698-1.401-2.8v-.25c0-1.104.896-2 2-2 1.105 0 2 .896 2 2v.25c0 1.102-.518 2.139-1.4 2.8z" fill="none" stroke="#000" stroke-linecap="round" stroke-linejoin="round"/></svg>