<svg height="24" viewBox="0 0 24 24" width="24" xmlns="http://www.w3.org/2000/svg"><path d="m18.5 15.5c0-.552.447-1 1-1v-2c-.553 0-1-.448-1-1s.447-1 1-1v-2c-.553 0-1-.448-1-1s.447-1 1-1v-3h-3c0 .552-.447 1-1 1s-1-.448-1-1h-2c0 .552-.447 1-1 1s-1-.448-1-1h-2c0 .552-.447 1-1 1s-1-.448-1-1h-3v3c.553 0 1 .448 1 1s-.447 1-1 1v2c.553 0 1 .448 1 1s-.447 1-1 1v2c.553 0 1 .448 1 1s-.447 1-1 1v3h3c0-.552.447-1 1-1s1 .448 1 1h2c0-.552.447-1 1-1s1 .448 1 1h2c0-.552.447-1 1-1s1 .448 1 1h3v-3c-.553 0-1-.448-1-1zm-12 1h10v-10h-10z" fill="none" stroke="#000" stroke-linecap="round" stroke-linejoin="round"/></svg>