<svg height="24" viewBox="0 0 24 24" width="24" xmlns="http://www.w3.org/2000/svg"><path d="m11.5 7v9m2.2681-6.6211c-.559-.543-1.33-.879-2.182-.879-1.705 0-3.086 1.343-3.086 3s1.381 3 3.086 3c.852 0 1.623-.336 2.182-.879m-2.2681-12.1209 1.831 3.168 3.169-1.828.002 3.658 3.658.002-1.828 3.169 3.168 1.831-3.168 1.831 1.828 3.169-3.658.002-.002 3.658-3.169-1.828-1.831 3.168-1.831-3.168-3.169 1.828-.002-3.658-3.658-.002 1.828-3.169-3.168-1.831 3.168-1.831-1.828-3.169 3.658-.002.002-3.658 3.169 1.828z" fill="none" stroke="#000" stroke-linecap="round" stroke-linejoin="round"/></svg>