<svg height="24" viewBox="0 0 24 24" width="24" xmlns="http://www.w3.org/2000/svg"><path d="m12.5 4c0 .829-1.791 1.5-4 1.5s-4-.671-4-1.5 1.791-1.5 4-1.5 4 .671 4 1.5zm0 3c0 .828-1.791 1.5-4 1.5s-4-.672-4-1.5m4 4.5c-2.209 0-4-.672-4-1.5m4 4.5c-2.209 0-4-.672-4-1.5m4 4.5c-2.209 0-4-.672-4-1.5m0-12v15c0 .828 1.791 1.5 4 1.5m4-16.5v5.5m6 3.5c0 .828-1.791 1.5-4 1.5s-4-.672-4-1.5 1.791-1.5 4-1.5 4 .672 4 1.5zm0 3c0 .828-1.791 1.5-4 1.5s-4-.672-4-1.5m8-3v6c0 .828-1.791 1.5-4 1.5s-4-.672-4-1.5v-6" fill="none" stroke="#000" stroke-linecap="round" stroke-linejoin="round"/></svg>