<svg height="24" viewBox="0 0 24 24" width="24" xmlns="http://www.w3.org/2000/svg"><path d="m8.5 15.5 6-8m-3-6 1.831 3.168 3.169-1.828.002 3.658 3.658.002-1.828 3.169 3.168 1.831-3.168 1.831 1.828 3.169-3.658.002-.002 3.658-3.169-1.828-1.831 3.168-1.831-3.168-3.169 1.828-.002-3.658-3.658-.002 1.828-3.169-3.168-1.831 3.168-1.831-1.828-3.169 3.658-.002.002-3.658 3.169 1.828zm2.5 11c-.553 0-1 .671-1 1.5s.447 1.5 1 1.5 1-.671 1-1.5-.447-1.5-1-1.5zm-5-5c-.553 0-1 .671-1 1.5s.447 1.5 1 1.5 1-.671 1-1.5-.447-1.5-1-1.5z" fill="none" stroke="#000" stroke-linecap="round" stroke-linejoin="round"/></svg>