<svg height="24" viewBox="0 0 24 24" width="24" xmlns="http://www.w3.org/2000/svg"><path d="m19.2959 12.5h2.204c.553 0 1-.448 1-1s-.447-1-1-1m-9.4999-6c-.495 0-.975.051-1.443.13-1.057-1.13-3.057-1.13-3.057-1.13l.201 2.201c-1.471.901-2.564 2.232-2.992 3.799h-2.209v2c0 .552.447 1 1 1h.494c.397 0 .768.229.913.597.387.982 1.036 1.857 1.877 2.564.452.379.716.935.716 1.525v2.314h2v-2.378c.783.24 1.622.378 2.5.378s1.717-.138 2.5-.378v2.378h2v-2.314c0-.584.255-1.141.703-1.515 1.414-1.181 2.297-2.835 2.297-4.671 0-3.59-3.357-6.5-7.5-6.5z" fill="none" stroke="#000" stroke-linecap="round" stroke-linejoin="round"/></svg>