<svg height="24" viewBox="0 0 24 24" width="24" xmlns="http://www.w3.org/2000/svg"><path d="m13.5 15.5h-5m5-7c0-1.104-.896-2-2-2s-2 .896-2 2v4.586c0 .905-.36 1.774-1 2.414m0-4h3m0-10 1.831 3.168 3.169-1.828.002 3.658 3.658.002-1.828 3.169 3.168 1.831-3.168 1.831 1.828 3.169-3.658.002-.002 3.658-3.169-1.828-1.831 3.168-1.831-3.168-3.169 1.828-.002-3.658-3.658-.002 1.828-3.169-3.168-1.831 3.168-1.831-1.828-3.169 3.658-.002.002-3.658 3.169 1.828z" fill="none" stroke="#000" stroke-linecap="round" stroke-linejoin="round"/></svg>