<svg height="24" viewBox="0 0 24 24" width="24" xmlns="http://www.w3.org/2000/svg"><path d="m8.5 7.5h3c1.104 0 2 .896 2 2s-.896 2-2 2h-3m2.5 0 2.5 5m1-9h-3.5m3.5 2h-6m3-8 1.831 3.168 3.169-1.828.002 3.658 3.658.002-1.828 3.169 3.168 1.831-3.168 1.831 1.828 3.169-3.658.002-.002 3.658-3.169-1.828-1.831 3.168-1.831-3.168-3.169 1.828-.002-3.658-3.658-.002 1.828-3.169-3.168-1.831 3.168-1.831-1.828-3.169 3.658-.002.002-3.658 3.169 1.828z" fill="none" stroke="#000" stroke-linecap="round" stroke-linejoin="round"/></svg>