<svg height="24" viewBox="0 0 24 24" width="24" xmlns="http://www.w3.org/2000/svg"><path d="m5.5 19.5c-2.209139 0-4-1.790861-4-4 0-1.612209.95380257-3.0016455 2.32790881-3.6348106-.20963985-.4095079-.32790881-.873537-.32790881-1.3651894 0-1.65685425 1.34314575-3 3-3 .06892961 0 .13731626.0023247.20508582.00689996.65064777-2.31203346 2.77485233-4.00689996 5.29491418-4.00689996 3.0375661 0 5.5 2.46243388 5.5 5.5 0 .16857285-.0075838.33537441-.0224289.50008209.0074698-.00005469.0149462-.00008209.0224289-.00008209 1.6568542 0 3 1.3431458 3 3 0 .5346522-.1398612 1.036638-.3849927 1.4713667.8328981.5330685 1.3849927 1.4663766 1.3849927 2.5286333 0 1.6568542-1.3431458 3-3 3zm6-11v4m0 2.5c-.276 0-.5.224-.5.5s.224.5.5.5.5-.224.5-.5-.224-.5-.5-.5z" fill="none" stroke="#000" stroke-linecap="round" stroke-linejoin="round"/></svg>