<svg height="24" viewBox="0 0 24 24" width="24" xmlns="http://www.w3.org/2000/svg"><path d="m4.5 2.5h10l4 4v14h-14zm14 4h-4v-4m1 10.75c0 .6903559-.5596441 1.25-1.25 1.25h-5.25c-.82842712 0-1.5-.6715729-1.5-1.5 0-.7433468.54071388-1.3604032 1.25027994-1.4793073-.00018623-.0068749-.00027994-.0137729-.00027994-.0206927 0-.3530077.24388379-.6490533.57234997-.7288354.42916894-.7589079 1.24358753-1.2711646 2.17765003-1.2711646 1.1224564 0 2.0721391.7397326 2.388136 1.7582859.0364948-.0054576.0738491-.0082859.111864-.0082859.4142136 0 .75.3357864.75.75 0 .0342804-.0022999.0680237-.0067538.1010839.4450802.1913321.7567538.6337265.7567538 1.1489161z" fill="none" stroke="#000" stroke-linecap="round" stroke-linejoin="round"/></svg>