<svg height="24" viewBox="0 0 24 24" width="24" xmlns="http://www.w3.org/2000/svg"><path d="m4.5 2.5h10l4 4v14h-14zm14 4h-4v-4m-2 12.8292943v1.1707057h-2v-1.1707057c-.3511145-.1241012-.67222887-.3117105-.94954102-.5490257l-1.0145606.5857568-1-1.7320508 1.01412339-.5855044c-.03285189-.1778213-.05002177-.3611406-.05002177-.5484702s.01716988-.3706489.05002177-.5484702l-1.01412339-.5855044 1-1.7320508 1.0145606.5857568c.27731215-.23731523.59842652-.42492454.94954102-.54902569v-1.17070571h2v1.17070571c.3511145.12410115.6722289.31171046.949541.54902569l1.0145606-.5857568 1 1.7320508-1.0141234.5855044c.0328519.1778213.0500218.3611406.0500218.5484702s-.0171699.3706489-.0500218.5484702l1.0141234.5855044-1 1.7320508-1.0145606-.5857568c-.2773121.2373152-.5984265.4249245-.949541.5490257zm-.5-2.8292943c0 .276-.2235.5-.5.5s-.5-.224-.5-.5.2235-.5.5-.5.5.224.5.5z" fill="none" stroke="#000" stroke-linecap="round" stroke-linejoin="round"/></svg>