<svg height="24" viewBox="0 0 24 24" width="24" xmlns="http://www.w3.org/2000/svg"><path d="m14.5 13c.2849234.3333333.70159.5 1.25.5.8287493 0 1.25-.5 1.25-1s-.4143767-.75-1.25-1c-.8176844-.2446331-1.25-.5-1.25-1s.4250528-1 1.25-1c.554861 0 .9715277.16666667 1.25.5m-5.5 9.5c-4.41866667 0-8-3.5813333-8-8 0-4.41866667 3.58133333-8 8-8 4.4186667 0 8 3.58133333 8 8 0 4.4186667-3.5813333 8-8 8zm-1-10h1c.5522847 0 1 .44771525 1 1 0 .5522847-.4477153 1-1 1h-1zm0 2h1.2c.5522847 0 1 .4477153 1 1s-.4477153 1-1 1h-1.2zm-5 2 1.5-4 1.5 4m-2.5-1h2.00416481m10.56690299-8.07106781c3.9055865 3.90558645 3.9055865 10.23654921 0 14.14213561m-14.14213561 0c-3.90558646-3.9055864-3.90558646-10.23654916 0-14.14213561" fill="none" stroke="#000" stroke-linecap="round" stroke-linejoin="round"/></svg>