<svg height="24" viewBox="0 0 24 24" width="24" xmlns="http://www.w3.org/2000/svg"><path d="m11.5 19.5c-4.41866667 0-8-3.5813333-8-8 0-4.41866667 3.58133333-8 8-8 4.4186667 0 8 3.58133333 8 8 0 4.4186667-3.5813333 8-8 8zm7.0710678-15.07106781c3.9055865 3.90558645 3.9055865 10.23654921 0 14.14213561m-14.14213561 0c-3.90558646-3.9055864-3.90558646-10.23654916 0-14.14213561m7.07106781 3.07106781v4m0 2.5c-.276 0-.5.224-.5.5s.224.5.5.5.5-.224.5-.5-.224-.5-.5-.5z" fill="none" stroke="#000" stroke-linecap="round" stroke-linejoin="round"/></svg>