<svg height="24" viewBox="0 0 24 24" width="24" xmlns="http://www.w3.org/2000/svg"><path d="m11.5 19.5c-4.41866667 0-8-3.5813333-8-8 0-4.41866667 3.58133333-8 8-8 4.4186667 0 8 3.58133333 8 8 0 4.4186667-3.5813333 8-8 8zm9.1914584-4.0537374c-.4869317 1.1349444-1.1937285 2.1981432-2.1203906 3.1248052m-14.14213561 0c-.92666205-.926662-1.63345889-1.9898608-2.12039054-3.1248052m-.59970873-1.906625c-.27871844-1.3440073-.27878741-2.7342469-.00020692-4.07827721m19.582748 0c.2785115 1.34369761.2785115 2.73358161 0 4.07727921m-2.7203062-9.10970741c.9266621.92666204 1.6334589 1.98986078 2.1203906 3.12480523m-18.38291675 0c.48693165-1.13494445 1.19372849-2.19814319 2.12039054-3.12480523" fill="none" stroke="#000" stroke-linecap="round" stroke-linejoin="round"/></svg>