<svg height="24" viewBox="0 0 24 24" width="24" xmlns="http://www.w3.org/2000/svg"><path d="m4.5 9.5h5l1 1 9-1-6 6h-9zm-1.68377223-3.56125741 1 .33333333c.40834214.13611405.68377223.51825289.68377223.9486833v2.27924078l-2.31622777-.77207592c-.40834214-.13611405-.68377223-.51825289-.68377223-.9486833v-.89181489c0-.55228475.44771525-1 1-1 .1074821 0 .2142613.01732788.31622777.0513167zm4.68377223 1.56125741v2m-1-2h2m12 8c-.5521667 0-1-.4478333-1-1 0-.6666667.3333333-1.3333333 1-2 .6666667.6666667 1 1.3333333 1 2 0 .5521667-.4478333 1-1 1zm0-5-1-1" fill="none" stroke="#000" stroke-linecap="round" stroke-linejoin="round"/></svg>