<svg height="24" viewBox="0 0 24 24" width="24" xmlns="http://www.w3.org/2000/svg"><path d="m11.5 10.5c1.1045695 0 2-.8954305 2-2s-.8954305-2-2-2-2 .8954305-2 2 .8954305 2 2 2zm1.5996349-.79931921.0532386.03131921 2.487 1.658c.45.287.587.951.278 1.387-.287.45-.95.587-1.387.278l-1.029-.686v1.003l.97 3.886c.134.534-.192 1.078-.727 1.212-.519.142-1.093-.203-1.213-.728l-.758-3.031c-.031-.125-.152-.188-.272-.188s-.24.063-.271.188l-.759 3.031c-.119.525-.69300004.87-1.21300004.728-.534-.134-.86-.678-.727-1.212l.971-3.886v-1.003l-1.03.686c-.437.309-1.1.172-1.387-.278-.308-.436-.171-1.1.278-1.387l2.487-1.658c.0162766-.01099574.03280438-.0216147.04957125-.03185385m4.40255529.79900005 6.197.0008538v11h-18v-11l6.199-.0008538m-2.199.0008538v-2c0-2.76142375 2.23857625-5 5-5 2.7614237 0 5 2.23857625 5 5v2m-12 0v-2c0-3.86599325 3.13400675-7 7-7 3.8659932 0 7 3.13400675 7 7v2" fill="none" stroke="#000" stroke-linecap="round" stroke-linejoin="round"/></svg>