<svg height="24" viewBox="0 0 24 24" width="24" xmlns="http://www.w3.org/2000/svg"><path d="m5.84314575 18.1568542c-3.12446916-3.1244691-3.12446916-8.18923929 0-11.31370845s8.18923935-3.12446916 11.31370845 0c3.1244692 3.12446916 3.1244692 8.18923935 0 11.31370845m-11.31370845-11.31370845 5.30330085 5.30330085m4.5961941 4.5961941 1.4142135 1.4142135m-1.4142135-9.89949489 1.4142135-1.41421356m-11.31370845 11.31370845 1.41421356-1.4142135m10.24264069-4.2426407h2m-16 0h2m6-6v-2m-.3535534 7.6464466c-.1951615.1951615-.1951615.5119453 0 .7071068s.5119453.1951615.7071068 0 .1951615-.5119453 0-.7071068-.5119453-.1951615-.7071068 0zm-9.6449677-9.6464466 2.9985211 3m0-3v3h-2.9985211" fill="none" stroke="#000" stroke-linecap="round" stroke-linejoin="round"/></svg>