<svg height="24" viewBox="0 0 24 24" width="24" xmlns="http://www.w3.org/2000/svg"><path d="m15.5 7.5 2 2.5 3.5.5.5 2.5-1 1.5-2 .0010036c-.000543 1.1035393-.8963345 1.9989964-2 1.9989964-1.0538182 0-1.9181157-.8163967-1.9945109-1.8508084l-.0054891-.1491916-7 .0010036c-.00051837 1.0533633-.81672508 1.9171364-1.85080841 1.9935073l-.14919159.0054891c-1.05381818 0-1.9181157-.8163967-1.99451089-1.8508084l-.00548911-.1491916h-1.5l-.5-2 1-1.5 4.5-1 3.5-2.5zm0 4h-4c-.5522847 0-1-.4477153-1-1 0-.55228475.4477153-1 1-1h1.0456503m1.9543497 1 1 1-1 1" fill="none" stroke="#000" stroke-linecap="round" stroke-linejoin="round"/></svg>