<svg height="24" viewBox="0 0 24 24" width="24" xmlns="http://www.w3.org/2000/svg"><path d="m5.84314575 16.1568542c-3.12446916-3.1244691-3.12446916-8.18923929 0-11.31370845s8.18923935-3.12446916 11.31370845 0c3.1244692 3.12446916 3.1244692 8.18923935 0 11.31370845m-1.4142135-1.4142135 1.4142135 1.4142135m-1.4142135-9.89949489 1.4142135-1.41421356m-11.31370845 11.31370845 5.30330085-5.3033008m6.3535534-.3535534h2m-16 0h2m.34314575-5.65685425 1.41421356 1.41421356m4.24264069-1.75735931v-2m-3 17v-2m2 2v-2m4 2v-2m-2 2v-2m-1.3535534-7.3535534c-.1951615.1951615-.1951615.5119453 0 .7071068s.5119453.1951615.7071068 0 .1951615-.5119453 0-.7071068c-.1951615-.19516146-.5119453-.19516146-.7071068 0z" fill="none" stroke="#000" stroke-linecap="round" stroke-linejoin="round"/></svg>