<svg height="24" viewBox="0 0 24 24" width="24" xmlns="http://www.w3.org/2000/svg"><path d="m16.69894 3.44482422c.53404 2.68505859.80106 5.37011719.80106 8.05517578 0 2.4165527-.2162862 4.8331055-.6488586 7.2496582l-.1525043.805457c-.1354027.6765478-.6099606 1.2355277-1.2555669 1.4789273-.8258128.3110795-1.8070025.4659575-2.9430702.4659575-1.009838 0-1.8973032-.1223727-2.66239571-.3671182l-.28067449-.0988393c-.64560627-.2433996-1.12016422-.8023795-1.2555669-1.4789273-.53434291-2.684998-.8013629-5.3700566-.8013629-8.0551152 0-2.41655273.21628619-4.83310547.64885857-7.2496582l.15250433-.80545695c.13540268-.67654781.60996063-1.23552778 1.2555669-1.47892737.8258128-.3110795 1.8070025-.46595748 2.9430702-.46595748 1.009838 0 1.8973032.12237273 2.6623957.36711818l.2806745.0988393c.5959442.22467655 1.0461432.71824998 1.2183761 1.32497808zm-7.18693801 4.05517578c.99199871-.66666667 1.98799801-1 2.98799801-1s2 .33333333 3 1l-.5 2.5c-1-.33333333-1.8333333-.5-2.5-.5s-1.5006989.16666667-2.50209668.5zm-1.99502141 5.1727534-1.72636148 2.4203799c-.18237951.2553313-.47684153.4068667-.7906191.4068667-.32881439 0-.65311307-.0765565-.9472136-.2236068l-.5527864-.2763932 4.06984441-5.8785283m2.43015559 6.3785283h5c0 1.1045695-.8954305 2-2 2h-1c-1.0543618 0-1.9181651-.8158778-1.9945143-1.8507377z" fill="none" stroke="#000" stroke-linecap="round" stroke-linejoin="round"/></svg>