<svg height="24" viewBox="0 0 24 24" width="24" xmlns="http://www.w3.org/2000/svg"><path d="m7.5 14.5h-3v-6h3m5.4731391.87867966c-.8135922-1.17157288-2.132686-1.17157288-2.9462782 0-.8135923 1.17157284-.8135923 3.07106784 0 4.24264064.8135922 1.1715729 2.132686 1.1715729 2.9462782 0m3.5268609.8786797c1.1045695 0 2-1.3431458 2-3 0-1.65685425-.8954305-3-2-3s-2 1.34314575-2 3c0 1.6568542.8954305 3 2 3zm-12-3h2.167m-2.167-6h17v9c0 1.6568542-1.3431458 3-3 3h-17v-9c0-1.65685425 1.34314575-3 3-3z" fill="none" stroke="#000" stroke-linecap="round" stroke-linejoin="round"/></svg>