<svg height="24" viewBox="0 0 24 24" width="24" xmlns="http://www.w3.org/2000/svg"><path d="m11.0060026 13.4385262c-1.01963933 3.3741477-2.52176893 5.061524-4.5060026 5.061524-2.5 0-5-2.5000502-5-4.5000502 0-.9980121.5-2.5 2-2.5s3 1 4.50236888 1c.51043959 0 1.05805989-.0838064 1.64286091-.2514192m-.08375602-1.2425782c-3.3740974-1.01963933-5.06147377-2.52176893-5.06147377-4.5060026 0-2.5 2.50005023-5 4.50005023-5 .99801212 0 2.49999997.5 2.49999997 2s-1 3-1 4.50236888c0 .51043959.0838064 1.05805989.2514193 1.64286091m.7485305 3.85477021c1.1045695 0 2-.8954305 2-2s-.8954305-2-2-2-2 .8954305-2 2 .8954305 2 2 2zm.4933861-3.93868144c1.0202506-3.37394219 2.5223802-5.06131856 4.5066139-5.06131856 2.5 0 5 2.50005023 5 4.50005023 0 .99801212-.5 2.49999997-2 2.49999997s-3-1-4.5023689-1c-.5104396 0-1.0580599.0838064-1.6428609.2514193m.083756 1.2425279c3.3741477 1.0196393 5.061524 2.5217689 5.061524 4.5060026 0 2.5-2.5000502 5-4.5000502 5-.9980121 0-2.5-.5-2.5-2s1-3 1-4.5023689c0-.5107222-.0838993-1.0586664-.2516978-1.6438325" fill="none" stroke="#000" stroke-linecap="round" stroke-linejoin="round"/></svg>