<svg height="24" viewBox="0 0 24 24" width="24" xmlns="http://www.w3.org/2000/svg"><path d="m9 14c0 .2761424-.22385763.5-.5.5h-.5c-.27614237 0-.5-.2238576-.5-.5l-.00130542-.8826606c-.10592077-.1348799-.17820994-.2983449-.20337216-.4786675-.03021495-.2128906-.04532242-.4257813-.04532242-.6386719 0-.5.08333333-1 .25-1.5l.79711914-1.75366211c.29233901-.64466095.9038814-1.0864719 1.60766602-1.16221523.53173824-.05608177 1.06347654-.08412266 1.59521484-.08412266s1.0634766.02804089 1.5952148.08412266c.7037847.07574333 1.3153271.51755428 1.6076661 1.16221523l.7971191 1.75366211c.1666667.5.25 1 .25 1.5 0 .2128906-.0151075.4257813-.0453224.6386719-.0252841.1811959-.0981527.3453704-.2049133.480625l.0002357.8807031c0 .2761424-.2238576.5-.5.5h-.5c-.2761424 0-.5-.2238576-.5-.5l-.001-.5h-5zm6.045-4.501 1.205.001c.1380712 0 .25.11192881.25.25s-.1119288.25-.25.25l-.978-.001m-7.545 0-.977.001c-.13807119 0-.25-.11192881-.25-.25s.11192881-.25.25-.25l1.204-.001m-.47675 1.001c1.34883333-.1666667 2.68975-.25 4.02275-.25s2.6663333.0833333 4 .25m5.691 8 .3330137 2m-20.0240137 0 .333-2m18.691-4 .333 2m-18.69 0 .333-2m17.358-4 .333 2m-17.358 0 .333-2m16.025-4 .333 2m-16.024 0 .333-2m14.6910137-4 .3329863 2m-14.69 0 .333-2" fill="none" stroke="#000" stroke-linecap="round" stroke-linejoin="round"/></svg>