<svg height="24" viewBox="0 0 24 24" width="24" xmlns="http://www.w3.org/2000/svg"><path d="m2.5 6.5h18c.5522847 0 1 .44771525 1 1v10c0 .5522847-.4477153 1-1 1h-18c-.55228475 0-1-.4477153-1-1v-10c0-.55228475.44771525-1 1-1zm8.4639118 14.155688-6.4639118-10.155688m7 12c.5522847 0 1-.4477153 1-1s-.4477153-1-1-1-1 .4477153-1 1 .4477153 1 1 1zm0-7v-1m0-5v-1m6-4c0-1.64897233-1.3367562-2.98572853-2.9857285-2.98572853-.0047458 0-.0094916 0-.0142374.00003395l-.028679.00013675c-1.6433211.00783623-2.9713551 1.34221809-2.9713551 2.98555783m0 0c0-1.64897233-1.3367562-2.98572853-2.98572853-2.98572853-.00474581 0-.00949161 0-.01423736.00003395l-.02867905.00013675c-1.64332106.00783623-2.97135506 1.34221809-2.97135506 2.98555783m6 8v-1" fill="none" stroke="#000" stroke-linecap="round" stroke-linejoin="round"/></svg>