<svg height="24" viewBox="0 0 24 24" width="24" xmlns="http://www.w3.org/2000/svg"><path d="m2.5 3.5h18c.5522847 0 1 .44771525 1 1v10c0 .5522847-.4477153 1-1 1h-18c-.55228475 0-1-.4477153-1-1v-10c0-.55228475.44771525-1 1-1zm9 5c0 1.5-1 1.5-1 3s1 1.5108889 1 3-1 1.457002-1 2.9575753 1 1.5321091 1 3.0424247m-5-12c0 1.5-1 1.5-1 3s1 1.5108889 1 3-1 1.457002-1 2.9575753 1 1.5321091 1 3.0424247m10-12c0 1.5-1 1.5-1 3s1 1.5108889 1 3-1 1.457002-1 2.9575753 1 1.5321091 1 3.0424247" fill="none" stroke="#000" stroke-linecap="round" stroke-linejoin="round"/></svg>