<svg height="24" viewBox="0 0 24 24" width="24" xmlns="http://www.w3.org/2000/svg"><path d="m7.5 17.5h8m4 0h2l1-1.5-.5-2.5-3.5-.5-2-2.5h-6l-3.5 2.5-4.5 1-1 1.5.5 2h1.5m0 0c0 1.104.896 2 2 2s2-.896 2-2-.896-2-2-2-2 .896-2 2zm12 0c0 1.104.896 2 2 2s2-.896 2-2-.896-2-2-2-2 .896-2 2zm1.5355339-12.53553391c-1.9526215-1.95262145-5.1184463-1.95262145-7.07106781 0m4.94974751 2.12132035c-.7810486-.78104859-2.0473786-.78104859-2.8284272 0" fill="none" stroke="#000" stroke-linecap="round" stroke-linejoin="round"/></svg>