<svg height="24" viewBox="0 0 24 24" width="24" xmlns="http://www.w3.org/2000/svg"><path d="m9 9c0 .27614237-.22385763.5-.5.5h-.5c-.27614237 0-.5-.22385763-.5-.5l-.00130542-.88266056c-.10592077-.13487993-.17820994-.29834492-.20337216-.47866756-.03021495-.21289063-.04532242-.42578125-.04532242-.63867188 0-.5.08333333-1 .25-1.5l.79711914-1.75366211c.29233901-.64466095.9038814-1.0864719 1.60766602-1.16221523.53173824-.05608177 1.06347654-.08412266 1.59521484-.08412266s1.0634766.02804089 1.5952148.08412266c.7037847.07574333 1.3153271.51755428 1.6076661 1.16221523l.7971191 1.75366211c.1666667.5.25 1 .25 1.5 0 .21289063-.0151075.42578125-.0453224.63867188-.0252841.18119587-.0981527.34537043-.2049133.48062506l.0002357.88070306c0 .27614237-.2238576.5-.5.5h-.5c-.2761424 0-.5-.22385763-.5-.5l-.001-.5h-5zm6.045-4.501 1.205.001c.1380712 0 .25.11192881.25.25s-.1119288.25-.25.25l-.978-.001m-7.545 0-.977.001c-.13807119 0-.25-.11192881-.25-.25s.11192881-.25.25-.25l1.204-.001m-.47675 1.001c1.34883333-.16666667 2.68975-.25 4.02275-.25s2.6663333.08333333 4 .25m-7 6c0 1.5-3 1.5-3 3s5 1.5108889 5 3-5 1.457002-5 2.9575753m10-8.9575753c0 1.5-3 1.5-3 3s5 1.5108889 5 3-5 1.457002-5 2.9575753" fill="none" stroke="#000" stroke-linecap="round" stroke-linejoin="round"/></svg>