<svg height="24" viewBox="0 0 24 24" width="24" xmlns="http://www.w3.org/2000/svg"><path d="m1.5 15.5c1.104 0 2-.896 2-2 0 1.104.896 2 2 2s2-.896 2-2m8 0c0 1.104.896 2 2 2s2-.896 2-2c0 1.104.896 2 2 2m-20 5c1.104 0 2-.896 2-2 0 1.104.896 2 2 2s2-.896 2-2c0 1.104.896 2 2 2s2-.896 2-2c0 1.104.896 2 2 2s2-.896 2-2c0 1.104.896 2 2 2s2-.896 2-2c0 1.104.896 2 2 2m-10-18v11m0-9h3m-3 3h3m-3 3h3m-3 3c-.552 0-1 .448-1 1s.448 1 1 1 1-.448 1-1-.448-1-1-1z" fill="none" stroke="#000" stroke-linecap="round" stroke-linejoin="round"/></svg>