<svg height="24" viewBox="0 0 24 24" width="24" xmlns="http://www.w3.org/2000/svg"><path d="m11.5 5.5v7m-6 7v1m2-1v1m2-1v1m2-1v1m2-1v1m2-1v1m2-1v1m-6-5.5c-.276 0-.5.224-.5.5s.224.5.5.5.5-.224.5-.5-.224-.5-.5-.5zm6-12.5v1.23046875c.0000072.48698243.118565.9666427.3450084 1.39777553 1.1033277 2.09516788 1.6549916 4.05241978 1.6549916 5.87175572 0 1.8193359-.5516639 3.7765878-1.6549916 5.8717557-.2264434.4311328-.3450012.9107931-.3450084 1.3977755v1.2304688h-12v-1.2304688c-.00000723-.4869824-.118565-.9666427-.34500837-1.3977755-1.10332775-2.0951679-1.65499163-4.0524198-1.65499163-5.8717557 0-1.81933594.55166388-3.77658784 1.65499163-5.87175572.22644337-.43113283.34500114-.9107931.34500837-1.39777553v-1.23046875" fill="none" stroke="#000" stroke-linecap="round" stroke-linejoin="round"/></svg>