<svg height="24" viewBox="0 0 24 24" width="24" xmlns="http://www.w3.org/2000/svg"><path d="m11.5 19.5c-4.41866667 0-8-3.5813333-8-8 0-4.41866667 3.58133333-8 8-8 4.4186667 0 8 3.58133333 8 8 0 4.4186667-3.5813333 8-8 8zm0-12v4m0 2.5c-.276 0-.5.224-.5.5s.224.5.5.5.5-.224.5-.5-.224-.5-.5-.5zm-10-2.5h2m16 0h2m-10 8v2m0-20v2m-7.07106781.92893219 1.41421356 1.41421356m11.31370845 11.31370845 1.4142136 1.4142136m-14.14213561 0 1.41421356-1.4142136m11.31370845-11.31370845 1.4142136-1.41421356" fill="none" stroke="#000" stroke-linecap="round" stroke-linejoin="round"/></svg>