<svg height="24" viewBox="0 0 24 24" width="24" xmlns="http://www.w3.org/2000/svg"><path d="m14.794676 4.73945313c.470216 2.25351562.705324 4.50703125.705324 6.76054687 0 2.003125-.1857643 4.00625-.557293 6.009375l-.1478425.751211c-.0625753.301288-.260378.5569895-.53628.6932547-.7374755.3641433-1.657022.5461593-2.7585845.5461593-.9914063 0-1.83537955-.147433-2.53191989-.4422989l-.22666465-.1038604c-.27590199-.1362652-.47370465-.3919667-.53628-.6932547-.47002747-2.2535547-.70513546-4.5070704-.70513546-6.760586 0-2.003125.18576434-4.00625.55729302-6.009375l.14784244-.75121103c.06257535-.30128796.26037801-.55698948.53628-.69325466.73747553-.36414332 1.65702204-.54615931 2.75858454-.54615931.9914063 0 1.8353795.14743295 2.5319199.44229886l.2266646.10386045c.2364875.11679872.4155958.3213466.5013494.56713756zm-4.794676 10.76054687h3c0 .5522847-.4477153 1-1 1h-1c-.5128358 0-.9355072-.3860402-.9932723-.8833789zm-.48799801-6.5c.65933341-.33333333 1.32199941-.5 1.98799801-.5s1.3326652.16666667 2 .5l-.25 2c-.5-.3333333-1.0826652-.5-1.7479957-.5-.6653304 0-1.2493319.1666667-1.7520043.5zm-6.5475359-1.03553391c-1.95262145 1.95262146-1.95262145 5.11844631 0 7.07106781m2.12132035-4.9497475c-.78104859.7810486-.78104859 2.0473786 0 2.8284272m14.94974746 2.1213203c1.9526215-1.9526215 1.9526215-5.11844635 0-7.07106781m-2.1213203 4.94974751c.7810485-.7810486.7810485-2.0473786 0-2.8284272" fill="none" stroke="#000" stroke-linecap="round" stroke-linejoin="round"/></svg>