<svg height="24" viewBox="0 0 24 24" width="24" xmlns="http://www.w3.org/2000/svg"><path d="m11.5 20.5c-4.971 0-9-4.029-9-9s4.029-9 9-9 9 4.029 9 9-4.029 9-9 9zm-6.996-9.219 4.03643472.7127936c.1799867 1.0870844.94431808 1.9767468 1.95953138 2.3355245v4.099799c-3.39254743-.4851858-5.9999661-3.4023378-5.9999661-6.9291171zm9.9555653.7127936 4.0370816-.7125764.0033531.2187828c0 3.5264321-2.6069053 6.4433569-5.9989722 6.9289738v-4.1000072c1.0147182-.359007 1.7786095-1.2484434 1.9585375-2.335173zm-2.9595653-7.4937936c3.10223 0 5.7327709 2.01744729 6.6513527 4.81207181l-4.0385987.71245299c-.515091-.91024694-1.4921119-1.5245248-2.612754-1.5245248s-2.09766302.61427786-2.61275395 1.5245248l-4.03859871-.71245299c.91858176-2.79462452 3.54912267-4.81207181 6.65135266-4.81207181z" fill="none" stroke="#000" stroke-linecap="round" stroke-linejoin="round"/></svg>