<svg height="24" viewBox="0 0 24 24" width="24" xmlns="http://www.w3.org/2000/svg"><path d="m11.5 2.5c4.1426447 0 7.8930573 1.67934488 10.6076025 4.39439912l-7.7791754 7.77717378c-.7238576-.7238576-1.7238576-1.1715729-2.8284271-1.1715729s-2.1045695.4477153-2.82842712 1.1715729l-7.7781746-7.77817462c2.7144661-2.71446609 6.4644661-4.39339828 10.60660172-4.39339828zm0 5c0 1.5-1 1.5-1 3s1 1.5108889 1 3-1 1.457002-1 2.9575753 1 1.5321091 1 3.0424247m-5-12c0 1.5-1 1.5-1 3s1 1.5108889 1 3-1 1.457002-1 2.9575753 1 1.5321091 1 3.0424247m10-12c0 1.5-1 1.5-1 3s1 1.5108889 1 3-1 1.457002-1 2.9575753 1 1.5321091 1 3.0424247" fill="none" stroke="#000" stroke-linecap="round" stroke-linejoin="round"/></svg>