<svg height="24" viewBox="0 0 24 24" width="24" xmlns="http://www.w3.org/2000/svg"><path d="m11.5107 21.4883c.482-1.998 1.132-5.082 1.381-7.988m-3.2823 4.9997c-.202.988-.408 1.896-.585 2.622m3.9697-9.622c.001-.065.006-.135.006-.2 0-.691-.56-1.25-1.25-1.25-.691 0-1.25.559-1.25 1.25 0 1.612-.221 3.459-.515 5.2m9.9797.8613c.31-2.005.535-4.135.535-6.111 0-2.311-.902-4.407-2.365-5.97m-14.959 4.2197c-.115.565-.176 1.15-.176 1.75 0 1.217-.209 2.813-.492 4.408m14.1026-11.6824c-1.391-.932-3.062-1.476-4.86-1.476-3.489 0-6.492 2.047-7.897 5m3.753 8.0004c-.271 1.729-.633 3.403-.931 4.648m6.9115-12.149c-.545-.309-1.166-.499-1.837-.499-2.071 0-3.75 1.679-3.75 3.75 0 .708-.048 1.47-.128 2.25m6.258 7.7109c.614-2.684 1.37-6.648 1.37-9.961 0-.671-.19-1.292-.499-1.837m-8.1025-2.1004c-.873 1.075-1.398 2.444-1.398 3.938 0 2.124-.509 4.986-1.006 7.239m13.4148-4.9895c.058-.764.091-1.519.091-2.25 0-3.452-2.799-6.25-6.25-6.25-1.236 0-2.384.363-3.354.982m8.5423 14.0971c.286-1.396.564-2.974.765-4.579" fill="none" stroke="#000" stroke-linecap="round" stroke-linejoin="round"/></svg>