<svg height="24" viewBox="0 0 24 24" width="24" xmlns="http://www.w3.org/2000/svg"><path d="m7.5 3.5c-2.761 0-5 2.238-5 5 0 2.049 1.235 3.806 3 4.578v2.422l1 1-1 1 1 1-1 1 2 2 2-2v-6.422c1.765-.772 3-2.529 3-4.578 0-2.762-2.239-5-5-5zm2 9.8887c.893.178 1.825.112 2.69-.198l1.31 1.309h2v2h2v2h3v-3l-5.31-5.309c.635-1.765.26-3.812-1.154-5.226-1.365-1.365-3.317-1.754-5.038-1.211m-.498 2.7463c0 .553-.448 1-1 1s-1-.447-1-1 .448-1 1-1 1 .447 1 1zm2-3v-.5c0-.828-.671-1.5-1.5-1.5s-1.5.672-1.5 1.5v2.5" fill="none" stroke="#000" stroke-linecap="round" stroke-linejoin="round"/></svg>