<svg height="24" viewBox="0 0 24 24" width="24" xmlns="http://www.w3.org/2000/svg"><path d="m3.5 5.5c0-1.1.9-2 2-2h12c1.1 0 2 .9 2 2v12c0 1.1-.9 2-2 2h-12c-1.1 0-2-.9-2-2m13-6c0 2.762-2.238 5-5 5s-5-2.238-5-5 2.238-5 5-5 5 2.238 5 5zm-14-2h2v-3h-2zm0 7h2v-3h-2zm11-5c0 1.104-.896 2-2 2s-2-.896-2-2 .896-2 2-2 2 .896 2 2zm-2-2v-3m0 7v3m-1.7324-4-2.598 1.5m6.0628-3.5 2.598-1.5m-2.598 3.5 2.598 1.5m-6.0628-3.5-2.598-1.5m-3.6696 4.5v-4m0-3v-1m0 11v1" fill="none" stroke="#000" stroke-linecap="round" stroke-linejoin="round"/></svg>