<svg height="24" viewBox="0 0 24 24" width="24" xmlns="http://www.w3.org/2000/svg"><path d="m14.5 18.5h-6c-2.2 0-4-1.8-4-4v-6c0-2.2 1.8-4 4-4h6c2.2 0 4 1.8 4 4v6c0 2.2-1.8 4-4 4zm-7.8389-13.5483 1.339-2.952m8.3388 2.952-1.339-2.952m-8.3383 16.0491 1.338 2.951m8.3383-2.9505-1.338 2.951m5.5001-11.5003v4m-8.5 0c0-.276-.224-.5-.5-.5s-.5.224-.5.5.224.5.5.5.5-.224.5-.5zm1.6213203-2.1213203c-1.1715728-1.1715729-3.0710678-1.1715729-4.24264064 0m5.65685424-1.41421361c-1.9526215-1.95262145-5.11844635-1.95262145-7.07106781 0" fill="none" stroke="#000" stroke-linecap="round" stroke-linejoin="round"/></svg>