<svg height="24" viewBox="0 0 24 24" width="24" xmlns="http://www.w3.org/2000/svg"><path d="m14.5 18.5h-6c-2.2 0-4-1.8-4-4v-6c0-2.2 1.8-4 4-4h6c2.2 0 4 1.8 4 4v6c0 2.2-1.8 4-4 4zm-7.8389-13.5483 1.339-2.952m8.3388 2.952-1.339-2.952m-8.3383 16.0491 1.338 2.951m8.3383-2.9505-1.338 2.951m5.5001-11.5003v4m-8.99999-6v4m2.8285254-2.82846536c1.5624195 1.56241956 1.5624195 4.09525116 0 5.65687066-1.5624196 1.5624196-4.0952512 1.5624196-5.65687075 0-1.56241953-1.5616195-1.56241953-4.0944511 0-5.65687066" fill="none" stroke="#000" stroke-linecap="round" stroke-linejoin="round"/></svg>