<svg height="24" viewBox="0 0 24 24" width="24" xmlns="http://www.w3.org/2000/svg"><path d="m14.5 18.5h-6c-2.2 0-4-1.8-4-4v-6c0-2.2 1.8-4 4-4h6c2.2 0 4 1.8 4 4v6c0 2.2-1.8 4-4 4zm-7.8389-13.5483 1.339-2.952m8.3388 2.952-1.339-2.952m-8.3383 16.0491 1.338 2.951m8.3383-2.9505-1.338 2.951m5.5001-11.5003v4m-9 2.5c-2.66666667-1.3333333-4-3.1666667-4-5.5 0-1.5 1-2 2-2 .6666667 0 1.3333333.33333333 2 1 .6666667-.66666667 1.3333333-1 2-1 1 0 2 .5 2 2 0 2.3333333-1.3333333 4.1666667-4 5.5z" fill="none" stroke="#000" stroke-linecap="round" stroke-linejoin="round"/></svg>