<svg height="24" viewBox="0 0 24 24" width="24" xmlns="http://www.w3.org/2000/svg"><path d="m14.5 18.5h-6c-2.2 0-4-1.8-4-4v-6c0-2.2 1.8-4 4-4h6c2.2 0 4 1.8 4 4v6c0 2.2-1.8 4-4 4zm-7.8389-13.5483 1.339-2.952m8.3388 2.952-1.339-2.952m-8.3383 16.0491 1.338 2.951m8.3383-2.9505-1.338 2.951m5.5001-11.5003v4m-9-.7998v-.519c0-.355.235-.663.575-.765.824-.247 1.425-1.011 1.425-1.916 0-1.081-.919-2-2-2-1.104 0-2 .896-2 2m2 4.9998c-.276 0-.5.224-.5.5s.224.5.5.5.5-.224.5-.5-.224-.5-.5-.5z" fill="none" stroke="#000" stroke-linecap="round" stroke-linejoin="round"/></svg>