<svg height="24" viewBox="0 0 24 24" width="24" xmlns="http://www.w3.org/2000/svg"><path d="m1.5 7.5h20c.5522847 0 1 .3581722 1 .8v6.4c0 .4418278-.4477153.8-1 .8h-20c-.55228475 0-1-.3581722-1-.8v-6.4c0-.4418278.44771525-.8 1-.8zm18.5606602 4.5606602c-.585838.5858379-1.5354824.5858379-2.1213204 0-.5858379-.585838-.5858379-1.5354824 0-2.12132037.585838-.58583797 1.5354824-.58583797 2.1213204 0 .5858379.58583797.5858379 1.53548237 0 2.12132037zm-3.5606602 1.4393398 1.4393398-1.4393398" fill="none" stroke="#000" stroke-linecap="round" stroke-linejoin="round"/></svg>