<svg height="24" viewBox="0 0 24 24" width="24" xmlns="http://www.w3.org/2000/svg"><path d="m19.4502 15.3506c1.281-1.339 2.05-3.006 2.05-4.819 0-4.402-4.477-7.969-10-7.969s-10 3.567-10 7.969c0 4.401 4.477 7.968 10 7.968 2.211 0 4.248-.579 5.904-1.547l3.096 1.547zm-9.9502-6.3506 1-1-1.5-2.5-1.45218234.58087294c-.67878933.27153678-1.06296235.99287526-.90945699 1.70766423.33727194 1.57048761 1.29115172 3.14097523 2.86163933 4.71146283 1.570497 1.570497 3.1409939 2.5243787 4.7114909 2.8616453.7147916.1534839 1.4361268-.2306895 1.7076447-.9094843l.5808644-1.452161-2.5-1.5-1 1c-.6666667-.3333333-1.3333333-.8333333-2-1.5s-1.16666667-1.33333333-1.5-2z" fill="none" stroke="#000" stroke-linecap="round" stroke-linejoin="round"/></svg>