<svg height="24" viewBox="0 0 24 24" width="24" xmlns="http://www.w3.org/2000/svg"><path d="m19.4502 15.3506c1.281-1.339 2.05-3.006 2.05-4.819 0-4.402-4.477-7.969-10-7.969s-10 3.567-10 7.969c0 4.401 4.477 7.968 10 7.968 2.211 0 4.248-.579 5.904-1.547l3.096 1.547zm-10.77877778-2.0222444 5.65688888-5.65644449m1.1716889 2.82808889c0 2.2093333-1.7906667 4-4 4-2.20933333 0-4-1.7906667-4-4 0-2.20933333 1.79066667-4 4-4 2.2093333 0 4 1.79066667 4 4z" fill="none" stroke="#000" stroke-linecap="round" stroke-linejoin="round"/></svg>