<svg height="24" viewBox="0 0 24 24" width="24" xmlns="http://www.w3.org/2000/svg"><path d="m19.4502 15.3506c1.281-1.339 2.05-3.006 2.05-4.819 0-4.402-4.477-7.969-10-7.969s-10 3.567-10 7.969c0 4.401 4.477 7.968 10 7.968 2.211 0 4.248-.579 5.904-1.547l3.096 1.547zm-5.9502-6.6006v-.25c0-1.1045-.8955-2-2-2s-2 .8955-2 2v.25c0 1.1015.519 2.139 1.4 2.8.3555.2665.8445.2665 1.2 0 .881-.661 1.4-1.6985 1.4-2.8zm-.766 2.1855.1545.6933399c.0705.3180613.262.5850756.523.7320458l.7655.4291302c.5225.2928183.9045.8274081 1.046 1.4629696l.277 1.2425145m-8 0 .277-1.2425145c.1415-.6355615.5235-1.1701513 1.046-1.4629696l.7655-.4291302c.261-.1469702.4525-.4139845.523-.7320458l.1545-.6933399" fill="none" stroke="#000" stroke-linecap="round" stroke-linejoin="round"/></svg>