<svg height="24" viewBox="0 0 24 24" width="24" xmlns="http://www.w3.org/2000/svg"><path d="m19.4502 15.3506c1.281-1.339 2.05-3.006 2.05-4.819 0-4.402-4.477-7.969-10-7.969s-10 3.567-10 7.969c0 4.401 4.477 7.968 10 7.968 2.211 0 4.248-.579 5.904-1.547l3.096 1.547zm-7.9502-3.6504v-.519c0-.355.235-.663.575-.765.824-.247 1.425-1.011 1.425-1.916 0-1.081-.919-2-2-2-1.104 0-2 .896-2 2m2 4.9998c-.276 0-.5.224-.5.5s.224.5.5.5.5-.224.5-.5-.224-.5-.5-.5z" fill="none" stroke="#000" stroke-linecap="round" stroke-linejoin="round"/></svg>