<svg height="24" viewBox="0 0 24 24" width="24" xmlns="http://www.w3.org/2000/svg"><path d="m19.4502 15.3506c1.281-1.339 2.05-3.006 2.05-4.819 0-4.402-4.477-7.969-10-7.969s-10 3.567-10 7.969c0 4.401 4.477 7.968 10 7.968 2.211 0 4.248-.579 5.904-1.547l3.096 1.547zm-11.4502-4.3506 3.5-3.5c.8284271-.82842712 2.1715729-.82842712 3 0s.8284271 2.17157288 0 3l-3.75 3.75c-.4142136.4142136-1.08578644.4142136-1.5 0s-.41421356-1.0857864 0-1.5l3.25-3.25" fill="none" stroke="#000" stroke-linecap="round" stroke-linejoin="round"/></svg>