<svg height="24" viewBox="0 0 24 24" width="24" xmlns="http://www.w3.org/2000/svg"><path d="m19.4502 15.3506c1.281-1.339 2.05-3.006 2.05-4.819 0-4.402-4.477-7.969-10-7.969s-10 3.567-10 7.969c0 4.401 4.477 7.968 10 7.968 2.211 0 4.248-.579 5.904-1.547l3.096 1.547zm-5.9502-5.3506c0 1.3808333-1.1191667 2.5-2.5 2.5-1.38083333 0-2.5-1.1191667-2.5-2.5 0-1.38083333 1.11916667-2.5 2.5-2.5 1.3808333 0 2.5 1.11916667 2.5 2.5zm1.5 4-2.2325-2.2325" fill="none" stroke="#000" stroke-linecap="round" stroke-linejoin="round"/></svg>