<svg height="24" viewBox="0 0 24 24" width="24" xmlns="http://www.w3.org/2000/svg"><path d="m21.5 10.5c0-3.3-2.7-6-6-6-.787 0-1.537.157-2.228.436-.822-.877-1.982-1.436-3.272-1.436-2.396 0-4.354 1.903-4.477 4.271-1.752.617-3.023 2.274-3.023 4.229 0 2.475 2.025 4.5 4.5 4.5.407 0 .794-.072 1.17-.175.792 1.297 2.208 2.175 3.83 2.175 1.557 0 2.933-.803 3.742-2.013 3.188-.129 5.758-2.768 5.758-5.987zm-14 9.5c0 .828-.672 1.5-1.5 1.5s-1.5-.672-1.5-1.5.672-1.5 1.5-1.5 1.5.672 1.5 1.5z" fill="none" stroke="#000" stroke-linecap="round" stroke-linejoin="round"/></svg>