<svg height="24" viewBox="0 0 24 24" width="24" xmlns="http://www.w3.org/2000/svg"><path d="m6.5 11c0 .828.672 1.5 1.5 1.5h8.5l2 2v-2h.5c.828 0 1.5-.672 1.5-1.5s-.672-1.5-1.5-1.5h-11c-.828 0-1.5.672-1.5 1.5zm-2.5 7.5h.5v2l2-2h8.5c.828 0 1.5-.672 1.5-1.5s-.672-1.5-1.5-1.5h-11c-.828 0-1.5.672-1.5 1.5s.672 1.5 1.5 1.5zm.5-10 2-2h8.5c.828 0 1.5-.672 1.5-1.5s-.672-1.5-1.5-1.5h-11c-.828 0-1.5.672-1.5 1.5s.672 1.5 1.5 1.5h.5z" fill="none" stroke="#000" stroke-linecap="round" stroke-linejoin="round"/></svg>