<svg height="24" viewBox="0 0 24 24" width="24" xmlns="http://www.w3.org/2000/svg"><path d="m2.5 20.5s12.267-6.609 13.828-8.172c1.563-1.561 1.563-4.095 0-5.656-1.561-1.563-4.095-1.563-5.656 0-1.563 1.561-8.172 13.828-8.172 13.828zm19-14s-1.375-1.5-2.5-1.5-2.5 1.5-2.5 1.5 1.375 1.5 2.5 1.5 2.5-1.5 2.5-1.5zm-5-5s-1.5 1.375-1.5 2.5 1.5 2.5 1.5 2.5 1.5-1.375 1.5-2.5-1.5-2.5-1.5-2.5zm-1.3086 11.6914-1.191-1.191m-7.2113.7887 1.211 1.211" fill="none" stroke="#000" stroke-linecap="round" stroke-linejoin="round"/></svg>