<svg height="24" viewBox="0 0 24 24" width="24" xmlns="http://www.w3.org/2000/svg"><path d="m8.5 9.5c0 .553-.447 1-1 1s-1-.447-1-1 .447-1 1-1 1 .447 1 1zm3 6c0 .553-.447 1-1 1s-1-.447-1-1 .447-1 1-1 1 .447 1 1zm5-2c0 .553-.447 1-1 1s-1-.447-1-1 .447-1 1-1 1 .447 1 1zm3.9971-2.0498c-.16.032-.327.05-.497.05-.891 0-1.667-.469-2.11-1.171-.278.106-.576.171-.89.171-1.226 0-2.24-.883-2.454-2.046-1.163-.214-2.046-1.23-2.046-2.454 0-.315.064-.612.171-.89-.701-.443-1.171-1.22-1.171-2.11 0-.17.018-.336.05-.497-.017 0-.033-.003-.05-.003-4.971 0-9 4.029-9 9s4.029 9 9 9 9-4.029 9-9c0-.017-.002-.033-.003-.05z" fill="none" stroke="#000" stroke-linecap="round" stroke-linejoin="round"/></svg>