<svg height="24" viewBox="0 0 24 24" width="24" xmlns="http://www.w3.org/2000/svg"><path d="m8.2451 9.9004c.49-.562 1.017-1.125 1.575-1.684 4.309-4.308 8.912-6.69 10.283-5.32 1.371 1.371-1.011 5.975-5.32 10.283-.539.539-1.082 1.047-1.623 1.523m-8.6601 3.7976c3 3 5.879 0 8 0 2.5 0 1.743 2.889 1.743 2.889s3.085-3.061.257-5.889c-2-2-7 0-7 0s2-5 0-7c-2.828-2.828-6 0-6 0s3-.121 3 2c0 2.5-3 5 0 8m4.0195-8.9805 4.961 4.961m-1.8096-7.8096 4.658 4.658m-1.0232-7.0232 3.389 3.389m-16.1947 12.8053 2-2" fill="none" stroke="#000" stroke-linecap="round" stroke-linejoin="round"/></svg>