<svg height="24" viewBox="0 0 24 24" width="24" xmlns="http://www.w3.org/2000/svg"><path d="m4.9053 13.3242 1.595 7.176h10l1.594-7.176m-1.0943-6.8242c-.071 0-.137.017-.207.021-.647-2.318-2.769-4.021-5.293-4.021s-4.646 1.703-5.293 4.021c-.07-.004-.136-.021-.207-.021-1.933 0-3.5 1.567-3.5 3.5s1.567 3.5 3.5 3.5c.93 0 1.77-.369 2.396-.961.884.606 1.953.961 3.104.961s2.22-.355 3.104-.961c.626.592 1.466.961 2.396.961 1.933 0 3.5-1.567 3.5-3.5s-1.567-3.5-3.5-3.5zm-7.5 14-.867-7.808m4.867 7.808.867-7.808" fill="none" stroke="#000" stroke-linecap="round" stroke-linejoin="round"/></svg>