<svg height="24" viewBox="0 0 24 24" width="24" xmlns="http://www.w3.org/2000/svg"><path d="m12.2822 3.9102c1.88-1.88 4.928-1.88 6.808 0s1.88 4.928 0 6.808m-12.4808 3.4039c-.94-.94-2.465-.94-3.404 0-.941.939-.941 2.464 0 3.403.437.439 1.003.663 1.576.694.03.573.255 1.138.693 1.576.94.94 2.464.94 3.404 0s.94-2.464 0-3.404m-.0005-.0005c5.257-5.256 6.809-2.269 10.212-5.673m-12.4805 3.4045c5.256-5.257 2.269-6.809 5.673-10.212" fill="none" stroke="#000" stroke-linecap="round" stroke-linejoin="round"/></svg>