<svg height="24" viewBox="0 0 24 24" width="24" xmlns="http://www.w3.org/2000/svg"><path d="m17.5005 2.5v9 8c0 .553.447 1 1 1 .552 0 1-.447 1-1v-6.382c0-.379.213-.725.552-.894l.342-.171c.677-.339 1.106-1.032 1.106-1.789v-2.642c0-2.423-1.649-4.534-4-5.122zm-2.0005 4c0-2.209-1.343-4-3-4s-3 1.791-3 4c0 1.392.536 2.607 1.346 3.32.445.392.654.988.654 1.579v8.101c0 .553.448 1 1 1s1-.447 1-1v-8.101c0-.591.209-1.187.654-1.579.81-.713 1.346-1.928 1.346-3.32zm-12-3v4m2-4v4m-4-4v5c0 .978.471 1.84 1.196 2.385.504.378.804.967.804 1.595v7.02c0 .553.448 1 1 1s1-.447 1-1v-7.02c0-.628.3-1.217.804-1.595.725-.545 1.196-1.407 1.196-2.385v-5l-1-1-1 1-1-1-1 1-1-1z" fill="none" stroke="#000" stroke-linecap="round" stroke-linejoin="round"/></svg>