<svg height="24" viewBox="0 0 24 24" width="24" xmlns="http://www.w3.org/2000/svg"><path d="m12.6709 12.3291c1.577.754 3.522.478 4.829-.829l4-4v-2h-2v-2h-2v-2h-2l-4 4c-1.307 1.307-1.583 3.252-.829 4.829l-7.758 7.758c-.551.551-.551 1.443 0 1.994l.006.006c.551.551 1.443.551 1.994 0zm4.8291-8.8291-4 4m6-2-4 4m-7 3h-2.172c-.53 0-1.039-.211-1.414-.586l-1.071-1.071c-1.5-1.5-2.343-3.535-2.343-5.656v-3.687l9 9m2 2 5.587 5.587c.551.551.551 1.443 0 1.994l-.006.006c-.551.551-1.443.551-1.994 0l-5.587-5.587" fill="none" stroke="#000" stroke-linecap="round" stroke-linejoin="round"/></svg>