<svg height="24" viewBox="0 0 24 24" width="24" xmlns="http://www.w3.org/2000/svg"><path d="m2.9131 18.0869c-.551.551-.551 1.443 0 1.994l.006.006c.551.551 1.443.551 1.994 0l5.587-5.587h2.171c.531 0 1.04-.211 1.415-.586l3.071-3.071c1.5-1.5 2.343-3.535 2.343-5.656v-3.687zm12.5869-12.5869v7m3 8c-.5521667 0-1-.4478333-1-1 0-.6666667.3333333-1.3333333 1-2 .6666667.6666667 1 1.3333333 1 2 0 .5521667-.4478333 1-1 1zm1.0001-15.3131-.0001 7.3131c0 .5522847-.4477153 1-1 1s-1-.4477153-1-1l.0017349-2.024128" fill="none" stroke="#000" stroke-linecap="round" stroke-linejoin="round"/></svg>