<svg height="24" viewBox="0 0 24 24" width="24" xmlns="http://www.w3.org/2000/svg"><path d="m14.5 20.5h-6c-.553 0-1-.447-1-1v-4.586c0-.265.105-.519.293-.707l.707-.707-.707-.707c-.188-.188-.293-.442-.293-.707v-3.114c0-.31.072-.617.211-.894l1.789-3.578h4l1.789 3.578c.139.277.211.584.211.894v3.114c0 .265-.105.519-.293.707l-.707.707.707.707c.188.188.293.442.293.707v4.586c0 .553-.447 1-1 1zm.9619-10.251c-.654.145-1.308.251-1.962.251-2 0-3-1-5-1-.301 0-.578.022-.841.061m5.8411-5.061h-4v-1c0-.553.447-1 1-1h2c.553 0 1 .447 1 1z" fill="none" stroke="#000" stroke-linecap="round" stroke-linejoin="round"/></svg>