<svg height="24" viewBox="0 0 24 24" width="24" xmlns="http://www.w3.org/2000/svg"><path d="m2.5 17.5h18v-5h-18zm2-5h14v-5h-14zm2-5h10v-5h-10zm5 10v3m-4 0h8m-9-16c1.25 0 1.25 1 2.5 1s1.25-1 2.5-1 1.25 1 2.5 1 1.25-1 2.5-1m-14 10c1.5 0 1.5 1 3 1s1.5-1 3-1 1.5 1 3 1 1.5-1 3-1 1.5 1 3 1 1.5-1 3-1m-16-5c1.167 0 1.167 1 2.333 1 1.167 0 1.167-1 2.334-1 1.166 0 1.166 1 2.333 1s1.167-1 2.333-1c1.167 0 1.167 1 2.334 1 1.166 0 1.166-1 2.333-1" fill="none" stroke="#000" stroke-linecap="round" stroke-linejoin="round"/></svg>