<svg height="24" viewBox="0 0 24 24" width="24" xmlns="http://www.w3.org/2000/svg"><path d="m19.5 8.5s-1.375-1.5-2.5-1.5-2.5 1.5-2.5 1.5 1.375 1.5 2.5 1.5 2.5-1.5 2.5-1.5zm-5-5s-1.5 1.375-1.5 2.5 1.5 2.5 1.5 2.5 1.5-1.375 1.5-2.5-1.5-2.5-1.5-2.5zm5.9971-.9971s-2.201.201-2.997.997-1 3-1 3 2.204-.204 3-1 .997-2.997.997-2.997zm-3.4971 8.4971s-1.375-1.5-2.5-1.5-2.5 1.5-2.5 1.5 1.375 1.5 2.5 1.5 2.5-1.5 2.5-1.5zm-5-5s-1.5 1.375-1.5 2.5 1.5 2.5 1.5 2.5 1.5-1.375 1.5-2.5-1.5-2.5-1.5-2.5zm2.5 7.5s-1.375-1.5-2.5-1.5-2.5 1.5-2.5 1.5 1.375 1.5 2.5 1.5 2.5-1.5 2.5-1.5zm-5-5s-1.5 1.375-1.5 2.5 1.5 2.5 1.5 2.5 1.5-1.375 1.5-2.5-1.5-2.5-1.5-2.5zm2.5 7.5s-1.375-1.5-2.5-1.5-2.5 1.5-2.5 1.5 1.375 1.5 2.5 1.5 2.5-1.5 2.5-1.5zm-5-5s-1.5 1.375-1.5 2.5 1.5 2.5 1.5 2.5 1.5-1.375 1.5-2.5-1.5-2.5-1.5-2.5zm9.5-4.5-14 14" fill="none" stroke="#000" stroke-linecap="round" stroke-linejoin="round"/></svg>