<svg height="24" viewBox="0 0 24 24" width="24" xmlns="http://www.w3.org/2000/svg"><path d="m15.505 12.5005c0 2.209-1.791 4-4 4s-4-1.791-4-4 1.791-4 4-4 4 1.791 4 4zm-5.5176-9.5317c-.254.091-.506.197-.747.337-2.152 1.243-2.891 3.995-1.648 6.147s3.996 2.89 6.148 1.647 2.89-3.995 1.646-6.147c-.557-.965-1.424-1.628-2.399-1.972m-8.9179 15.4372c.205.175.423.339.665.479 2.152 1.243 4.904.505 6.147-1.647 1.243-2.153.505-4.905-1.647-6.147-2.152-1.243-4.904-.506-6.146 1.647-.558.965-.698 2.048-.509 3.064m16.3415 2.604c-.205.175-.423.339-.665.479-2.152 1.243-4.904.505-6.147-1.647-1.243-2.153-.505-4.905 1.647-6.147 2.152-1.243 4.904-.506 6.146 1.647.558.965.698 2.048.509 3.064" fill="none" stroke="#000" stroke-linecap="round" stroke-linejoin="round"/></svg>