<svg height="24" viewBox="0 0 24 24" width="24" xmlns="http://www.w3.org/2000/svg"><path d="m11.5 6.5v15m2-17c0 1.104-.896 2-2 2s-2-.896-2-2 .896-2 2-2 2 .896 2 2zm-2 4h6.764c.757 0 1.45-.428 1.789-1.105l1.447-2.895-5-2v1c0 2.761-2.239 5-5 5m0 0h-6.764c-.757 0-1.45-.428-1.789-1.105l-1.447-2.895 5-2v1c0 2.761 2.239 5 5 5m0 9c1.381 0 2.5.671 2.5 1.5s-1.119 1.5-2.5 1.5-2.5-.671-2.5-1.5m5.084-2.5c.258-.295.416-.634.416-1 0-1.104-1.343-2-3-2m-3.6621-3.5c-.215.307-.338.644-.338 1 0 1.381 1.791 2.5 4 2.5m3.1822-1c.506-.419.818-.935.818-1.5 0-.356-.123-.693-.338-1m-6.4307 4.75c-.146.231-.231.483-.231.75 0 1.104 1.343 2 3 2" fill="none" stroke="#000" stroke-linecap="round" stroke-linejoin="round"/></svg>