<svg height="24" viewBox="0 0 24 24" width="24" xmlns="http://www.w3.org/2000/svg"><path d="m2.5 9.5h18m-12.7314 7.9356c-.609.326-1.17.731-1.672 1.198-.33.307-.1.866.351.866h10.105c.451 0 .681-.559.351-.866-.502-.467-1.063-.872-1.672-1.198-.354-.189-.351-.683.004-.87 2.535-1.341 4.264-3.998 4.264-7.066h-16c0 3.068 1.73 5.725 4.265 7.066.355.187.358.681.004.87zm8.7314-7.9356 3.587-3.587c.551-.551.551-1.443 0-1.994l-.006-.006c-.551-.551-1.443-.551-1.994 0l-5.587 5.587" fill="none" stroke="#000" stroke-linecap="round" stroke-linejoin="round"/></svg>