<svg height="24" viewBox="0 0 24 24" width="24" xmlns="http://www.w3.org/2000/svg"><path d="m14.8848 2.5.865 1.607c.474.88.521 1.928.127 2.847l-.001.001c-1.542 3.598-6.215 6.596-9.613 8.538l-1.763 1.007 2 5 .624-.468c4.76-3.57 10.085-8.724 11.376-14.532l-.114-.344c-.561-1.681-1.846-3.023-3.501-3.656m-5.0567 10.7808c-1.58-2.106-2.796-4.388-3.328-6.781l.114-.344c.561-1.681 1.846-3.023 3.501-3.656m5.0568 10.781c1.222.838 2.461 1.581 3.565 2.212l1.763 1.007-2 5-.624-.468c-1.794-1.345-3.668-2.916-5.376-4.661m-2.3847-13.8708-.865 1.607c-.474.88-.521 1.928-.127 2.847l.001.001c.663 1.547 1.905 2.984 3.376 4.273m-3.6379-5.728s1.253-1 3.638-1c2.384 0 3.637 1 3.637 1m-6.0221-3s1.385-.25 2.385-.25 2.385.25 2.385.25" fill="none" stroke="#000" stroke-linecap="round" stroke-linejoin="round"/></svg>