<svg height="24" viewBox="0 0 24 24" width="24" xmlns="http://www.w3.org/2000/svg"><path d="m14.9365 18.752-.437 1.748h-6l-.417-1.672c-.359-1.432-1.478-2.552-2.911-2.91l-.463-.115c-.62-.155-.937-.846-.651-1.418l.219-.438c.14-.281.14-.613 0-.894l-.513-1.025c-.172-.344-.241-.732-.198-1.115l.162-1.457c.439-3.96 3.787-6.956 7.771-6.956h.002c3.985 0 7.332 2.996 7.772 6.956l.162 1.457c.043.383-.026.771-.198 1.115l-.505 1.01c-.146.29-.141.632.012.918l.172.322c.3.564.002 1.261-.612 1.434l-.569.159c-1.382.389-2.449 1.488-2.798 2.881zm-3.0566-1.252h-.76c-.423 0-.721-.436-.588-.857l.38-1.198c.189-.593.988-.593 1.176 0l.38 1.198c.134.421-.165.857-.588.857zm-2.9258-3.5332.655-.116c.268-.048.441-.328.378-.61l-.199-.886c-.082-.364-.346-.647-.685-.737l-.105-.028c-.784-.207-1.614-.053-2.286.427l-.004.002c-.196.139-.264.414-.158.639.445.954 1.421 1.484 2.404 1.309zm5.0879 0-.65-.116c-.27-.048-.444-.331-.378-.614l.209-.893c.084-.358.345-.638.681-.728l.091-.024c.787-.21 1.621-.056 2.297.425.196.14.264.414.158.639-.446.955-1.423 1.487-2.408 1.311z" fill="none" stroke="#000" stroke-linecap="round" stroke-linejoin="round"/></svg>