<svg height="24" viewBox="0 0 24 24" width="24" xmlns="http://www.w3.org/2000/svg"><path d="m20.5 7.5v9c0 .552-.447 1-1 1h-16c-.553 0-1-.448-1-1v-9c0-.552.447-1 1-1h16c.553 0 1 .448 1 1zm-8 2h5m-5 2h3m0 4h3m-11.2334-1.5645-.155.618c-.071.283-.262.522-.523.652l-.847.424c-.475.237-.835.653-1.003 1.157l-.239.713h8l-.238-.713c-.168-.504-.528-.92-1.003-1.157l-.847-.424c-.261-.13-.453-.369-.523-.652l-.155-.618m-.634.6143c-.355.267-.844.267-1.199 0-.882-.661-1.401-1.698-1.401-2.8v-.25c0-1.104.896-2 2-2 1.105 0 2 .896 2 2v.25c0 1.102-.518 2.139-1.4 2.8z" fill="none" stroke="#000" stroke-linecap="round" stroke-linejoin="round"/></svg>