<svg height="24" viewBox="0 0 24 24" width="24" xmlns="http://www.w3.org/2000/svg"><path d="m19.5 18.5h-16c-.553 0-1-.448-1-1v-12c0-.552.447-1 1-1h16c.553 0 1 .448 1 1v12c0 .552-.447 1-1 1zm-15-11h3.586c.265 0 .519.105.707.293l.414.414c.188.188.442.293.707.293h3.172c.265 0 .519-.105.707-.293l.414-.414c.188-.188.442-.293.707-.293h3.586m-14 4h3.586c.265 0 .519.105.707.293l.414.414c.188.188.442.293.707.293h3.172c.265 0 .519-.105.707-.293l.414-.414c.188-.188.442-.293.707-.293h3.586" fill="none" stroke="#000" stroke-linecap="round" stroke-linejoin="round"/></svg>