<svg height="24" viewBox="0 0 24 24" width="24" xmlns="http://www.w3.org/2000/svg"><path d="m10.126 14.126 6.374 6.374 4-4-6.039-6.039m-1.9219-1.9219-6.039-6.039-4 4 6.374 6.374m-.8829 1.0448 9.075-10.734c.737-.872 2.061-.928 2.868-.12h.001c.808.808.752 2.132-.12 2.869l-10.782 9.116m-.5332-.7315c-1.104-1.091-2.896-1.091-4 0-.32.316-.5.746-.5 1.193 0 .818-.329 1.602-.914 2.18l-.586.58.002.001c1.655 1.637 4.341 1.637 5.996 0l.002-.001c1.104-1.092 1.104-2.861 0-3.953zm10 .1816-1 1m-1-3-2 2m-4-8-1 1m-1-3-2 2" fill="none" stroke="#000" stroke-linecap="round" stroke-linejoin="round"/></svg>