<svg height="24" viewBox="0 0 24 24" width="24" xmlns="http://www.w3.org/2000/svg"><path d="m12.5 7.5-8.379 8.379c-.554.554-.728 1.336-.542 2.042l-.768.768c-.415.415-.415 1.085 0 1.499l.001.001c.414.415 1.084.415 1.499 0l.768-.768c.706.186 1.488.012 2.042-.542l8.379-8.379m4.3789-7.377-.002-.002c-.828-.828-2.17-.828-2.998 0l-2.379 2.379-.587-.587c-.551-.551-1.443-.551-1.994 0l-.006.006c-.551.551-.551 1.443 0 1.994l4.174 4.174c.551.551 1.443.551 1.994 0l.006-.006c.551-.551.551-1.443 0-1.994l-.587-.587 2.379-2.379c.828-.828.828-2.17 0-2.998z" fill="none" stroke="#000" stroke-linecap="round" stroke-linejoin="round"/></svg>