<svg height="24" viewBox="0 0 24 24" width="24" xmlns="http://www.w3.org/2000/svg"><path d="m6.5 13.5-3.379 3.379c-.828.828-.828 2.17 0 2.998l.002.002c.828.828 2.17.828 2.998 0l3.379-3.379 1.586 1.586c.781.781 2.047.781 2.828 0l1.586-1.586-9-9-1.586 1.586c-.781.781-.781 2.047 0 2.828zm9 3 6-6-9-9-6 6m13 1-2 2m-2-6-2 2m4 0-1 1m4.7227 8.084-.723-1.084-.722 1.084c-.181.271-.278.59-.278.916 0 .553.448 1 1 1 .553 0 1-.447 1-1 0-.326-.096-.645-.277-.916z" fill="none" stroke="#000" stroke-linecap="round" stroke-linejoin="round"/></svg>