<svg height="24" viewBox="0 0 24 24" width="24" xmlns="http://www.w3.org/2000/svg"><path d="m20.3311 13.2275c.217-1.097.233-2.264.001-3.469-.706-3.665-3.709-6.578-7.398-7.147-6.091-.941-11.265 4.233-10.323 10.325.571 3.687 3.484 6.691 7.149 7.395 1.204.233 2.372.216 3.467 0 1.27-.251 2.04-1.55 1.629-2.777l-.001-.004c-.558-1.667 1.029-3.253 2.696-2.695l.003.001c1.228.41 2.526-.359 2.777-1.629zm-8.8311 2.7725c0 .828-.671 1.5-1.5 1.5s-1.5-.672-1.5-1.5.671-1.5 1.5-1.5 1.5.672 1.5 1.5zm-4-3.5c0 .553-.448 1-1 1s-1-.447-1-1 .448-1 1-1 1 .447 1 1zm3-4.5c0 .828-.671 1.5-1.5 1.5s-1.5-.672-1.5-1.5.671-1.5 1.5-1.5 1.5.672 1.5 1.5zm4-1.5c0 .553-.448 1-1 1s-1-.447-1-1 .448-1 1-1 1 .447 1 1z" fill="none" stroke="#000" stroke-linecap="round" stroke-linejoin="round"/></svg>