<svg height="24" viewBox="0 0 24 24" width="24" xmlns="http://www.w3.org/2000/svg"><path d="m3.5 6.5h.01m-.01 2h.01m-.01 2h.01m-.01 2h.01m-.01 2h.01m-.01 2h.01m2.99 3h.01m9.99-16h.01m-2.01 0h.01m-2.01 0h.01m-2.01 0h.01m-2.01 0h.01m-2.01 0h.01m9.99 16h.01m-2.01 0h.01m-2.01 0h.01m-2.01 0h.01m-2.01 0h.01m10.99-13h.01m-.01 2h.01m-.01 2h.01m-.01 2h.01m-.01 2h.01m-.01 2h.01m-17.01-12h2v-2h-2zm16 0h2v-2h-2zm0 16h2v-2h-2zm-16 0h2v-2h-2z" fill="none" stroke="#000" stroke-linecap="round" stroke-linejoin="round"/></svg>