<svg height="24" viewBox="0 0 24 24" width="24" xmlns="http://www.w3.org/2000/svg"><path d="m3.5 3.5h.01m-.01 2h.01m-.01 2h.01m-.01 2h.01m-.01 2h.01m-.01 2h.01m-.01 2h.01m-.01 2h.01m-.01 2h.01m1.99 0h.01m13.99-16h.01m-2.01 0h.01m-2.01 0h.01m-2.01 0h.01m-2.01 0h.01m-2.01 0h.01m-2.01 0h.01m-2.01 0h.01m11.99 16h.01m-2.01 0h.01m-2.01 0h.01m-2.01 0h.01m-2.01 0h.01m-2.01 0h.01m11.99-14h.01m-.01 2h.01m-.01 2h.01m-.01 2h.01m-.01 2h.01m-.01 2h.01m-.01 2h.01m-.01 2h.01" fill="none" stroke="#000" stroke-linecap="round" stroke-linejoin="round"/></svg>