<svg height="24" viewBox="0 0 24 24" width="24" xmlns="http://www.w3.org/2000/svg"><path d="m11.5 3c2.5 0 4.5 2.5 4.5 5 0 .98243123-.2714544 1.96486247-.6810205 2.8880303.6797073-.2401349 1.411877-.3880303 2.1810205-.3880303 2 0 4 1.5 4 4s-2 4-4 4c-2.1251384 0-3.9680135-1.1290533-5.228701-2.1874627.4663897 1.3871272 1.1446889 2.973753 2.0347357 3.9808178l.1939653.2066449h-6c.98603104-.986031 1.7289978-2.701255 2.2289002-4.1869961-1.26088668 1.0579428-3.10376177 2.1869961-5.2289002 2.1869961-2 0-4-1.5-4-4s2-4 4-4c.76914351 0 1.50131315.1478954 2.18228984.3868099-.41083546-.92194743-.68228984-1.90437867-.68228984-2.8868099 0-2.5 2-5 4.5-5z" fill="none" stroke="#000" stroke-linecap="round" stroke-linejoin="round"/></svg>