<svg height="24" viewBox="0 0 24 24" width="24" xmlns="http://www.w3.org/2000/svg"><path d="m6 2.5h11c.8284271 0 1.5.67157288 1.5 1.5v15c0 .8284271-.6715729 1.5-1.5 1.5h-11c-.82842712 0-1.5-.6715729-1.5-1.5v-15c0-.82842712.67157288-1.5 1.5-1.5zm5.5 3.5c1.25 0 2.25 1.25 2.25 2.5 0 .390227-.0856559.78045399-.2235424 1.15582533.3047776-.09745308.6318635-.15582533.9735424-.15582533 1 0 2 .75 2 2s-1 2-2 2c-.8453947 0-1.6014529-.3573461-2.19265-.7699399l.69265 2.7699399h-3l.6926467-2.770587c-.5911938.4132409-1.34725196.770587-2.1926467.770587-1 0-2-.75-2-2s1-2 2-2c.34167894 0 .66876482.05837225.97627149.15517218-.14061562-.37471819-.22627149-.76494518-.22627149-1.15517218 0-1.25 1-2.5 2.25-2.5z" fill="none" stroke="#000" stroke-linecap="round" stroke-linejoin="round"/></svg>