<svg height="24" viewBox="0 0 24 24" width="24" xmlns="http://www.w3.org/2000/svg"><path d="m19.5 6.5-8 4-8-4m8 14v-10m0 10 8-4v-10l-8-4-8 4v10zm.5-14c0 .138-.224.25-.5.25s-.5-.112-.5-.25.224-.25.5-.25.5.112.5.25zm-2.5 9c.138 0 .25.224.25.5s-.112.5-.25.5-.25-.224-.25-.5.112-.5.25-.5zm-4-5c.138 0 .25.224.25.5s-.112.5-.25.5-.25-.224-.25-.5.112-.5.25-.5zm10 2.5c.138 0 .25.224.25.5s-.112.5-.25.5-.25-.224-.25-.5.112-.5.25-.5zm-2 3c.138 0 .25.224.25.5s-.112.5-.25.5-.25-.224-.25-.5.112-.5.25-.5zm4-6c.138 0 .25.224.25.5s-.112.5-.25.5-.25-.224-.25-.5.112-.5.25-.5z" fill="none" stroke="#000" stroke-linecap="round" stroke-linejoin="round"/></svg>