<svg height="24" viewBox="0 0 24 24" width="24" xmlns="http://www.w3.org/2000/svg"><path d="m6.5 9.5v4m-2-2h4m8.5-2c0 .276-.224.5-.5.5s-.5-.224-.5-.5.224-.5.5-.5.5.224.5.5zm0 4c0 .276-.224.5-.5.5s-.5-.224-.5-.5.224-.5.5-.5.5.224.5.5zm2-2c0 .276-.224.5-.5.5s-.5-.224-.5-.5.224-.5.5-.5.5.224.5.5zm-4 0c0 .276-.224.5-.5.5s-.5-.224-.5-.5.224-.5.5-.5.5.224.5.5zm1.5-5h-9.785c-2.611 0-4.944 1.909-5.192 4.509-.284 2.982 2.054 5.4910393 4.977 5.4910393 1.306 0 2.485-.5080393 3.372-1.3310393.447-.414 1.017-.669 1.627-.669.614 0 1.186.261 1.637.677 1.094 1.01 2.631 1.543 4.299 1.237 1.95-.357 3.551-1.902 3.954-3.843.67-3.229-1.778-6.071-4.889-6.071z" fill="none" stroke="#000" stroke-linecap="round" stroke-linejoin="round"/></svg>