<svg height="24" viewBox="0 0 24 24" width="24" xmlns="http://www.w3.org/2000/svg"><path d="m6 2.5h11c.8284271 0 1.5.67157288 1.5 1.5v15c0 .8284271-.6715729 1.5-1.5 1.5h-11c-.82842712 0-1.5-.6715729-1.5-1.5v-15c0-.82842712.67157288-1.5 1.5-1.5zm5.5 12.5555556s-4-2.2222223-4-5.33333338c0-.88888889.44444444-2.22222222 1.77777778-2.22222222 1.33333332 0 2.22222222 1 2.22222222 1s.8888889-1 2.2222222-1c1.3333334 0 1.7777778 1.33333333 1.7777778 2.22222222 0 3.11111108-4 5.33333338-4 5.33333338z" fill="none" stroke="#000" stroke-linecap="round" stroke-linejoin="round"/></svg>