<svg height="24" viewBox="0 0 24 24" width="24" xmlns="http://www.w3.org/2000/svg"><path d="m5.5 8.5v2m-1-1h2m11-1v2m-1-1h2m-4 2c0 .552-.448 1-1 1s-1-.448-1-1 .448-1 1-1 1 .448 1 1zm-4 0c0 .552-.448 1-1 1s-1-.448-1-1 .448-1 1-1 1 .448 1 1zm9.0874-4.7812-.087-.219-.002-.001c-.639-.639-1.507-.999-2.411-.999h-.587l-1 1h-8l-1-1h-.588c-.904 0-1.772.36-2.411.999l-.001.001-.088.219c-1.263 3.159-1.912 6.529-1.912 9.931 0 1.022.828 1.85 1.85 1.85h.006c.701 0 1.341-.396 1.655-1.023l1.211-2.424c.17-.339.516-.553.895-.553h8.764c.379 0 .726.214.895.553l1.212 2.425c.314.626.954 1.022 1.655 1.022h.006c1.022 0 1.851-.828 1.851-1.85 0-3.402-.649-6.772-1.913-9.931z" fill="none" stroke="#000" stroke-linecap="round" stroke-linejoin="round"/></svg>