<svg height="24" viewBox="0 0 24 24" width="24" xmlns="http://www.w3.org/2000/svg"><path d="m17.7939 8.2061-.001.001c-.187.187-.442.293-.707.293h-.004c-.828 0-1.458-.743-1.322-1.561l.74-4.439h-3-2-7l-.74 4.439c-.136.818.494 1.561 1.322 1.561h.004c.265 0 .52-.106.707-.293l.001-.001c.452-.452 1.065-.706 1.704-.706h.002c1.105 0 2 .895 2 2 0 1.104-.895 2-2 2h-.002c-.639 0-1.252-.254-1.704-.706l-.001-.001c-.187-.188-.442-.293-.707-.293h-.004c-.828 0-1.458.743-1.322 1.56l.74 4.44 3.445-.69c.804-.16 1.555.456 1.555 1.276 0 .265-.105.519-.293.707l-.001.001c-.452.452-.706 1.065-.706 1.704v.002c0 1.104.896 2 2 2 1.105 0 2-.896 2-2v-.002c0-.639-.254-1.252-.706-1.704l-.001-.001c-.187-.188-.293-.442-.293-.707 0-.82.751-1.436 1.555-1.276l3.445.69-.74-4.44c-.136-.817.494-1.56 1.322-1.56h.004c.265 0 .52.105.707.293l.001.001c.452.452 1.065.706 1.704.706h.002c1.105 0 2-.896 2-2 0-1.105-.895-2-2-2h-.002c-.639 0-1.252.254-1.704.706z" fill="none" stroke="#000" stroke-linecap="round" stroke-linejoin="round"/></svg>