<svg height="24" viewBox="0 0 24 24" width="24" xmlns="http://www.w3.org/2000/svg"><path d="m10.5345264 3.23094133.9654736-.73094133.5643761.42180311.5539028.42863194.692729.55320164.5904061.48652735.4194586.35451531.4352344.37619231.4468032.39576587.4541653.41323602.4573203.42860273c.0762493.07259749.1524548.14574762.2285287.21940656l.4541653.44770887.4468032.45781701c1.7668798 1.84867976 3.256107 3.88947268 3.256107 5.51659128 0 2-1 4.5-4 4.5-1.7965438 0-3.2344687-.4482735-4.0990167-.8079253.4585245 1.2831491 1.0895596 2.6725364 1.8942308 3.5889978l.2047859.2189275h-6c.90308655-.9030866 1.6022818-2.4178471 2.0975857-3.8077556-.86311698.3594821-2.30104192.8077556-4.0975857.8077556-3 0-4-2.5-4-4.5 0-1.559322 1.36771043-3.49856363 3.03678078-5.28454954l.44154466-.4620823c.07449642-.07631744.14938723-.15225753.22458479-.22777645l.45416523-.44770887c.07607399-.07365894.15227944-.14680907.22852872-.21940656l.45732036-.42860273.45416523-.41323602.44680323-.39576587.43523437-.37619231.62195745-.52298677.38790724-.31805589z" fill="none" stroke="#000" stroke-linecap="round" stroke-linejoin="round"/></svg>