<svg height="24" viewBox="0 0 24 24" width="24" xmlns="http://www.w3.org/2000/svg"><path d="m6 2.5h11c.8284271 0 1.5.67157288 1.5 1.5v15c0 .8284271-.6715729 1.5-1.5 1.5h-11c-.82842712 0-1.5-.6715729-1.5-1.5v-15c0-.82842712.67157288-1.5 1.5-1.5zm5.2784257 4.18367347.2215743-.18367347.3123499.26057143.3450962.2992653.4307405.38840817.3198134.2997551.3354869.32631293c.113446.11261678.2280116.22878911.3422041.34764625l.339965.36375511c.8396501.92517006 1.574344 1.95238091 1.574344 2.71428571 0 .8888889-.6666667 2-2 2-.4191159 0-.77236-.0988077-1.0597323-.2343053l.5597323 2.2343053h-3l.5587345-2.2349379c-.2863745.1361302-.63961861.2349379-1.0587345.2349379-1.33333333 0-2-1.1111111-2-2 0-.7619048.73469388-1.78911565 1.57434402-2.71428571l.33996502-.36375511c.05709621-.05942857.11428571-.11818594.17138192-.17616326l.33996502-.33763265.32876972-.31368708.308618-.28451701.2795102-.25012245z" fill="none" stroke="#000" stroke-linecap="round" stroke-linejoin="round"/></svg>