<svg height="24" viewBox="0 0 24 24" width="24" xmlns="http://www.w3.org/2000/svg"><path d="m17.5 18.5h-12c-1.657 0-3-1.343-3-3v-4c0-1.657 1.343-3 3-3h12c1.657 0 3 1.343 3 3v4c0 1.657-1.343 3-3 3zm-15-6v-1.639c0-1.553.361-3.084 1.056-4.472l.944-1.889h2l.001.001c.64.64 1.507.999 2.411.999h5.176c.904 0 1.771-.359 2.411-.999l.001-.001h2l.944 1.889c.695 1.388 1.056 2.919 1.056 4.472v1.639m-18 3h3v-4h-3m18 4h-3v-4h3m-12 2h6" fill="none" stroke="#000" stroke-linecap="round" stroke-linejoin="round"/></svg>