<svg height="24" viewBox="0 0 24 24" width="24" xmlns="http://www.w3.org/2000/svg"><path d="m8.5 11.5v2m-1-1h2m7-4v2m1-1h-2m-1 3c0 .552-.448 1-1 1s-1-.448-1-1 .448-1 1-1 1 .448 1 1zm-7-3c0 .552-.448 1-1 1s-1-.448-1-1 .448-1 1-1 1 .448 1 1zm12.168-1.4839c-.116-.361-.325-.675-.616-.917-.702-.584-2.127-1.599-3.552-1.599-.313 0-.626.196-.816.342-.164.127-.337.228-.534.293-.45.148-1.333.365-2.65.365-1.319 0-2.203-.218-2.652-.366-.196-.064-.368-.166-.53-.292-.188-.147-.499-.342-.818-.342-1.425 0-2.85 1.015-3.552 1.599-.291.242-.5.556-.616.917-.482 1.497-1.832 5.841-1.832 7.484 0 2 2 3 2 3l2.12-2.121c.563-.563 1.326-.879 2.122-.879h7.515c.796 0 1.559.316 2.122.879l2.121 2.121s2-1 2-3c0-1.643-1.35-5.987-1.832-7.484z" fill="none" stroke="#000" stroke-linecap="round" stroke-linejoin="round"/></svg>