<svg height="24" viewBox="0 0 24 24" width="24" xmlns="http://www.w3.org/2000/svg"><path d="m18.3721 9.5h-2.872l-3.137-5.488c-.533-.935-1.527-1.512-2.604-1.512h-1.259l2 7-4.5.5-1.209-2.015c-.181-.3-.506-.485-.857-.485h-1.434l1 4-1 4h1.434c.351 0 .676-.185.857-.485l1.209-2.015 4.5.5-2 7h1.259c1.077 0 2.071-.577 2.604-1.512l3.137-5.488h2.872c1.042 0 2.042-.414 2.779-1.151.469-.469.469-1.229 0-1.698-.737-.737-1.737-1.151-2.779-1.151z" fill="none" stroke="#000" stroke-linecap="round" stroke-linejoin="round"/></svg>