<svg height="24" viewBox="0 0 24 24" width="24" xmlns="http://www.w3.org/2000/svg"><path d="m16.2275 3.7725-1.728 1.728-6.835-.855c-.75-.094-1.505.098-2.119.537l-1.602 1.146 6.556 3.172-3 3.5h-3.085c-.265 0-.52.105-.708.293l-1.207 1.207 4.5 1.5 1.5 4.5 1.207-1.207c.188-.188.293-.443.293-.708v-3.085l3.5-3 3.172 6.556 1.146-1.602c.439-.614.631-1.369.537-2.119l-.855-6.835 1.728-1.728c.814-.814 1.272-1.92 1.272-3.072 0-.663-.537-1.2-1.2-1.2-1.152 0-2.258.458-3.072 1.272z" fill="none" stroke="#000" stroke-linecap="round" stroke-linejoin="round"/></svg>