<svg height="24" viewBox="0 0 24 24" width="24" xmlns="http://www.w3.org/2000/svg"><g fill="none" fill-rule="evenodd" stroke="#000" stroke-linecap="round" stroke-linejoin="round"><path d="m15.69894 3.44482422c.53404 2.68505859.80106 5.37011719.80106 8.05517578 0 2.6850586-.26702 5.3701172-.80106 8.0551758l-.0003029-.0000606c-.1354027.6765478-.6099606 1.2355277-1.2555669 1.4789273-.8258128.3110795-1.8070025.4659575-2.9430702.4659575s-2.11725744-.154878-2.94356918-.4646339l.00049898-.0013236c-.64560627-.2433996-1.12016422-.8023795-1.2555669-1.4789273-.53434291-2.684998-.8013629-5.3700566-.8013629-8.0551152 0-2.68505859.26701999-5.37011719.80105996-8.05517578l.00030294.00006063c.13540268-.67654781.60996063-1.23552778 1.2555669-1.47892737.82581276-.3110795 1.8070025-.46595748 2.9430702-.46595748s2.1172574.15487798 2.9435692.46463394l-.000499.00132354c.6456063.24339959 1.1201642.80237956 1.2555669 1.47892737z"/><path d="m8.51200199 7.5c.99199867-.66666667 1.98799801-1 2.98799801-1s2 .33333333 3 1l-.5 2.5c-1-.33333333-1.8333333-.5-2.5-.5s-1.50069889.16666667-2.50209668.5z"/><path d="m8.51200199 15.5c.99199867-.3333333 1.98799801-.5 2.98799801-.5s2 .1666667 3 .5l-.5 2c-1-.3333333-1.8333333-.5-2.5-.5s-1.5.1666667-2.5.5z" transform="matrix(1 0 0 -1 0 32.5)"/></g></svg>