<svg height="24" viewBox="0 0 24 24" width="24" xmlns="http://www.w3.org/2000/svg"><path d="m19.720943 15.7412109c.186038-.7470703.279057-1.4941406.279057-2.2412109 0-1-.1666667-2-.5-3l-2.0593262-4.53051758c-.2832017-.6183603-.8605329-1.05136126-1.5336914-1.14846599-1.4689941-.21401095-2.9379883-.32101643-4.4069824-.32101643-1.4707845 0-2.94156901.10726647-4.41235352.3217994-.67328029.09883733-1.25022829.533073-1.53076171 1.15305412l-2.05688477 4.52514648c-.33333333 1-.5 2-.5 3 0 .7470703.09301901 1.4941406.27905703 2.2412109.11038565.4446399.50890209.7572765.96703672.7587891h14.50781255c.4581346-.0015126.856651-.3141492.9670367-.7587891zm-1.130943-7.2422109 1.91.001c.5522847 0 1 .44771525 1 1 0 .5522847-.4477153 1-1 1h-1m-16 0h-1c-.55228475 0-1-.4477153-1-1 0-.55228475.44771525-1 1-1l1.909-.001m15.091618 7.6624528-.000618 1.3385472c0 .5522847-.4477153 1-1 1h-1c-.5522847 0-1-.4477153-1-1l-.001-1.0008701m-9.99980211-.0000214.00080211 1.0008915c0 .5522847-.44771525 1-1 1h-1c-.55228475 0-1-.4477153-1-1l-.00152907-1.339581m-.04397093-5.660419c2.69766667-.3333333 5.3795-.5 8.0455-.5s5.3326667.1666667 8 .5m-4 2h1c.5522847 0 1 .4477153 1 1s-.4477153 1-1 1h-1c-.5522847 0-1-.4477153-1-1s.4477153-1 1-1zm-9 0h1c.55228475 0 1 .4477153 1 1s-.44771525 1-1 1h-1c-.55228475 0-1-.4477153-1-1s.44771525-1 1-1z" fill="none" stroke="#000" stroke-linecap="round" stroke-linejoin="round"/></svg>