<svg height="24" viewBox="0 0 24 24" width="24" xmlns="http://www.w3.org/2000/svg"><path d="m9.5 18.5h8.056c.621 0 1.233-.145 1.789-.422l1.155-.578m-16-12h16m-7 10v3m4-3v3m-5-10v-3m-7 4c0 1.381-1.119 2.5-2.5 2.5s-2.5-1.119-2.5-2.5 1.119-2.5 2.5-2.5 2.5 1.119 2.5 2.5zm-.209-1h8.23c2.741 0 5.148 1.816 5.901 4.45.365 1.279-.595 2.55-1.923 2.55h-7.18c-.476 0-.886-.337-.98-.804l-.678-3.392c-.094-.467-.504-.804-.98-.804h-2.391m13.9834 2h-7.773l-1-4" fill="none" stroke="#000" stroke-linecap="round" stroke-linejoin="round"/></svg>