<svg height="24" viewBox="0 0 24 24" width="24" xmlns="http://www.w3.org/2000/svg"><path d="m8.5 15.5c0-1.657-1.343-3-3-3s-3 1.343-3 3 1.343 3 3 3 3-1.343 3-3zm12 0c0-1.657-1.343-3-3-3s-3 1.343-3 3 1.343 3 3 3 3-1.343 3-3zm0-4c-1.162-.87-2.691-1.23-4.21-.852m1.21 4.852-2-8-1-2h-3m6 3h-1c-.553 0-1-.447-1-1s.447-1 1-1h1zm-3 3-.097.02c-3.26.652-6.578.98-9.903.98l-2-3h2.702c.86 0 1.714.139 2.529.41l.01.004c1.078.359 2.267.078 3.071-.726l.516-.516c.75-.75 1.768-1.172 2.829-1.172h1.343m0 0-1 4-3 4h-6" fill="none" stroke="#000" stroke-linecap="round" stroke-linejoin="round"/></svg>