<svg height="24" viewBox="0 0 24 24" width="24" xmlns="http://www.w3.org/2000/svg"><path d="m16.5 15.5h-2m0-7h3l1.5 3 1.871.749c.38.151.629.52.629.928v1.323c0 .553-.447 1-1 1h-1m-12 0c0 .828-.672 1.5-1.5 1.5s-1.5-.672-1.5-1.5.672-1.5 1.5-1.5 1.5.672 1.5 1.5zm12 0c0 .828-.672 1.5-1.5 1.5s-1.5-.672-1.5-1.5.672-1.5 1.5-1.5 1.5.672 1.5 1.5zm-5-4h4.5m-11.5 4h7v-7h3.612c.683 0 1.165-.669.95-1.316l-.334-1c-.136-.409-.518-.684-.949-.684h-15.279v10h2m7 0h3v-7h-3zm3-4h-3m-7 0h5v-3h-5z" fill="none" stroke="#000" stroke-linecap="round" stroke-linejoin="round"/></svg>