<svg height="24" viewBox="0 0 24 24" width="24" xmlns="http://www.w3.org/2000/svg"><path d="m7.0576 13.748c-1.605-.751-2.947-2.027-3.769-3.67l-.789-1.578 1.153.384c1.223.408 2.505.616 3.795.616h8.105c1.29 0 2.571-.208 3.795-.616l1.152-.384-.789 1.578c-.821 1.643-2.163 2.919-3.767 3.67m-9.4436 2.752 12-12m-1-1 2 2m-12.9971 11.0029-.006-.006c-.551-.551-1.443-.551-1.994 0l-1.649 1.65c-.196.195-.196.511 0 .707l1.293 1.293c.195.195.511.195.707 0l1.649-1.65c.551-.551.551-1.443 0-1.994zm-5.0029-2.0029c1.104 0 2-.896 2-2 0 1.104.896 2 2 2s2-.896 2-2c0 1.104.896 2 2 2s2-.896 2-2c0 1.104.896 2 2 2s2-.896 2-2c0 1.104.896 2 2 2s2-.896 2-2c0 1.104.896 2 2 2" fill="none" stroke="#000" stroke-linecap="round" stroke-linejoin="round"/></svg>