<svg height="24" viewBox="0 0 24 24" width="24" xmlns="http://www.w3.org/2000/svg"><path d="m13.4756 18.5h-3.951c-3.131 0-5.491-2.845-4.914-5.922l1.278-6.815c.355-1.892 2.006-3.263 3.931-3.263h3.361c1.925 0 3.576 1.371 3.931 3.263l1.278 6.815c.577 3.077-1.783 5.922-4.914 5.922zm-6.9756 2 2-2m8 2-2-2m-8.5532-13h11.106m.998 5.2676c-.98.545-3.469 1.732-6.551 1.732s-5.57-1.187-6.55-1.732m7.5502 4.7324c0 .553-.447 1-1 1s-1-.447-1-1 .447-1 1-1 1 .447 1 1zm-1-10v7" fill="none" stroke="#000" stroke-linecap="round" stroke-linejoin="round"/></svg>