<svg height="24" viewBox="0 0 24 24" width="24" xmlns="http://www.w3.org/2000/svg"><path d="m19.5 17.5h.01m-.01-2h.01m-.01-2h.01m-.01-2 .01.01m-.01-2.01h.01m-16.01 6h.01m-.01-2h.01m-.01-2 .01.01m-.01-2.01h.01m15.99-2h.01m-.01-2h.01m-8.01 12h.01m-.01-2h.01m-.01-2h.01m-.01-2 .01.01m-.01-2.01h.01m-.01-2h.01m-.01-2h.01m-8.01 2h.01m-.01-2h.01m13.99 6v.01m-2-.01v.01m-2-.01v.01m-4-.01v.01m-2-.01v.01m-2-.01v.01m14-8.01h.01m-2.01 0v.01m-2-.01v.01m-2-.01v.01m-2-.01.01.01m-2.01-.01v.01m-2-.01v.01m-2-.01v.01m-2-.01.01.01m-.01 13.99h.01m15.99 2h-16" fill="none" stroke="#000" stroke-linecap="round" stroke-linejoin="round"/></svg>