<svg height="24" viewBox="0 0 24 24" width="24" xmlns="http://www.w3.org/2000/svg"><path d="m5.5 19.5v.01m2-.01v.01m2-.01v.01m2-.01.01.01m1.99-.01v.01m-6-16.01v.01m2-.01v.01m2-.01.01.01m1.99-.01v.01m2 15.99v.01m2-.01v.01m-12-8.01v.01m2-.01v.01m2-.01v.01m2-.01.01.01m1.99-.01v.01m2-.01v.01m2-.01v.01m-2-8.01v.01m2-.01v.01m-6 13.99h.01m-.01-2h.01m-.01-2h.01m-.01-4h.01m-.01-2h.01m-.01-2h.01m7.99 14v.01m0-2.01h.01m-.01-2h.01m-.01-2h.01m-.01-2 .01.01m-.01-2.01h.01m-.01-2h.01m-.01-2h.01m-.01-2 .01.01m-14.01-.01v.01m-2 15.99v-16" fill="none" stroke="#000" stroke-linecap="round" stroke-linejoin="round"/></svg>