<svg height="24" viewBox="0 0 24 24" width="24" xmlns="http://www.w3.org/2000/svg"><path d="m3.5 5.5h.01m-.01 2h.01m-.01 2h.01m-.01 2 .01.01m-.01 1.99h.01m15.99-6h.01m-.01 2h.01m-.01 2 .01.01m-.01 1.99h.01m-16.01 2h.01m-.01 2h.01m7.99-12h.01m-.01 2h.01m-.01 2h.01m-.01 2 .01.01m-.01 1.99h.01m-.01 2h.01m-.01 2h.01m7.99-2h.01m-.01 2h.01m-14.01-6v.01m2-.01v.01m2-.01v.01m4-.01v.01m2-.01v.01m2-.01v.01m-14 7.99v.01m2-.01v.01m2-.01v.01m2-.01v.01m2-.01v.01m2-.01v.01m2-.01v.01m2-.01v.01m2-.01v.01m0-14.01h.01m-16.01-2h16" fill="none" stroke="#000" stroke-linecap="round" stroke-linejoin="round"/></svg>