<svg height="24" viewBox="0 0 24 24" width="24" xmlns="http://www.w3.org/2000/svg"><path d="m17.5 3.5v.01m-2-.01v.01m-2-.01v.01m-2-.01.01.01m-2.01-.01v.01m6 15.99v.01m-2-.01v.01m-2-.01.01.01m-2.01-.01v.01m-2-16.01v.01m-2-.01v.01m12 7.99v.01m-2-.01v.01m-2-.01v.01m-2-.01.01.01m-2.01-.01v.01m-2-.01v.01m-2-.01v.01m2 7.99v.01m-2-.01v.01m6-14.01h.01m-.01 2h.01m-.01 2h.01m-.01 4h.01m-.01 2h.01m-.01 2h.01m-8.01-14 .01.01m-.01 1.99h.01m-.01 2h.01m-.01 2h.01m-.01 2 .01.01m-.01 1.99h.01m-.01 2h.01m-.01 2h.01m-.01 2v.01m14-.01v.01m2-16.01v16" fill="none" stroke="#000" stroke-linecap="round" stroke-linejoin="round"/></svg>