<svg height="24" viewBox="0 0 24 24" width="24" xmlns="http://www.w3.org/2000/svg"><path d="m14.5 20.5-3-10m0 0-3 10m11-10c0 4.4186667-3.5813333 8-8 8-4.41866667 0-8-3.5813333-8-8 0-4.41866667 3.58133333-8 8-8 4.4186667 0 8 3.58133333 8 8zm-5 0c0 1.657-1.343 3-3 3s-3-1.343-3-3 1.343-3 3-3 3 1.343 3 3zm2 10h-10m2-10h-5m16 0h-5m-5.12132034-2.12132034-3.53553391-3.53553391m11.31370845 11.31370845-3.5355339-3.5355339m-2.1213203-10.1213203v5m-2.12132034 5.1213203-3.53553391 3.5355339m11.31370845-11.31370845-3.5355339 3.53553391" fill="none" stroke="#000" stroke-linecap="round" stroke-linejoin="round"/></svg>