<svg height="24" viewBox="0 0 24 24" width="24" xmlns="http://www.w3.org/2000/svg"><path d="m7.5 20.5h8v-15h-8zm1.99-12h.01v-1h-.01zm2 0h.01v-1h-.01zm2 0h.01v-1h-.01zm-4 6h.01v-1h-.01zm2 0h.01v-1h-.01zm2 0h.01v-1h-.01zm-4-3h.01v-1h-.01zm2 0h.01v-1h-.01zm2 0h.01v-1h-.01zm-3.99 9h4v-4h-4zm-8 0h20m-6 0h4v-11h-4zm1.99-8h.01v-1h-.01zm0 6h.01v-1h-.01zm0-3h.01v-1h-.01zm-13.99 5h4v-11h-4zm1.99-8h.01v-1h-.01zm0 6h.01v-1h-.01zm0-3h.01v-1h-.01zm6.01-14v2m-3 2h6v-2h-6z" fill="none" stroke="#000" stroke-linecap="round" stroke-linejoin="round"/></svg>