<svg height="24" viewBox="0 0 24 24" width="24" xmlns="http://www.w3.org/2000/svg"><path d="m6.5 19.9141v-3.914c0-.828.672-1.5 1.5-1.5s1.5.672 1.5 1.5v4.42m4-.0002v-4.42c0-.828.672-1.5 1.5-1.5s1.5.672 1.5 1.5v3.914m4-11.4139c0 1.104-4.029 2-9 2s-9-.896-9-2 4.029-2 9-2 9 .896 9 2zm-14 11.4141c-2.176-.59-3-1.414-3-1.414l-1-10m11 11.9198c-.61.051-1.276.08-2 .08s-1.39-.029-2-.08m11-11.9199-1 10s-.824.824-3 1.414m-12-17.414 3 1-3 1zm14 2 3-1-3-1zm-7-3 3 1-3 1zm7 3v2.743m-7-3.743v3m-7-2v2.743" fill="none" stroke="#000" stroke-linecap="round" stroke-linejoin="round"/></svg>