<svg height="24" viewBox="0 0 24 24" width="24" xmlns="http://www.w3.org/2000/svg"><path d="m10.1834227 6.94144927c-.39896774-.94311447-1.15797795-1.73389181-2.18222923-2.14845136-2.04713813-.82978618-4.37936745.15778536-5.2081058 2.20534791-.82978618 2.04713813.15778536 4.37936748 2.20534791 5.20810578 2.04713813.8297862 3.91464718-.7042442 5.20810582-2.2053479 1.2934586-1.5011037 3.1623667-3.0345674 5.2095048-2.20478122 2.0475626.82873835 3.0351341 3.16096762 2.2053479 5.20810582-.8287383 2.0475625-3.1609676 3.0351341-5.2081058 2.2053479-1.0233111-.4141791-1.7818679-1.2038856-2.1811297-2.1458548m6.5096905-4.39004769 4.1681509-4.17387371m-4.1695821.0014302 4.1710133 4.17101331m-14.4114312 3.82755649v7m-3-3h6" fill="none" stroke="#000" stroke-linecap="round" stroke-linejoin="round"/></svg>