<svg height="24" viewBox="0 0 24 24" width="24" xmlns="http://www.w3.org/2000/svg"><path d="m3.5 6c0-1.38071187 1.11928813-2.5 2.5-2.5s2.5 1.11928813 2.5 2.5v11c0 1.3807119-1.11928813 2.5-2.5 2.5s-2.5-1.1192881-2.5-2.5 1.11928813-2.5 2.5-2.5h11c1.3807119 0 2.5 1.1192881 2.5 2.5s-1.1192881 2.5-2.5 2.5-2.5-1.1192881-2.5-2.5v-11c0-1.38071187 1.1192881-2.5 2.5-2.5s2.5 1.11928813 2.5 2.5-1.1192881 2.5-2.5 2.5h-11c-1.38071187 0-2.5-1.11928813-2.5-2.5z" fill="none" stroke="#000" stroke-linecap="round" stroke-linejoin="round"/></svg>