<svg height="24" viewBox="0 0 24 24" width="24" xmlns="http://www.w3.org/2000/svg"><path d="m8.5 18.5v-6h-6zm-6-8h.01m-.01-2h.01m-.01-2h.01m-.01-2h.01m17.99 6h.01m-.01-2h.01m-.01-2h.01m-.01-2h.01m-.01 14h.01m-2.01 0h.01m-2.01 0h.01m-2.01 0h.01m-2.01 0h.01m-2.01 0h.01m7.99-14h.01m-2.01 0h.01m-2.01 0h.01m-2.01 0h.01m-2.01 0h.01m-2.01 0h.01m-2.01 0h.01m-2.01 0h.01m15.99 12h.01m-.01-2h.01m-.01-2h.01m-9.01-1h5m-10-3h10m-5 6h5" fill="none" stroke="#000" stroke-linecap="round" stroke-linejoin="round"/></svg>