<svg height="24" viewBox="0 0 24 24" width="24" xmlns="http://www.w3.org/2000/svg"><path d="m3.5 7.5h4v-4h-4zm12 0h4v-4h-4zm-12 12h4v-4h-4zm9.9902-7 .01 1m1.99-4h.01m.99 10h.01m-6.01-9h.01m-1.01-3h1.01m-.01 5h1.01m-2.01 4h1.01m.99-13h.01m-5.01 6h.01m.99 1h.01m-2.01 3h.01m.9998-1v-1m-1.0098 6h.01m-.01-12h.01m11.99 0h.01m-4.0002 2v1h1m-2 2h2v1m4-2h1v1m-1 4h1v1m0 3v1h-1m-14-7h-1v1m5-5v1h1m6 3v1h1m-5-8v1h1m-5 7h2m-1 1v-1m0-2h1m0-7h1m1 9v-2m-2-6v-2m8 9h2m-1-1v1m-15-2h2m-1-1v1m12.9902 8h.01m.9998-1v-1m-2 1h-1v1m0-3h2m0-5h-1v1m-3-8v2m-1-1h1m-4.0098 15h1.01m.99-4h.01m.99-1h.01m1.99 0h.01m-4.01 0h.01m2.9998 5h1m-3-2v1h1m-3-1v-2m4 0v2m-1-1h2m-3-8v1" fill="none" stroke="#000" stroke-linecap="round" stroke-linejoin="round"/></svg>