<svg height="24" viewBox="0 0 24 24" width="24" xmlns="http://www.w3.org/2000/svg"><path d="m19.5 9.5c0 3.866-4.134 11-8 11s-8-7.134-8-11 4.134-7 8-7 8 3.134 8 7zm-11.1035 1.1035c.617.618 1.513 2.071.896 2.688-.618.618-2.071-.278-2.689-.895-.617-.618-1.513-2.071-.895-2.689.617-.617 2.07.279 2.688.896zm8 1.793c.617-.618 1.513-2.071.896-2.688-.618-.618-2.071.278-2.689.895-.617.618-1.513 2.071-.895 2.689.617.617 2.07-.279 2.688-.896z" fill="none" stroke="#000" stroke-linecap="round" stroke-linejoin="round"/></svg>