<svg height="24" viewBox="0 0 24 24" width="24" xmlns="http://www.w3.org/2000/svg"><path d="m9.5 9.5v2m4-2v2m4 0c0 3-3.5 4-6 4s-6-1-6-4 3-8 6-8 6 5 6 8zm-11.27854551-3.03335308c-.68768579-.25550954-1.27215808-.51735051-1.72145449-.96664692-2-2 0-3-2-5m18 0c-2 2 0 3-2 5-.4492964.44929641-1.0337687.71113738-1.7222153.96621245m.2222153 11.53378755c-1 0-2-.5-3-1.5-.8995633-.8995633-1.2596505-1.9339957-1.0802616-3.103297m6.5802616.103297c-.3333333.6666667-1 1-2 1-.929959 0-1.7157806-.5765491-2.357465-1.7296473m-5.0638508.6265633c.1809663 1.1690883-.17912088 2.2035207-1.0786842 3.103084-1 1-2 1.5-3 1.5m2.26015869-5.0619974c-.62287728 1.0413556-1.37643776 1.5619974-2.26015869 1.5619974-1 0-1.66666667-.3333333-2-1" fill="none" stroke="#000" stroke-linecap="round" stroke-linejoin="round"/></svg>