<svg height="24" viewBox="0 0 24 24" width="24" xmlns="http://www.w3.org/2000/svg"><path d="m11.5 14c1.1045695 0 2-.6715729 2-1.5s-.8954305-1.5-2-1.5-2 .6715729-2 1.5.8954305 1.5 2 1.5zm0 6.5c-4.971 0-9-4.029-9-9s4.029-9 9-9 9 4.029 9 9-4.029 9-9 9zm-4-11v2m8-2v2m-8-5.5v.5m8-.5v.5m-8.24264069 8.8284271c-.39052429.3905243-.39052429 1.0236893 0 1.4142136 2.34331752 2.3433175 6.14196389 2.3433175 8.48528139 0 .3905243-.3905243.3905243-1.0236893 0-1.4142136s-1.0236893-.3905243-1.4142136 0c-1.5622689 1.562269-4.0945853 1.562269-5.65685422 0-.3905243-.3905243-1.02368928-.3905243-1.41421357 0zm-4.24508421-6.82917765-.0122751.00075055c-.82842712 0-1.5-.67157288-1.5-1.5 0-.5732088.32152165-1.07132219.79405666-1.32383189-.18759654-.34939411-.29405666-.75034856-.29405666-1.17616811 0-1.38071187 1.11928813-2.5 2.5-2.5.42581955 0 .826774.10646012 1.17769898.29421599.25097883-.47269434.74909222-.79421599 1.32230102-.79421599.82842712 0 1.5.67157288 1.5 1.5l-.00075055.0122751m6.00249495.00035138-.0017444-.01262648c0-.82842712.6715729-1.5 1.5-1.5.5732088 0 1.0713222.32152165 1.3238319.79405666.3493941-.18759654.7503486-.29405666 1.1761681-.29405666 1.3807119 0 2.5 1.11928813 2.5 2.5 0 .42581955-.1064601.826774-.294216 1.17769898.4726944.25097883.794216.74909222.794216 1.32230102 0 .82842712-.6715729 1.5-1.5 1.5l-.0122751-.00075055" fill="none" stroke="#000" stroke-linecap="round" stroke-linejoin="round"/></svg>