<svg height="24" viewBox="0 0 24 24" width="24" xmlns="http://www.w3.org/2000/svg"><path d="m16.5 14.5c0 2-2 4.5-5 4.5s-5-2.5-5-4.5c1.66666667.3333333 3.33333333.5 5 .5 1.6666667 0 3.3333333-.1666667 5-.5zm-8-5v2m6-2v2m1.1767297-5.97405169c2.8673479 1.50426426 4.8232703 4.51050589 4.8232703 7.97405169 0 4.971-4.029 9-9 9s-9-4.029-9-9c0-3.4619464 1.95411639-6.46701084 4.81963237-7.97247644l.10126611-.05130162m-.48335561-.26105887c.37541306-.8111182.56245713-1.71637962.56245713-2.71516307l2.5-1 1.5 1 1.5-1 2.5 1c0 1.04145937.2033696 1.98123396.6101087 2.81932378m-12.83040867 4.5106078c-1.18657633-.9434687-1.77970003-1.88670014-1.77970003-2.82993158 0-1 .5-3 2.5-3s3.5 2.5 7.5 2.5 5.5-2.5 7.5-2.5 2.5 2 2.5 3c0 .94323144-.5931237 1.88646288-1.7797 2.82993158" fill="none" stroke="#000" stroke-linecap="round" stroke-linejoin="round"/></svg>