<svg height="24" viewBox="0 0 24 24" width="24" xmlns="http://www.w3.org/2000/svg"><path d="m20.5 10.5c0-5.569-5.058-8.701-10.831-7.866-4.082.591-7.261 3.946-7.167 8.07.078 3.406 2.095 5.386 4.998 6.258v2.538c0 .553.447 1 1 1h6c.553 0 1-.447 1-1v-2.538c2.961-.89 5-2.931 5-6.462zm-11 0c0 1.104-.896 2-2 2s-2-.896-2-2 .896-2 2-2 2 .896 2 2zm-4.8799-5.2646c.854-.469 1.836-.735 2.88-.735 1.537 0 2.938.578 4 1.527l-.001.002c1.061-.951 2.464-1.529 4.001-1.529 1.145 0 2.215.32 3.125.877m-9.1251 15.1226v-1.5m2 1.5v-1.5m2 1.5v-1.5m-6-10.5v-1m0 6v-1m2-2h1m-6 0h1m3.4141-1.4141.707-.707m-4.2422 4.2422.707-.707m0-2.8282-.707-.707m4.2422 4.2422-.707-.707m8.5859-1.4141c0 1.104-.896 2-2 2s-2-.896-2-2 .896-2 2-2 2 .896 2 2zm-2-2v-1m0 6v-1m2-2h1m-6 0h1m3.4141-1.4141.707-.707m-4.2422 4.2422.707-.707m0-2.8282-.707-.707m4.2422 4.2422-.707-.707m-5.4141 2.0859s-1.5.89-1.5 2.125c0 .353.25.875.75.875s.75-.25.75-.25.25.25.75.25.75-.522.75-.875c0-1.235-1.5-2.125-1.5-2.125z" fill="none" stroke="#000" stroke-linecap="round" stroke-linejoin="round"/></svg>