<svg height="24" viewBox="0 0 24 24" width="24" xmlns="http://www.w3.org/2000/svg"><path d="m11.5 20.5c-4.971 0-9-4.029-9-9s4.029-9 9-9 9 4.029 9 9-4.029 9-9 9zm-4-6c-1.657 0-3-1.343-3-3s1.343-3 3-3 3 1.343 3 3-1.343 3-3 3zm-3.18198052-6.18198052c1.75751391-1.7575139 4.60644713-1.7575139 6.36396102 0m1.636039 0c1.7575139-1.7575139 4.6064471-1.7575139 6.363961 0m-3.1819805 6.18198052c-1.657 0-3-1.343-3-3s1.343-3 3-3 3 1.343 3 3-1.343 3-3 3zm-7-4v2m3 5v1m-1.5-1.5-.5 1m3.5-1 .5 1m.5-2 1 1m-6-1-1 1m2.5-5.5c0 2-1.5 2.5-1.5 4 0 1 .5 1.3333333 1.5 1 .3333333.3333333.6666667.5 1 .5s.6666667-.1666667 1-.5c1 .3333333 1.5 0 1.5-1 0-1.5-1.5-2-1.5-4 0-.5-.5-1-1-1s-1 .5-1 1zm4-1v2m4-1h2m-18 0h2" fill="none" stroke="#000" stroke-linecap="round" stroke-linejoin="round"/></svg>