<svg height="24" viewBox="0 0 24 24" width="24" xmlns="http://www.w3.org/2000/svg"><path d="m11.5 20.5c-4.971 0-9-4.029-9-9s4.029-9 9-9 9 4.029 9 9-4.029 9-9 9zm3.5355339-4.4644661c-1.9527932-1.9527932-5.11827458-1.9527932-7.07106781 0m-4.58398077-8.42316423c-1.25365688-1.40824645-1.88048532-3.445703-1.88048532-6.11236967 1.33333333 2.33333333 3.37078989 2.96016177 6.11236967 1.88048532m.88763033 7.11951468v2m6-2v2m1.5-5c-.6666667 1-1.6666667 1.5-3 1.5m-6-1.5c.66666667 1 1.66666667 1.5 3 1.5m9.6195147-1.38763033c1.2536569-1.40824645 1.8804853-3.445703 1.8804853-6.11236967-1.3333333 2.33333333-3.3707899 2.96016177-6.1123697 1.88048532" fill="none" stroke="#000" stroke-linecap="round" stroke-linejoin="round"/></svg>