<svg height="24" viewBox="0 0 24 24" width="24" xmlns="http://www.w3.org/2000/svg"><path d="m11.5 10.5h7c.5522847 0 1 .4477153 1 1s-.4477153 1-1 1h-7m4.5-6c-.6666667 1-1.6666667 1.5-3 1.5m-6-1.5c.66666667 1 1.66666667 1.5 3 1.5m6 4.5c-.6666667 1-1.6666667 1.5-3 1.5m-6-1.5c.66666667 1 1.66666667 1.5 3 1.5m-1.5-5.5v1m3 8v1m3-10v1m-.5 7c-.6666667-.6666667-1.5-1-2.5-1s-1.83333333.3333333-2.5 1m8.5-4v1c0 3.8659932-3.1340068 7-7 7-3.86599325 0-7-3.1340068-7-7v-11c3.33333333.66666667 6 1 8 1s4-.33333333 6-1v8" fill="none" stroke="#000" stroke-linecap="round" stroke-linejoin="round"/></svg>