<svg height="24" viewBox="0 0 24 24" width="24" xmlns="http://www.w3.org/2000/svg"><path d="m10.5355339 10.5v.5m2-.5v.5m-1.0355339-9.5c4.418278 0 8 3.581722 8 8 0 1.2257321-.6925262 2.3462631-1.7888544 2.8944272l-.2111456.1055728c-1.259939.6299695-2.1524828 1.8132416-2.4120817 3.197769l-.627197 3.3450505c-.2671394 1.4247438-1.5111496 2.4571805-2.9607213 2.4571805s-2.69358189-1.0324367-2.96072134-2.4571805l-.62719697-3.3450505c-.2595989-1.3845274-1.15214268-2.5677995-2.41208169-3.197769l-.21114562-.1055728c-1.03542102-.5177105-1.71066072-1.5459582-1.78249161-2.6911927l-.00636277-.2032345c0-4.418278 3.581722-8 8-8zm1.550281 13.4487824-.9378512 4.064022c-.0658112.2851816-.3197531.4871956-.6124298.4871956s-.5466186-.202014-.6124298-.4871956l-.93785119-4.064022c-.19758382-.8561966.33632729-1.7104543 1.19252379-1.9080381.1173265-.0270754.2373472-.0407443.3577572-.0407443.878699 0 1.5910252.7123263 1.5910252 1.5910252 0 .12041-.0136689.2404308-.0407442.3577572zm.3044343-9.38463652c.6549291-.21830972 1.3628291.13564027 1.5811388.79056941.3738253 1.12147594.5785943 1.32562559 1.7158685 1.71159602.6537333.22186529 1.0038314.93167813.7819661 1.58541134-.2218653.65373325-.9316781 1.00383135-1.5854113.78196605-1.8742235-.63607775-2.6617316-1.42120408-3.2841315-3.28840399-.2183097-.65492915.1356402-1.36282912.7905694-1.58113883zm-3.70942979 0c-.65492914-.21830972-1.36282911.13564027-1.58113883.79056941-.37382531 1.12147594-.57859425 1.32562559-1.71586852 1.71159602-.65373321.22186529-1.00383134.93167813-.78196604 1.58541134.22186529.65373325.93167812 1.00383135 1.58541134.78196605 1.87422348-.63607775 2.6617315-1.42120408 3.28413144-3.28840399.2183097-.65492915-.1356402-1.36282912-.79056939-1.58113883z" fill="none" stroke="#000" stroke-linecap="round" stroke-linejoin="round"/></svg>