<svg height="24" viewBox="0 0 24 24" width="24" xmlns="http://www.w3.org/2000/svg"><path d="m15.0355339 15.0355339c-1.9527932 1.9527932-5.11827458 1.9527932-7.07106781 0m.53553391-5.5355339v1m3 6v2m3-9v1m1.5-3.5c2 0 3.3333333.16666667 4 .5v1c-.6666667.33333333-1 .5-1 .5 0 3-.5 3.5-3.5 3.5-2.5 0-3 0-3-3.5h-2c0 3.5-.5 3.5-3 3.5-3 0-3.5-.5-3.5-3.5 0 0-.33333333-.16666667-1-.5v-1c1.33333333-.33333333 2.66666667-.5 4-.5 3 0 3.5.5 3.5 2h2c0-1.5.5-2 3.5-2zm-12.50561544.3833271c1.49420265-2.90021425 4.51807828-4.8833271 8.00561544-4.8833271 3.4562457 0 6.4571129 1.94768611 7.9650272 4.8054841m.5248035 1.19972942c.3304159.93684105.5101693 1.94480018.5101693 2.99478648 0 4.971-4.029 9-9 9s-9-4.029-9-9c0-1.0499863.17975336-2.05794543.51016925-2.99478648m10.49004835 7.57879918-.0002176 1.4159873c0 .5522847-.4477153 1-1 1h-2c-.55228475 0-1-.4477153-1-1l-.00081292-1.4162469" fill="none" stroke="#000" stroke-linecap="round" stroke-linejoin="round"/></svg>