<svg height="24" viewBox="0 0 24 24" width="24" xmlns="http://www.w3.org/2000/svg"><path d="m16.5 1.5c-.5 1-1 1.5-2 2 .1355895 1.0847158 1.9770258 2.52297417 2.5 2 .4770258-.47702583.5-3-.5-4zm-10.18135763 0c.5 1 1 1.5 2 2-.13558948 1.0847158-1.97702583 2.52297417-2.5 2-.47702583-.47702583-.5-3 .5-4zm8.68135763 10c1.3807119 0 2.5-1.1192881 2.5-2.5 0-1.38071187-1.1192881-2.5-2.5-2.5s-2.5 1.11928813-2.5 2.5c0 1.3807119 1.1192881 2.5 2.5 2.5zm-7 0c1.38071187 0 2.5-1.1192881 2.5-2.5 0-1.38071187-1.11928813-2.5-2.5-2.5s-2.5 1.11928813-2.5 2.5c0 1.3807119 1.11928813 2.5 2.5 2.5zm.5-2.5v1m6-1v1m-5.5 1.5c0 1 .5 1.3333333 1.5 1 .3333333.3333333.6666667.5 1 .5s.6666667-.1666667 1-.5c1 .3333333 1.5 0 1.5-1m3.2917001-6.88837005c1.96146 1.64918265 3.2082999 4.1230177 3.2082999 6.88837005 0 4.971-4.029 9-9 9s-9-4.029-9-9c0-2.68737529 1.17751481-5.09944183 3.04480228-6.74845745m2.33242657-1.49224768c1.10907853-.48860483 2.33428055-.75929487 3.62277115-.75929487 1.2474016 0 2.4354866.25370109 3.5154771.71232524m-6.53395138 11.04362066c-.12698343.9406781-.95446944 2.0224091-2.48152572 3.2440541.29166667-1.1666667.45572917-2.3333333.4921875-3.5m10.0110455-.1783567c.0246483 1.2261189.1902373 2.4522378.496767 3.6783567-1.5265152-1.2212121-2.3539558-2.3026093-2.4823218-3.2441916m-8.17856448 1.5131916c-.53983832-.7653236-.83911372-1.5770169-.83911372-2.269 0 0 2.5 1 6 1s6-1 6-1c0 .6919831-.2992754 1.5036764-.8356981 2.269405m-.6943282.8250039c-1.0681101 1.077398-2.6310097 1.9055911-4.4699737 1.9055911-1.83896396 0-3.40186356-.8281931-4.47112491-1.9043822m3.47028791-2.1226583.000837 1.0270405c0 .5522847-.4477153 1-1 1-.55228475 0-1-.4477153-1-1l-.0015867-1.2413327m4.0024237.2142922-.000837 1.0270405c0 .5522847-.4477153 1-1 1s-1-.4477153-1-1l-.000837-1.0270405m4.0015636-.214154-.0007266 1.2411945c0 .5522847-.4477153 1-1 1s-1-.4477153-1-1l.000171-1.0270046" fill="none" stroke="#000" stroke-linecap="round" stroke-linejoin="round"/></svg>