<svg height="24" viewBox="0 0 24 24" width="24" xmlns="http://www.w3.org/2000/svg"><path d="m11.5 2.5c-4.971 0-9 4.029-9 9s4.029 9 9 9 9-4.029 9-9-4.029-9-9-9zm-8.11951468 5.11236967-1.88048532-6.11236967 6.11236967 1.88048532m4.38763033 9.11951468c1-.3333333 1.5-.1666667 1.5.5 0 .3333333-.3333333.8333333-1 1.5.6666667.6666667 1 1.1666667 1 1.5 0 .6666667-.5.8333333-1.5.5m-1.5-7c-.3333333-.66666667-.83333333-1-1.5-1s-1.16666667.33333333-1.5 1m8 0c-.3333333-.66666667-.8333333-1-1.5-1s-1.1666667.33333333-1.5 1m7.5-7-.5-.5m-16.5 18.5.5-.5m-1.5-3.5-.5-.5m10.5-11.5.5-.5m7.5 15.5-.5-.5m2.5-11.5.5-.5m-14.5-5.5-.5-.5m13.5 12h-1.25c-.4142136 0-.75-.3357864-.75-.75s.3357864-.75.75-.75h1.25c.8284271 0 1.5.6715729 1.5 1.5s-.6715729 1.5-1.5 1.5h-8.5" fill="none" stroke="#000" stroke-linecap="round" stroke-linejoin="round"/></svg>