<svg height="24" viewBox="0 0 24 24" width="24" xmlns="http://www.w3.org/2000/svg"><path d="m13.5 1.5c2.1421954 0 3.8910789 1.68396847 3.9951047 3.80035966l.0048953.19964034v1.5c0 .36131868-.0766508.70473462-.2145786 1.01487402 1.5227445.14201318 2.7145786 1.4243857 2.7145786 2.98512598 0 .6725889-.2213369 1.2934817-.5951462 1.793814 1.2330695.5400636 2.0951462 1.7724504 2.0951462 3.206186 0 1.9329966-1.5670034 3.5-3.5 3.5h-13c-1.93299662 0-3.5-1.5670034-3.5-3.5 0-1.4337356.86207667-2.6661224 2.09615719-3.2070877-.37482026-.4994306-.59615719-1.1203234-.59615719-1.7929123 0-1.56074028 1.19183411-2.8431128 2.71502609-2.9866413-.1383753-.30862408-.21502609-.65204002-.21502609-1.0133587 0-1.38071187 1.11928813-2.5 2.5-2.5h5.5zm-5 8v2m6-2v2m.5355339 2.5355339c-1.9527932 1.9527932-5.11827458 1.9527932-7.07106781 0" fill="none" stroke="#000" stroke-linecap="round" stroke-linejoin="round"/></svg>