<svg height="24" viewBox="0 0 24 24" width="24" xmlns="http://www.w3.org/2000/svg"><path d="m5.5 6.5h12c.5522847 0 1 .44771525 1 1v12c0 .5522847-.4477153 1-1 1h-12c-.55228475 0-1-.4477153-1-1v-12c0-.55228475.44771525-1 1-1zm6-2v2m-7 8h-1c-.55228475 0-1-.4477153-1-1v-3c0-.55228475.44771525-1 1-1h1m14 0h1c.5522847 0 1 .44771525 1 1v3c0 .5522847-.4477153 1-1 1h-1m-10 0h6c1.1045695 0 2 .8954305 2 2s-.8954305 2-2 2h-6c-1.1045695 0-2-.8954305-2-2s.8954305-2 2-2zm-2 2h10m-2-4c1.1045695 0 2-.8954305 2-2s-.8954305-2-2-2-2 .8954305-2 2 .8954305 2 2 2zm-3-8c.8284271 0 1.5-.67157288 1.5-1.5s-.6715729-1.5-1.5-1.5-1.5.67157288-1.5 1.5.6715729 1.5 1.5 1.5zm-3 8c1.1045695 0 2-.8954305 2-2s-.8954305-2-2-2-2 .8954305-2 2 .8954305 2 2 2z" fill="none" stroke="#000" stroke-linecap="round" stroke-linejoin="round"/></svg>