<svg height="24" viewBox="0 0 24 24" width="24" xmlns="http://www.w3.org/2000/svg"><path d="m11.5 20.5c-4.971 0-9-4.029-9-9s4.029-9 9-9 9 4.029 9 9-4.029 9-9 9zm3.5355339-4.4644661c-1.9527932 1.9527932-5.11827458 1.9527932-7.07106781 0m8.03553391-7.5355339h3.5v1l-.5.5c-.3333333 2.3333333-1.5 3.5-3.5 3.5-1.6666667 0-2.8333333-.8333333-3.5-2.5h-1c-.6666667 1.6666667-1.83333333 2.5-3.5 2.5-2 0-3.16666667-1.1666667-3.5-3.5l-.5-.5v-1h3.5c1.33333333 0 2.66666667.33333333 4 1h1c1.6666667-.66666667 3-1 4-1z" fill="none" stroke="#000" stroke-linecap="round" stroke-linejoin="round"/></svg>