<svg height="24" viewBox="0 0 24 24" width="24" xmlns="http://www.w3.org/2000/svg"><path d="m11.497 15.183.253.067c2.9782781.75 3.75 1.875 3.75 3s-1.5 2.25-3.75 2.25c-1.5 0-2.75-.5-3.75-1.5m-.62756491-6.6781266c-.08152765-.2603315-.12243509-.5342712-.12243509-.8218734 0-1.54496923 1.40225269-2.69567452 3.576235-2.94811422m.673765-.73588578.0393948.0106534c.978955.26607626 1.7894943.58945157 2.4290615.97061053m1.6561539 1.88284767c.0811146.259739.1218143.5330171.1218143.8198884 0 1.5444987-1.4013987 2.6949736-3.5742488 2.9478833m-.6751757.7351167-.0399702-.0096534c-.9785364-.2659625-1.78880112-.589175-2.42824093-.9701216m-1.65635378-1.8813516c.23025914.7352563.78453399 1.3619646 1.65635378 1.8813516.68104325.1980639 1.42010913.296775 2.21763563.296775.3217439 0 .6308525-.0177918.9257512-.0521167m3.4524345-3.7677717c-.2298106-.73588259-.7840226-1.36308888-1.6561539-1.88284767-.681214-.19846601-1.4205791-.29726393-2.2184563-.29726393-.3210216 0-.6294647.01771205-.923765.05188578m.673765-.73588578-.2535755-.066c-2.97827803-.75-3.74999995-1.875-3.74999995-3s1.5-2.25 3.74999995-2.25c1.5 0 2.75.5 3.75 1.5" fill="none" stroke="#000" stroke-linecap="round" stroke-linejoin="round"/></svg>