<svg height="24" viewBox="0 0 24 24" width="24" xmlns="http://www.w3.org/2000/svg"><path d="m11.5 18.5h2.5c4.142 0 7.5-3.358 7.5-7.5s-3.358-7.5-7.5-7.5h-2.5m0 13h2c3.0374667 0 5.5-2.4625333 5.5-5.5 0-3.03746667-2.4625333-5.5-5.5-5.5h-2m0 9h1.5c1.9329333 0 3.5-1.5670667 3.5-3.5 0-1.93293333-1.5670667-3.5-3.5-3.5h-1.5m0 11h-2.5c-4.142 0-7.5-3.358-7.5-7.5s3.358-7.5 7.5-7.5h2.5zm0-2h-2c-3.03746667 0-5.5-2.4625333-5.5-5.5 0-3.03746667 2.46253333-5.5 5.5-5.5h2zm0-2h-1.5c-1.93293333 0-3.5-1.5670667-3.5-3.5 0-1.93293333 1.56706667-3.5 3.5-3.5h1.5z" fill="none" stroke="#000" stroke-linecap="round" stroke-linejoin="round"/></svg>