<svg height="24" viewBox="0 0 24 24" width="24" xmlns="http://www.w3.org/2000/svg"><path d="m12.5 13.2305c2.601 1.85 5.058 3.235 6.249 3.876.457.246 1.022.106 1.306-.328.591-.906 1.445-2.666 1.445-5.278 0-2.759-.951-4.567-1.542-5.422-.251-.365-.722-.511-1.138-.363-1.184.423-3.76 1.538-6.468 3.977m1.148 1.8075s1-.5 2-.5m-5 2.2295c-2.6 1.851-5.058 3.236-6.249 3.877-.457.246-1.022.106-1.306-.328-.591-.906-1.445-2.666-1.445-5.278 0-2.759.951-4.567 1.542-5.422.251-.365.722-.511 1.138-.363 1.184.423 3.76 1.538 6.468 3.976m-1.148 1.8085s-1-.5-2-.5m6 .5c0 1.104-.896 2-2 2s-2-.896-2-2 .896-2 2-2 2 .896 2 2z" fill="none" stroke="#000" stroke-linecap="round" stroke-linejoin="round"/></svg>