<svg height="24" viewBox="0 0 24 24" width="24" xmlns="http://www.w3.org/2000/svg"><path d="m5.5 2.5h1c.552 0 1 .447 1 1s-.448 1-1 1v3m-3 10c0 1.657 1.343 3 3 3s3-1.343 3-3m-6 0c0-4 3-8 3-8m3 8c0-4-3-8-3-8m-1 8c0 .553.448 1 1 1m1-10c0-.553-.448-1-1-1s-1 .447-1 1 .448 1 1 1 1-.447 1-1zm8-6h1c.552 0 1 .447 1 1s-.448 1-1 1v3m-3 10c0 1.657 1.343 3 3 3s3-1.343 3-3m-6 0c0-4 3-8 3-8m3 8c0-4-3-8-3-8m-1 8c0 .553.448 1 1 1m1-10c0-.553-.448-1-1-1s-1 .447-1 1 .448 1 1 1 1-.447 1-1z" fill="none" stroke="#000" stroke-linecap="round" stroke-linejoin="round"/></svg>