<svg height="24" viewBox="0 0 24 24" width="24" xmlns="http://www.w3.org/2000/svg"><path d="m8.6719 14.3286c-1.562-1.562-1.562-4.095 0-5.657m5.6562-.0002c1.562 1.562 1.562 4.095 0 5.657m-2.3281-2.8284c0 .276-.224.5-.5.5s-.5-.224-.5-.5.224-.5.5-.5.5.224.5.5zm-5.4502 4.9497c-2.733-2.733-2.733-7.166 0-9.899m9.9004-.0004c2.733 2.733 2.733 7.166 0 9.899m-12.0215 2.122c-3.905-3.905-3.905-10.237 0-14.143m14.1426.0004c3.905 3.905 3.905 10.237 0 14.143m-7.0713-7.0717v9" fill="none" stroke="#000" stroke-linecap="round" stroke-linejoin="round"/></svg>