<svg height="24" viewBox="0 0 24 24" width="24" xmlns="http://www.w3.org/2000/svg"><path d="m14.3286 14.3286c-1.562 1.562-4.095 1.562-5.657 0m-.0002-5.6572c1.562-1.562 4.095-1.562 5.657 0m-2.8284 2.3286c.276 0 .5.224.5.5s-.224.5-.5.5-.5-.224-.5-.5.224-.5.5-.5zm4.9497 5.4497c-2.733 2.734-7.166 2.734-9.899 0m-.0004-9.8994c2.733-2.734 7.166-2.734 9.899 0m2.122 12.021c-3.905 3.905-10.237 3.905-14.143 0m.0004-14.1426c3.905-3.905 10.237-3.905 14.143 0" fill="none" stroke="#000" stroke-linecap="round" stroke-linejoin="round"/></svg>