<svg height="24" viewBox="0 0 24 24" width="24" xmlns="http://www.w3.org/2000/svg"><path d="m8.3818 3.5h-4.882c-.552 0-1 .448-1 1v14c0 .552.448 1 1 1h16c.552 0 1-.448 1-1v-12c0-.552-.448-1-1-1h-7.882c-.685 0-1.311-.387-1.618-1-.306-.613-.932-1-1.618-1zm.28962222 11.8283556 5.65688888-5.65644449m1.1716889 2.82808889c0 2.2093333-1.7906667 4-4 4-2.20933333 0-4-1.7906667-4-4s1.79066667-4 4-4c2.2093333 0 4 1.7906667 4 4z" fill="none" stroke="#000" stroke-linecap="round" stroke-linejoin="round"/></svg>