<svg height="24" viewBox="0 0 24 24" width="24" xmlns="http://www.w3.org/2000/svg"><path d="m8.3818 3.5h-4.882c-.552 0-1 .448-1 1v14c0 .552.448 1 1 1h16c.552 0 1-.448 1-1v-12c0-.552-.448-1-1-1h-7.882c-.685 0-1.311-.387-1.618-1-.306-.613-.932-1-1.618-1zm3.1182 10.2002v-.519c0-.355.235-.663.575-.765.824-.247 1.425-1.011 1.425-1.916 0-1.081-.919-2-2-2-1.104 0-2 .896-2 2m2 4.9998c-.276 0-.5.224-.5.5s.224.5.5.5.5-.224.5-.5-.224-.5-.5-.5z" fill="none" stroke="#000" stroke-linecap="round" stroke-linejoin="round"/></svg>