<svg height="24" viewBox="0 0 24 24" width="24" xmlns="http://www.w3.org/2000/svg"><path d="m8.3818 3.5h-4.882c-.552 0-1 .448-1 1v14c0 .552.448 1 1 1h16c.552 0 1-.448 1-1v-12c0-.552-.448-1-1-1h-7.882c-.685 0-1.311-.387-1.618-1-.306-.613-.932-1-1.618-1zm-.3818 9.5 3.5-3.5c.8284271-.82842712 2.1715729-.82842712 3 0 .8284271.8284271.8284271 2.1715729 0 3l-3.75 3.75c-.4142136.4142136-1.08578644.4142136-1.5 0s-.41421356-1.0857864 0-1.5l3.25-3.25" fill="none" stroke="#000" stroke-linecap="round" stroke-linejoin="round"/></svg>