<svg height="24" viewBox="0 0 24 24" width="24" xmlns="http://www.w3.org/2000/svg"><path d="m3.35073766 19.4945143c-1.03485987-.0763492-1.85073766-.9401525-1.85073766-1.9945143 0-1.1045695.8954305-2 2-2 .55277698 0 1.05317597.2242568 1.41518096.5867545l11.17157354-11.17157354c-.3624977-.36200499-.5867545-.86240398-.5867545-1.41518096 0-1.1045695.8954305-2 2-2s2 .8954305 2 2c1.1045695 0 2 .8954305 2 2s-.8954305 2-2 2c-.5517925 0-1.0513934-.22345877-1.4132455-.58481904l-11.17157354 11.17157354c.36136027.3618521.58481904.861453.58481904 1.4132455 0 1.1045695-.8954305 2-2 2s-2-.8954305-2-2zm10.14926234-7.9925143 4.584819 4.5847545c.362005-.3624977.862404-.5867545 1.415181-.5867545 1.1045695 0 2 .8954305 2 2 0 1.0543618-.8158778 1.9181651-1.8507377 1.9945143l-.1492623.0054857c0 1.1045695-.8954305 2-2 2s-2-.8954305-2-2c0-.5517925.2234588-1.0513934.584819-1.4132455l-4.584819-4.5847545m-2-2-4.58675449-4.58681904c-.32164628.32120913-.75213117.53345905-1.23136506.57666015l-.18188045.00815889c-1.1045695 0-2-.8954305-2-2s.8954305-2 2-2c0-1.1045695.8954305-2 2-2s2 .8954305 2 2c0 .55277698-.22425684 1.05317597-.58675449 1.41518096l4.58675449 4.58681904" fill="none" stroke="#000" stroke-linecap="round" stroke-linejoin="round"/></svg>