<svg height="24" viewBox="0 0 24 24" width="24" xmlns="http://www.w3.org/2000/svg"><path d="m20.5 6.5h-18m3 14-.001406-2.0381681m12.0018106.0007969-.0004046 2.0373712m-10.91439849-13.99929704c-.05543419-.15658807-.08560151-.32512254-.08560151-.50070296 0-.82842712.67157288-1.5 1.5-1.5s1.5.67157288 1.5 1.5c0 .17558042-.03016732.34411489-.08560151.50070296m2.08560151-3.00070296c.5522847 0 1-.44771525 1-1s-.4477153-1-1-1-1 .44771525-1 1 .4477153 1 1 1zm3 3c.5522847 0 1-.44771525 1-1s-.4477153-1-1-1-1 .44771525-1 1 .4477153 1 1 1zm2.9521799-.00072563c1.8689826 1.46590672 3.0478201 3.61094633 3.0478201 6.00072563 0 4.418278-4.0294373 8-9 8-4.97056275 0-9-3.581722-9-8 0-2.3897793 1.17883745-4.53481891 3.04782013-6.00072563" fill="none" stroke="#000" stroke-linecap="round" stroke-linejoin="round"/></svg>