<svg height="24" viewBox="0 0 24 24" width="24" xmlns="http://www.w3.org/2000/svg"><path d="m11.499 12.5c-1.992 1.993-5.977 5.978-8.248 3.706-1.714-1.714.277-3.706.277-3.706s-2.05-1.934-.36-3.623c2.353-2.355 6.339 1.631 8.331 3.623zm.001-.001c1.993-1.992 5.978-5.977 3.706-8.248-1.714-1.714-3.706.277-3.706.277s-1.934-2.05-3.623-.36c-2.355 2.353 1.631 6.339 3.623 8.331zm.001.001c1.992-1.993 5.977-5.978 8.248-3.706 1.714 1.714-.277 3.706-.277 3.706s2.05 1.934.36 3.623c-2.353 2.355-6.339-1.631-8.331-3.623zm-.001 0v8" fill="none" stroke="#000" stroke-linecap="round" stroke-linejoin="round"/></svg>