<svg height="24" viewBox="0 0 24 24" width="24" xmlns="http://www.w3.org/2000/svg"><path d="m11.5 11.5c-3 0-8.998 0-8.998-3.42 0-2.58 2.998-2.58 2.998-2.58s-.088-3 2.456-3c3.544 0 3.544 6 3.544 9zm0 0c-3 0-8.998 0-8.998 3.42 0 2.58 2.998 2.58 2.998 2.58s-.088 3 2.456 3c3.544 0 3.544-6 3.544-9zm.002 0c3 0 8.998 0 8.998-3.42 0-2.58-2.998-2.58-2.998-2.58s.088-3-2.456-3c-3.544 0-3.544 6-3.544 9zm0 0c3 0 8.998 0 8.998 3.42 0 2.58-2.998 2.58-2.998 2.58s.088 3-2.456 3c-3.544 0-3.544-6-3.544-9z" fill="none" stroke="#000" stroke-linecap="round" stroke-linejoin="round"/></svg>