<svg height="24" viewBox="0 0 24 24" width="24" xmlns="http://www.w3.org/2000/svg"><path d="m2.5 2.5s3.5.5 6 3c.981.981 1.654 2.117 2.11 3.135m-8.111 11.864s.501-3.5 3.001-5.999c.981-.981 2.117-1.655 3.135-2.11m11.866-9.889s-.501 3.5-3.001 5.999c-.981.981-2.117 1.655-3.135 2.11m6.134 9.891s-3.5-.501-5.999-3.001c-.981-.981-1.655-2.117-2.11-3.135m.0133-5.7263c.06-.37.097-.754.097-1.139 0-2-1-4-1-4m-.9036 10.8616c-.06.37-.097.754-.097 1.139 0 2 1 4 1 4m2.8616-7.097c.37.06.754.097 1.139.097 2 0 4-1 4-1m-10.8616-.9036c-.37-.06-.754-.097-1.139-.097-2 0-4 1-4 1m8.5003.0003c0 .276-.224.5-.5.5s-.5-.224-.5-.5.224-.5.5-.5.5.224.5.5zm4-9c0 .276-.224.5-.5.5s-.5-.224-.5-.5.224-.5.5-.5.5.224.5.5zm4 14c0 .276-.224.5-.5.5s-.5-.224-.5-.5.224-.5.5-.5.5.224.5.5zm-12 3c0 .276-.224.5-.5.5s-.5-.224-.5-.5.224-.5.5-.5.5.224.5.5zm-4-12c0 .276-.224.5-.5.5s-.5-.224-.5-.5.224-.5.5-.5.5.224.5.5z" fill="none" stroke="#000" stroke-linecap="round" stroke-linejoin="round"/></svg>