<svg height="24" viewBox="0 0 24 24" width="24" xmlns="http://www.w3.org/2000/svg"><path d="m19 7.5h-5.278c.608-.676.927-1.617.71-2.642-.248-1.169-1.226-2.112-2.404-2.313-1.889-.322-3.528 1.125-3.528 2.955 0 .771.3 1.469.778 2h-5.278c-.825 0-1.5.675-1.5 1.5s.675 1.5 1.5 1.5h4.743c.328 0 .568.312.483.63l-2.287 8.533c-.235.878.369 1.792 1.314 1.883.745.07 1.414-.472 1.607-1.194l1.157-4.316c.132-.494.834-.494.966 0l1.157 4.316c.193.722.862 1.264 1.607 1.194.945-.091 1.549-1.005 1.314-1.883l-2.287-8.533c-.085-.318.155-.63.483-.63h4.743c.825 0 1.5-.675 1.5-1.5s-.675-1.5-1.5-1.5zm-13.5 0v3m12-3v3m-4.7227 8.5 2.895-.776m-5.4496.776-2.906-.776" fill="none" stroke="#000" stroke-linecap="round" stroke-linejoin="round"/></svg>