<svg height="24" viewBox="0 0 24 24" width="24" xmlns="http://www.w3.org/2000/svg"><path d="m19.3399062 13.5003989c-.7413558 4.5642819-3.9696863 7.9996011-7.8399062 7.9996011-3.87021992 0-7.0985504-3.4353192-7.83990623-7.9996011m-.12631185-3.0010452c.28957664-4.19837668 2.42912497-7.03937576 5.9664625-7.79693172m4.00050678.00021327c3.5367434.7578758 5.6759174 3.59873566 5.9654669 7.79671845m-10.4662181 2.0006463c.82842712 0 1.5-.6715729 1.5-1.5s-.67157288-1.5-1.5-1.5-1.5.6715729-1.5 1.5.67157288 1.5 1.5 1.5zm5 0c.8284271 0 1.5-.6715729 1.5-1.5s-.6715729-1.5-1.5-1.5-1.5.6715729-1.5 1.5.6715729 1.5 1.5 1.5zm-4.5-11h4v3h-4zm-7 9h2v3h-2zm16 0h2v3h-2zm-8.5 5c.2761424 0 .5-.2238576.5-.5s-.2238576-.5-.5-.5c-.27614237 0-.5.2238576-.5.5s.22385763.5.5.5zm3 0c.2761424 0 .5-.2238576.5-.5s-.2238576-.5-.5-.5-.5.2238576-.5.5.2238576.5.5.5zm-3-8c.2761424 0 .5-.22385763.5-.5s-.2238576-.5-.5-.5c-.27614237 0-.5.22385763-.5.5s.22385763.5.5.5zm3 0c.2761424 0 .5-.22385763.5-.5s-.2238576-.5-.5-.5-.5.22385763-.5.5.2238576.5.5.5zm0 11c.2761424 0 .5-.2238576.5-.5s-.2238576-.5-.5-.5-.5.2238576-.5.5.2238576.5.5.5zm-3 0c.2761424 0 .5-.2238576.5-.5s-.2238576-.5-.5-.5c-.27614237 0-.5.2238576-.5.5s.22385763.5.5.5z" fill="none" stroke="#000" stroke-linecap="round" stroke-linejoin="round"/></svg>