<svg height="24" viewBox="0 0 24 24" width="24" xmlns="http://www.w3.org/2000/svg"><path d="m11 5.5293c0-2.029.5-3.029 2.5-4.029l1 2c-1 0-2 1-2.5 2.029m-7.5 7.9707 1 2 2-1 2 2 2-1 2 1 2-2 2 1 1-2m-12-2 2-2 2 2m2 0 2-2 2 2m-1.5-6c-.612 0-1.199.133-1.75.368-.551-.235-1.138-.368-1.75-.368s-1.199.133-1.75.368c-.551-.235-1.138-.368-1.75-.368-3.037 0-5.5 3.134-5.5 7s2.463 7 5.5 7c.612 0 1.199-.133 1.75-.368.551.235 1.138.368 1.75.368s1.199-.133 1.75-.368c.551.235 1.138.368 1.75.368 3.037 0 5.5-3.134 5.5-7s-2.463-7-5.5-7z" fill="none" stroke="#000" stroke-linecap="round" stroke-linejoin="round"/></svg>