<svg height="24" viewBox="0 0 24 24" width="24" xmlns="http://www.w3.org/2000/svg"><path d="m11.5 10.5c0 1.104-.896 2-2 2s-2-.896-2-2 .896-2 2-2 2 .896 2 2zm4-1c0 1.104-.896 2-2 2s-2-.896-2-2 .896-2 2-2 2 .896 2 2zm-1 4c0 1.104-.896 2-2 2s-2-.896-2-2 .896-2 2-2 2 .896 2 2zm-.0303-.3389c.969.046 1.988-.175 2.475-.661 0 1.777 1.778 3.556 3.555 3.556-.888.888-.888 3.555 0 4.444-.888-.889-3.555-.889-4.444 0 0-1.777-1.778-3.556-3.556-3.556.331-.331.539-.909.623-1.55m-4.7311-3.2291c-.926.021-1.873-.201-2.336-.665 0 1.777-1.778 3.556-3.556 3.556.889.888.889 3.555 0 4.444.889-.889 3.556-.889 4.445 0 0-1.777 1.778-3.556 3.555-3.556-.667-.667-.833-2.333-.5-3.5m5.4633-2.5583c.613.09 1.162.295 1.481.614 0-1.777 1.779-3.555 3.556-3.555-.889-.889-.889-3.556 0-4.445-.889.889-3.556.889-4.444 0 0 1.778-1.779 3.556-3.556 3.556.319.319.525.869.614 1.483" fill="none" stroke="#000" stroke-linecap="round" stroke-linejoin="round"/></svg>