<svg height="24" viewBox="0 0 24 24" width="24" xmlns="http://www.w3.org/2000/svg"><path d="m11.5 21.5c6 0 7-7.581722 7-12s-2.581722-7-7-7-7 2.581722-7 7 1 12 7 12zm-4.82633157-2.5946766 10.67654197-2.0020702m-12.1772819-1.5066782 12.8416193-.8027747m.1490053-7.63356719-13.58527248 4.66919929m11.78499778-7.55926003-11.58157656 3.08771502m9.71829816 5.34211261c.5522847 0 1-.4477153 1-1s-.4477153-1-1-1-1 .4477153-1 1 .4477153 1 1 1zm.3690368 7.9468976-1.6603684-2.7666444m2.3113316-9.81255971-1.847-3.08m-5.173 7.71230651c.55228475 0 1-.4477153 1-1s-.44771525-1-1-1-1 .4477153-1 1 .44771525 1 1 1zm-.5660715 2.724 1.858 3.096m-3.2825302-14.13629942 1.30030354 2.167" fill="none" stroke="#000" stroke-linecap="round" stroke-linejoin="round"/></svg>