<svg height="24" viewBox="0 0 24 24" width="24" xmlns="http://www.w3.org/2000/svg"><path d="m3.5 19.5 8-15 8 15c-2.6666667 1.3333333-5.3333333 2-8 2-2.66666667 0-5.33333333-.6666667-8-2zm14.2765081-3.2310798c-2.0921694.8207199-4.1843387 1.2310798-6.2765081 1.2310798-2.09194827 0-4.18389654-.4102732-6.27584481-1.2308196m2.27764576-4.2687303c1.33273302.3330333 2.66546605.4995499 3.99819905.4995499 1.3330664 0 2.6661327-.1665999 3.9991991-.4997998m-3.9991991-7.5002002-2 2m2-2 2 2m-2-2h-3m3 0v-3m0 6v-3m0 0h3m-3 0-2-2m2 2 2-2" fill="none" stroke="#000" stroke-linecap="round" stroke-linejoin="round"/></svg>