<svg height="24" viewBox="0 0 24 24" width="24" xmlns="http://www.w3.org/2000/svg"><path d="m4.5 21.5038074h14l-1-3.0038074h-12zm1.34362242-3.0030333c-2.03954766-1.6499405-3.34362242-4.1730658-3.34362242-7.0007741 0-4.97056275 4.02943725-9 9-9 4.9705627 0 9 4.02943725 9 9 0 2.8277083-1.3040748 5.3508336-3.3436224 7.0007741m-11.38842841-8.0007741 3.46410162-2m-3.46410162 0 3.46410162 2m-1.73205081 1v-4m7 0v-2m-1 1h2m-7 10v-2m-1 1h2m3-4v-2m-1 1h2m.2679492 4 3.4641016-2m-3.4641016 0 3.4641016 2m-1.7320508 1v-4" fill="none" stroke="#000" stroke-linecap="round" stroke-linejoin="round"/></svg>