<svg height="24" viewBox="0 0 24 24" width="24" xmlns="http://www.w3.org/2000/svg"><path d="m15.083 9.6953c.568-.753.917-1.68.917-2.695 0-2.486-2.015-4.5-4.5-4.5s-4.5 2.014-4.5 4.5c0 1.015.349 1.942.917 2.695-1.465 1.095-2.417 2.836-2.417 4.805 0 3.313 2.687 6 6 6s6-2.687 6-6c0-1.969-.952-3.71-2.417-4.805zm-1.583-3.6953c0 .276-.224.5-.5.5s-.5-.224-.5-.5.224-.5.5-.5.5.224.5.5zm-3 0c0 .276-.224.5-.5.5s-.5-.224-.5-.5.224-.5.5-.5.5.224.5.5zm1.5 7.5c0 .276-.224.5-.5.5s-.5-.224-.5-.5.224-.5.5-.5.5.224.5.5zm0 3c0 .276-.224.5-.5.5s-.5-.224-.5-.5.224-.5.5-.5.5.224.5.5zm-.5-6-.5-2h1zm4.6426.2148 5.357-3.215m-1.9996-.9998v2.2m-12.6426 2.0148-5.357-3.215m1.9996-.9998v2.2" fill="none" stroke="#000" stroke-linecap="round" stroke-linejoin="round"/></svg>