<svg height="24" viewBox="0 0 24 24" width="24" xmlns="http://www.w3.org/2000/svg"><path d="m15.5 12.5c0 4-3 5-4 7-1-2-4-3-4-7 0-3 2-4 4-4s4 1 4 4zm-2-6c0 1.104-.896 2-2 2s-2-.896-2-2 .896-2 2-2 2 .896 2 2zm-6 15-3-9 3.045-.74m-4.045 7.74-2-9 6.784-.643m-1.784-8.357-2 6 5.091 1.363m-1.091-5.363-1 3 2.833 2.125m5.167 12.875 3-9-3.045-.74m4.045 7.74 2-9-6.784-.643m1.784-8.357 2 6-5.091 1.363m1.091-5.363 1 3-2.833 2.125" fill="none" stroke="#000" stroke-linecap="round" stroke-linejoin="round"/></svg>