<svg height="24" viewBox="0 0 24 24" width="24" xmlns="http://www.w3.org/2000/svg"><path d="m17.6289 8.5713c1.914 2.264 2.871 5.234 2.871 6.929 0 2-4 3-9 3s-9-1-9-3c0-3 3-10 9-10 1.824 0 3.371.647 4.641 1.632m2.1501.647c-2.27 2.269-1.043 4.512-3.313 6.78-1.252 1.254-3.285 1.254-4.538 0-1.253-1.253-1.253-3.285 0-4.538 2.269-2.269 4.538-1.513 6.808-3.782-.627-.627-.627-1.643 0-2.27.626-.626 1.643-.626 2.27 0 .291.292.441.669.461 1.051.382.021.759.171 1.051.462.626.627.626 1.644 0 2.27-.627.627-2.113.653-2.739.027z" fill="none" stroke="#000" stroke-linecap="round" stroke-linejoin="round"/></svg>