<svg height="24" viewBox="0 0 24 24" width="24" xmlns="http://www.w3.org/2000/svg"><path d="m5.5 12.5s-3-1.779-3-4.25c0-.706.5-1.75 1.5-1.75s1.5.5 1.5.5.5-.5 1.5-.5 1.5 1.044 1.5 1.75c0 2.471-3 4.25-3 4.25zm7 9s-3-1.779-3-4.25c0-.706.5-1.75 1.5-1.75s1.5.5 1.5.5.5-.5 1.5-.5 1.5 1.044 1.5 1.75c0 2.471-3 4.25-3 4.25zm5-13s-3-1.779-3-4.25c0-.706.5-1.75 1.5-1.75s1.5.5 1.5.5.5-.5 1.5-.5 1.5 1.044 1.5 1.75c0 2.471-3 4.25-3 4.25z" fill="none" stroke="#000" stroke-linecap="round" stroke-linejoin="round"/></svg>