<svg height="24" viewBox="0 0 24 24" width="24" xmlns="http://www.w3.org/2000/svg"><path d="m4.5 9.5c0-1 .42267117-3 3-3 1 0 2.3337647.57145363 4.0012941 1.71436089 1.6658039-1.14290726 2.9987059-1.71436089 3.9987059-1.71436089 2.5773288 0 3 2 3 3m-7 12c6 0 7-7.581722 7-12s-2.581722-7-7-7-7 2.581722-7 7 1 12 7 12zm-3-9v1m6-1v1m-6 3.5c1 .3333333 2 .5 3 .5s2-.1666667 3-.5m-4.5-5c-.66666667-1-1.66666667-1.5-3-1.5m6 1.5c.6666667-1 1.6666667-1.5 3-1.5m-1.796 6.5937991-.704 1.4062009v-1.2222222m-4 0v1.2222222l-.704-1.408m-3.87489711-2.8192136c-1.70797973-1.4141965-3.42110289-3.9553752-3.42110289-4.7727864.39108042 0 1.98658765.6499386 3.04051853 1.515996m13.92016597-.0009294c1.0527279-.865128 2.6482351-1.5150666 3.0393155-1.5150666 0 .8252287-1.702506 3.3529634-3.4215698 4.7732905" fill="none" stroke="#000" stroke-linecap="round" stroke-linejoin="round"/></svg>