<svg height="24" viewBox="0 0 24 24" width="24" xmlns="http://www.w3.org/2000/svg"><path d="m15.6426 21.5-8.285-20m-5.8576 14.1426 20-8.285m0 8.285-20-8.285m5.8574 14.1424 8.285-20m-7.8699 1s1.728 1 3.728 1 3.727-1 3.727-1m-7.455 18s1.728-1 3.728-1 3.727 1 3.727 1m-6.0058-14.5s1.056.611 2.278.611c1.223 0 2.279-.611 2.279-.611m-4.557 11s1.056-.611 2.278-.611c1.223 0 2.279.611 2.279.611m-11.2787-1.7725s1-1.728 1-3.728-1-3.727-1-3.727m18 7.455s-1-1.728-1-3.728 1-3.727 1-3.727m-14.5 6.0058s.611-1.056.611-2.278c0-1.223-.611-2.279-.611-2.279m11 4.557s-.611-1.056-.611-2.278c0-1.223.611-2.279.611-2.279m-14.5-1.4488s1.929-.515 3.343-1.93c1.415-1.414 1.929-3.342 1.929-3.342m7.4555 17.9995s.515-1.929 1.93-3.343c1.414-1.415 3.342-1.929 3.342-1.929m-14.4995-6.0063s1.179-.314 2.043-1.179c.864-.864 1.179-2.043 1.179-2.043m4.5563 11.0003s.314-1.179 1.179-2.043c.864-.864 2.043-1.179 2.043-1.179m-1.7728-11.278s.515 1.929 1.93 3.343c1.414 1.415 3.342 1.929 3.342 1.929m-17.9995 7.4555s1.929.515 3.343 1.93c1.415 1.414 1.929 3.342 1.929 3.342m6.0063-14.4995s.314 1.179 1.179 2.043c.864.864 2.043 1.179 2.043 1.179m-11.0003 4.5563s1.179.314 2.043 1.179c.864.864 1.179 2.043 1.179 2.043" fill="none" stroke="#000" stroke-linecap="round" stroke-linejoin="round"/></svg>