<svg height="24" viewBox="0 0 24 24" width="24" xmlns="http://www.w3.org/2000/svg"><path d="m3.5 13.5c-1.1045695 0-2-.8954305-2-2s.8954305-2 2-2m16 0c1.1045695 0 2 .8954305 2 2s-.8954305 2-2 2m-8.9644661 1v.5m-2.99999999-4.5v1m7.96446609-1.5v.5m-2.9644661 4v.5m-1.9682158-12.44567154c-.0437508.14079694-.0673181.29048202-.0673181.44567154 0 .82842712.6715729 1.5 1.5 1.5.1878562 0 .3676467-.03453309.5323158-.09697771.1927154 1.18908677 1.2241751 2.09697771 2.4676842 2.09697771.4098113 0 .7965919-.09860606 1.1363706-.27341192.2441835.17224276.5420918.27341192.8636294.27341192.4437333 0 .8424646-.19267643 1.1170946-.49892991.8723332 1.28187598 1.3829054 2.83077768 1.3829054 4.49892991v3c0 4.418278-3.581722 8-8 8s-8-3.581722-8-8v-3c0-3.99791193 2.93259603-7.31087935 6.7639838-7.90509795zm-2.0673181 13.94567154v2m3-2v2m3-2v2m-7-1h8m-.5-4c1.3807119 0 2.5-1.1192881 2.5-2.5 0-1.38071187-1.1192881-2.5-2.5-2.5s-2.5 1.11928813-2.5 2.5c0 1.3807119 1.1192881 2.5 2.5 2.5zm-4.4397885-10.07788418c.4590636-.56276985 1.1574612-.92211582 1.9397885-.92211582.8371245 0 1.57815.4114489 2.0318801 1.04315033.1513804-.02809572.3079921-.04315033.4681199-.04315033 1.3807119 0 2.5 1.11928813 2.5 2.5 0 .14553919-.0124364.28817369-.0363046.42689879m-9.4636954 7.07310121c1.38071187 0 2.5-1.1192881 2.5-2.5 0-1.38071187-1.11928813-2.5-2.5-2.5s-2.5 1.11928813-2.5 2.5c0 1.3807119 1.11928813 2.5 2.5 2.5zm-2.44988142-2.9994607h4.89976282" fill="none" stroke="#000" stroke-linecap="round" stroke-linejoin="round"/></svg>