<svg height="24" viewBox="0 0 24 24" width="24" xmlns="http://www.w3.org/2000/svg"><path d="m16.75 15.5h-1.25v-7h3l2 3v4h-1m-.25 0c0 .69-.56 1.25-1.25 1.25s-1.25-.56-1.25-1.25.56-1.25 1.25-1.25 1.25.56 1.25 1.25zm-6 0c0 .69-.56 1.25-1.25 1.25s-1.25-.56-1.25-1.25.56-1.25 1.25-1.25 1.25.56 1.25 1.25zm-6 0c0 .69-.56 1.25-1.25 1.25s-1.25-.56-1.25-1.25.56-1.25 1.25-1.25 1.25.56 1.25 1.25zm8.25-4h5m-9.75 4h-3.5m-2.75 0h-2v-10h13v10h-2" fill="none" stroke="#000" stroke-linecap="round" stroke-linejoin="round"/></svg>