<svg height="24" viewBox="0 0 24 24" width="24" xmlns="http://www.w3.org/2000/svg"><path d="m13.749 10.751 6.13 6.13c.828.828.828 2.17 0 2.998l-.002.002c-.828.828-2.17.828-2.998 0l-5.38-5.38m-1.5-3-5.251-5.251-.75.75-1-3 1-1 3 1-.75.75 5.252 5.252m3.75-3.752-5.5 5.5-.75-.75-5.881 5.881c-.828.828-.828 2.17 0 2.998l.002.002c.828.828 2.17.828 2.998 0l5.881-5.881-.75-.75 5.5-5.5m2.75 2.75-8-8h1.929c1.326 0 2.597.526 3.536 1.465l1.535 1.535h2l2 2z" fill="none" stroke="#000" stroke-linecap="round" stroke-linejoin="round"/></svg>