<svg height="24" viewBox="0 0 24 24" width="24" xmlns="http://www.w3.org/2000/svg"><path d="m21.1875 4.8125-2.688 2.688h-2.999v-3l2.687-2.688c-1.234-.444-2.649-.515-4.232.459-.683.419-1.265 1.001-1.684 1.684-.974 1.583-.903 2.998-.459 4.232l-3.627 3.627c-1.234-.444-2.649-.515-4.232.459-.683.419-1.264 1.001-1.684 1.684-.974 1.583-.903 2.998-.459 4.232l2.688-2.688h3v3l-2.688 2.688c1.234.444 2.649.515 4.232-.459.683-.42 1.265-1.001 1.684-1.684.974-1.583.903-2.998.459-4.232l3.627-3.627c1.234.444 2.649.515 4.232-.459.683-.419 1.265-1.001 1.684-1.684.974-1.583.903-2.998.459-4.232z" fill="none" stroke="#000" stroke-linecap="round" stroke-linejoin="round"/></svg>