<svg height="24" viewBox="0 0 24 24" width="24" xmlns="http://www.w3.org/2000/svg"><path d="m15.8401727 3.61355348c-.0750001.0385927-.172069.06998666-.3017291.09149613-1.1472832.19026511-1.3936784.56225309-1.5777012.8017842-.8517271 1.10864204-1.478267-.40029937-1.195853-1.43066669.0861879-.31431921-.5834285-.52665465-.9073198-.39611542-.3217539.12969407-.114093.37452468.1239069.63705947l.1298272.14437097c.2536733.28991102.4354632.57980918-.1025663.74320078-1.0251807.31135558 1.0487529 2.74104482-.4017351 2.46915783-.9795314-.03674902-2.41246194 1.03001865-3.07776726 1.84780646-.08838477.10441351-.13120208.27437829-.16415708.45705231l-.03709723.22192737c-.05540036.33189604-.1251207.63648675-.41739342.60559743-.89942772-.09508025-.97369048-1.74481156-1.79523964.07440457-.05795694.12830781.08444955.25515121.20408352.18140911 1.42562943-.87904783.60567956.4603042 1.07924372 1.2339862.10541418.1722044.16674354.3744286.40208278.2517691 1.25739091-.6552413 3.10387741.0074614 3.73806611 1.3000229.3982931.8116862 1.9852424.2662038 1.7415243 1.9641551-.0931923.6491041-.734836 1.5981879-1.3769135 2.5581003l-.2257413.3387713c-.7167185 1.0824939-1.3517511 2.1354083-1.115599 2.7421788m-1.3680425-.2490868c-.35549136-.9632176-.34745098-2.1859045-.32350706-2.6534514.03702707-.7223705-.31853766-1.3472729-.70194282-1.9560593l-.23046594-.3639887c-.45594154-.7267128-.84692489-1.4536479-.54265965-2.3213816.10694394-.304975.00257277-.6448163-.26193616-.8296423-1.44176142-1.0073556-2.74827839-1.5793363-3.56259598-3.36400003-.21060182-.46151204-.18331585-.90617358-.07571543-1.33070648m15.04196154 9.72871571c-.116013-.2747813-.2303876-.5945182-.3433211-.9584814-.2520479-.8122699.2423552-2.9357178-.4279027-3.3706113-1.7626313-1.1436682-3.140569.1865756-3.1611492-2.5977868-.0040246-.55692225.7899672-1.16188192 1.1318065-1.71298141.3503605-.56483968-.6215099-1.82904528.6656423-1.72448479.4171093.03387121.3401351-.38927037.1634992-.52347704-.5032437-.38231151-.7788313-.46933283-.3206075-1.1853858.4533241-.70831302.501717-.27849661.7384979.24011633.216519.4741899.7060847.03665108.7767075-.24487385m2.7396368 6.46654526c0 4.971-4.029 9-9 9s-9-4.029-9-9 4.029-9 9-9 9 4.029 9 9z" fill="none" stroke="#000" stroke-linecap="round" stroke-linejoin="round"/></svg>