<svg height="24" viewBox="0 0 24 24" width="24" xmlns="http://www.w3.org/2000/svg"><path d="m20.5 11.5c0 4.971-4.029 9-9 9s-9-4.029-9-9 4.029-9 9-9 9 4.029 9 9zm-4.0824795 2.1397321c.3448969.0618527.3364244.5501545.4543071.8137084.1460548.3265224.2025032.672291.4145597.9820078.7115852 1.0391188-.8026907 2.5753953-1.7919158 2.5946764-.6808332.013284-.3930472-.5975726-.862068-.8545717-.3602272-.1974205-.7226345-.0865849-1.0465494.0645813l-.1363454.0664736c-.646466.325673-1.1028371.6601663-1.007612-1.3778719.0424671-.9088236 1.060701-.7844905 1.4595708-1.3823072.387887-.5814295.5399736-.3147376.8523054-.5262014.4126769-.2793484.3010003-.3310899.8686577-.2263517.2620198.0483595.3945813.2156129.2023985.4435684-.1350369.1601407-.0645374.1615702.0178167.2378575.3596802.3330773.2073147-.9014319.5748747-.8355695zm-.382165-9.91534332c-.4492913.47187916.053654.05769884-.088878 1.05274093-.0528921.36923355-.2871933.40158943-.3142844.12733153-.0310309-.31449354-.8893333-.54931771-.7122825-.96708507.0961611-.2269444-.2891807-.61727203-.3288585-.35626331-.0822494.54126361-.9737096.0196297-1.1367442.24978179-.1666348.23529551-.0813239.30606442.1173144.37737184l.1316733.04416959c.3576368.11718813.9078821.30986719 1.1828993 1.13513187.1098287.32959063.6694668.2378924.476517.76004931-.5061184 1.36965075.5046889 1.05714458-.8918088 1.62162911-1.2268735.49586776.7292275-.53397656.2010039-1.75548063-.1222411-.28280013-.1894981-.85673341-.3062651-.47613346-.1758305.57306162-.8398582.58484641-.3403643 1.49028796.0541472.09818335.0169798.24395913-.0890484.28248633-.3702098.13447911-.4316442-.87033124-.7586895-.74282538-.1565495.0610508.2565458.14943673.0120985.37979802-.2510369.23649775.3945813.61061258.403542.98099671-.3421076 2.35828318-2.4556995.20131771-1.07008 2.45454888-.2833231 1.8868218-1.7264719-1.27645328-.4757499 1.939156.3368776.1487394.1554337.4039603.099055.5926216-.0653742.218716.3196537.1086432.5809762.1770857.8933779.4638256.713991.2785115 1.74523.2201455.5666462.0904779-.1530279.5332792-.336529.4991103-.5172756-.4178023-.9853201-.1110142-1.6209667-.3445134-1.0993327-.3974055-1.5687718-1.3029168-1.8681683-2.1645663.1101076-.1264599.5534668.2300126.4595371-.0983228-.0953243-1.53251102-1.64049174-3.14877074-2.16414789-.7749372-.74334837 2.4350935-.73916442-2.3352366-2.50949808-1.80676891-.59509709.14549685.61103097.57023746-1.36930209 1.57351371-.14535738.0736375-.09187256.283881.07049955.2986991.53786415.049022.19785723.5861278-.25193478 1.175023l-.18395136.2372861c-.40335809.5156228-.81225459 1.0264512-.72669398 1.2484736.41725667 1.0828236-.18784399 1.4723619-.55171464 2.3130966m12.44423567-2.9327081c.5635082-.4914049 1.1653345.7748326 1.5485843 1.0213718.3770436.2425645-.246609.1518077-.4621521-.0746486-.2624382-.2756874-.2980715.1473099-.699905.0448728-.191821-.048926-.2451059-.152992-.2809426-.2682228l-.0345054-.1173238c-.0502118-.1570506-.1411604-.3078907-.5598691-.3482832-.1406854-.0135979-.1378961-.1888356-.1310274-.2889366.011471-.1686829-.1087827-.202817.0289738-.2286877.4155708-.0780656.4170352.4114217.5908435.2598581zm-1.8788536-1.9453239c-.0288485.144416-.0283157.194484.132102.1994001.1760599.0053694.1588954.1675323.2714733.2285482.1072115.0580872.1233865.1004497.1708458.2705272.1380391.4946823.1718353 1.1166265-.2167067.8093502-.1262029-.099822-.2404933-.016143-.3613299-.0726264-.104243-.0486732-.0184966-.2079423.0295716-.3053586.1334341-.2703877-.3137184-.5054211-.3217869-.7728103-.0044909-.1492973-.1529963-.1773995-.1452703-.3761022.0233681-.60196575.5541357-.5464587.4411011.0190718z" fill="none" stroke="#000" stroke-linecap="round" stroke-linejoin="round"/></svg>