<svg height="24" viewBox="0 0 24 24" width="24" xmlns="http://www.w3.org/2000/svg"><path d="m7.5 6.5h13m-13 5h13m-13 5h13m-16-12v3m-1 0h2m-2-3h1m-1.2939 10.7061c0-.39.474-.706 1.059-.706s1.058.316 1.058.706m-1.0585.7055c.585 0 1.059-.316 1.059-.706m-2.2943 1.5005c0 .438.553.794 1.235.794.683 0 1.236-.356 1.236-.794m-.0003 0c0-.439-.553-.794-1.235-.794m-1.015-5.6621c0-.414.504-.75 1.125-.75s1.125.336 1.125.75m0 0c0 .937-2.438 1.125-2.438 2.25h2.438" fill="none" stroke="#000" stroke-linecap="round" stroke-linejoin="round"/></svg>