<?xml version="1.0" encoding="UTF-8"?>
<svg id="Layer_2" data-name="Layer 2" xmlns="http://www.w3.org/2000/svg" viewBox="0 0 100 100">
  <defs>
    <style>
      .cls-1 {
        fill: #ff5350;
      }

      .cls-1, .cls-2, .cls-3, .cls-4 {
        stroke-width: 0px;
      }

      .cls-2 {
        fill: #45d1f4;
      }

      .cls-3 {
        fill: #294f52;
      }

      .cls-4 {
        fill: #808083;
      }
    </style>
  </defs>
  <g id="Layer_1-2" data-name="Layer 1">
    <g>
      <path class="cls-2" d="m67.27,100h-22.77c0-24.53-19.96-44.49-44.5-44.49v-22.78c17.2,0,32.88,6.46,44.77,17.08v20.19h15.44c4.51,9.04,7.06,19.22,7.06,30Z"/>
      <polygon class="cls-4" points="53.36 0 44.77 0 0 0 0 21.94 44.77 21.94 44.77 70 67.27 70 67.27 0 53.36 0"/>
      <polygon class="cls-1" points="77.5 100 77.5 0 100 21.94 100 100 77.5 100"/>
      <path class="cls-3" d="m44.77,49.81v20.19h15.44c-3.84-7.68-9.09-14.53-15.44-20.19Z"/>
    </g>
  </g>
</svg>