<svg height="24" viewBox="0 0 24 24" width="24" xmlns="http://www.w3.org/2000/svg"><path d="m11.5 5.5c-1.104 0-2-.896-2-2s.896-2 2-2 2 .896 2 2-.896 2-2 2zm-7 4c-1.104 0-2-.896-2-2s.896-2 2-2 2 .896 2 2-.896 2-2 2zm14 0c-1.104 0-2-.896-2-2s.896-2 2-2 2 .896 2 2-.896 2-2 2zm0 8c-1.104 0-2-.896-2-2s.896-2 2-2 2 .896 2 2-.896 2-2 2zm-14 0c-1.104 0-2-.896-2-2s.896-2 2-2 2 .896 2 2-.896 2-2 2zm7 4c-1.104 0-2-.896-2-2s.896-2 2-2 2 .896 2 2-.896 2-2 2zm-5.2637-14.9922 3.527-2.016m7.0004 2.016-3.527-2.016m5.2633 9.0082v-4m-5.2637 9.0078 3.527-2.016m-10.527.0004 3.527 2.016m-5.2633-9.0082v4" fill="none" stroke="#000" stroke-linecap="round" stroke-linejoin="round"/></svg>