<svg height="24" viewBox="0 0 24 24" width="24" xmlns="http://www.w3.org/2000/svg"><path d="m11.5 5.5c-1.104 0-2-.896-2-2s.896-2 2-2 2 .896 2 2-.896 2-2 2zm5.1963 9c.552-.957 1.775-1.284 2.731-.732.957.552 1.286 1.775.733 2.732-.552.957-1.776 1.284-2.733.732-.956-.552-1.284-1.775-.731-2.732zm-10.3926 0c.553.957.225 2.18-.731 2.732-.957.552-2.181.225-2.733-.732-.553-.957-.224-2.18.733-2.732.956-.552 2.179-.225 2.731.732zm12.8916-.8369c.193-.688.305-1.412.305-2.163 0-3.735-2.565-6.864-6.026-7.744m-7.697 13.3279c1.452 1.489 3.479 2.416 5.723 2.416s4.27-.927 5.722-2.416m-7.6969-13.3281c-3.461.88-6.025 4.009-6.025 7.744 0 .751.111 1.475.304 2.163" fill="none" stroke="#000" stroke-linecap="round" stroke-linejoin="round"/></svg>