<svg height="24" viewBox="0 0 24 24" width="24" xmlns="http://www.w3.org/2000/svg"><path d="m11.5 3.5c-.553 0-1-.447-1-1s.447-1 1-1 1 .447 1 1-.447 1-1 1zm-6 8c-.553 0-1-.447-1-1s.447-1 1-1 1 .447 1 1-.447 1-1 1zm12 0c-.553 0-1-.447-1-1s.447-1 1-1 1 .447 1 1-.447 1-1 1zm-5.4023-8.2021 4.805 6.405m-6.0004-6.406-4.803 6.404m-3.5993 9.7991c-.553 0-1-.447-1-1s.447-1 1-1 1 .447 1 1-.447 1-1 1zm6 0c-.553 0-1-.447-1-1s.447-1 1-1 1 .447 1 1-.447 1-1 1zm6 0c-.553 0-1-.447-1-1s.447-1 1-1 1 .447 1 1-.447 1-1 1zm6 0c-.553 0-1-.447-1-1s.447-1 1-1 1 .447 1 1-.447 1-1 1zm-14.6494-8.0645 2.299 6.13m-3.0002-6.13-2.299 6.128m15.0002-6.128 2.299 6.128m-3.0002-6.1289-2.299 6.129" fill="none" stroke="#000" stroke-linecap="round" stroke-linejoin="round"/></svg>