<svg height="24" viewBox="0 0 24 24" width="24" xmlns="http://www.w3.org/2000/svg"><path d="m4.5 6.5c-1.104 0-2-.896-2-2s.896-2 2-2 2 .896 2 2-.896 2-2 2zm7 7c-1.104 0-2-.896-2-2s.896-2 2-2 2 .896 2 2-.896 2-2 2zm7-7c-1.104 0-2-.896-2-2s.896-2 2-2 2 .896 2 2-.896 2-2 2zm-12.5859-.5859 4.172 4.172m6.9998-4.172-4.172 4.172m5.5861 10.4139c-1.104 0-2-.896-2-2s.896-2 2-2 2 .896 2 2-.896 2-2 2zm-1.4141-3.4141-4.172-4.172m-8.4139 7.5861c-1.104 0-2-.896-2-2s.896-2 2-2 2 .896 2 2-.896 2-2 2zm1.4141-3.4141 4.172-4.172" fill="none" stroke="#000" stroke-linecap="round" stroke-linejoin="round"/></svg>