<svg height="24" viewBox="0 0 24 24" width="24" xmlns="http://www.w3.org/2000/svg"><path d="m11.5 6.5c-1.104 0-2-.896-2-2s.896-2 2-2 2 .896 2 2-.896 2-2 2zm-7 6c-1.104 0-2-.896-2-2s.896-2 2-2 2 .896 2 2-.896 2-2 2zm7 1c-1.104 0-2-.896-2-2s.896-2 2-2 2 .896 2 2-.896 2-2 2zm7-1c-1.104 0-2-.896-2-2s.896-2 2-2 2 .896 2 2-.896 2-2 2zm-7-6v3m-5.0195 1.2832 3.039.434m7-.434-3.039.434m3.0195 9.2828c-1.104 0-2-.896-2-2s.896-2 2-2 2 .896 2 2-.896 2-2 2zm-1.1621-3.6279-2.676-3.744m-5.1619 7.3719c-1.104 0-2-.896-2-2s.896-2 2-2 2 .896 2 2-.896 2-2 2zm.9922-3.7363 2.016-3.527" fill="none" stroke="#000" stroke-linecap="round" stroke-linejoin="round"/></svg>