<svg height="24" viewBox="0 0 24 24" width="24" xmlns="http://www.w3.org/2000/svg"><path d="m10.5 3.5c-.553 0-1-.447-1-1s.447-1 1-1 1 .447 1 1-.447 1-1 1zm-8 8c-.553 0-1-.447-1-1s.447-1 1-1 1 .447 1 1-.447 1-1 1zm16-3c-.553 0-1-.447-1-1s.447-1 1-1 1 .447 1 1-.447 1-1 1zm-7 2c-.553 0-1-.447-1-1s.447-1 1-1 1 .447 1 1-.447 1-1 1zm-4 9c-.553 0-1-.447-1-1s.447-1 1-1 1 .447 1 1-.447 1-1 1zm10-2c-.553 0-1-.447-1-1s.447-1 1-1 1 .447 1 1-.447 1-1 1zm.1104-1.9941.779-7.012m-9.9089 9.8098 8.039-1.607m-4.3701-6.4399 4.701 5.485m-13.3563-5.3522 7.012-.779m.1355-6.1204.717 5.02m-8.3303 2.8355 3.942 6.307m2.8227-14.4457-6.586 6.586m14.4453-2.8223-6.306-3.941" fill="none" stroke="#000" stroke-linecap="round" stroke-linejoin="round"/></svg>