<svg height="24" viewBox="0 0 24 24" width="24" xmlns="http://www.w3.org/2000/svg"><path d="m4.5 20.5c-1.104 0-2-.896-2-2s.896-2 2-2 2 .896 2 2-.896 2-2 2zm4-10c-1.104 0-2-.896-2-2s.896-2 2-2 2 .896 2 2-.896 2-2 2zm6 6c-1.104 0-2-.896-2-2s.896-2 2-2 2 .896 2 2-.896 2-2 2zm-9.2578.1436 2.516-6.288m10.7418-3.8556c-1.104 0-2-.896-2-2s.896-2 2-2 2 .896 2 2-.896 2-2 2zm-3.2568 6.1436 2.515-6.287m-4.6723 6.7293-3.172-3.172" fill="none" stroke="#000" stroke-linecap="round" stroke-linejoin="round"/></svg>