<svg height="24" viewBox="0 0 24 24" width="24" xmlns="http://www.w3.org/2000/svg"><path d="m4.5 9.5.503-2.517c.322-1.609 1.59-2.853 3.203-3.152.983-.183 2.139-.331 3.294-.331s2.311.148 3.294.331c1.613.299 2.881 1.543 3.203 3.152l.503 2.517m1 0h-.003c-.9 0-1.706.559-2.022 1.401l-.975 2.599s-2-1-5-1-5 1-5 1l-.975-2.599c-.316-.842-1.122-1.401-2.022-1.401h-.003c-1.104 0-2 .896-2 2 0 .553.447 1 1 1h1l.86 5.164c.081.482.498.836.987.836h12.306c.489 0 .906-.354.987-.836l.86-5.164h1c.553 0 1-.447 1-1 0-1.104-.896-2-2-2zm-14 10v-1m12 0v1" fill="none" stroke="#000" stroke-linecap="round" stroke-linejoin="round"/></svg>