<svg height="24" viewBox="0 0 24 24" width="24" xmlns="http://www.w3.org/2000/svg"><path d="m7.706 17.882 1.566-4.698c.136-.408.518-.684.949-.684h2.558c.431 0 .813.276.948.684l1.567 4.698c-1.192.399-2.467.618-3.794.618s-2.602-.219-3.794-.618zm9.472-.833-1.244-5.597c-.289-1.298-.434-2.623-.434-3.952l3 1 1-1-2-4v-2l-1.286.515c-2.243.897-3.714 3.069-3.714 5.485h-5l-.101-.2c-.442-.886-1.622-1.077-2.322-.377-.369.369-.577.871-.577 1.394v3.183s1-2 3-2l-1.678 7.549c-.336-.183-.664-.38-.98-.591-1.004-.668-2.342.028-2.342 1.234v.01c0 .488.228.956.633 1.229 2.39 1.616 5.264 2.569 8.367 2.569 3.102 0 5.977-.953 8.367-2.569.404-.273.633-.741.633-1.229v-.01c0-1.206-1.338-1.902-2.342-1.234-.316.211-.644.408-.98.591z" fill="none" stroke="#000" stroke-linecap="round" stroke-linejoin="round"/></svg>