<svg height="24" viewBox="0 0 24 24" width="24" xmlns="http://www.w3.org/2000/svg"><path d="m21.5 11.5001c0 2.209-4.477 4-10 4s-10-1.791-10-4 4.477-4 10-4 10 1.791 10 4zm-15-8.6601c1.913-1.104 5.703 1.877 8.464 6.66 2.762 4.783 3.449 9.556 1.536 10.66-1.913 1.105-5.703-1.877-8.464-6.66-2.762-4.783-3.449-9.556-1.536-10.66zm0 17.3203c-1.913-1.104-1.226-5.877 1.536-10.66 2.761-4.783 6.551-7.765 8.464-6.66 1.913 1.104 1.226 5.877-1.536 10.66-2.761 4.783-6.551 7.764-8.464 6.66zm6-8.6602c0 .552-.448 1-1 1s-1-.448-1-1 .448-1 1-1 1 .448 1 1z" fill="none" stroke="#000" stroke-linecap="round" stroke-linejoin="round"/></svg>