<svg height="24" viewBox="0 0 24 24" width="24" xmlns="http://www.w3.org/2000/svg"><path d="m13.5003 2.5-.454.17c-4.425 1.659-7.133 6.139-6.546 10.827v.003c-1.226-.613-2-1.865-2-3.236v-.764l-.691 1.382c-.851 1.702-1.141 3.629-.828 5.505v.003c.315 1.888 1.721 3.411 3.579 3.875l4.94 1.235 2.935-.839c2.472-.706 4.299-2.801 4.663-5.347l.001-.002c.259-1.819-.115-3.672-1.06-5.248l-1.539-2.564.001.002c.597 1.193.362 2.635-.581 3.578l-.42.42-.192-.192c-2.31-2.31-3.021-5.775-1.808-8.808zm1 15.3945c0-2.137-1.006-4.149-2.716-5.432l-1.284-.963v1.567c0 .918-.364 1.798-1.014 2.447-.632.632-.986 1.488-.986 2.381 0 1.003.501 1.939 1.336 2.496l1.664 1.109 1.664-1.109c.835-.557 1.336-1.493 1.336-2.496z" fill="none" stroke="#000" stroke-linecap="round" stroke-linejoin="round"/></svg>