<svg height="24" viewBox="0 0 24 24" width="24" xmlns="http://www.w3.org/2000/svg"><path d="m13.813 17.9746c-.866.347-1.653.865-2.313 1.525l-.05-.05c-.626-.626-1.37-1.118-2.192-1.447-.022-.008-.044-.017-.067-.026-2.226-.891-3.691-3.049-3.691-5.447v-.001c0-1.94.77-3.799 2.141-5.169 1.191-1.191 1.859-2.805 1.859-4.489v-1.371l2.887 1.805c3.181 1.987 5.113 5.474 5.113 9.225 0 2.398-1.46 4.554-3.687 5.445zm-2.313-4.4746s-.771 2.527 0 6v2" fill="none" stroke="#000" stroke-linecap="round" stroke-linejoin="round"/></svg>