<svg height="24" viewBox="0 0 24 24" width="24" xmlns="http://www.w3.org/2000/svg"><path d="m8.6718 8.6719c1.562-1.562 4.095-1.562 5.656 0 1.563 1.562 1.563 4.095 0 5.656-1.561 1.563-4.094 1.563-5.656 0-1.562-1.561-1.562-4.094 0-5.656zm-1.9746-4.7862c3.479-2.198 8.135-1.781 11.167 1.25 3.515 3.515 3.515 9.214 0 12.729-3.515 3.514-9.214 3.514-12.729 0m-1.4136-14.143c-.781.781-.781 2.048 0 2.828.781.781 2.048.781 2.828 0 .781-.78.781-2.047 0-2.828-.78-.781-2.047-.781-2.828 0z" fill="none" stroke="#000" stroke-linecap="round" stroke-linejoin="round"/></svg>