<svg height="24" viewBox="0 0 24 24" width="24" xmlns="http://www.w3.org/2000/svg"><path d="m13 11.5c0 .829-.672 1.5-1.5 1.5s-1.5-.671-1.5-1.5.672-1.5 1.5-1.5 1.5.671 1.5 1.5zm-5.5 0h-5c0 3.331 1.814 6.232 4.504 7.788l2.504-4.338c-1.195-.692-2.008-1.97-2.008-3.45zm8 0c0 1.48-.813 2.758-2.008 3.45l2.504 4.338c2.69-1.556 4.504-4.457 4.504-7.788zm-4-4c.729 0 1.403.209 1.992.55l2.504-4.338c-1.323-.766-2.856-1.212-4.496-1.212s-3.173.445-4.496 1.212l2.504 4.338c.589-.341 1.263-.55 1.992-.55z" fill="none" stroke="#000" stroke-linecap="round" stroke-linejoin="round"/></svg>