<svg height="24" viewBox="0 0 24 24" width="24" xmlns="http://www.w3.org/2000/svg"><path d="m15.5 13.5-.867-2.603c-.399-1.194-1.336-2.131-2.53-2.53l-2.603-.867 2.603-.867c1.194-.399 2.131-1.336 2.53-2.53l.867-2.603.867 2.603c.399 1.194 1.336 2.131 2.53 2.53l2.603.867-2.603.867c-1.194.399-2.131 1.336-2.53 2.53zm-10 2-.525-1.577c-.299-.896-1.002-1.599-1.898-1.898l-1.577-.525 1.577-.525c.896-.299 1.599-1.002 1.898-1.898l.525-1.577.525 1.577c.299.896 1.002 1.599 1.898 1.898l1.577.525-1.577.525c-.896.299-1.599 1.002-1.898 1.898zm6 6-.525-1.577c-.299-.896-1.002-1.599-1.898-1.898l-1.577-.525 1.577-.525c.896-.299 1.599-1.002 1.898-1.898l.525-1.577.525 1.577c.299.896 1.002 1.599 1.898 1.898l1.577.525-1.577.525c-.896.299-1.599 1.002-1.898 1.898z" fill="none" stroke="#000" stroke-linecap="round" stroke-linejoin="round"/></svg>