<svg height="24" viewBox="0 0 24 24" width="24" xmlns="http://www.w3.org/2000/svg"><path d="m11.5 1.5 1.831 3.168 3.169-1.828.002 3.658 3.658.002-1.828 3.169 3.168 1.831-3.168 1.831 1.828 3.169-3.658.002-.002 3.658-3.169-1.828-1.831 3.168-1.831-3.168-3.169 1.828-.002-3.658-3.658-.002 1.828-3.169-3.168-1.831 3.168-1.831-1.828-3.169 3.658-.002.002-3.658 3.169 1.828zm0 6v4m0 2.5c-.276 0-.5.224-.5.5s.224.5.5.5.5-.224.5-.5-.224-.5-.5-.5z" fill="none" stroke="#000" stroke-linecap="round" stroke-linejoin="round"/></svg>