<svg height="24" viewBox="0 0 24 24" width="24" xmlns="http://www.w3.org/2000/svg"><path d="m8.82320337 10.4124687-2.122-3.6818586c-.414-.71794741-.168-1.63716042.549-2.05170746.718-.41454704 1.635-.16822199 2.049.54972543l.77200003 1.33876665m1.0938 6.35128128 2.742-8.45015098c.281-.86914694-.268-1.80638373-1.209-1.95257664-.739-.11314932-1.438.38851268-1.669 1.10045217l-3.5290034 10.87434995-1.57799663-.7900426c-.278-.1381823-.584-.2112788-.895-.2112788h-.02700337c-1.37699663 0-2.49299663 1.1144707-2.5 2.4912876-.00099663.2793686.22100337.5126765.5.5126765h1.12400337c.242 0 .477.0881163.659.2473264l3.375 2.9579033c.218.190251.34199663.4646131.34199663.753995v1.0473821h8v-1.0503861c0-.2983938.0450034-.5967875.1330034-.8831654l1.348-3.6658375c.343-.9322302.5189966-1.9185318.5189966-2.9118425 0-.8290941-.6719966-1.5019821-1.5-1.5019821-.2759966 0-.5309966.0801057-.7539966.2102775-.021-.9482513-.793-1.71225952-1.7460034-1.71225952-.8179966 0-1.5049966.56274262-1.6969966 1.32274552h.001l-.714-1.2396358" fill="none" stroke="#000" stroke-linecap="round" stroke-linejoin="round"/></svg>