<svg height="24" viewBox="0 0 24 24" width="24" xmlns="http://www.w3.org/2000/svg"><path d="m17 7.5c-.182 0-.354.037-.516.097-.078-.894-.82-1.597-1.734-1.597-.461 0-.877.182-1.189.473-.288-.575-.875-.973-1.561-.973-.561 0-1.055.269-1.375.679-.378-.484-.997-.771-1.683-.652-.854.147-1.442.951-1.442 1.818v3.155h-.94c-1.138 0-2.06.922-2.06 2.06v.005c0 .594.256 1.16.704 1.551l2.955 2.585c.216.19.341.465.341.753v1.046h8v-1.049c0-.299.045-.597.133-.882l1.003-2.723c.572-1.552.864-3.192.864-4.846 0-.829-.671-1.5-1.5-1.5zm-9.5 3h3.236c.828 0 1.5.672 1.5 1.5s-.672 1.5-1.5 1.5h-2" fill="none" stroke="#000" stroke-linecap="round" stroke-linejoin="round" transform="matrix(-1 0 0 1 23 0)"/></svg>