<svg height="24" viewBox="0 0 24 24" width="24" xmlns="http://www.w3.org/2000/svg"><path d="m17.2500034 5.5c-.287 0-.539.113-.7500034.275v-1.775c0-.828-.6719966-1.5-1.5-1.5-.8279966 0-1.5.672-1.5 1.5v-1c0-.828-.6719966-1.5-1.5-1.5-.8279966 0-1.5.672-1.5 1.5v1c0-.828-.67199663-1.5-1.5-1.5-.82799663 0-1.5.672-1.5 1.5v9.5l-1.57799663-.789c-.277-.139-.584-.211-.894-.211h-.02800337c-1.37699663 0-2.49299663 1.112-2.5 2.487-.00099663.28.22100337.513.5.513h1.12400337c.242 0 .477.088.659.247l3.375 2.954c.218.19.34199663.464.34199663.753v1.046h8v-1.049c0-.299.0450034-.597.1330034-.883l1.251-3.394c.407-1.108.6159966-2.278.6159966-3.457v-4.967c0-.69-.5599966-1.25-1.2499966-1.25zm-6.75-1.5v6.5m6-4.72v4.72m-3-6.5v6.5" fill="none" stroke="#000" stroke-linecap="round" stroke-linejoin="round"/></svg>