<svg height="24" viewBox="0 0 24 24" width="24" xmlns="http://www.w3.org/2000/svg"><path d="m20.7817 6.731c-.624-.294-1.369-.027-1.664.598l-2.535 5.375.214-1.154 1.185-6.391c.151-.814-.388-1.597-1.202-1.748s-1.597.387-1.748 1.201l-1.117 6.025c-.045.244-.109.484-.19.719l-.163.475c-.037-.247-.0620034-.496-.0620034-.745v-8.086c0-.829-.6709966-1.5-1.5-1.5-.8279966 0-1.5.671-1.5 1.5v8.086c0 .275-.0229966.551-.0679966.822l-.045.273-.24-.682c-.1-.286-.174-.58-.221-.878l-.94-5.972c-.129-.818-.897-1.377-1.715-1.249-.819.129-1.378.897-1.249 1.716l1.47799662 9.384-1.57699662-.789c-.278-.139-.584-.211-.895-.211h-.02800338c-1.37599662 0-2.49299662 1.112-2.5 2.487-.00099662.28.22000338.513.5.513h1.12400338c.242 0 .477.088.659.248l3.376 2.953c.217.19.34099662.465.34099662.753v1.046h7.99999998v-1.049c0-.299.0450034-.596.1330034-.882 1.244-3.378 2.636-6.699 4.171-9.955l.576-1.219c.294-.624.027-1.37-.598-1.664z" fill="none" stroke="#000" stroke-linecap="round" stroke-linejoin="round"/></svg>