<svg height="24" viewBox="0 0 24 24" width="24" xmlns="http://www.w3.org/2000/svg"><path d="m18.1177 6.329c.295-.625 1.04-.892 1.664-.598.5859375.275625.8572266.94851562.6466003 1.54571045l-.0486003.11828955-.576 1.219c-1.535 3.256-2.927 6.577-4.171 9.955-.066.2145-.1078125.4351875-.1245938.6582656l-.0084062.2237344v1.049h-7v-1.046c0-.2468571-.09110204-.4841633-.25378426-.6665773l-.08721574-.0864227-3.376-2.953c-.15166667-.1333333-.34013889-.2166667-.5387963-.2407407l-.1202037-.0072593h-1.124c-.28 0-.501-.233-.50001994-.513.00673927-1.32 1.03643591-2.3976192 2.3361976-2.4817167l.19182234-.0052833c.2488 0 .4944.04608.725024.13568l.169976.07532 1.577.789.0003-4.155c0-.867.588-1.671 1.442-1.818.686-.119 1.305.168 1.683.652.32-.41.814-.679 1.375-.679.686 0 1.273.398 1.561.973.312-.291.728-.473 1.189-.473.914 0 1.656.703 1.734 1.597l.1101581-.03663835z" fill="none" stroke="#000" stroke-linecap="round" stroke-linejoin="round"/></svg>