<svg height="24" viewBox="0 0 24 24" width="24" xmlns="http://www.w3.org/2000/svg"><path d="m12 5.5c-.6859933 0-1.2729933.398-1.5609933.973-.427-.399-1.04899999-.593-1.71499999-.395-.744.221-1.22400671.95-1.22400671 1.726v3.696l-1.57799329-.789c-.2216-.1112-.4624-.17952-.709088-.2024l-.21291871-.0086c-1.37699329 0-2.49299329 1.112-2.5 2.487-.00099329.28.22100671.513.5.513h1.12400671c.242 0 .477.088.659.248l3.375 2.953c.218.19.34199329.465.34199329.753v1.046h8v-1.049c0-.299.0450067-.597.1330067-.882l1.003-2.723c.571-1.552.8639933-3.192.8639933-4.846 0-.829-.6719933-1.5-1.5-1.5-.1819933 0-.3539933.037-.5159933.097-.079-.894-.82-1.597-1.734-1.597-.461 0-.877.182-1.189.473-.288-.575-.875-.973-1.5610067-.973z" fill="none" stroke="#000" stroke-linecap="round" stroke-linejoin="round"/></svg>