<svg height="24" viewBox="0 0 24 24" width="24" xmlns="http://www.w3.org/2000/svg"><path d="m19.782 6.82274076c-.625-.29316754-1.37-.02683228-1.664.59329161l-1.618 3.40968763v-.0089441c0-.96099328-.783-1.73912951-1.75-1.73912951-.461 0-.877.17987568-1.19.46906807-.287-.57043448-.875-.96596222-1.56-.96596222-.915 0-1.657.70062075-1.735 1.58906746l-.857-5.41018343c-.129-.8139126-.897-1.36944026-1.716-1.24124157-.818.12819869-1.377.8914281-1.248 1.7053407l1.452 9.1657094-.396.1540372-1.578-.7850928c-.278-.1371428-.584-.2086955-.895-.2086955h-.027c-1.381 0-2.5 1.1120491-2.5 2.4844707 0 .2742856.223.4968942.5.4968942h1.124c.242 0 .476.0864595.659.2454657l3.375 2.9356506c.217.187826.342.4611177.342.7483225v1.0395026h7v-1.0424839c0-.2971427.045-.5932916.133-.8775151l1.867-5.036519 2.879-6.06807131c.295-.6201239.027-1.36049617-.597-1.65266993z" fill="none" stroke="#000" stroke-linecap="round" stroke-linejoin="round"/></svg>