<svg height="24" viewBox="0 0 24 24" width="24" xmlns="http://www.w3.org/2000/svg"><path d="m16.9999966 9.5c-.1819966 0-.3539966.037-.5159966.097-.079-.894-.82-1.597-1.734-1.597-.49 0-.933.203-1.2500034.527v-5.527c0-.828-.6719966-1.5-1.5-1.5-.8279966 0-1.5.672-1.5 1.5v5.527c-.3439966-.35-.8329966-.559-1.3709966-.523-.938.063-1.62900337.919-1.62900337 1.858v3.638l-1.57799663-.789c-.277-.139-.584-.211-.894-.211h-.02800337c-1.37699663 0-2.49299663 1.112-2.5 2.487-.00099663.28.22100337.513.5.513h1.12400337c.242 0 .477.088.659.247l3.375 2.954c.218.19.34199663.464.34199663.753v1.046h7.99999997v-1.049c0-.299.0450034-.597.1330034-.883l1.003-2.722c.571-1.552.8639966-3.193.8639966-4.846 0-.828-.6719966-1.5-1.5-1.5z" fill="none" stroke="#000" stroke-linecap="round" stroke-linejoin="round"/></svg>