<svg height="24" viewBox="0 0 24 24" width="24" xmlns="http://www.w3.org/2000/svg"><path d="m20.7820034 6.731c-.625-.295-1.37-.027-1.664.597l-2.535 5.376.214-1.155 1.184-6.39c.151-.815-.387-1.598-1.202-1.748-.814-.152-1.597.386-1.748 1.201l-1.185 6.391-.127.372-.2190034-.875v-7.5c0-.829-.6719966-1.5-1.5-1.5-.8279966 0-1.5.671-1.5 1.5v6.6l-1.05099662-1.051c-.78-.78-2.047-.78-2.828 0l-2.828 2.829c-.391.391-.391 1.024 0 1.415.781.781 2.047.781 2.828 0l.707-.708c.391-.39 1.024-.39 1.415 0l.687.689c.249.248.349.608.264.949l-.005.019c-.111.445-.511.758-.97.758h-.983c-.155 0-.308-.037-.447-.106l-1.367-.684c-.278-.138-.584-.21-.895-.21h-.02700338c-1.37699662 0-2.49299662 1.112-2.5 2.487-.00099662.279.22000338.513.5.513h1.12400338c.242 0 .476.087.659.247l3.375 2.954c.218.19.34199662.464.34199662.753v1.046h8v-1.049c0-.299.0450034-.597.1330034-.883 1.244-3.377 2.635-6.698 4.171-9.954l.575-1.22c.295-.624.027-1.369-.597-1.663z" fill="none" stroke="#000" stroke-linecap="round" stroke-linejoin="round"/></svg>