<svg height="24" viewBox="0 0 24 24" width="24" xmlns="http://www.w3.org/2000/svg"><path d="m17 10.5c-.182 0-.354.037-.516.097-.079-.894-.82-1.597-1.734-1.597-.246 0-.48.052-.692.144l.923-4.985c.151-.814-.387-1.597-1.202-1.748-.814-.151-1.596.387-1.748 1.201l-.942 5.086c-.161.869-.387 1.725-.675 2.561-.277-.791-.482-1.606-.613-2.434l-.816-5.177c-.129-.818-.896-1.377-1.714-1.248-.819.129-1.377.897-1.249 1.715l1.321 8.385h-.783c-1.138 0-2.06.922-2.06 2.06v.005c0 .594.257 1.16.703 1.55l2.955 2.586c.218.19.342.464.342.753v1.046h8v-1.049c0-.299.045-.597.133-.883l1.348-3.661c.343-.93.519-1.915.519-2.907 0-.828-.672-1.5-1.5-1.5z" fill="none" stroke="#000" stroke-linecap="round" stroke-linejoin="round"/></svg>