<svg height="24" viewBox="0 0 24 24" width="24" xmlns="http://www.w3.org/2000/svg"><path d="m20 7.5h-10.5l.789-1.57799326c.1112-.2216.17952-.4624.2024-.708576l.0086-.21343074c0-1.37599326-1.112-2.49299326-2.487-2.5-.28-.00099326-.513.22000674-.513.5v1.12400674c0 .242-.088.477-.247.659l-2.954 3.376c-.19.216-.464.34099326-.753.34099326h-1.046v8h1.049c.299 0 .597.0440067.883.1330067l2.722 1.003c1.552.572 3.193.8639933 4.846.8639933.828 0 1.5-.6709933 1.5-1.5 0-.1819933-.037-.3539933-.097-.5159933.894-.078 1.597-.82 1.597-1.734 0-.461-.182-.877-.473-1.189.575-.288.973-.875.973-1.5610067 0-.6409933-.348-1.1949933-.861-1.5h5.361c.828 0 1.5-.67099326 1.5-1.5 0-.82899326-.672-1.5-1.5-1.5z" fill="none" stroke="#000" stroke-linecap="round" stroke-linejoin="round"/></svg>