<svg height="24" viewBox="0 0 24 24" width="24" xmlns="http://www.w3.org/2000/svg"><path d="m7.49999326 20v-10.5l-1.57799326.789c-.2216.1112-.4624.17952-.708576.2024l-.21343074.0086c-1.37599326 0-2.49299326-1.112-2.5-2.487-.00099326-.28.22000674-.513.5-.513h1.12400674c.242 0 .477-.088.659-.247l3.376-2.954c.216-.19.34099326-.464.34099326-.753v-1.046h8.00000004v1.049c0 .299.0440067.597.1330067.883l1.003 2.722c.572 1.552.8639933 3.193.8639933 4.846 0 .828-.6709933 1.5-1.5 1.5-.1819933 0-.3539933-.037-.5159933-.097-.078.894-.82 1.597-1.734 1.597-.461 0-.877-.182-1.189-.473-.288.575-.875.973-1.5610067.973-.6409933 0-1.1949933-.348-1.5-.861v5.361c0 .828-.6709933 1.5-1.50000004 1.5-.82899326 0-1.5-.672-1.5-1.5z" fill="none" stroke="#000" stroke-linecap="round" stroke-linejoin="round"/></svg>