<svg height="24" viewBox="0 0 24 24" width="24" xmlns="http://www.w3.org/2000/svg"><path d="m4 7.49999667h10.5l-.789-1.57798993c-.1112-.2216-.17952-.4624-.2024-.708576l-.0086-.21343407c0-1.37598993 1.112-2.49298993 2.487-2.5.28-.00098993.513.22001007.513.5v1.12401007c0 .242.088.477.247.659l2.954 3.376c.19.216.464.34098993.753.34098993h1.046v8.00000003h-1.049c-.299 0-.597.04401-.883.13301l-2.722 1.003c-1.552.572-3.193.86399-4.846.86399-.828 0-1.5-.67099-1.5-1.5 0-.18199.037-.35399.097-.51599-.894-.078-1.597-.82-1.597-1.734 0-.461.182-.877.473-1.189-.575-.288-.973-.875-.973-1.56101 0-.64099.348-1.19499.861-1.5h-5.361c-.828 0-1.5-.67098996-1.5-1.50000003 0-.82898993.672-1.5 1.5-1.5z" fill="none" stroke="#000" stroke-linecap="round" stroke-linejoin="round"/></svg>