<svg height="24" viewBox="0 0 24 24" width="24" xmlns="http://www.w3.org/2000/svg"><path d="m7.49999662 3v10.5l-1.57799662-.789c-.277-.139-.584-.211-.894-.211h-.02800338c-1.37599662 0-2.49299662 1.112-2.5 2.487-.00099662.28.22000338.513.5.513h1.12400338c.242 0 .477.088.659.247l3.376 2.954c.216.19.34099662.464.34099662.753v1.046h7.99999998v-1.049c0-.299.0440034-.597.1330034-.883l1.003-2.722c.572-1.552.8639966-3.193.8639966-4.846 0-.828-.6709966-1.5-1.5-1.5-.1819966 0-.3539966.037-.5159966.097-.078-.894-.82-1.597-1.734-1.597-.461 0-.877.182-1.189.473-.288-.575-.875-.973-1.5610034-.973-.6409966 0-1.1949966.348-1.5.861v-5.361c0-.828-.6709966-1.5-1.49999998-1.5-.82899662 0-1.5.672-1.5 1.5z" fill="none" stroke="#000" stroke-linecap="round" stroke-linejoin="round"/></svg>