<svg height="24" viewBox="0 0 24 24" width="24" xmlns="http://www.w3.org/2000/svg"><path d="m6.7635 12.5492962h3.236c.828 0 1.5.6678257 1.5 1.4906824s-.672 1.4906824-1.5 1.4906824h-2m10.7825-9.70792024c-.625-.29316754-1.37-.02683228-1.664.59329161l-1.618 3.40968762v-.0089441c0-.96099327-.783-1.7391295-1.75-1.7391295-.461 0-.877.17987568-1.19.46906807-.287-.57043448-.875-.96596222-1.56-.96596222-.915 0-1.657.70062075-1.735 1.58906748l-.857-5.41018345c-.129-.8139126-.897-1.36944026-1.716-1.24124157-.818.12819869-1.377.8914281-1.248 1.7053407l1.319 8.3259583h-1.203c-1.138 0-2.06.915279-2.06 2.0462101v.0059627c0 .5903102.256 1.1518006.704 1.5413656l2.955 2.5689428c.216.187826.341.4621115.341.7483225v1.0395026h7v-1.0424839c0-.2971427.045-.5932916.133-.8775151l1.867-5.036519 2.879-6.06807131c.295-.6201239.027-1.36049617-.597-1.65266993z" fill="none" stroke="#000" stroke-linecap="round" stroke-linejoin="round" transform="matrix(-1 0 0 1 22.99895 0)"/></svg>