<svg height="24" viewBox="0 0 24 24" width="24" xmlns="http://www.w3.org/2000/svg"><path d="m9.408 4.71540968 1.181 7.49900002m5.9469.6494 2.582-5.47600002m1.6641-.61226109c-.625-.29411017-1.37-.02691856-1.664.59519923l.96-2.02886171c.353-.74773773.032-1.63804412-.717-1.99097633-.75-.35193523-1.643-.03190348-1.997.71483727l-3.764 7.95692645-1.463-9.25898709c-.128-.8165296-.896-1.37384345-1.714-1.24523256-.819.1276139-1.377.89329734-1.249 1.70882996l.234 1.47752976c-.13-.81553262-.897-1.37284648-1.716-1.24423559-.818.12861089-1.377.89429433-1.248 1.71082393l1.452 9.19518009-.396.1545325-1.578-.7876171c-.278-.1375837-.584-.2093665-.895-.2093665h-.027c-1.381 0-2.5 1.1156247-2.5 2.4924591 0 .2751675.223.4984918.5.4984918h1.124c.242 0 .476.0867376.659.2462549l3.375 2.9450897c.217.1884299.342.4626004.342.7507287v1.0428449h8v-1.0458358c0-.2980981.045-.5951993.133-.8803366l1.867-5.0527131 2.879-6.08758211c.295-.6221178.027-1.36487061-.597-1.6579838z" fill="none" stroke="#000" stroke-linecap="round" stroke-linejoin="round"/></svg>