<svg height="24" viewBox="0 0 24 24" width="24" xmlns="http://www.w3.org/2000/svg"><path d="m5.5 11c0 .686.398 1.273.973 1.561-.399.427-.592 1.05-.395 1.715.221.744.95 1.224 1.726 1.224h2.696 1l-.789 1.578c-.139.277-.211.584-.211.895v.027c0 1.377 1.112 2.493 2.487 2.5.28.001.513-.221.513-.5v-1.124c0-.242.088-.477.247-.659l2.954-3.375c.19-.217.464-.342.753-.342h1.046v-8h-1.049c-.299 0-.597-.045-.882-.133l-2.723-1.003c-1.552-.571-3.193-.864-4.846-.864-.828 0-1.5.672-1.5 1.5 0 .182.037.354.097.516-.894.079-1.597.82-1.597 1.734 0 .461.182.877.473 1.189-.575.288-.973.875-.973 1.561z" fill="none" stroke="#000" stroke-linecap="round" stroke-linejoin="round"/></svg>