<svg height="24" viewBox="0 0 24 24" width="24" xmlns="http://www.w3.org/2000/svg"><path d="m11.5 20.5c-4.971 0-9-4.029-9-9s4.029-9 9-9 9 4.029 9 9-4.029 9-9 9zm-3-9.5v2m4.5-3.5c.6666667 1 1.6666667 1.5 3 1.5m-2 5.5c-.6666667-.6666667-1.5-1-2.5-1s-1.83333333.3333333-2.5 1m5.5-3.5-.0003437-2.2633036m-10.15388219-4.69832824 10.89876479-2.72496474m3.6696984 3.08289602-16.35777656 4.08980866m8.94353926-7.9861081-8.64147356 11.5235788" fill="none" stroke="#000" stroke-linecap="round" stroke-linejoin="round"/></svg>