<svg height="24" viewBox="0 0 24 24" width="24" xmlns="http://www.w3.org/2000/svg"><path d="m11.5 20.5c-4.971 0-9-4.029-9-9s4.029-9 9-9 9 4.029 9 9-4.029 9-9 9zm-3-12v2m6-2v2m-7 2h8c1.1045695 0 2 .8954305 2 2s-.8954305 2-2 2h-8c-1.1045695 0-2-.8954305-2-2s.8954305-2 2-2zm-2 2h12m-12.54461044 3.1784022-.45538956 1.8215978-.94199525-3.7621217m10.26802615 4.4587249-.3260309 1.3033968-.2909063-1.1620298m.7093593-17.50938977-.418453 1.67141957-.467386-1.87006081m-1.532614-.12993919-1 4-.94669496-3.78895774m9.69840766 13.36495644-1.7517127 6.4240013-.8959466-3.5860061" fill="none" stroke="#000" stroke-linecap="round" stroke-linejoin="round"/></svg>