<svg height="24" viewBox="0 0 24 24" width="24" xmlns="http://www.w3.org/2000/svg"><path d="m9.5 9.5c-.33333333-.66666667-.83333333-1-1.5-1s-1.16666667.33333333-1.5 1m10 0c-.3333333-.66666667-.8333333-1-1.5-1s-1.1666667.33333333-1.5 1m2.3108374 7.1734326c-1.2991846.5510449-2.7361304.8265674-4.3108374.8265674-1.57470703 0-3.01165283-.2755225-4.31083739-.8265674-.5749184-.2442075-.84396019-.9078562-.6005741-1.4831221.17688352-.4180808.58660242-.6898889 1.04056188-.6903105h7.74169921c.6246338.00058 1.1305298.5074155 1.1299503 1.1320493-.0004212.4539594-.2722292.8636783-.6899625 1.0413833zm-2.3108374 1.8265674c0 .5555468.2314742 1.574042.6944226 3.0554857.1198139.3835118-.0939237.7915546-.4774262.9113985-.0702409.0219501-.1434057.0331158-.2169964.0331158-.4017919 0-.7275085-.3257167-.7275085-.7275085 0-.0735908.0111656-.1467556.0330859-.2170058.4320852-1.3826807.6625306-2.362082.6913363-2.9382037zm.6617936-1.2919878c-.4418277.3188495-.6617936.7504272-.6617936 1.2919878 0-.4381643-.1439909-.804333-.4319728-1.0985064m.0923777 2.9431923c-.5384099.102873-1.0932769.1553141-1.6604049.1553141-4.971 0-9-4.029-9-9s4.029-9 9-9 9 4.029 9 9c0 4.1753237-2.8424318 7.686073-6.6980338 8.7029861" fill="none" stroke="#000" stroke-linecap="round" stroke-linejoin="round"/></svg>