<svg height="24" viewBox="0 0 24 24" width="24" xmlns="http://www.w3.org/2000/svg"><path d="m11.5 20.5c-4.971 0-9-4.029-9-9s4.029-9 9-9 9 4.029 9 9-4.029 9-9 9zm-4-10v2m2-2h-3m3.5-4c-.66666667 1-1.66666667 1.5-3 1.5m6-1.5c.6666667 1 1.6666667 1.5 3 1.5m.5 2.5h-3m1 0v2m-3.5 4c.8284271 0 1.5-.4477153 1.5-1s-.6715729-1-1.5-1-1.5.4477153-1.5 1 .6715729 1 1.5 1zm-3.5-1-4 2m-1.5-1.5c-.33333333.3333333-.5.8333333-.5 1.5s.5 1.1666667 1.5 1.5c-.66666667 1-.66666667 1.8333333 0 2.5s1.5.8333333 2.5.5m2-4.5-2.5 2.5" fill="none" stroke="#000" stroke-linecap="round" stroke-linejoin="round"/></svg>