<svg height="24" viewBox="0 0 24 24" width="24" xmlns="http://www.w3.org/2000/svg"><path d="m11.5 2.5c-4.971 0-9 4.029-9 9s4.029 9 9 9 9-4.029 9-9-4.029-9-9-9zm-2 7c-.33333333-.66666667-.83333333-1-1.5-1s-1.16666667.33333333-1.5 1m10 0c-.3333333-.66666667-.8333333-1-1.5-1s-1.1666667.33333333-1.5 1m-8 3 6-1.5 6 1.5-1.5 4.5c-1.3333333 1-2.8333333 1.5-4.5 1.5-1.66666667 0-3.16666667-.5-4.5-1.5zm14.948906-1.9647977-2.948906 1.9647977-1.5 4.5 2.6240946.0008204m-14.24818917 0 2.62409457-.0008204-1.5-4.5-2.94879943-1.9657976" fill="none" stroke="#000" stroke-linecap="round" stroke-linejoin="round"/></svg>