<svg height="24" viewBox="0 0 24 24" width="24" xmlns="http://www.w3.org/2000/svg"><path d="m13 6.5c.6666667 1 1.6666667 1.5 3 1.5m-1.5 4.5v-3m-4.5-3c-.66666667 1-1.66666667 1.5-3 1.5m1.5 4.5v-3m3 6.5v2.5m-1.84343033-2.2585047c.53397833-.1609969 1.14845513-.2414953 1.84343033-.2414953.694987 0 1.3094728.0805011 1.8434575.2415034.3930729.1185206.6737718.4652477.7078663.8743821l.1995398 2.3944772c.126605 1.51926-1.002365 2.8534972-2.521625 2.9801022-.0762477.006354-.1527266.0095351-.2292386.0095351-1.52452607 0-2.76039864-1.2358726-2.76039864-2.7603986l.0023848-.1147185.20669412-2.5090463c.03413722-.4091169.31482781-.7558315.70788939-.8743413zm8.84343033-6.7414953c-1 0-2-.5-2-2 0-1 .6666667-2.33333333 2-4 1.3333333 1.66666667 2 3 2 4 0 1.5-1 2-2 2zm1.5987603-.66626538c.2605451.84129709.4012397 1.73733368.4012397 2.66626538 0 4.0155485-2.6290539 7.4164112-6.2599653 8.5753919m-5.48035256-.0011308c-3.63111056-1.1584738-6.25968214-4.559081-6.25968214-8.5742611 0-4.971 4.029-9 9-9 2.3225964 0 4.4395512.87954329 6.0359978 2.3237633m-8.6503207 13.0374864c-1.10334805-.1670537-1.8856771-.4541369-1.8856771-.8612497 0-1.3808333 2.0145-2.5 4.5-2.5s4.5 1.1191667 4.5 2.5c0 .4071128-.7823291.694196-1.8856771.8612497" fill="none" stroke="#000" stroke-linecap="round" stroke-linejoin="round"/></svg>