<svg height="24" viewBox="0 0 24 24" width="24" xmlns="http://www.w3.org/2000/svg"><path d="m9 17.8888889c0-.7671296 1.1191667-1.3888889 2.5-1.3888889s2.5.6217593 2.5 1.3888889-5 .7671296-5 0zm5.5-7.3888889s-1-1-.5-3m-5.5 3s1-1 .5-3m2.5-6c.8952534 0 1.6988475.39203332 2.2484946 1.01381218.0816609-.00952905.1660824-.01381218.2515054-.01381218.8524199 0 1.605122.42650041 2.0563759 1.07777091.8336822.24130566 1.4436241 1.01046367 1.4436241 1.92222909 0 1.10466667-.8953333 2-2 2-.248829 0-.4870366-.04542805-.7067827-.12844384-.2491818.08331099-.5159234.12844384-.7932173.12844384-.4302597 0-.8351139-.10866095-1.1886207-.30004093-.396048.19184607-.8410654.30004093-1.3113793.30004093s-.9153313-.10819486-1.3115228-.30105516c-.35336334.19239421-.75821754.30105516-1.1884772.30105516-.27729388 0-.54403547-.04513285-.79328044-.12845422-.21968295.08302617-.4578906.12845422-.70671956.12845422-1.10466667 0-2-.89533333-2-2 0-.91176542.60994193-1.68092343 1.44409908-1.92174729.45077892-.6517523 1.20348097-1.07825271 2.05590092-1.07825271.08542298 0 .16984454.00428313.25306167.01264638.54809079-.62061306 1.35168493-1.01264638 2.24693833-1.01264638zm-3 13v-2m6 2v-2m3-3.00005008 2 2.00005008.9505967-.9487951c.0326599.311799.0494033.6283397.0494033.9487951 0 4.971-4.029 9-9 9s-9-4.029-9-9c0-.3207981.01677928-.6376732.04950819-.9497955l.95049181.9497955 2-2.00005008 2 2.00005008 2-2.00005008 2 2.00005008 2-2.00005008 2 2.00005008z" fill="none" stroke="#000" stroke-linecap="round" stroke-linejoin="round"/></svg>