<svg height="24" viewBox="0 0 24 24" width="24" xmlns="http://www.w3.org/2000/svg"><path d="m11.5 20.5c-4.971 0-9-4.029-9-9s4.029-9 9-9 9 4.029 9 9-4.029 9-9 9zm1.5-15c.6666667 1 1.6666667 1.5 3 1.5m-1.5 3.5v-2m-4.5-3c-.66666667 1-1.66666667 1.5-3 1.5m1.5 3.5v-2m4.5 6c-.3333333-.3333333-.8333333-.5-1.5-.5s-1.1666667.1666667-1.5.5m4.5-2c-1 .3333333-1.5 1-1.5 2 0 .3333333.1666667.6666667.5 1m-5-3c1 .3333333 1.5 1 1.5 2 0 .3333333-.16666667.6666667-.5 1" fill="none" stroke="#000" stroke-linecap="round" stroke-linejoin="round"/></svg>