<svg height="24" viewBox="0 0 24 24" width="24" xmlns="http://www.w3.org/2000/svg"><path d="m15.5 13.5c1.6568542 0 3-1.3431458 3-3 0-1.65685425-1.3431458-3-3-3s-3 1.34314575-3 3c0 1.6568542 1.3431458 3 3 3zm-8 0c1.65685425 0 3-1.3431458 3-3 0-1.65685425-1.34314575-3-3-3s-3 1.34314575-3 3c0 1.6568542 1.34314575 3 3 3zm8-4c.5522847 0 1-.44771525 1-1s-.4477153-1-1-1-1 .44771525-1 1 .4477153 1 1 1zm-8 0c.55228475 0 1-.44771525 1-1s-.44771525-1-1-1-1 .44771525-1 1 .44771525 1 1 1zm4 11c-4.971 0-9-4.029-9-9s4.029-9 9-9 9 4.029 9 9-4.029 9-9 9zm1-5h-2" fill="none" stroke="#000" stroke-linecap="round" stroke-linejoin="round"/></svg>