<svg height="24" viewBox="0 0 24 24" width="24" xmlns="http://www.w3.org/2000/svg"><path d="m21.5 13.5c0 1-.5 2-2 2-1 0-2.3333333-.6666667-4-2 1.6666667-1.3333333 3-2 4-2 1.5 0 2 1 2 2zm-12-3c-.33333333.6666667-.83333333 1-1.5 1s-1.16666667-.3333333-1.5-1m10 0c-.3333333.6666667-.8333333 1-1.5 1s-1.1666667-.3333333-1.5-1m1.7467718 5.0025501c-1.0818322-.6683667-2.3307562-1.0025501-3.7467718-1.0025501s-2.66493956.3341834-3.74677181 1.0025501c-.25405199.1540891-.33474549.4850363-.18039369.7389286.09680925.1592409.26913265.2570406.45548581.2585213h6.94335939c.2971199-.0023509.5360909-.2451066.5337566-.5422267-.0014641-.1863533-.0992639-.3586767-.2586645-.4552232zm4.3195298-.0032111c-1.4731536 2.9635261-4.5315815 5.000661-8.0663016 5.000661-4.971 0-9-4.029-9-9s4.029-9 9-9 9 4.029 9 9l-.0014288.1954901" fill="none" stroke="#000" stroke-linecap="round" stroke-linejoin="round"/></svg>