<svg height="24" viewBox="0 0 24 24" width="24" xmlns="http://www.w3.org/2000/svg"><path d="m9.5 12.5c-.33333333.6666667-.83333333 1-1.5 1s-1.16666667-.3333333-1.5-1m10 0c-.3333333.6666667-.8333333 1-1.5 1s-1.1666667-.3333333-1.5-1m.4393954 3.3847966c-.748999-.2565311-1.5621308-.3847966-2.4393954-.3847966-.8771701 0-1.69022133.1282379-2.43915356.3847137-.43371763.1484714-.66489938.6204564-.51637651 1.0541564.1149434.3356449.43050239.5611299.78528334.5611299h4.34071113c.4583858 0 .8299809-.3716142.8299809-.83 0-.3547378-.2254502-.6702611-.5610499-.7852034zm-2.4393954 4.6152034c-4.971 0-9-4.029-9-9s4.029-9 9-9 9 4.029 9 9-4.029 9-9 9zm0-15h3l-3 3h3m2-7h5l-5 5h5" fill="none" stroke="#000" stroke-linecap="round" stroke-linejoin="round"/></svg>