<svg height="24" viewBox="0 0 24 24" width="24" xmlns="http://www.w3.org/2000/svg"><path d="m8 11.5 2.5-1.5-2.5-1.5m7 3-2.5-1.5 2.5-1.5m-2-3c.6666667.66666667 1.6666667 1 3 1m-6-1c-.66666667.66666667-1.66666667 1-3 1m5.3437474 13.4374741c-.8958316-.6249827-1.6770807-.9374741-2.3437474-.9374741 0 0 .1312554-2.100086.3937661-6.3002579.0344506-.5512092.5092217-.9701249 1.0604309-.9356743.1702287.0106393.3349072.064642.4783793.1568741 3.7116158 2.3860387 5.5674237 3.5790581 5.5674237 3.5790581-.3333333.6666667-.5 1.5-.5 2.5m-5-1.5c.3333333 3.3333333.5 5 .5 5 3.5-2.5 4.5.5 7-1 0 0-1.6666667-1.6666667-5-5m-4.3227754.657449c-.65454305.1465672-1.28484051.342551-2.47308299.342551-1.42344689 0-.4744823-2.5.9489646-2.5.69094429 0 .84141609.2650672 1.63197489.409209m2.1106459 6.046788c-.2946294.0291039-.5934365.044003-.895727.044003-4.971 0-9-4.029-9-9s4.029-9 9-9 9 4.029 9 9c0 2.7403497-1.2243954 5.1944296-3.1560283 6.8450819" fill="none" stroke="#000" stroke-linecap="round" stroke-linejoin="round"/></svg>