<svg height="24" viewBox="0 0 24 24" width="24" xmlns="http://www.w3.org/2000/svg"><path d="m11.5 20.5c-4.971 0-9-4.029-9-9s4.029-9 9-9 9 4.029 9 9-4.029 9-9 9zm-3-10c-.55228475 0-1-.4477153-1-1 0-.55228475.44771525-1 1-1h.5c.82842712 0 1.5.67157288 1.5 1.5v.5c0 1.1045695-.8954305 2-2 2h-.5c-1.38071187 0-2.5-1.1192881-2.5-2.5m9-.5c0 .5522847.4477153 1 1 1s1-.4477153 1-1v-.5c0-.82842712-.6715729-1.5-1.5-1.5h-.5c-1.1045695 0-2 .8954305-2 2v.5c0 1.3807119 1.1192881 2.5 2.5 2.5m-8.5 3 1-1 2 2 2-2 2 2 2-2 1 1" fill="none" stroke="#000" stroke-linecap="round" stroke-linejoin="round"/></svg>