<svg height="24" viewBox="0 0 24 24" width="24" xmlns="http://www.w3.org/2000/svg"><path d="m7 11.5 2.5-1.5-2.5-1.5m9 3-2.5-1.5 2.5-1.5m-3-3c.6666667.66666667 1.6666667 1 3 1m-6-1c-.66666667.66666667-1.66666667 1-3 1m3.5 11v1m2 0v1m-4.00174437.4873735c-3.49485515-1.2358533-5.99825563-4.5689597-5.99825563-8.4873735 0-4.971 4.029-9 9-9s9 4.029 9 9c0 3.9187852-2.5038751 7.2521521-5.9992495 8.4877249m-6.00159354-1.9877835c-1.21400746-.4560973-1.99915696-1.1821264-1.99915696-1.9999414 0-1.3808333 2.23833333-2.5 5-2.5 2.7616667 0 5 1.1191667 5 2.5 0 .817815-.7851495 1.5438441-1.999157 1.9999414m-6.000843 3.0000586c0-3.3333333 0-5 0-5 0-.2761667 1.343-.5 3-.5s3 .2238333 3 .5v5m.0015046-.2998771c1.2136311.182445 1.9984954.4728105 1.9984954.7998771 0 .5523333-2.2383333 1-5 1-2.76166667 0-5-.4476667-5-1 0-.3271561.78529405-.6175911 1.99949221-.800027" fill="none" stroke="#000" stroke-linecap="round" stroke-linejoin="round"/></svg>