<svg height="24" viewBox="0 0 24 24" width="24" xmlns="http://www.w3.org/2000/svg"><path d="m11.5 2.5c-2.76142375 0-5 4.02943725-5 9 0 4.9705627 2.23857625 9 5 9m6.7068748-15.0016138-10.43280387-.0002261m10.43455507 12.0014974-10.43555948.0001629m-.98840499-2.9990463 13.20306867-.0003423m.5122698-3.0004318h-14m.28466153-3.00077408 13.20306867.00034224m-8.4877302 12.00043184c4.9705627 0 9-4.0294373 9-9 0-4.97056275-4.0294373-9-9-9-4.97056275 0-9 4.02943725-9 9 0 4.9705627 4.02943725 9 9 9z" fill="none" stroke="#000" stroke-linecap="round" stroke-linejoin="round"/></svg>