<svg height="24" viewBox="0 0 24 24" width="24" xmlns="http://www.w3.org/2000/svg"><path d="m11.5 20.5c-4.97056275 0-9-4.0294373-9-9 0-4.97056275 4.02943725-9 9-9 4.9705627 0 9 4.02943725 9 9 0 4.9705627-4.0294373 9-9 9zm0-18c-2.76142375 0-5 4.02943725-5 9 0 4.9705627 2.23857625 9 5 9m-6.70862604-3.0003425 2.98169256.0001629m-.98840499-2.9990463-3.77239176-.0003423m-.51226977-3.0004318h4m.28466153-3.00077408-3.77239176.00034224m1.78085545-3.00118196 2.98094571-.0002261" fill="none" stroke="#000" stroke-linecap="round" stroke-linejoin="round"/></svg>