<svg height="24" viewBox="0 0 24 24" width="24" xmlns="http://www.w3.org/2000/svg"><path d="m11.5 20.5c4.9705627 0 9-4.0294373 9-9 0-4.97056275-4.0294373-9-9-9-4.97056275 0-9 4.02943725-9 9 0 4.9705627 4.02943725 9 9 9zm0-18c2.7614237 0 5 4.02943725 5 9 0 4.9705627-2.2385763 9-5 9m6.708626-3.0003425-2.9816925.0001629m.988405-2.9990463 3.7723917-.0003423m.5122698-3.0004318h-4m-.2846615-3.00077408 3.7723917.00034224m-1.7808554-3.00118196-2.9809457-.0002261" fill="none" stroke="#000" stroke-linecap="round" stroke-linejoin="round"/></svg>