<svg height="24" viewBox="0 0 24 24" width="24" xmlns="http://www.w3.org/2000/svg"><path d="m11.5 2.5c2.7614237 0 5 4.02943725 5 9 0 4.9705627-2.2385763 9-5 9m-6.70687478-15.0016138 10.43280388-.0002261m-10.43455514 12.0014974 10.43555954.0001629m.988405-2.9990463-13.20306873-.0003423m-.51226977-3.0004318h14m-.2846615-3.00077408-13.20306873.00034224m8.48773023 12.00043184c-4.97056275 0-9-4.0294373-9-9 0-4.97056275 4.02943725-9 9-9 4.9705627 0 9 4.02943725 9 9 0 4.9705627-4.0294373 9-9 9z" fill="none" stroke="#000" stroke-linecap="round" stroke-linejoin="round"/></svg>