<svg height="24" viewBox="0 0 24 24" width="24" xmlns="http://www.w3.org/2000/svg"><path d="m18 20.5c1.933 0 3.5-1.567 3.5-3.5s-1.567-3.5-3.5-3.5c-.071 0-.137.017-.207.021-.647-2.318-2.769-4.021-5.293-4.021-1.99 0-3.729 1.061-4.694 2.645-.254-.087-.523-.145-.806-.145-1.381 0-2.5 1.119-2.5 2.5-1.657 0-3 1.343-3 3s1.343 3 3 3zm-12.1572-16.6572.707.707m10.6074-.707-.707.707m-4.9502-3.0498v1m-8 7h1m14 0h1m-3.2539 1.5c.15-.477.254-.974.254-1.5 0-2.762-2.238-5-5-5s-5 2.238-5 5c0 .924.267 1.777.704 2.52.208.02.41.059.602.125" fill="none" stroke="#000" stroke-linecap="round" stroke-linejoin="round"/></svg>