<svg height="24" viewBox="0 0 24 24" width="24" xmlns="http://www.w3.org/2000/svg"><path d="m17.5 14.5h.5c1.933 0 3.5-1.567 3.5-3.5s-1.567-3.5-3.5-3.5c-.071 0-.137.017-.207.021-.647-2.318-2.769-4.021-5.293-4.021-1.99 0-3.729 1.061-4.694 2.645-.254-.087-.522-.145-.806-.145-1.381 0-2.5 1.119-2.5 2.5-1.657 0-3 1.343-3 3s1.343 3 3 3h1m6 5c-1.657 0-3-1.343-3-3 0-1.309.355-2.593 1.029-3.715l1.971-3.285 1.971 3.285c.674 1.122 1.029 2.406 1.029 3.715 0 1.657-1.343 3-3 3z" fill="none" stroke="#000" stroke-linecap="round" stroke-linejoin="round"/></svg>