<svg height="24" viewBox="0 0 24 24" width="24" xmlns="http://www.w3.org/2000/svg"><path d="m18 19.5s-2.5-1.5-2.5-3.5c0-.5.25-1.5 1.25-1.5.75 0 1.25.5 1.25.5s.5-.5 1.25-.5c1 0 1.25.9117647 1.25 1.5 0 2-2.5 3.5-2.5 3.5zm-9.5-10v2m8 0c-.6666667-.6666667-1.6666667-1-3-1 .6666667-1 1.6666667-1.5 3-1.5m.432687 9.6759885c-1.5099134 1.1449685-3.3919184 1.8240115-5.432687 1.8240115-4.971 0-9-4.029-9-9s4.029-9 9-9 9 4.029 9 9c0 1.1216345-.2051221 2.1953105-.5799047 3.1855662m-7.9200953-2.1855662c1-.3333333 1.5-.1666667 1.5.5 0 .3333333-.3333333.8333333-1 1.5.6666667.6666667 1 1.1666667 1 1.5 0 .6666667-.5.8333333-1.5.5" fill="none" stroke="#000" stroke-linecap="round" stroke-linejoin="round"/></svg>