<svg height="24" viewBox="0 0 24 24" width="24" xmlns="http://www.w3.org/2000/svg"><path d="m8.5 8.5v2m6-2v2m-4.1948872 12.1266092.3708775-.3708776c.1057124-.1057124.2266324-.1948031.3588614-.2648067 1.6341238-.7544829 3.3004209-1.4364874 4.9942952-2.0449528l.6346283-.2273349c.324562-.1166726.4939141-.4748222.3768879-.7997377-.1166726-.324562-.4744686-.4935606-.7997377-.3768879l-2.7966073 1.0040916.483661-.3323402 2.6785205-1.8405989c.341179-.2344059.427446-.7018035.1930401-1.0429825-.2344059-.3411791-.7014499-.4277997-1.0426289-.1933938l-2.5250783 1.7352401c-.102177.0703571-.2096572.1325825-.3213801.1870297l-.225567.1103087c.0742462-.1004092.1534374-.1972875.2414722-.2853223l2.8588327-2.8588327c.2930958-.2930958.2931005-.7675597.0000048-1.0606555-.2927423-.2927422-.7675692-.2931005-1.060665-.0000047l-2.8588327 2.8588327c-.0972272.0972272-.2029349.1866809-.3146578.266584l-.1124299.0806102.1562706-.3259763c.0657609-.1364716.1435426-.2665792.2322845-.3885551l1.7790807-2.4437611c.2435983-.334815.1697056-.8039804-.1647559-1.0479322-.3351686-.2439519-.8043339-.1700592-1.0482858.1651094l-2.79519782 3.8402922-.27859533-.8365026c-.04914393-.1474318-.13187542-.2810749-.24183052-.39103l-.0098995-.0098995c-.48648946-.4864895-1.27455997-.4882573-1.76317549-.004601-.09934377.0986462-.10358641.2591594-.00459146.3581544l.39739401.397394c.08555992.0855599.13753227.1997576.14531044.3206729l.14955309 2.2376394c.00954594.1438962-.04384536.2849593-.14566873.3867827l-1.36981685 1.3698168m1.16459157-1.1648665c-3.03993528-1.4446354-5.14127721-4.5433234-5.14127721-8.1333155 0-4.971 4.029-9 9-9s9 4.029 9 9c0 2.9440596-1.4131977 5.5577066-3.598317 7.1996648" fill="none" stroke="#000" stroke-linecap="round" stroke-linejoin="round"/></svg>