<svg height="24" viewBox="0 0 24 24" width="24" xmlns="http://www.w3.org/2000/svg"><path d="m11.5 20.5c-4.971 0-9-4.029-9-9s4.029-9 9-9 9 4.029 9 9-4.029 9-9 9zm-4.5-7s-2.5-1.5-2.5-3.5c0-.5.25-1.5 1.25-1.5.75 0 1.25.5 1.25.5s.5-.5 1.25-.5c1 0 1.25.91176471 1.25 1.5 0 2-2.5 3.5-2.5 3.5zm8.0355339 2.5355339c-1.0355339.9644661-2.0355339 1.4644661-3.5355339 1.4644661m4.5-4s-2.5-1.5-2.5-3.5c0-.5.25-1.5 1.25-1.5.75 0 1.25.5 1.25.5s.5-.5 1.25-.5c1 0 1.25.91176471 1.25 1.5 0 2-2.5 3.5-2.5 3.5z" fill="none" stroke="#000" stroke-linecap="round" stroke-linejoin="round"/></svg>