<svg height="24" viewBox="0 0 24 24" width="24" xmlns="http://www.w3.org/2000/svg"><path d="m10.5 9.5c-.3333333-1.33333333-.83333333-2-1.5-2s-1.16666667.66666667-1.5 2m8 0c-.3333333-1.33333333-.8333333-2-1.5-2s-1.1666667.66666667-1.5 2m2.5355339 2.5355339c-1.9527932 1.9527932-5.11827458 1.9527932-7.07106781 0m-.69184726 10.7705269-.37087751-.3708775c-.10571247-.1057125-.22662892-.1948068-.35885789-.2648103-1.63412377-.754483-3.3004209-1.4364875-4.99429519-2.0449528l-.63462834-.2273349c-.32456201-.1166726-.49391409-.4748222-.37688791-.7997377.11667262-.3245621.47446865-.4935606.79973777-.376888l2.79660731 1.0040917-3.16218152-2.1729392c-.34117902-.2344059-.42744605-.7018034-.19304015-1.0429825.2344059-.341179.70144993-.4277996 1.04262895-.1933937l2.52507831 1.7352401c.10217693.0703571.20965716.1325825.32138003.1870297l.22556707.1103087c-.07424621-.1004092-.15344098-.197284-.24147577-.2853188l-2.85883272-2.8588327c-.29309576-.2930958-.29309695-.7675632-.00000119-1.060659.2927422-.2927422.7675656-.293097 1.06066136-.0000012l2.85883272 2.8588327c.06481812.0648181.13340695.1261798.20503389.1835606l.22205741.16363-.1562706-.3259762c-.06576093-.1364716-.14354268-.2665792-.23228458-.3885552l-1.77908066-2.443761c-.24359828-.3348151-.16970563-.8039804.16475588-1.0479322.33516862-.2439519.80433397-.1700592 1.04828581.1651094l2.7951943 3.8402957.27859887-.8365061c.03685794-.1105738.09260889-.2133916.16456806-.3042769l.08716196-.0966527c.48648946-.4864894 1.27455997-.4882572 1.763172-.0045973.0993473.0986425.1035899.2591558.004595.3581507l-.39739406.397394c-.08555992.08556-.13753227.1997577-.14531044.320673l-.14955309 2.2376394c-.00954594.1438962.04384182.2849628.14566519.3867862l1.3698168 1.3698168m4.6263353 1.8284272.3708775-.3708775c.1057124-.1057125.2266289-.1948068.3588579-.2648103 1.6341237-.754483 3.3004209-1.4364875 4.9942952-2.0449528l.6346283-.2273349c.324562-.1166726.4939141-.4748222.3768879-.7997377-.1166726-.3245621-.4744686-.4935606-.7997378-.376888l-2.7966073 1.0040917 3.1621816-2.1729392c.341179-.2344059.427446-.7018034.1930401-1.0429825-.2344059-.341179-.7014499-.4277996-1.0426289-.1933937l-2.5250784 1.7352401c-.1021769.0703571-.2096571.1325825-.32138.1870297l-.2255671.1103087c.0742463-.1004092.153441-.197284.2414758-.2853188l2.8588327-2.8588327c.2930958-.2930958.293097-.7675632.0000012-1.060659-.2927422-.2927422-.7675656-.293097-1.0606613-.0000012l-2.8588328 2.8588327c-.0648181.0648181-.1334069.1261798-.2050339.1835606l-.2220574.16363.1562706-.3259762c.065761-.1364716.1435427-.2665792.2322846-.3885552l1.7790807-2.443761c.2435983-.3348151.1697056-.8039804-.1647559-1.0479322-.3351686-.2439519-.804334-.1700592-1.0482858.1651094l-2.7951943 3.8402957-.2785989-.8365061c-.0368579-.1105738-.0926089-.2133916-.164568-.3042769l-.087162-.0966527c-.4864895-.4864894-1.27456-.4882572-1.763172-.0045973-.0993473.0986425-.1035899.2591558-.004595.3581507l.3973941.397394c.0855599.08556.1375322.1997577.1453104.320673l.1495531 2.2376394c.0095459.1438962-.0438418.2849628-.1456652.3867862l-1.3698168 1.3698168m-8.98512407-6.7715991c-.26886373-.8540718-.41383003-1.7631062-.41383003-2.7060345 0-4.971 4.029-9 9-9s9 4.029 9 9c0 .9429283-.1449663 1.8519627-.41383 2.7060345m-7.43917 6.0219655-2.218.077" fill="none" stroke="#000" stroke-linecap="round" stroke-linejoin="round"/></svg>