<svg height="24" viewBox="0 0 24 24" width="24" xmlns="http://www.w3.org/2000/svg"><path d="m11.5 20.5c-4.971 0-9-4.029-9-9s4.029-9 9-9 9 4.029 9 9-4.029 9-9 9zm0 0c-4.971 0-9-4.029-9-9s4.029-9 9-9 9 4.029 9 9-4.029 9-9 9zm-1-9c-.3333333-1.3333333-.83333333-2-1.5-2s-1.16666667.6666667-1.5 2m8 0c-.3333333-1.3333333-.8333333-2-1.5-2s-1.1666667.6666667-1.5 2m2.5355339 3.5355339c-1.9527932 1.9527932-5.11827458 1.9527932-7.07106781 0m3.53553391-8.5355339c4.9705627 0 9-1.11928813 9-2.5s-4.0294373-2.5-9-2.5c-4.97056275 0-9 1.11928813-9 2.5s4.02943725 2.5 9 2.5z" fill="none" stroke="#000" stroke-linecap="round" stroke-linejoin="round"/></svg>