<svg height="24" viewBox="0 0 24 24" width="24" xmlns="http://www.w3.org/2000/svg"><path d="m16.5 12.5c0 2-2 4.5-5 4.5s-5-2.5-5-4.5c1.66666667.3333333 3.33333333.5 5 .5 1.6666667 0 3.3333333-.1666667 5-.5zm-15 0c.35190936-.7038187 1.6852427-1.3704854 4-2-.70381873 2.3519094-1.37048539 3.6852427-2 4-.94427191.472136-2.52786404-.9442719-2-2zm20.0378553.0455931c-.3519094-.7038187-1.6852427-1.3704854-4-2l.1827621.5904359.1810766.5442245c.0600779.1737063.1198749.3397106.179391.4980131l.1777055.4518017.17602.4055903c.3795506.8287167.7472322 1.3320282 1.1030448 1.5099345.9442719.472136 2.527864-.9442719 2-2zm-1.5837477 2.0479021c-1.2612304 3.446922-4.5701377 5.9065048-8.4541076 5.9065048-3.88472215 0-7.19415898-2.4605357-8.45503069-5.9083272m-.54391242-2.9805054-.00105689-.1111674c0-4.971 4.029-9 9-9 4.8822321 0 8.8558068 3.8863919 8.9961633 8.7346152l.0028376.3555377m-9.9990009-2.0901529c-.3333333-.66666667-.83333333-1-1.5-1s-1.16666667.33333333-1.5 1m8 0c-.3333333-.66666667-.8333333-1-1.5-1s-1.1666667.33333333-1.5 1" fill="none" stroke="#000" stroke-linecap="round" stroke-linejoin="round"/></svg>