<svg height="24" viewBox="0 0 24 24" width="24" xmlns="http://www.w3.org/2000/svg"><path d="m11.5 2.5c-4.971 0-9 4.029-9 9s4.029 9 9 9 9-4.029 9-9-4.029-9-9-9zm.5 10c1-.3333333 1.5-.1666667 1.5.5 0 .3333333-.3333333.8333333-1 1.5.6666667.6666667 1 1.1666667 1 1.5 0 .6666667-.5.8333333-1.5.5m-1.5-7c-.3333333-.66666667-.83333333-1-1.5-1s-1.16666667.33333333-1.5 1m8 0c-.3333333-.66666667-.8333333-1-1.5-1s-1.1666667.33333333-1.5 1" fill="none" stroke="#000" stroke-linecap="round" stroke-linejoin="round"/></svg>