<svg height="24" viewBox="0 0 24 24" width="24" xmlns="http://www.w3.org/2000/svg"><path d="m10.5 10.5c-.3333333-1.33333333-.83333333-2-1.5-2s-1.16666667.66666667-1.5 2m8 0c-.3333333-1.33333333-.8333333-2-1.5-2s-1.1666667.66666667-1.5 2m2.5355339 3.5355339c-1.9527932 1.9527932-5.11827458 1.9527932-7.07106781 0m11.03553391-6.5355339s-2.5-1.5-2.5-3.5c0-.5.25-1.5 1.25-1.5.75 0 1.25.5 1.25.5s.5-.5 1.25-.5c1 0 1.25.91176471 1.25 1.5 0 2-2.5 3.5-2.5 3.5zm-1 14s-2.5-1.5-2.5-3.5c0-.5.25-1.5 1.25-1.5.75 0 1.25.5 1.25.5s.5-.5 1.25-.5c1 0 1.25.9117647 1.25 1.5 0 2-2.5 3.5-2.5 3.5zm-14-2s-2.5-1.5-2.5-3.5c0-.5.25-1.5 1.25-1.5.75 0 1.25.5 1.25.5s.5-.5 1.25-.5c1 0 1.25.9117647 1.25 1.5 0 2-2.5 3.5-2.5 3.5zm15.4148089-12.2834338c.6927647 1.27238193 1.0851911 2.73203226 1.0851911 4.2834338 0 1.8607109-.5645046 3.5894377-1.5316157 5.0242825m-3.091318 2.8417239c-1.2948106.7221756-2.7877959 1.1339936-4.3770663 1.1339936-2.2988966 0-4.39632698-.8616852-5.98696522-2.2797296m-2.49178078-3.6984308c-.33792227-.9439316-.521254-1.9614537-.521254-3.0218396 0-4.971 4.029-9 9-9 1.8508952 0 3.5711952.55856457 5.0015506 1.51634418" fill="none" stroke="#000" stroke-linecap="round" stroke-linejoin="round"/></svg>