<svg height="24" viewBox="0 0 24 24" width="24" xmlns="http://www.w3.org/2000/svg"><path d="m16.5 12.5c0 2-2 4.5-5 4.5s-5-2.5-5-4.5c1.66666667.3333333 3.33333333.5 5 .5 1.6666667 0 3.3333333-.1666667 5-.5zm-6-3c-.3333333-1.33333333-.83333333-2-1.5-2s-1.16666667.66666667-1.5 2m8 0c-.3333333-1.33333333-.8333333-2-1.5-2s-1.1666667.66666667-1.5 2m6 0c-1 0-2-.5-2-2 0-1 .6666667-2.33333333 2-4 1.3333333 1.66666667 2 3 2 4 0 1.5-1 2-2 2zm1.5987603-.66626538c.2605451.84129709.4012397 1.73733368.4012397 2.66626538 0 4.971-4.029 9-9 9s-9-4.029-9-9 4.029-9 9-9c2.3225964 0 4.4395512.87954329 6.0359978 2.3237633" fill="none" stroke="#000" stroke-linecap="round" stroke-linejoin="round"/></svg>