<svg height="24" viewBox="0 0 24 24" width="24" xmlns="http://www.w3.org/2000/svg"><path d="m16.4497475 9.37867966c1.4142135 1.41421354 1.7677669 4.59619404-.3535534 6.71751444-2.1213204 2.1213203-5.3033009 1.7677669-6.71751444.3535534 1.41421354-.9428091 2.71057604-2.0034692 3.88908734-3.1819805s2.2391714-2.4748738 3.1819805-3.88908734zm-8.48528141 4.94974744.70710679-2.8284271-2.82842713.7071068m8.48528135-4.24264071-2.8284271.70710679.7071068-2.82842713m-7.07106783 13.43502885c-.19474239-.5842272.05164644-1.5774055.73916648-2.9795349l.24551154-.4825228c.04364163-.0829449.08864477-.1671519.13500942-.2526212l.29452612-.5279618.28826888.5467336c.95384316 1.8542979 1.32915805 3.086267 1.12594468 3.6959071-.33385053 1.0015516-2.45517087 1.1197687-2.82842712 0zm14.16890333-14.16890334c-.7465125-.2488375-2.160726.22256702-4.2426407 1.41421356l.5467336.28826888c1.8542979.95384316 3.086267 1.32915805 3.6959071 1.12594468 1.0015516-.33385053 1.1197687-2.45517088 0-2.82842712zm.3604459 2.60020331c1.5455174 3.32916653.9449543 7.40810503-1.8014272 10.15448643-2.7469133 2.7469134-6.8269 3.3471772-10.15642777 1.8007913m-2.4921397-1.7229314-.07935456-.0778599c-3.51502781-3.5150278-3.51502781-9.21289422 0-12.72792203 3.45225945-3.45225946 9.01009503-3.51390695 12.53755373-.18494247l.2534096.24939665" fill="none" stroke="#000" stroke-linecap="round" stroke-linejoin="round"/></svg>