<svg height="24" viewBox="0 0 24 24" width="24" xmlns="http://www.w3.org/2000/svg"><path d="m17.5 11.5c0 3.314-2.686 6-6 6s-6-2.686-6-6m5-2c-.3333333-1.33333333-.83333333-2-1.5-2s-1.16666667.66666667-1.5 2m8 0c-.3333333-1.33333333-.8333333-2-1.5-2s-1.1666667.66666667-1.5 2m4.4698833 4.4696578 2.0301167 2.0303422c.8284271.8284271.8284271 2.1715729 0 3s-2.1715729.8284271-3 0l-2.0303422-2.0301167m2.2304944 2.206826c-1.3669674.8391449-2.9769619 1.3232907-4.7001522 1.3232907-4.971 0-9-4.029-9-9s4.029-9 9-9 9 4.029 9 9c0 1.7231903-.4841458 3.3331848-1.3238481 4.7013944m-2.1761519.7986056-1-1" fill="none" stroke="#000" stroke-linecap="round" stroke-linejoin="round"/></svg>