<svg height="24" viewBox="0 0 24 24" width="24" xmlns="http://www.w3.org/2000/svg"><path d="m8.5 8.5v2m6-2v2m.7499983 12.25v-.5245c0-.1495.0220034-.2985.0665034-.4415l.5015-1.361c.286-.776.4319966-1.5965.4319966-2.423 0-.414-.3354966-.75-.7499966-.75-.091 0-.177.0185-.258.0485-.039-.447-.41-.7985-.867-.7985-.2305 0-.4385.091-.5945.2365-.144-.2875-.4375-.4865-.7805-.4865-.3205 0-.5975.174-.7500034.4305v-2.6805c0-.414-.3354966-.75-.7499966-.75s-.7500034.336-.7500034.75v5.25l-.78899661-.3945c-.1385-.0695-.292-.1055-.447-.1055h-.014c-.688 0-1.2465.556-1.25000337 1.2435-.00049663.14.11000337.2565.25000337.2565h.562c.121 0 .2385.044.3295.1235l1.68800001 1.477c.108.095.1704966.232.1704966.3765v.523m-2.99583059-2.8530157c-3.36599328-1.3010042-5.75416771-4.5698108-5.75416771-8.3969843 0-4.971 4.029-9 9-9s9 4.029 9 9c0 3.2722104-1.7457907 6.1362463-4.3568729 7.7116086" fill="none" stroke="#000" stroke-linecap="round" stroke-linejoin="round"/></svg>