<svg height="24" viewBox="0 0 24 24" width="24" xmlns="http://www.w3.org/2000/svg"><path d="m11.0125593 23.4800746.3708776-.3708775c.1057124-.1057125.2266324-.1955103.3592149-.2651603l1.3169864-.6077583c.7509474-.3464823 1.4343614-.8234306 2.0187851-1.4078543.2927422-.2927422.2931005-.7675597.0000048-1.0606555-.0643467-.0643467-.1382394-.1120764-.2167283-.1481388.2884996-.3436539.274711-.8545386-.0484368-1.1776864-.1629881-.1629881-.374413-.2457196-.5876057-.2531442.1014698-.3051166.0346482-.6533667-.2078894-.8959043-.2266277-.2266277-.5455329-.2994597-.8347443-.2259253l1.8953997-1.8953998c.2927422-.2927422.2931005-.7675596.0000048-1.0606554-.2930958-.2930958-.7679227-.2927469-1.0606649-.0000047l-3.7123106 3.7123106-.2789489-.8368562c-.04879039-.1470782-.13187544-.2810749-.24147699-.3906765l-.00989949-.0098995c-.48648947-.4864894-1.27455998-.4882572-1.7631755-.0046009-.09934377.0986461-.10358641.2591594-.00459146.3581543l.39739401.397394c.08555992.0855599.13753227.1997577.145664.3203194l.14919953 2.237993c.00919239.1435426-.0434918.2846057-.14566873.3867826l-1.36981684 1.3698169m1.31586777-11.1516475v1m1-2.5c-.66666667-.33333333-1.16666667-.5-1.5-.5-.66666667 0-1.16666667.33333333-1.5 1m8 0v2m-1-5c.6666667-.33333333 1.1666667-.5 1.5-.5.6666667 0 1.1666667.33333333 1.5 1m-7.8148249 13.0509749c-3.59320785-1.182739-6.1851751-4.5638496-6.1851751-8.5509749 0-4.971 4.029-9 9-9s9 4.029 9 9c0 3.7015034-2.2339119 6.8807071-5.4272358 8.2631115" fill="none" stroke="#000" stroke-linecap="round" stroke-linejoin="round"/></svg>