<svg height="24" viewBox="0 0 24 24" width="24" xmlns="http://www.w3.org/2000/svg"><path d="m5.5 12.5c.66666667-.6666667 1.66666667-1 3-1-.66666667-1-1.66666667-1.5-3-1.5m9 2.5c1.6568542 0 3-1.3431458 3-3 0-1.65685425-1.3431458-3-3-3s-3 1.34314575-3 3c0 1.6568542 1.3431458 3 3 3zm0-3.5v1m-3 7v2.5m-1.83970451-2.2596264c.53311031-.1602491 1.14634511-.2403736 1.83970451-.2403736s1.3065942.0801245 1.8397045.2403736c.3941342.1162328.6760747.4625312.7113209.8719311l.1998382 2.398058c.126605 1.51926-1.002365 2.8534972-2.521625 2.9801022-.0762477.006354-.1527266.0095351-.2292386.0095351-1.52452607 0-2.76039864-1.2358726-2.76039864-2.7603986 0-.076512.0031811-.152991.00953508-.2292387l.19983817-2.398058c.03524616-.4093999.31718667-.7556983.71132088-.8719311zm-.87535841 2.8429772c-3.6438227-1.1513596-6.28493708-4.5586024-6.28493708-8.5833508 0-4.971 4.029-9 9-9s9 4.029 9 9c0 4.0247814-2.6411577 7.4320471-6.2850266 8.5833508m-5.28365068-1.769574c-1.51801952-.8824109-2.43132272-2.4622568-2.43132272-3.8137768h10c0 1.3515742-.9133764 2.9314925-2.4315052 3.8138829" fill="none" stroke="#000" stroke-linecap="round" stroke-linejoin="round"/></svg>