<svg height="24" viewBox="0 0 24 24" width="24" xmlns="http://www.w3.org/2000/svg"><path d="m15.3890873 15.3890873 1.7677669 1.7677669m-2.9005061-.2935019c.2637378-.4914217.6413175-.9828433 1.1327392-1.474265.49143-.49143.98286-.8690142 1.47429-1.1327526.3617513-.1941378.8054083-.1474488 1.1188186.1177445l1.834247 1.5520551c1.1638023.9847558 1.3089481 2.7265063.3241923 3.8903086-.0494223.0584082-.1012517.1147363-.1553538.1688385-1.0780028 1.0780027-2.8257905 1.0780027-3.9037932 0l-.0794319-.0828045-1.6280088-1.9203185c-.2651507-.313428-.3118368-.7570705-.1176994-1.1188061zm1.3931581 2.6258327c-3.3907059 1.7624375-7.66754036 1.2207029-10.51346723-1.625224-3.51502781-3.5150278-3.51502781-9.21289422 0-12.72792203s9.21289423-3.51502781 12.72792203 0c2.8459502 2.84595019 3.3876704 7.12283133 1.6251606 10.51353053m-4.9873829 2.4848274c-1.6973607.4494431-3.4602833-.0218737-4.4159523-.9775427 0 0 7.0710678-7.0710678 7.0710678-7.0710678.9557073.9557073 1.4270236 2.7187329.9774887 4.4161563m-4.5130226-4.88062236c1.1715729-1.17157287 1.1715729-3.07106781 0-4.24264068-1.1715728-1.17157288-3.0710678-1.17157288-4.24264064 0-1.17157288 1.17157287-1.17157288 3.07106781 0 4.24264068 1.17157284 1.17157286 3.07106784 1.17157286 4.24264064 0zm-3.1213203-3.12132034c.3333333.33333333.5.5.5.5zm-.58578644 8.4142136c.78104854-.7810486.78104854-2.0473786 0-2.8284272-.78104858-.7810485-2.04737854-.7810485-2.82842712 0-.78104859.7810486-.78104859 2.0473786 0 2.8284272.78104858.7810485 2.04737854.7810485 2.82842712 0zm-1.41421356-1.4142136c.33333333.3333333.5.5.5.5" fill="none" stroke="#000" stroke-linecap="round" stroke-linejoin="round"/></svg>