<svg height="24" viewBox="0 0 24 24" width="24" xmlns="http://www.w3.org/2000/svg"><path d="m18.5 3.5h-14c-.553 0-1 .448-1 1v14c0 .552.447 1 1 1h14c.553 0 1-.448 1-1v-14c0-.552-.447-1-1-1zm-15 3h16m-13-5v3m5-3v3m5-3v3m-3.766 8.4355.1545.6933399c.0705.3180613.262.5850756.523.7320458l.7655.4291302c.5225.2928183.9045.8274081 1.046 1.4629696l.277 1.2425145m-8 0 .277-1.2425145c.1415-.6355615.5235-1.1701513 1.046-1.4629696l.7655-.4291302c.261-.1469702.4525-.4139845.523-.7320458l.1545-.6933399m3.234-2.1855v-.25c0-1.1045-.8955-2-2-2s-2 .8955-2 2v.25c0 1.1015.519 2.139 1.4 2.8.3555.2665.8445.2665 1.2 0 .881-.661 1.4-1.6985 1.4-2.8z" fill="none" stroke="#000" stroke-linecap="round" stroke-linejoin="round"/></svg>