<svg height="24" viewBox="0 0 24 24" width="24" xmlns="http://www.w3.org/2000/svg"><path d="m9.60266192 11.646295.89894148-.8989414-1.3484122-2.2473536-1.30542689.52217076c-.61019186.24409566-.95554091.89253671-.81754858 1.53509014.30318773 1.4117764 1.16066979 2.8235528 2.57244619 4.2353292 1.41178478 1.4117848 2.82356958 2.2692686 4.23535438 2.5724516.6425558.1379729 1.2909939-.2073764 1.5350726-.8175732l.5221631-1.3054077-2.2473536-1.3484122-.8989414.8989415c-.5992943-.2996472-1.1985886-.7491179-1.7978829-1.3484122s-1.04876504-1.1985886-1.34841218-1.7978829zm8.89733808-8.146295h-14c-.553 0-1 .448-1 1v14c0 .552.447 1 1 1h14c.553 0 1-.448 1-1v-14c0-.552-.447-1-1-1zm-15 3h16m-13-5v3m5-3v3m5-3v3" fill="none" stroke="#000" stroke-linecap="round" stroke-linejoin="round"/></svg>