<svg height="24" viewBox="0 0 24 24" width="24" xmlns="http://www.w3.org/2000/svg"><path d="m18.5 3.5h-14c-.553 0-1 .448-1 1v14c0 .552.447 1 1 1h14c.553 0 1-.448 1-1v-14c0-.552-.447-1-1-1zm-15 3h16m-13-5v3m5-3v3m5-3v3m-7.12132034 10.1213203 4.24264064-4.2426406m-4.1213203 6.1213203c1.1045695 0 2-.8954305 2-2s-.8954305-2-2-2-2 .8954305-2 2 .8954305 2 2 2zm4-4c1.1045695 0 2-.8954305 2-2s-.8954305-2-2-2-2 .8954305-2 2 .8954305 2 2 2z" fill="none" stroke="#000" stroke-linecap="round" stroke-linejoin="round"/></svg>