<svg height="24" viewBox="0 0 24 24" width="24" xmlns="http://www.w3.org/2000/svg"><path d="m7 2.5h9c.8284271 0 1.5.67157288 1.5 1.5v15c0 .8284271-.6715729 1.5-1.5 1.5h-9c-.82842712 0-1.5-.6715729-1.5-1.5v-15c0-.82842712.67157288-1.5 1.5-1.5zm3.5 16h2zm0-14h2zm2.949541 9.2802686c-.2773121.2373152-.5984265.4249245-.949541.5490257v1.1707057h-2v-1.1707057c-.3511145-.1241012-.67222887-.3117105-.94954102-.5490257l-1.0145606.5857568-1-1.7320508 1.01412339-.5855044c-.03285189-.1778213-.05002177-.3611406-.05002177-.5484702s.01716988-.3706489.05002177-.5484702l-1.01412339-.5855044 1-1.7320508 1.0145606.58575683c.27731215-.23731526.59842652-.42492457.94954102-.54902572v-1.17070571h2v1.17070571c.3511145.12410115.6722289.31171046.949541.54902572l1.0145606-.58575683 1 1.7320508-1.0141234.5855044c.0328519.1778213.0500218.3611406.0500218.5484702s-.0171699.3706489-.0500218.5484702l1.0141234.5855044-1 1.7320508zm-1.449541-2.2802686c0 .276-.2235.5-.5.5s-.5-.224-.5-.5.2235-.5.5-.5.5.224.5.5z" fill="none" stroke="#000" stroke-linecap="round" stroke-linejoin="round"/></svg>