<svg height="24" viewBox="0 0 24 24" width="24" xmlns="http://www.w3.org/2000/svg"><path d="m7 2.5h9c.8284271 0 1.5.67157288 1.5 1.5v15c0 .8284271-.6715729 1.5-1.5 1.5h-9c-.82842712 0-1.5-.6715729-1.5-1.5v-15c0-.82842712.67157288-1.5 1.5-1.5zm3.5 16h2zm0-14h2zm1.5 10c0-.276-.224-.5-.5-.5s-.5.224-.5.5.224.5.5.5.5-.224.5-.5zm1.6213203-2.1213203c-1.1715728-1.1715729-3.0710678-1.1715729-4.24264064 0m5.65685424-1.4142136c-1.9526215-1.95262146-5.11844635-1.95262146-7.07106781 0" fill="none" stroke="#000" stroke-linecap="round" stroke-linejoin="round"/></svg>