<svg height="24" viewBox="0 0 24 24" width="24" xmlns="http://www.w3.org/2000/svg"><path d="m7 2.5h9c.8284271 0 1.5.67157288 1.5 1.5v15c0 .8284271-.6715729 1.5-1.5 1.5h-9c-.82842712 0-1.5-.6715729-1.5-1.5v-15c0-.82842712.67157288-1.5 1.5-1.5zm3.5 16h2zm0-14h2zm1.00001 3v4m2.8285254-2.82846536c1.5624195 1.56241956 1.5624195 4.09525116 0 5.65687066-1.5624196 1.5624196-4.0952512 1.5624196-5.65687075 0-1.56241953-1.5616195-1.56241953-4.0944511 0-5.65687066" fill="none" stroke="#000" stroke-linecap="round" stroke-linejoin="round"/></svg>