<svg height="24" viewBox="0 0 24 24" width="24" xmlns="http://www.w3.org/2000/svg"><path d="m7 16.5c0-1.3808333 2.0145-2.5 4.5-2.5s4.5 1.1191667 4.5 2.5-9 1.3808333-9 0zm1.5-7v2m6-2v2m-4.5-5.5c-.66666667 1-1.66666667 1.5-3 1.5m6-1.5c.6666667 1 1.6666667 1.5 3 1.5m-11.5 2c1 0 2-.5 2-2 0-1-.66666667-2.33333333-2-4-1.33333333 1.66666667-2 3-2 4 0 1.5 1 2 2 2zm-1.59876027-.66626538c-.26054517.84129709-.40123973 1.73733368-.40123973 2.66626538 0 4.971 4.029 9 9 9s9-4.029 9-9-4.029-9-9-9c-2.32259635 0-4.43955116.87954329-6.03599785 2.3237633" fill="none" stroke="#000" stroke-linecap="round" stroke-linejoin="round"/></svg>