<svg height="24" viewBox="0 0 24 24" width="24" xmlns="http://www.w3.org/2000/svg"><path d="m14.3468938 14c-.9489646 0-.9489646.5-2.8468938.5-1.96846534 0-1.89792919-.5-2.84689379-.5-1.4234469 0-2.37241149 2.5-.9489646 2.5 1.8979292 0 2.37241149-.5 3.79585839-.5s1.8979292.5 3.7958584.5c1.4234469 0 .4744823-2.5-.9489646-2.5zm-7.3468938-2 2.5-1.5-2.5-1.5m9 3-2.5-1.5 2.5-1.5m-4.5 11.5c-4.971 0-9-4.029-9-9s4.029-9 9-9 9 4.029 9 9-4.029 9-9 9zm1.5-14.5c.6666667.66666667 1.6666667 1 3 1m-6-1c-.66666667.66666667-1.66666667 1-3 1" fill="none" stroke="#000" stroke-linecap="round" stroke-linejoin="round"/></svg>