<svg height="24" viewBox="0 0 24 24" width="24" xmlns="http://www.w3.org/2000/svg"><path d="m8.5 9.5v2m6-2v2m2.5-3c-.6666667-1-1.6666667-1.5-3-1.5m-8 1.5c.66666667-1 1.66666667-1.5 3-1.5m-1.5 12.5c1 0 2-.5 2-2 0-1-.66666667-2.3333333-2-4-1.33333333 1.6666667-2 3-2 4 0 1.5 1 2 2 2zm-1.87743746-1.1840681c-1.91262416-1.6505749-3.12256254-4.0918086-3.12256254-6.8159319 0-4.971 4.029-9 9-9s9 4.029 9 9-4.029 9-9 9c-1.4898605 0-2.89510463-.3619103-4.13262446-1.0026231m1.42801035-4.1303477.13179575-.0846387c1.92147496-1.1548199 4.45143676-.9037721 6.10835226.7531434" fill="none" stroke="#000" stroke-linecap="round" stroke-linejoin="round"/></svg>