<svg height="24" viewBox="0 0 24 24" width="24" xmlns="http://www.w3.org/2000/svg"><path d="m4.5 9.5c1 0 2-.5 2-2 0-1-.66666667-2.33333333-2-4-1.33333333 1.66666667-2 3-2 4 0 1.5 1 2 2 2zm-1.59876027-.66626538c-.26054517.84129709-.40123973 1.73733368-.40123973 2.66626538 0 4.971 4.029 9 9 9s9-4.029 9-9-4.029-9-9-9c-2.32259635 0-4.43955116.87954329-6.03599785 2.3237633m7.53599785 11.4262367c-.3333333-.3333333-.8333333-.5-1.5-.5s-1.1666667.1666667-1.5.5m-3.5-3.75c.33333333-.3333333.83333333-.5 1.5-.5s1.16666667.1666667 1.5.5m4 0c.3333333-.3333333.8333333-.5 1.5-.5s1.1666667.1666667 1.5.5" fill="none" stroke="#000" stroke-linecap="round" stroke-linejoin="round"/></svg>