<svg height="24" viewBox="0 0 24 24" width="24" xmlns="http://www.w3.org/2000/svg"><path d="m15.5 14.5c1.6568542 0 3-1.3431458 3-3 0-1.65685425-1.3431458-3-3-3s-3 1.34314575-3 3c0 1.6568542 1.3431458 3 3 3zm-8 0c1.65685425 0 3-1.3431458 3-3 0-1.65685425-1.34314575-3-3-3s-3 1.34314575-3 3c0 1.6568542 1.34314575 3 3 3zm4 6c-4.971 0-9-4.029-9-9s4.029-9 9-9 9 4.029 9 9-4.029 9-9 9zm1-4h-2m-3-5.5v1m8-1v1m2.5-4.5c-.6666667-1-1.6666667-1.5-3-1.5m-10 1.5c.66666667-1 1.66666667-1.5 3-1.5" fill="none" stroke="#000" stroke-linecap="round" stroke-linejoin="round"/></svg>