<svg height="24" viewBox="0 0 24 24" width="24" xmlns="http://www.w3.org/2000/svg"><path d="m11.5 20.5c-4.971 0-9-4.029-9-9s4.029-9 9-9 9 4.029 9 9-4.029 9-9 9zm-1.5-14.5c-.66666667 1-1.66666667 1.5-3 1.5m6-1.5c.6666667 1 1.6666667 1.5 3 1.5m-1.4987101 9.7950735c-1.6652111.3207717-4.3381639.3207353-6.00314638-.0001091m.00042097-2.657758c.79627452-.3962494 1.84815181-.6372064 3.00143551-.6372064 1.1530971 0 2.2048205.240879 3.0010488.637014m-6.00030726-4.83361903-.00134593 10.18438163m-3.0011843-1.7807505.00043713-8.40335667m11.99956286 8.40335667.0004371-8.40335667m-7.9986484.69633057c-.66666667-.66666667-1.5-1-2.5-1s-1.83333333.33333333-2.5 1m10.0007415-.69660503-.0013459 10.18438163m4.0006044-9.4877766c-.6666667-.66666667-1.5-1-2.5-1s-1.8333333.33333333-2.5 1" fill="none" stroke="#000" stroke-linecap="round" stroke-linejoin="round"/></svg>