<svg height="24" viewBox="0 0 24 24" width="24" xmlns="http://www.w3.org/2000/svg"><path d="m13.3786797 9.37867966c-1.1715729 1.17157284-1.1715729 3.07106784 0 4.24264064 1.1715728 1.1715729 3.0710678 1.1715729 4.2426406 0 1.1715729-1.1715728 1.1715729-3.0710678 0-4.24264064-1.1715728-1.17157288-3.0710678-1.17157288-4.2426406 0zm0 0c-.7810486.78104854-.7810486 2.04737854 0 2.82842714.7810485.7810486 2.0473785.7810486 2.8284271 0s.7810486-2.0473786 0-2.82842714c-.7810486-.78104859-2.0473786-.78104859-2.8284271 0zm-8.00000004 4.24264064c1.17157287 1.1715729 3.07106781 1.1715729 4.24264068 0 1.17157286-1.1715728 1.17157286-3.0710678 0-4.24264064-1.17157287-1.17157288-3.07106781-1.17157288-4.24264068 0-1.17157288 1.17157284-1.17157288 3.07106784 0 4.24264064zm1.41421356-1.4142135c.78104858.7810486 2.04737854.7810486 2.82842712 0 .78104856-.7810486.78104856-2.0473786 0-2.82842714-.78104858-.78104859-2.04737854-.78104859-2.82842712 0-.78104858.78104854-.78104858 2.04737854 0 2.82842714zm4.70710678 8.2928932c-4.971 0-9-4.029-9-9s4.029-9 9-9 9 4.029 9 9-4.029 9-9 9zm-2.5-14.5c-.66666667 1-1.66666667 1.5-3 1.5m8-1.5c.6666667 1 1.6666667 1.5 3 1.5m-4 9c-.3333333-.3333333-.8333333-.5-1.5-.5s-1.1666667.1666667-1.5.5" fill="none" stroke="#000" stroke-linecap="round" stroke-linejoin="round"/></svg>