<svg height="24" viewBox="0 0 24 24" width="24" xmlns="http://www.w3.org/2000/svg"><path d="m11.5 18.5c-1.1046667 0-2-1.343-2-3s.8953333-3 2-3 2 1.343 2 3-.8953333 3-2 3zm-8.80675583-5.134345c-.12649425-.601584-.19324417-1.2258163-.19324417-1.865655 0-4.971 4.029-9 9-9s9 4.029 9 9c0 .6398387-.0667499 1.264071-.1936669 1.8661139m-4.7646308 6.1762325c-1.2145332.6130157-2.5878287.9576536-4.0417023.9576536s-2.82716907-.3446379-4.0426567-.9566838m-1.38091937-7.8158286c-1.13490971-.6583713-1.4174675-2.30107039-.63117899-3.66946937s2.34342141-1.94387708 3.47833113-1.28550582c1.13490973.65837127 1.41746753 2.30107038.63117899 3.66946939-.78628851 1.3683989-2.34342141 1.9438771-3.47833113 1.2855058zm10.84715217 0c1.1349097-.6583713 1.4174675-2.30107039.631179-3.66946937-.7862886-1.36839898-2.3434215-1.94387708-3.4783312-1.28550582-1.1349097.65837127-1.4174675 2.30107038-.631179 3.66946939.7862886 1.3683989 2.3434215 1.9438771 3.4783312 1.2855058zm-14.4235761 1.7725124c1-1 5 1.5 5 7l-.10538819.0950221-.12784796.1032286c-.37900875.2915452-1.19533528.8017493-2.26676385.8017493-1 0-1.77777778-.4444444-2.18518519-.7407407l-.15149551-.1161862-.1633193-.1430731c.75-1.75.5-3.25.1875-4.4375l-.11136271-.4060401-.15673977-.5590652c-.18929371-.7046611-.2723387-1.2444535.08060248-1.5973947zm18 0c-1-1-5 1.5-5 7l.1053882.0950221.127848.1032286c.3790087.2915452 1.1953352.8017493 2.2667638.8017493 1 0 1.7777778-.4444444 2.1851852-.7407407l.1514955-.1161862.1633193-.1430731c-.75-1.75-.5-3.25-.1875-4.4375l.1113627-.4060401.1567398-.5590652c.1892937-.7046611.2723387-1.2444535-.0806025-1.5973947z" fill="none" stroke="#000" stroke-linecap="round" stroke-linejoin="round"/></svg>