<svg height="24" viewBox="0 0 24 24" width="24" xmlns="http://www.w3.org/2000/svg"><path d="m11.5 20.5c-4.971 0-9-4.029-9-9s4.029-9 9-9 9 4.029 9 9-4.029 9-9 9zm-1.5-7-6.5 4m9.5-2c-.3333333-.3333333-.8333333-.5-1.5-.5s-1.1666667.1666667-1.5.5m-8 .5c-.33333333.3333333-.5.8333333-.5 1.5s.5 1.1666667 1.5 1.5c-.66666667 1-.66666667 1.8333333 0 2.5s1.5.8333333 2.5.5m15.5-6c.3333333.3333333.5.8333333.5 1.5s-.5 1.1666667-1.5 1.5c.6666667 1 .6666667 1.8333333 0 2.5s-1.5.8333333-2.5.5m-7.5-8.5-5 6.5m8-6.5 6.5 4m-6.5-4 5 6.5m-11.5-10c.33333333.3333333.83333333.5 1.5.5s1.16666667-.1666667 1.5-.5m4 0c.3333333.3333333.8333333.5 1.5.5s1.1666667-.1666667 1.5-.5m-.5-3.5c-.6666667 1-1.6666667 1.5-3 1.5m-6-1.5c.66666667 1 1.66666667 1.5 3 1.5" fill="none" stroke="#000" stroke-linecap="round" stroke-linejoin="round"/></svg>