<svg height="24" viewBox="0 0 24 24" width="24" xmlns="http://www.w3.org/2000/svg"><path d="m1.5 12.5h20v8h-20zm5.41185 2.94115c0-.52-.632-.941-1.412-.941-.7795 0-1.4115.421-1.4115.941s.6585.7395 1.4115.941c.879.2355 1.647.4745 1.647 1.059s-.737 1.059-1.647 1.059c-.9095 0-1.647-.4745-1.647-1.059m1.64715-3.44115v5m9-4.5v2m-4.5-2-1 4m0-3h3.5m-4 2h3.5m0-3-1 4m8-4-2 4m-2.5-.5v.5m2.5-3c.2761424 0 .5-.2238576.5-.5s-.2238576-.5-.5-.5-.5.2238576-.5.5.2238576.5.5.5zm2 3c.2761424 0 .5-.2238576.5-.5s-.2238576-.5-.5-.5-.5.2238576-.5.5.2238576.5.5.5zm-10.5-10v2m6-2v2m-4.5-2.5c-.66666667-1-1.66666667-1.5-3-1.5m6 1.5c.6666667-1 1.6666667-1.5 3-1.5m-13.44499998 6.000773c-.03634241-.3285802-.05500002-.6624955-.05500002-1.000773 0-4.971 4.029-9 9-9s9 4.029 9 9c0 .3382775-.0186576.6721928-.055 1.000773" fill="none" stroke="#000" stroke-linecap="round" stroke-linejoin="round"/></svg>