<svg height="24" viewBox="0 0 24 24" width="24" xmlns="http://www.w3.org/2000/svg"><path d="m11.5 20.5c-4.971 0-9-4.029-9-9s4.029-9 9-9 9 4.029 9 9-4.029 9-9 9zm5-4.5c0-2-2-4.5-5-4.5s-5 2.5-5 4.5c1.66666667-.3333333 3.33333333-.5 5-.5 1.6666667 0 3.3333333.1666667 5 .5zm-10-6.5c.33333333-.33333333.83333333-.5 1.5-.5s1.16666667.16666667 1.5.5m4 0c.3333333-.33333333.8333333-.5 1.5-.5s1.1666667.16666667 1.5.5m-6.5-3.5c-.66666667 1-1.66666667 1.5-3 1.5m6-1.5c.6666667 1 1.6666667 1.5 3 1.5" fill="none" stroke="#000" stroke-linecap="round" stroke-linejoin="round"/></svg>