<svg height="24" viewBox="0 0 24 24" width="24" xmlns="http://www.w3.org/2000/svg"><path d="m19.5 12.5c0 4.418-3.582 8-8 8s-8-3.582-8-8 3.582-8 8-8 8 3.582 8 8zm-5 0h-3v-5m-8 13 2.343-2.343m11.3137-.0003 2.343 2.343m-.3088-10.2077c1.347-.487 2.309-1.777 2.309-3.292 0-1.933-1.567-3.5-3.5-3.5-1.309 0-2.45.718-3.05 1.782m-6.8996.0002c-.601-1.064-1.742-1.782-3.05-1.782-1.933 0-3.5 1.567-3.5 3.5 0 1.449.881 2.694 2.137 3.225" fill="none" stroke="#000" stroke-linecap="round" stroke-linejoin="round"/></svg>