<svg height="24" viewBox="0 0 24 24" width="24" xmlns="http://www.w3.org/2000/svg"><path d="m8.6719 10.3286c-1.562-1.562-1.562-4.095 0-5.657m5.6562-.0002c1.562 1.562 1.562 4.095 0 5.657m-7.7783 2.1213c-2.733-2.733-2.733-7.166 0-9.899m9.9004-.0004c2.733 2.733 2.733 7.166 0 9.899m-4.4502-4.9493c0-.276-.224-.5-.5-.5s-.5.224-.5.5.224.5.5.5.5-.224.5-.5zm-.6465.4771-3.854 12.523m8.0005-.0001-3.854-12.524m-4.146 12.524 5.622-7.729m-3.2431-.0029 5.621 7.732" fill="none" stroke="#000" stroke-linecap="round" stroke-linejoin="round"/></svg>