<svg height="24" viewBox="0 0 24 24" width="24" xmlns="http://www.w3.org/2000/svg"><path d="m11.5 20.5c-4.971 0-9-4.029-9-9s4.029-9 9-9 9 4.029 9 9-4.029 9-9 9zm4.5-16.79422863-3 5.19615242m-3 5.19615241-3 5.1961524m-3.29422863-3.2942286 5.19615242-3m5.19615241-3 5.1961524-3m-7.7942286 7.5c-1.657 0-3-1.343-3-3s1.343-3 3-3 3 1.343 3 3-1.343 3-3 3zm0-2.5c-.2761667 0-.5-.2238333-.5-.5s.2238333-.5.5-.5.5.2238333.5.5-.2238333.5-.5.5zm-2.32937141 8.1933324 1.55291431-5.7955549m1.5529142-5.79555498 1.5529143-5.79555496" fill="none" stroke="#000" stroke-linecap="round" stroke-linejoin="round"/></svg>