<svg height="24" viewBox="0 0 24 24" width="24" xmlns="http://www.w3.org/2000/svg"><path d="m19.5 19.5h-16c-.552 0-1-.448-1-1v-3c0-.552.448-1 1-1h16c.552 0 1 .448 1 1v3c0 .552-.448 1-1 1zm-17-3v-1.707c0-.194.028-.388.084-.574l2.702-9.006c.127-.423.516-.713.958-.713h10.512c.442 0 .831.29.958.713l2.702 9.006c.056.186.084.38.084.574v1.707m-2.5.5c0 .276-.224.5-.5.5s-.5-.224-.5-.5.224-.5.5-.5.5.224.5.5zm-3 0c0 .276-.224.5-.5.5s-.5-.224-.5-.5.224-.5.5-.5.5.224.5.5z" fill="none" stroke="#000" stroke-linecap="round" stroke-linejoin="round"/></svg>