<svg height="24" viewBox="0 0 24 24" width="24" xmlns="http://www.w3.org/2000/svg"><path d="m19.5 14.5h-16c-.552 0-1-.448-1-1v-3c0-.552.448-1 1-1h16c.552 0 1 .448 1 1v3c0 .552-.448 1-1 1zm0 5h-16c-.552 0-1-.448-1-1v-3c0-.552.448-1 1-1h16c.552 0 1 .448 1 1v3c0 .552-.448 1-1 1zm0-10h-16c-.552 0-1-.448-1-1v-3c0-.552.448-1 1-1h16c.552 0 1 .448 1 1v3c0 .552-.448 1-1 1zm-1.5 2.5c0 .276-.224.5-.5.5s-.5-.224-.5-.5.224-.5.5-.5.5.224.5.5zm0-5c0 .276-.224.5-.5.5s-.5-.224-.5-.5.224-.5.5-.5.5.224.5.5zm0 10c0 .276-.224.5-.5.5s-.5-.224-.5-.5.224-.5.5-.5.5.224.5.5zm-3-5c0 .276-.224.5-.5.5s-.5-.224-.5-.5.224-.5.5-.5.5.224.5.5zm0-5c0 .276-.224.5-.5.5s-.5-.224-.5-.5.224-.5.5-.5.5.224.5.5zm0 10c0 .276-.224.5-.5.5s-.5-.224-.5-.5.224-.5.5-.5.5.224.5.5z" fill="none" stroke="#000" stroke-linecap="round" stroke-linejoin="round"/></svg>