<svg height="24" viewBox="0 0 24 24" width="24" xmlns="http://www.w3.org/2000/svg"><path d="m11.5 16.5c-3.86633333 0-7-3.1336667-7-7 0-3.86633333 3.13366667-7 7-7 3.8663333 0 7 3.13366667 7 7 0 3.8663333-3.1336667 7-7 7zm4.3301593-1.4994352c1.6260355 1.2806286 2.6698407 3.2680085 2.6698407 5.4994352h-14c0-2.2314267 1.04380518-4.2188066 2.66984069-5.5005648m4.33015931-2.4994352c-1.657 0-3-1.343-3-3s1.343-3 3-3 3 1.343 3 3-1.343 3-3 3zm-1-3c0-.55233333.4476667-1 1-1" fill="none" stroke="#000" stroke-linecap="round" stroke-linejoin="round"/></svg>